<?xml version="1.0" encoding="utf-8" standalone="no"?>
<!DOCTYPE svg PUBLIC "-//W3C//DTD SVG 1.1//EN"
  "http://www.w3.org/Graphics/SVG/1.1/DTD/svg11.dtd">
<!-- Created with matplotlib (https://matplotlib.org/) -->
<svg height="345.6pt" version="1.1" viewBox="0 0 460.8 345.6" width="460.8pt" xmlns="http://www.w3.org/2000/svg" xmlns:xlink="http://www.w3.org/1999/xlink">
 <defs>
  <style type="text/css">
*{stroke-linecap:butt;stroke-linejoin:round;}
  </style>
 </defs>
 <g id="figure_1">
  <g id="patch_1">
   <path d="M 0 345.6 
L 460.8 345.6 
L 460.8 0 
L 0 0 
z
" style="fill:#ffffff;"/>
  </g>
  <g id="axes_1">
   <g id="patch_2">
    <path d="M 57.6 307.584 
L 414.72 307.584 
L 414.72 41.472 
L 57.6 41.472 
z
" style="fill:#ffffff;"/>
   </g>
   <g id="matplotlib.axis_1">
    <g id="xtick_1">
     <g id="line2d_1">
      <defs>
       <path d="M 0 0 
L 0 3.5 
" id="m947ebcf294" style="stroke:#000000;stroke-width:0.8;"/>
      </defs>
      <g>
       <use style="stroke:#000000;stroke-width:0.8;" x="57.6" xlink:href="#m947ebcf294" y="307.584"/>
      </g>
     </g>
     <g id="text_1">
      <!-- 0.0 -->
      <defs>
       <path d="M 31.78125 66.40625 
Q 24.171875 66.40625 20.328125 58.90625 
Q 16.5 51.421875 16.5 36.375 
Q 16.5 21.390625 20.328125 13.890625 
Q 24.171875 6.390625 31.78125 6.390625 
Q 39.453125 6.390625 43.28125 13.890625 
Q 47.125 21.390625 47.125 36.375 
Q 47.125 51.421875 43.28125 58.90625 
Q 39.453125 66.40625 31.78125 66.40625 
z
M 31.78125 74.21875 
Q 44.046875 74.21875 50.515625 64.515625 
Q 56.984375 54.828125 56.984375 36.375 
Q 56.984375 17.96875 50.515625 8.265625 
Q 44.046875 -1.421875 31.78125 -1.421875 
Q 19.53125 -1.421875 13.0625 8.265625 
Q 6.59375 17.96875 6.59375 36.375 
Q 6.59375 54.828125 13.0625 64.515625 
Q 19.53125 74.21875 31.78125 74.21875 
z
" id="DejaVuSans-48"/>
       <path d="M 10.6875 12.40625 
L 21 12.40625 
L 21 0 
L 10.6875 0 
z
" id="DejaVuSans-46"/>
      </defs>
      <g transform="translate(49.648438 322.182437)scale(0.1 -0.1)">
       <use xlink:href="#DejaVuSans-48"/>
       <use x="63.623047" xlink:href="#DejaVuSans-46"/>
       <use x="95.410156" xlink:href="#DejaVuSans-48"/>
      </g>
     </g>
    </g>
    <g id="xtick_2">
     <g id="line2d_2">
      <g>
       <use style="stroke:#000000;stroke-width:0.8;" x="129.024" xlink:href="#m947ebcf294" y="307.584"/>
      </g>
     </g>
     <g id="text_2">
      <!-- 0.2 -->
      <defs>
       <path d="M 19.1875 8.296875 
L 53.609375 8.296875 
L 53.609375 0 
L 7.328125 0 
L 7.328125 8.296875 
Q 12.9375 14.109375 22.625 23.890625 
Q 32.328125 33.6875 34.8125 36.53125 
Q 39.546875 41.84375 41.421875 45.53125 
Q 43.3125 49.21875 43.3125 52.78125 
Q 43.3125 58.59375 39.234375 62.25 
Q 35.15625 65.921875 28.609375 65.921875 
Q 23.96875 65.921875 18.8125 64.3125 
Q 13.671875 62.703125 7.8125 59.421875 
L 7.8125 69.390625 
Q 13.765625 71.78125 18.9375 73 
Q 24.125 74.21875 28.421875 74.21875 
Q 39.75 74.21875 46.484375 68.546875 
Q 53.21875 62.890625 53.21875 53.421875 
Q 53.21875 48.921875 51.53125 44.890625 
Q 49.859375 40.875 45.40625 35.40625 
Q 44.1875 33.984375 37.640625 27.21875 
Q 31.109375 20.453125 19.1875 8.296875 
z
" id="DejaVuSans-50"/>
      </defs>
      <g transform="translate(121.072438 322.182437)scale(0.1 -0.1)">
       <use xlink:href="#DejaVuSans-48"/>
       <use x="63.623047" xlink:href="#DejaVuSans-46"/>
       <use x="95.410156" xlink:href="#DejaVuSans-50"/>
      </g>
     </g>
    </g>
    <g id="xtick_3">
     <g id="line2d_3">
      <g>
       <use style="stroke:#000000;stroke-width:0.8;" x="200.448" xlink:href="#m947ebcf294" y="307.584"/>
      </g>
     </g>
     <g id="text_3">
      <!-- 0.4 -->
      <defs>
       <path d="M 37.796875 64.3125 
L 12.890625 25.390625 
L 37.796875 25.390625 
z
M 35.203125 72.90625 
L 47.609375 72.90625 
L 47.609375 25.390625 
L 58.015625 25.390625 
L 58.015625 17.1875 
L 47.609375 17.1875 
L 47.609375 0 
L 37.796875 0 
L 37.796875 17.1875 
L 4.890625 17.1875 
L 4.890625 26.703125 
z
" id="DejaVuSans-52"/>
      </defs>
      <g transform="translate(192.496438 322.182437)scale(0.1 -0.1)">
       <use xlink:href="#DejaVuSans-48"/>
       <use x="63.623047" xlink:href="#DejaVuSans-46"/>
       <use x="95.410156" xlink:href="#DejaVuSans-52"/>
      </g>
     </g>
    </g>
    <g id="xtick_4">
     <g id="line2d_4">
      <g>
       <use style="stroke:#000000;stroke-width:0.8;" x="271.872" xlink:href="#m947ebcf294" y="307.584"/>
      </g>
     </g>
     <g id="text_4">
      <!-- 0.6 -->
      <defs>
       <path d="M 33.015625 40.375 
Q 26.375 40.375 22.484375 35.828125 
Q 18.609375 31.296875 18.609375 23.390625 
Q 18.609375 15.53125 22.484375 10.953125 
Q 26.375 6.390625 33.015625 6.390625 
Q 39.65625 6.390625 43.53125 10.953125 
Q 47.40625 15.53125 47.40625 23.390625 
Q 47.40625 31.296875 43.53125 35.828125 
Q 39.65625 40.375 33.015625 40.375 
z
M 52.59375 71.296875 
L 52.59375 62.3125 
Q 48.875 64.0625 45.09375 64.984375 
Q 41.3125 65.921875 37.59375 65.921875 
Q 27.828125 65.921875 22.671875 59.328125 
Q 17.53125 52.734375 16.796875 39.40625 
Q 19.671875 43.65625 24.015625 45.921875 
Q 28.375 48.1875 33.59375 48.1875 
Q 44.578125 48.1875 50.953125 41.515625 
Q 57.328125 34.859375 57.328125 23.390625 
Q 57.328125 12.15625 50.6875 5.359375 
Q 44.046875 -1.421875 33.015625 -1.421875 
Q 20.359375 -1.421875 13.671875 8.265625 
Q 6.984375 17.96875 6.984375 36.375 
Q 6.984375 53.65625 15.1875 63.9375 
Q 23.390625 74.21875 37.203125 74.21875 
Q 40.921875 74.21875 44.703125 73.484375 
Q 48.484375 72.75 52.59375 71.296875 
z
" id="DejaVuSans-54"/>
      </defs>
      <g transform="translate(263.920438 322.182437)scale(0.1 -0.1)">
       <use xlink:href="#DejaVuSans-48"/>
       <use x="63.623047" xlink:href="#DejaVuSans-46"/>
       <use x="95.410156" xlink:href="#DejaVuSans-54"/>
      </g>
     </g>
    </g>
    <g id="xtick_5">
     <g id="line2d_5">
      <g>
       <use style="stroke:#000000;stroke-width:0.8;" x="343.296" xlink:href="#m947ebcf294" y="307.584"/>
      </g>
     </g>
     <g id="text_5">
      <!-- 0.8 -->
      <defs>
       <path d="M 31.78125 34.625 
Q 24.75 34.625 20.71875 30.859375 
Q 16.703125 27.09375 16.703125 20.515625 
Q 16.703125 13.921875 20.71875 10.15625 
Q 24.75 6.390625 31.78125 6.390625 
Q 38.8125 6.390625 42.859375 10.171875 
Q 46.921875 13.96875 46.921875 20.515625 
Q 46.921875 27.09375 42.890625 30.859375 
Q 38.875 34.625 31.78125 34.625 
z
M 21.921875 38.8125 
Q 15.578125 40.375 12.03125 44.71875 
Q 8.5 49.078125 8.5 55.328125 
Q 8.5 64.0625 14.71875 69.140625 
Q 20.953125 74.21875 31.78125 74.21875 
Q 42.671875 74.21875 48.875 69.140625 
Q 55.078125 64.0625 55.078125 55.328125 
Q 55.078125 49.078125 51.53125 44.71875 
Q 48 40.375 41.703125 38.8125 
Q 48.828125 37.15625 52.796875 32.3125 
Q 56.78125 27.484375 56.78125 20.515625 
Q 56.78125 9.90625 50.3125 4.234375 
Q 43.84375 -1.421875 31.78125 -1.421875 
Q 19.734375 -1.421875 13.25 4.234375 
Q 6.78125 9.90625 6.78125 20.515625 
Q 6.78125 27.484375 10.78125 32.3125 
Q 14.796875 37.15625 21.921875 38.8125 
z
M 18.3125 54.390625 
Q 18.3125 48.734375 21.84375 45.5625 
Q 25.390625 42.390625 31.78125 42.390625 
Q 38.140625 42.390625 41.71875 45.5625 
Q 45.3125 48.734375 45.3125 54.390625 
Q 45.3125 60.0625 41.71875 63.234375 
Q 38.140625 66.40625 31.78125 66.40625 
Q 25.390625 66.40625 21.84375 63.234375 
Q 18.3125 60.0625 18.3125 54.390625 
z
" id="DejaVuSans-56"/>
      </defs>
      <g transform="translate(335.344438 322.182437)scale(0.1 -0.1)">
       <use xlink:href="#DejaVuSans-48"/>
       <use x="63.623047" xlink:href="#DejaVuSans-46"/>
       <use x="95.410156" xlink:href="#DejaVuSans-56"/>
      </g>
     </g>
    </g>
    <g id="xtick_6">
     <g id="line2d_6">
      <g>
       <use style="stroke:#000000;stroke-width:0.8;" x="414.72" xlink:href="#m947ebcf294" y="307.584"/>
      </g>
     </g>
     <g id="text_6">
      <!-- 1.0 -->
      <defs>
       <path d="M 12.40625 8.296875 
L 28.515625 8.296875 
L 28.515625 63.921875 
L 10.984375 60.40625 
L 10.984375 69.390625 
L 28.421875 72.90625 
L 38.28125 72.90625 
L 38.28125 8.296875 
L 54.390625 8.296875 
L 54.390625 0 
L 12.40625 0 
z
" id="DejaVuSans-49"/>
      </defs>
      <g transform="translate(406.768438 322.182437)scale(0.1 -0.1)">
       <use xlink:href="#DejaVuSans-49"/>
       <use x="63.623047" xlink:href="#DejaVuSans-46"/>
       <use x="95.410156" xlink:href="#DejaVuSans-48"/>
      </g>
     </g>
    </g>
    <g id="text_7">
     <!-- False Positive Rate -->
     <defs>
      <path d="M 9.8125 72.90625 
L 51.703125 72.90625 
L 51.703125 64.59375 
L 19.671875 64.59375 
L 19.671875 43.109375 
L 48.578125 43.109375 
L 48.578125 34.8125 
L 19.671875 34.8125 
L 19.671875 0 
L 9.8125 0 
z
" id="DejaVuSans-70"/>
      <path d="M 34.28125 27.484375 
Q 23.390625 27.484375 19.1875 25 
Q 14.984375 22.515625 14.984375 16.5 
Q 14.984375 11.71875 18.140625 8.90625 
Q 21.296875 6.109375 26.703125 6.109375 
Q 34.1875 6.109375 38.703125 11.40625 
Q 43.21875 16.703125 43.21875 25.484375 
L 43.21875 27.484375 
z
M 52.203125 31.203125 
L 52.203125 0 
L 43.21875 0 
L 43.21875 8.296875 
Q 40.140625 3.328125 35.546875 0.953125 
Q 30.953125 -1.421875 24.3125 -1.421875 
Q 15.921875 -1.421875 10.953125 3.296875 
Q 6 8.015625 6 15.921875 
Q 6 25.140625 12.171875 29.828125 
Q 18.359375 34.515625 30.609375 34.515625 
L 43.21875 34.515625 
L 43.21875 35.40625 
Q 43.21875 41.609375 39.140625 45 
Q 35.0625 48.390625 27.6875 48.390625 
Q 23 48.390625 18.546875 47.265625 
Q 14.109375 46.140625 10.015625 43.890625 
L 10.015625 52.203125 
Q 14.9375 54.109375 19.578125 55.046875 
Q 24.21875 56 28.609375 56 
Q 40.484375 56 46.34375 49.84375 
Q 52.203125 43.703125 52.203125 31.203125 
z
" id="DejaVuSans-97"/>
      <path d="M 9.421875 75.984375 
L 18.40625 75.984375 
L 18.40625 0 
L 9.421875 0 
z
" id="DejaVuSans-108"/>
      <path d="M 44.28125 53.078125 
L 44.28125 44.578125 
Q 40.484375 46.53125 36.375 47.5 
Q 32.28125 48.484375 27.875 48.484375 
Q 21.1875 48.484375 17.84375 46.4375 
Q 14.5 44.390625 14.5 40.28125 
Q 14.5 37.15625 16.890625 35.375 
Q 19.28125 33.59375 26.515625 31.984375 
L 29.59375 31.296875 
Q 39.15625 29.25 43.1875 25.515625 
Q 47.21875 21.78125 47.21875 15.09375 
Q 47.21875 7.46875 41.1875 3.015625 
Q 35.15625 -1.421875 24.609375 -1.421875 
Q 20.21875 -1.421875 15.453125 -0.5625 
Q 10.6875 0.296875 5.421875 2 
L 5.421875 11.28125 
Q 10.40625 8.6875 15.234375 7.390625 
Q 20.0625 6.109375 24.8125 6.109375 
Q 31.15625 6.109375 34.5625 8.28125 
Q 37.984375 10.453125 37.984375 14.40625 
Q 37.984375 18.0625 35.515625 20.015625 
Q 33.0625 21.96875 24.703125 23.78125 
L 21.578125 24.515625 
Q 13.234375 26.265625 9.515625 29.90625 
Q 5.8125 33.546875 5.8125 39.890625 
Q 5.8125 47.609375 11.28125 51.796875 
Q 16.75 56 26.8125 56 
Q 31.78125 56 36.171875 55.265625 
Q 40.578125 54.546875 44.28125 53.078125 
z
" id="DejaVuSans-115"/>
      <path d="M 56.203125 29.59375 
L 56.203125 25.203125 
L 14.890625 25.203125 
Q 15.484375 15.921875 20.484375 11.0625 
Q 25.484375 6.203125 34.421875 6.203125 
Q 39.59375 6.203125 44.453125 7.46875 
Q 49.3125 8.734375 54.109375 11.28125 
L 54.109375 2.78125 
Q 49.265625 0.734375 44.1875 -0.34375 
Q 39.109375 -1.421875 33.890625 -1.421875 
Q 20.796875 -1.421875 13.15625 6.1875 
Q 5.515625 13.8125 5.515625 26.8125 
Q 5.515625 40.234375 12.765625 48.109375 
Q 20.015625 56 32.328125 56 
Q 43.359375 56 49.78125 48.890625 
Q 56.203125 41.796875 56.203125 29.59375 
z
M 47.21875 32.234375 
Q 47.125 39.59375 43.09375 43.984375 
Q 39.0625 48.390625 32.421875 48.390625 
Q 24.90625 48.390625 20.390625 44.140625 
Q 15.875 39.890625 15.1875 32.171875 
z
" id="DejaVuSans-101"/>
      <path id="DejaVuSans-32"/>
      <path d="M 19.671875 64.796875 
L 19.671875 37.40625 
L 32.078125 37.40625 
Q 38.96875 37.40625 42.71875 40.96875 
Q 46.484375 44.53125 46.484375 51.125 
Q 46.484375 57.671875 42.71875 61.234375 
Q 38.96875 64.796875 32.078125 64.796875 
z
M 9.8125 72.90625 
L 32.078125 72.90625 
Q 44.34375 72.90625 50.609375 67.359375 
Q 56.890625 61.8125 56.890625 51.125 
Q 56.890625 40.328125 50.609375 34.8125 
Q 44.34375 29.296875 32.078125 29.296875 
L 19.671875 29.296875 
L 19.671875 0 
L 9.8125 0 
z
" id="DejaVuSans-80"/>
      <path d="M 30.609375 48.390625 
Q 23.390625 48.390625 19.1875 42.75 
Q 14.984375 37.109375 14.984375 27.296875 
Q 14.984375 17.484375 19.15625 11.84375 
Q 23.34375 6.203125 30.609375 6.203125 
Q 37.796875 6.203125 41.984375 11.859375 
Q 46.1875 17.53125 46.1875 27.296875 
Q 46.1875 37.015625 41.984375 42.703125 
Q 37.796875 48.390625 30.609375 48.390625 
z
M 30.609375 56 
Q 42.328125 56 49.015625 48.375 
Q 55.71875 40.765625 55.71875 27.296875 
Q 55.71875 13.875 49.015625 6.21875 
Q 42.328125 -1.421875 30.609375 -1.421875 
Q 18.84375 -1.421875 12.171875 6.21875 
Q 5.515625 13.875 5.515625 27.296875 
Q 5.515625 40.765625 12.171875 48.375 
Q 18.84375 56 30.609375 56 
z
" id="DejaVuSans-111"/>
      <path d="M 9.421875 54.6875 
L 18.40625 54.6875 
L 18.40625 0 
L 9.421875 0 
z
M 9.421875 75.984375 
L 18.40625 75.984375 
L 18.40625 64.59375 
L 9.421875 64.59375 
z
" id="DejaVuSans-105"/>
      <path d="M 18.3125 70.21875 
L 18.3125 54.6875 
L 36.8125 54.6875 
L 36.8125 47.703125 
L 18.3125 47.703125 
L 18.3125 18.015625 
Q 18.3125 11.328125 20.140625 9.421875 
Q 21.96875 7.515625 27.59375 7.515625 
L 36.8125 7.515625 
L 36.8125 0 
L 27.59375 0 
Q 17.1875 0 13.234375 3.875 
Q 9.28125 7.765625 9.28125 18.015625 
L 9.28125 47.703125 
L 2.6875 47.703125 
L 2.6875 54.6875 
L 9.28125 54.6875 
L 9.28125 70.21875 
z
" id="DejaVuSans-116"/>
      <path d="M 2.984375 54.6875 
L 12.5 54.6875 
L 29.59375 8.796875 
L 46.6875 54.6875 
L 56.203125 54.6875 
L 35.6875 0 
L 23.484375 0 
z
" id="DejaVuSans-118"/>
      <path d="M 44.390625 34.1875 
Q 47.5625 33.109375 50.5625 29.59375 
Q 53.5625 26.078125 56.59375 19.921875 
L 66.609375 0 
L 56 0 
L 46.6875 18.703125 
Q 43.0625 26.03125 39.671875 28.421875 
Q 36.28125 30.8125 30.421875 30.8125 
L 19.671875 30.8125 
L 19.671875 0 
L 9.8125 0 
L 9.8125 72.90625 
L 32.078125 72.90625 
Q 44.578125 72.90625 50.734375 67.671875 
Q 56.890625 62.453125 56.890625 51.90625 
Q 56.890625 45.015625 53.6875 40.46875 
Q 50.484375 35.9375 44.390625 34.1875 
z
M 19.671875 64.796875 
L 19.671875 38.921875 
L 32.078125 38.921875 
Q 39.203125 38.921875 42.84375 42.21875 
Q 46.484375 45.515625 46.484375 51.90625 
Q 46.484375 58.296875 42.84375 61.546875 
Q 39.203125 64.796875 32.078125 64.796875 
z
" id="DejaVuSans-82"/>
     </defs>
     <g transform="translate(188.954531 335.860562)scale(0.1 -0.1)">
      <use xlink:href="#DejaVuSans-70"/>
      <use x="57.378906" xlink:href="#DejaVuSans-97"/>
      <use x="118.658203" xlink:href="#DejaVuSans-108"/>
      <use x="146.441406" xlink:href="#DejaVuSans-115"/>
      <use x="198.541016" xlink:href="#DejaVuSans-101"/>
      <use x="260.064453" xlink:href="#DejaVuSans-32"/>
      <use x="291.851562" xlink:href="#DejaVuSans-80"/>
      <use x="352.107422" xlink:href="#DejaVuSans-111"/>
      <use x="413.289062" xlink:href="#DejaVuSans-115"/>
      <use x="465.388672" xlink:href="#DejaVuSans-105"/>
      <use x="493.171875" xlink:href="#DejaVuSans-116"/>
      <use x="532.380859" xlink:href="#DejaVuSans-105"/>
      <use x="560.164062" xlink:href="#DejaVuSans-118"/>
      <use x="619.34375" xlink:href="#DejaVuSans-101"/>
      <use x="680.867188" xlink:href="#DejaVuSans-32"/>
      <use x="712.654297" xlink:href="#DejaVuSans-82"/>
      <use x="782.105469" xlink:href="#DejaVuSans-97"/>
      <use x="843.384766" xlink:href="#DejaVuSans-116"/>
      <use x="882.59375" xlink:href="#DejaVuSans-101"/>
     </g>
    </g>
   </g>
   <g id="matplotlib.axis_2">
    <g id="ytick_1">
     <g id="line2d_7">
      <defs>
       <path d="M 0 0 
L -3.5 0 
" id="m6297bdefb3" style="stroke:#000000;stroke-width:0.8;"/>
      </defs>
      <g>
       <use style="stroke:#000000;stroke-width:0.8;" x="57.6" xlink:href="#m6297bdefb3" y="307.584"/>
      </g>
     </g>
     <g id="text_8">
      <!-- 0.0 -->
      <g transform="translate(34.696875 311.383219)scale(0.1 -0.1)">
       <use xlink:href="#DejaVuSans-48"/>
       <use x="63.623047" xlink:href="#DejaVuSans-46"/>
       <use x="95.410156" xlink:href="#DejaVuSans-48"/>
      </g>
     </g>
    </g>
    <g id="ytick_2">
     <g id="line2d_8">
      <g>
       <use style="stroke:#000000;stroke-width:0.8;" x="57.6" xlink:href="#m6297bdefb3" y="254.3616"/>
      </g>
     </g>
     <g id="text_9">
      <!-- 0.2 -->
      <g transform="translate(34.696875 258.160819)scale(0.1 -0.1)">
       <use xlink:href="#DejaVuSans-48"/>
       <use x="63.623047" xlink:href="#DejaVuSans-46"/>
       <use x="95.410156" xlink:href="#DejaVuSans-50"/>
      </g>
     </g>
    </g>
    <g id="ytick_3">
     <g id="line2d_9">
      <g>
       <use style="stroke:#000000;stroke-width:0.8;" x="57.6" xlink:href="#m6297bdefb3" y="201.1392"/>
      </g>
     </g>
     <g id="text_10">
      <!-- 0.4 -->
      <g transform="translate(34.696875 204.938419)scale(0.1 -0.1)">
       <use xlink:href="#DejaVuSans-48"/>
       <use x="63.623047" xlink:href="#DejaVuSans-46"/>
       <use x="95.410156" xlink:href="#DejaVuSans-52"/>
      </g>
     </g>
    </g>
    <g id="ytick_4">
     <g id="line2d_10">
      <g>
       <use style="stroke:#000000;stroke-width:0.8;" x="57.6" xlink:href="#m6297bdefb3" y="147.9168"/>
      </g>
     </g>
     <g id="text_11">
      <!-- 0.6 -->
      <g transform="translate(34.696875 151.716019)scale(0.1 -0.1)">
       <use xlink:href="#DejaVuSans-48"/>
       <use x="63.623047" xlink:href="#DejaVuSans-46"/>
       <use x="95.410156" xlink:href="#DejaVuSans-54"/>
      </g>
     </g>
    </g>
    <g id="ytick_5">
     <g id="line2d_11">
      <g>
       <use style="stroke:#000000;stroke-width:0.8;" x="57.6" xlink:href="#m6297bdefb3" y="94.6944"/>
      </g>
     </g>
     <g id="text_12">
      <!-- 0.8 -->
      <g transform="translate(34.696875 98.493619)scale(0.1 -0.1)">
       <use xlink:href="#DejaVuSans-48"/>
       <use x="63.623047" xlink:href="#DejaVuSans-46"/>
       <use x="95.410156" xlink:href="#DejaVuSans-56"/>
      </g>
     </g>
    </g>
    <g id="ytick_6">
     <g id="line2d_12">
      <g>
       <use style="stroke:#000000;stroke-width:0.8;" x="57.6" xlink:href="#m6297bdefb3" y="41.472"/>
      </g>
     </g>
     <g id="text_13">
      <!-- 1.0 -->
      <g transform="translate(34.696875 45.271219)scale(0.1 -0.1)">
       <use xlink:href="#DejaVuSans-49"/>
       <use x="63.623047" xlink:href="#DejaVuSans-46"/>
       <use x="95.410156" xlink:href="#DejaVuSans-48"/>
      </g>
     </g>
    </g>
    <g id="text_14">
     <!-- True Positive Rate -->
     <defs>
      <path d="M -0.296875 72.90625 
L 61.375 72.90625 
L 61.375 64.59375 
L 35.5 64.59375 
L 35.5 0 
L 25.59375 0 
L 25.59375 64.59375 
L -0.296875 64.59375 
z
" id="DejaVuSans-84"/>
      <path d="M 41.109375 46.296875 
Q 39.59375 47.171875 37.8125 47.578125 
Q 36.03125 48 33.890625 48 
Q 26.265625 48 22.1875 43.046875 
Q 18.109375 38.09375 18.109375 28.8125 
L 18.109375 0 
L 9.078125 0 
L 9.078125 54.6875 
L 18.109375 54.6875 
L 18.109375 46.1875 
Q 20.953125 51.171875 25.484375 53.578125 
Q 30.03125 56 36.53125 56 
Q 37.453125 56 38.578125 55.875 
Q 39.703125 55.765625 41.0625 55.515625 
z
" id="DejaVuSans-114"/>
      <path d="M 8.5 21.578125 
L 8.5 54.6875 
L 17.484375 54.6875 
L 17.484375 21.921875 
Q 17.484375 14.15625 20.5 10.265625 
Q 23.53125 6.390625 29.59375 6.390625 
Q 36.859375 6.390625 41.078125 11.03125 
Q 45.3125 15.671875 45.3125 23.6875 
L 45.3125 54.6875 
L 54.296875 54.6875 
L 54.296875 0 
L 45.3125 0 
L 45.3125 8.40625 
Q 42.046875 3.421875 37.71875 1 
Q 33.40625 -1.421875 27.6875 -1.421875 
Q 18.265625 -1.421875 13.375 4.4375 
Q 8.5 10.296875 8.5 21.578125 
z
M 31.109375 56 
z
" id="DejaVuSans-117"/>
     </defs>
     <g transform="translate(28.617187 220.074094)rotate(-90)scale(0.1 -0.1)">
      <use xlink:href="#DejaVuSans-84"/>
      <use x="60.865234" xlink:href="#DejaVuSans-114"/>
      <use x="101.978516" xlink:href="#DejaVuSans-117"/>
      <use x="165.357422" xlink:href="#DejaVuSans-101"/>
      <use x="226.880859" xlink:href="#DejaVuSans-32"/>
      <use x="258.667969" xlink:href="#DejaVuSans-80"/>
      <use x="318.923828" xlink:href="#DejaVuSans-111"/>
      <use x="380.105469" xlink:href="#DejaVuSans-115"/>
      <use x="432.205078" xlink:href="#DejaVuSans-105"/>
      <use x="459.988281" xlink:href="#DejaVuSans-116"/>
      <use x="499.197266" xlink:href="#DejaVuSans-105"/>
      <use x="526.980469" xlink:href="#DejaVuSans-118"/>
      <use x="586.160156" xlink:href="#DejaVuSans-101"/>
      <use x="647.683594" xlink:href="#DejaVuSans-32"/>
      <use x="679.470703" xlink:href="#DejaVuSans-82"/>
      <use x="748.921875" xlink:href="#DejaVuSans-97"/>
      <use x="810.201172" xlink:href="#DejaVuSans-116"/>
      <use x="849.410156" xlink:href="#DejaVuSans-101"/>
     </g>
    </g>
   </g>
   <g id="line2d_13">
    <path clip-path="url(#p2920d8ac7e)" d="M 57.6 307.584 
L 57.69564 306.66 
L 57.733896 306.605647 
L 57.842288 305.355529 
L 57.88692 305.246824 
L 57.976184 304.322824 
L 58.020816 304.214118 
L 58.122832 303.616235 
L 58.135584 303.616235 
L 58.231224 302.529176 
L 58.275856 302.474824 
L 58.352369 301.931294 
L 58.403377 301.822588 
L 58.499017 301.170353 
L 58.537273 301.061647 
L 58.645665 300.626824 
L 58.671169 300.572471 
L 58.766809 299.811529 
L 58.817817 299.702824 
L 58.926209 299.159294 
L 58.970841 299.050588 
L 59.072857 298.126588 
L 59.104737 298.017882 
L 59.200377 297.474353 
L 59.219505 297.474353 
L 59.302393 296.604706 
L 59.340649 296.496 
L 59.442665 295.517647 
L 59.531929 295.408941 
L 59.627569 294.593647 
L 59.716833 294.539294 
L 59.812473 293.941412 
L 59.927242 293.832706 
L 60.035634 293.234824 
L 60.112146 293.126118 
L 60.188658 292.745647 
L 60.277922 292.636941 
L 60.367186 291.821647 
L 60.437322 291.767294 
L 60.545714 291.278118 
L 60.558466 291.169412 
L 60.64773 290.517176 
L 60.692362 290.408471 
L 60.788002 289.973647 
L 60.832634 289.864941 
L 60.909146 289.049647 
L 60.972906 288.940941 
L 61.068546 288.560471 
L 61.132306 288.506118 
L 61.215194 288.071294 
L 61.310834 287.962588 
L 61.412851 287.582118 
L 61.431979 287.582118 
L 61.533995 287.147294 
L 61.565875 287.092941 
L 61.667891 286.658118 
L 61.693395 286.549412 
L 61.795411 285.951529 
L 61.840043 285.897176 
L 61.935683 285.408 
L 61.993067 285.299294 
L 62.063203 284.918824 
L 62.177971 284.810118 
L 62.286363 284.647059 
L 62.318243 284.647059 
L 62.426635 283.994824 
L 62.433011 283.994824 
L 62.541403 283.233882 
L 62.630667 283.125176 
L 62.713555 282.744706 
L 62.751811 282.636 
L 62.8347 282.146824 
L 62.892084 282.092471 
L 62.987724 281.494588 
L 63.096116 281.385882 
L 63.191756 281.005412 
L 63.223636 281.005412 
L 63.300148 280.407529 
L 63.363908 280.298824 
L 63.459548 279.646588 
L 63.561564 279.537882 
L 63.657204 279.103059 
L 63.72734 278.994353 
L 63.835732 278.505176 
L 63.880364 278.396471 
L 63.988756 278.124706 
L 64.033388 278.016 
L 64.129028 277.581176 
L 64.167284 277.526824 
L 64.262924 277.255059 
L 64.364941 277.146353 
L 64.422325 276.928941 
L 64.537093 276.820235 
L 64.645485 276.222353 
L 64.721997 276.113647 
L 64.798509 275.896235 
L 64.945157 275.841882 
L 65.053549 275.298353 
L 65.142813 275.244 
L 65.238453 274.917882 
L 65.302213 274.809176 
L 65.397853 274.374353 
L 65.474365 274.265647 
L 65.563629 273.885176 
L 65.608261 273.776471 
L 65.710277 273.559059 
L 65.805918 273.450353 
L 65.88243 272.961176 
L 65.965318 272.852471 
L 66.060958 272.308941 
L 66.150222 272.200235 
L 66.258614 271.874118 
L 66.32875 271.765412 
L 66.398886 271.493647 
L 66.532782 271.384941 
L 66.590166 271.058824 
L 66.673054 271.004471 
L 66.768694 270.624 
L 66.83883 270.515294 
L 66.928094 270.189176 
L 67.017358 270.080471 
L 67.106622 269.645647 
L 67.15763 269.536941 
L 67.266022 269.265176 
L 67.297903 269.156471 
L 67.393543 268.884706 
L 67.450927 268.776 
L 67.533815 268.286824 
L 67.610327 268.178118 
L 67.705967 267.634588 
L 67.737847 267.634588 
L 67.846239 267.145412 
L 67.929127 267.036706 
L 68.031143 266.656235 
L 68.235175 266.547529 
L 68.337191 266.058353 
L 68.420079 265.949647 
L 68.420079 265.895294 
L 68.585855 265.786588 
L 68.694247 265.297412 
L 68.821768 265.188706 
L 68.911032 264.916941 
L 68.981168 264.808235 
L 69.083184 264.373412 
L 69.115064 264.319059 
L 69.159696 264.047294 
L 69.24896 263.938588 
L 69.350976 263.503765 
L 69.510376 263.449412 
L 69.612392 262.905882 
L 69.637896 262.905882 
L 69.701656 262.416706 
L 69.784544 262.308 
L 69.873808 261.927529 
L 69.924816 261.818824 
L 70.007704 261.601412 
L 70.154352 261.547059 
L 70.256369 261.057882 
L 70.345633 260.949176 
L 70.428521 260.568706 
L 70.575169 260.46 
L 70.664433 260.025176 
L 70.709065 259.916471 
L 70.817457 259.590353 
L 70.932225 259.536 
L 71.034241 259.101176 
L 71.059745 259.046824 
L 71.078873 258.883765 
L 71.257401 258.775059 
L 71.295657 258.666353 
L 71.537945 258.557647 
L 71.563449 258.285882 
L 71.703721 258.177176 
L 71.748354 258.014118 
L 71.843994 257.959765 
L 71.933258 257.307529 
L 71.990642 257.198824 
L 72.099034 256.655294 
L 72.150042 256.546588 
L 72.213802 256.329176 
L 72.315818 256.274824 
L 72.42421 255.894353 
L 72.48797 255.785647 
L 72.577234 255.459529 
L 72.698378 255.350824 
L 72.768514 255.133412 
L 72.851402 255.079059 
L 72.93429 254.589882 
L 72.991674 254.481176 
L 73.100066 253.937647 
L 73.18933 253.828941 
L 73.272219 253.665882 
L 73.380611 253.557176 
L 73.444371 253.176706 
L 73.578267 253.068 
L 73.686659 252.578824 
L 73.731291 252.470118 
L 73.807803 252.307059 
L 73.865187 252.198353 
L 73.916195 251.980941 
L 74.075595 251.872235 
L 74.158483 251.600471 
L 74.286003 251.546118 
L 74.356139 251.165647 
L 74.604803 251.056941 
L 74.694067 250.730824 
L 74.783332 250.622118 
L 74.885348 250.350353 
L 74.96186 250.241647 
L 75.070252 249.535059 
L 75.2169 249.426353 
L 75.274284 249.263294 
L 75.369924 249.154588 
L 75.465564 248.828471 
L 75.637716 248.719765 
L 75.72698 248.339294 
L 75.82262 248.230588 
L 75.88638 248.067529 
L 76.04578 247.958824 
L 76.147796 247.632706 
L 76.390085 247.524 
L 76.498477 247.252235 
L 76.568613 247.143529 
L 76.664253 246.926118 
L 76.728013 246.871765 
L 76.817277 246.545647 
L 77.014933 246.436941 
L 77.072317 246.273882 
L 77.206213 246.165176 
L 77.301853 245.839059 
L 77.391117 245.730353 
L 77.474005 245.458588 
L 77.576021 245.349882 
L 77.684413 244.806353 
L 77.869318 244.697647 
L 77.97771 244.425882 
L 78.162614 244.317176 
L 78.258254 243.936706 
L 78.309262 243.828 
L 78.315638 243.719294 
L 78.538798 243.610588 
L 78.621686 243.393176 
L 78.691822 243.338824 
L 78.736454 243.012706 
L 78.819342 242.904 
L 78.908606 242.740941 
L 78.953238 242.632235 
L 79.042502 242.414824 
L 79.144518 242.306118 
L 79.240159 242.088706 
L 79.310295 241.98 
L 79.399559 241.490824 
L 79.469695 241.382118 
L 79.578087 240.675529 
L 79.660975 240.566824 
L 79.660975 240.512471 
L 79.852255 240.403765 
L 79.890511 240.295059 
L 80.024407 240.186353 
L 80.049911 240.023294 
L 80.241191 239.914588 
L 80.292199 239.697176 
L 80.464351 239.588471 
L 80.502607 239.208 
L 80.623751 239.099294 
L 80.681136 238.827529 
L 80.789528 238.718824 
L 80.795904 238.610118 
L 80.968056 238.501412 
L 81.063696 238.120941 
L 81.21672 238.012235 
L 81.31236 237.849176 
L 81.497264 237.740471 
L 81.586528 237.305647 
L 81.682168 237.251294 
L 81.771432 236.653412 
L 81.937208 236.544706 
L 81.937208 236.490353 
L 82.115736 236.381647 
L 82.205001 236.164235 
L 82.275137 236.055529 
L 82.294265 235.946824 
L 82.447289 235.892471 
L 82.542929 235.620706 
L 82.785217 235.512 
L 82.861729 235.240235 
L 82.982873 235.185882 
L 83.091265 234.914118 
L 83.212409 234.805412 
L 83.320801 234.533647 
L 83.384561 234.479294 
L 83.467449 234.044471 
L 83.524833 233.935765 
L 83.524833 233.881412 
L 83.709738 233.772706 
L 83.81813 233.283529 
L 83.88189 233.229176 
L 83.958402 232.957412 
L 84.098674 232.848706 
L 84.20069 232.413882 
L 84.251698 232.305176 
L 84.321834 232.142118 
L 84.449354 232.033412 
L 84.538618 231.870353 
L 84.704394 231.761647 
L 84.74265 231.598588 
L 84.972186 231.489882 
L 84.972186 231.435529 
L 85.182595 231.326824 
L 85.278235 230.946353 
L 85.437635 230.892 
L 85.501395 230.620235 
L 85.699051 230.511529 
L 85.807443 230.348471 
L 85.896707 230.239765 
L 85.985971 230.076706 
L 86.062483 229.968 
L 86.119867 229.641882 
L 86.221883 229.587529 
L 86.317523 229.207059 
L 86.508803 229.098353 
L 86.508803 229.044 
L 86.814852 228.935294 
L 86.923244 228.663529 
L 86.955124 228.609176 
L 86.974252 228.446118 
L 87.114524 228.391765 
L 87.114524 228.228706 
L 87.293052 228.174353 
L 87.363188 227.739529 
L 87.446076 227.630824 
L 87.53534 227.359059 
L 87.624604 227.304706 
L 87.72662 226.869882 
L 87.873268 226.761176 
L 87.98166 226.380706 
L 88.032668 226.272 
L 88.102804 226.108941 
L 88.160189 226.000235 
L 88.262205 225.619765 
L 88.440733 225.511059 
L 88.504493 225.402353 
L 88.740405 225.293647 
L 88.810541 225.021882 
L 88.976317 224.913176 
L 89.008197 224.750118 
L 89.129341 224.750118 
L 89.180349 224.532706 
L 89.358877 224.478353 
L 89.448141 223.934824 
L 89.582037 223.826118 
L 89.69043 223.608706 
L 89.741438 223.554353 
L 89.766942 223.391294 
L 89.894462 223.282588 
L 90.002854 223.010824 
L 90.321654 222.902118 
L 90.404542 222.576 
L 90.563942 222.467294 
L 90.64683 222.086824 
L 90.77435 221.978118 
L 90.787102 221.869412 
L 91.010262 221.760706 
L 91.010262 221.706353 
L 91.303559 221.597647 
L 91.373695 221.434588 
L 91.552223 221.325882 
L 91.660615 221.054118 
L 91.826391 220.945412 
L 91.934783 220.782353 
L 92.036799 220.673647 
L 92.094183 220.456235 
L 92.183447 220.347529 
L 92.240831 220.238824 
L 92.374727 220.130118 
L 92.476743 219.749647 
L 92.585136 219.640941 
L 92.6744 219.477882 
L 92.821048 219.369176 
L 92.89756 219.151765 
L 93.050584 219.043059 
L 93.114344 218.771294 
L 93.260992 218.662588 
L 93.260992 218.608235 
L 93.426768 218.499529 
L 93.477776 218.336471 
L 93.605296 218.227765 
L 93.6308 218.064706 
L 93.834832 217.956 
L 93.841208 217.792941 
L 94.268401 217.684235 
L 94.319409 217.412471 
L 94.536193 217.303765 
L 94.606329 217.086353 
L 94.791233 216.977647 
L 94.791233 216.923294 
L 94.931505 216.814588 
L 95.033521 216.597176 
L 95.294937 216.488471 
L 95.390577 216.379765 
L 95.511721 216.271059 
L 95.620114 216.053647 
L 95.75401 215.944941 
L 95.811394 215.673176 
L 95.91341 215.564471 
L 95.951666 215.347059 
L 96.053682 215.238353 
L 96.162074 215.129647 
L 96.206706 215.020941 
L 96.206706 214.912235 
L 96.35973 214.803529 
L 96.448994 214.368706 
L 96.684906 214.26 
L 96.74229 213.933882 
L 96.96545 213.825176 
L 97.022834 213.716471 
L 97.207739 213.607765 
L 97.284251 213.390353 
L 97.341635 213.281647 
L 97.424523 213.118588 
L 97.666811 213.009882 
L 97.768827 212.846824 
L 97.998363 212.738118 
L 98.087627 212.412 
L 98.196019 212.303294 
L 98.266155 212.194588 
L 98.387299 212.085882 
L 98.476563 211.814118 
L 98.591332 211.705412 
L 98.67422 211.433647 
L 98.750732 211.324941 
L 98.846372 211.161882 
L 98.980268 211.053176 
L 99.08866 210.781412 
L 99.190676 210.672706 
L 99.273564 210.509647 
L 99.59874 210.400941 
L 99.707132 210.074824 
L 99.75814 209.966118 
L 99.796396 209.803059 
L 99.994052 209.748706 
L 100.102445 209.476941 
L 100.261845 209.368235 
L 100.370237 208.933412 
L 100.433997 208.824706 
L 100.465877 208.716 
L 100.695413 208.607294 
L 100.746421 208.498588 
L 100.969581 208.389882 
L 101.071597 208.226824 
L 101.148109 208.172471 
L 101.243749 207.955059 
L 101.333013 207.846353 
L 101.333013 207.792 
L 101.505166 207.737647 
L 101.600806 207.357176 
L 101.728326 207.248471 
L 101.728326 207.194118 
L 101.957862 207.085412 
L 102.047126 206.813647 
L 102.365926 206.704941 
L 102.39143 206.541882 
L 102.563582 206.487529 
L 102.627342 206.215765 
L 102.818622 206.107059 
L 102.876006 205.998353 
L 103.003527 205.889647 
L 103.111919 205.617882 
L 103.290447 205.509176 
L 103.290447 205.454824 
L 103.526359 205.346118 
L 103.628375 205.183059 
L 103.736767 205.074353 
L 103.736767 205.02 
L 104.061943 204.911294 
L 104.151207 204.693882 
L 104.221343 204.585176 
L 104.221343 204.530824 
L 104.527392 204.422118 
L 104.616656 204.259059 
L 104.661288 204.150353 
L 104.76968 203.824235 
L 105.050224 203.715529 
L 105.139488 203.606824 
L 105.31164 203.552471 
L 105.400904 203.335059 
L 105.56668 203.226353 
L 105.611312 202.900235 
L 105.866352 202.791529 
L 105.955616 202.574118 
L 106.115017 202.465412 
L 106.204281 202.248 
L 106.293545 202.139294 
L 106.389185 202.030588 
L 106.516705 201.921882 
L 106.580465 201.704471 
L 106.714361 201.595765 
L 106.816377 201.487059 
L 106.931145 201.378353 
L 107.020409 201.160941 
L 107.154305 201.052235 
L 107.262697 200.726118 
L 107.351961 200.617412 
L 107.460354 200.454353 
L 107.53049 200.345647 
L 107.62613 200.019529 
L 107.677138 199.965176 
L 107.779154 199.639059 
L 107.868418 199.530353 
L 107.932178 199.367294 
L 108.238226 199.258588 
L 108.276482 199.095529 
L 108.448634 198.986824 
L 108.55065 198.769412 
L 108.71005 198.660706 
L 108.799314 198.388941 
L 108.977843 198.280235 
L 109.073483 197.845412 
L 109.232883 197.736706 
L 109.309395 197.573647 
L 109.430539 197.464941 
L 109.519803 197.247529 
L 109.717459 197.247529 
L 109.793971 196.867059 
L 109.998003 196.758353 
L 110.068139 196.595294 
L 110.259419 196.486588 
L 110.361435 196.269176 
L 110.508084 196.160471 
L 110.565468 195.943059 
L 110.724868 195.834353 
L 110.83326 195.671294 
L 111.02454 195.562588 
L 111.075548 195.345176 
L 111.222196 195.236471 
L 111.324212 195.073412 
L 111.521868 194.964706 
L 111.617508 194.584235 
L 111.745028 194.475529 
L 111.764156 194.366824 
L 111.929933 194.258118 
L 111.974565 194.149412 
L 112.082957 194.040706 
L 112.127589 193.932 
L 112.344373 193.823294 
L 112.433637 193.605882 
L 112.510149 193.497176 
L 112.586661 193.334118 
L 112.656797 193.225412 
L 112.688677 193.062353 
L 112.848077 192.953647 
L 112.956469 192.681882 
L 113.115869 192.573176 
L 113.205133 192.410118 
L 113.300773 192.301412 
L 113.332653 192.138353 
L 113.517558 192.084 
L 113.600446 191.866588 
L 113.715214 191.757882 
L 113.740718 191.649176 
L 113.874614 191.649176 
L 113.983006 191.377412 
L 114.45483 191.268706 
L 114.556846 191.051294 
L 114.639734 190.942588 
L 114.728998 190.725176 
L 114.882022 190.616471 
L 114.990415 190.507765 
L 115.060551 190.399059 
L 115.105183 190.236 
L 115.328343 190.127294 
L 115.404855 190.018588 
L 115.634391 189.909882 
L 115.730031 189.692471 
L 115.819295 189.583765 
L 115.921311 189.257647 
L 116.118967 189.148941 
L 116.201855 189.040235 
L 116.456896 188.931529 
L 116.456896 188.822824 
L 116.686432 188.714118 
L 116.686432 188.659765 
L 116.884088 188.551059 
L 116.935096 188.333647 
L 117.158256 188.224941 
L 117.24752 188.061882 
L 117.604576 187.953176 
L 117.681088 187.627059 
L 117.859616 187.518353 
L 117.968009 187.192235 
L 118.254929 187.083529 
L 118.337817 186.920471 
L 118.407953 186.811765 
L 118.407953 186.757412 
L 118.784137 186.648706 
L 118.816017 186.485647 
L 118.943537 186.376941 
L 118.943537 186.322588 
L 119.102937 186.268235 
L 119.160321 186.105176 
L 119.300593 185.996471 
L 119.319721 185.887765 
L 119.619394 185.779059 
L 119.676778 185.398588 
L 119.804298 185.344235 
L 119.868058 185.126824 
L 120.10397 185.018118 
L 120.212362 184.855059 
L 120.384514 184.746353 
L 120.492906 184.637647 
L 120.607674 184.528941 
L 120.639554 184.420235 
L 120.77345 184.311529 
L 120.83721 184.202824 
L 121.085875 184.094118 
L 121.181515 183.985412 
L 121.481187 183.876706 
L 121.481187 183.822353 
L 121.850995 183.713647 
L 121.895627 183.604941 
L 122.086907 183.496235 
L 122.188923 183.224471 
L 122.290939 183.115765 
L 122.399332 182.680941 
L 122.507724 182.572235 
L 122.507724 182.517882 
L 122.826524 182.409176 
L 122.934916 182.083059 
L 123.075188 181.974353 
L 123.081564 181.865647 
L 123.3111 181.756941 
L 123.336604 181.593882 
L 123.6299 181.539529 
L 123.706412 181.159059 
L 123.782924 181.050353 
L 123.891317 180.724235 
L 124.095349 180.615529 
L 124.152733 180.289412 
L 124.248373 180.180706 
L 124.267501 180.017647 
L 124.630933 179.908941 
L 124.681941 179.691529 
L 125.019869 179.582824 
L 125.128261 179.365412 
L 125.268533 179.256706 
L 125.357798 179.039294 
L 125.43431 178.930588 
L 125.510822 178.767529 
L 125.829622 178.658824 
L 125.925262 178.441412 
L 126.033654 178.332706 
L 126.097414 178.060941 
L 126.161174 178.060941 
L 126.180302 177.789176 
L 126.42259 177.680471 
L 126.441718 177.571765 
L 126.735014 177.463059 
L 126.843407 177.191294 
L 127.047439 177.082588 
L 127.155831 176.647765 
L 127.436375 176.539059 
L 127.436375 176.484706 
L 127.697791 176.376 
L 127.736047 176.212941 
L 128.042095 176.104235 
L 128.144111 175.995529 
L 128.399152 175.886824 
L 128.411904 175.778118 
L 128.57768 175.669412 
L 128.660568 175.397647 
L 128.749832 175.288941 
L 128.83272 175.071529 
L 128.966616 174.962824 
L 129.036752 174.854118 
L 129.381056 174.745412 
L 129.381056 174.691059 
L 129.553208 174.582353 
L 129.616968 174.364941 
L 129.840129 174.256235 
L 129.929393 174.093176 
L 130.031409 173.984471 
L 130.056913 173.767059 
L 130.267321 173.658353 
L 130.343833 173.495294 
L 130.522361 173.386588 
L 130.605249 173.169176 
L 130.962305 173.060471 
L 130.987809 172.897412 
L 131.27473 172.788706 
L 131.27473 172.734353 
L 131.72105 172.625647 
L 131.746554 172.462588 
L 132.141866 172.353882 
L 132.224754 172.082118 
L 132.690202 171.973412 
L 132.728458 171.864706 
L 132.868731 171.756 
L 132.875107 171.647294 
L 133.021755 171.538588 
L 133.060011 171.375529 
L 133.200283 171.266824 
L 133.200283 171.212471 
L 133.442571 171.103765 
L 133.538211 170.777647 
L 133.652979 170.668941 
L 133.754995 170.397176 
L 133.901643 170.288471 
L 133.952651 170.179765 
L 134.131179 170.125412 
L 134.156683 169.962353 
L 134.392596 169.853647 
L 134.500988 169.581882 
L 134.781532 169.473176 
L 134.86442 169.255765 
L 135.157716 169.147059 
L 135.176844 168.984 
L 135.463764 168.875294 
L 135.463764 168.820941 
L 135.776189 168.712235 
L 135.839949 168.549176 
L 136.228885 168.440471 
L 136.286269 168.06 
L 136.458421 167.951294 
L 136.560437 167.679529 
L 136.732589 167.570824 
L 136.802725 167.353412 
L 136.942997 167.244706 
L 137.025885 167.136 
L 137.147029 167.027294 
L 137.223542 166.864235 
L 137.395694 166.755529 
L 137.395694 166.701176 
L 137.937654 166.592471 
L 138.03967 166.375059 
L 138.313838 166.266353 
L 138.383974 165.940235 
L 138.67727 165.831529 
L 138.734655 165.668471 
L 138.887679 165.559765 
L 138.996071 165.288 
L 139.251111 165.179294 
L 139.359503 164.961882 
L 139.550783 164.853176 
L 139.550783 164.798824 
L 139.837703 164.690118 
L 139.895087 164.309647 
L 140.073615 164.200941 
L 140.175631 164.092235 
L 140.424296 163.983529 
L 140.526312 163.874824 
L 140.717592 163.766118 
L 140.762224 163.603059 
L 140.89612 163.494353 
L 140.998136 163.168235 
L 141.02364 163.059529 
L 141.132032 162.896471 
L 141.195792 162.787765 
L 141.27868 162.624706 
L 141.425328 162.570353 
L 141.457208 162.407294 
L 141.571976 162.298588 
L 141.654864 162.135529 
L 142.094809 162.026824 
L 142.158569 161.918118 
L 142.247833 161.809412 
L 142.305217 161.700706 
L 142.534753 161.592 
L 142.598513 161.483294 
L 142.732409 161.374588 
L 142.821673 161.048471 
L 142.866305 160.939765 
L 142.866305 160.885412 
L 143.24249 160.776706 
L 143.255242 160.668 
L 143.389138 160.559294 
L 143.389138 160.504941 
L 143.644178 160.396235 
L 143.68881 160.233176 
L 143.950226 160.124471 
L 144.052242 159.852706 
L 144.351914 159.744 
L 144.447554 159.580941 
L 144.568698 159.472235 
L 144.594202 159.363529 
L 144.728099 159.254824 
L 144.779107 159.146118 
L 145.104283 159.091765 
L 145.104283 158.983059 
L 145.556979 158.874353 
L 145.620739 158.602588 
L 146.028803 158.493882 
L 146.105315 158.385176 
L 146.213708 158.276471 
L 146.251964 158.167765 
L 146.698284 158.059059 
L 146.723788 157.950353 
L 146.997956 157.841647 
L 146.997956 157.787294 
L 147.284876 157.678588 
L 147.34226 157.515529 
L 147.431524 157.406824 
L 147.514412 157.243765 
L 147.801333 157.135059 
L 147.865093 157.026353 
L 148.075501 156.917647 
L 148.145637 156.808941 
L 148.247653 156.700235 
L 148.305037 156.537176 
L 148.387925 156.428471 
L 148.413429 156.265412 
L 148.585581 156.211059 
L 148.655717 155.993647 
L 148.795989 155.884941 
L 148.898005 155.721882 
L 149.108413 155.613176 
L 149.184926 155.395765 
L 149.427214 155.341412 
L 149.516478 155.178353 
L 149.643998 155.069647 
L 149.669502 154.960941 
L 150.128574 154.852235 
L 150.185958 154.689176 
L 150.472878 154.580471 
L 150.472878 154.526118 
L 150.645031 154.417412 
L 150.689663 154.308706 
L 150.887319 154.2 
L 150.970207 153.873882 
L 151.257127 153.765176 
L 151.352767 153.493412 
L 151.601431 153.384706 
L 151.601431 153.330353 
L 151.862847 153.221647 
L 151.932983 153.058588 
L 152.105136 152.949882 
L 152.175272 152.786824 
L 152.583336 152.678118 
L 152.64072 152.515059 
L 153.036032 152.406353 
L 153.036032 152.352 
L 153.386712 152.243294 
L 153.488728 152.025882 
L 153.750145 151.917176 
L 153.775649 151.754118 
L 154.100825 151.645412 
L 154.113577 151.536706 
L 154.317609 151.428 
L 154.317609 151.319294 
L 154.916953 151.210588 
L 154.974337 150.993176 
L 155.350522 150.938824 
L 155.458914 150.721412 
L 155.650194 150.612706 
L 155.701202 150.395294 
L 156.026378 150.286588 
L 156.096514 150.177882 
L 156.32605 150.069176 
L 156.383434 149.960471 
L 156.581091 149.851765 
L 156.644851 149.634353 
L 156.791499 149.525647 
L 156.810627 149.362588 
L 157.123051 149.253882 
L 157.212315 149.090824 
L 157.511987 148.982118 
L 157.511987 148.927765 
L 157.696891 148.819059 
L 157.792531 148.601647 
L 157.862667 148.492941 
L 157.964683 148.384235 
L 158.44926 148.275529 
L 158.51302 148.112471 
L 158.666044 148.003765 
L 158.73618 147.895059 
L 158.921084 147.786353 
L 159.010348 147.623294 
L 159.099612 147.514588 
L 159.131492 147.297176 
L 159.431164 147.188471 
L 159.526804 146.916706 
L 159.928493 146.808 
L 159.928493 146.753647 
L 160.336557 146.644941 
L 160.432197 146.427529 
L 160.967781 146.318824 
L 161.025166 146.210118 
L 161.235574 146.101412 
L 161.318462 145.829647 
L 161.43323 145.720941 
L 161.509742 145.557882 
L 161.72015 145.449176 
L 161.72015 145.394824 
L 162.077206 145.286118 
L 162.147342 145.123059 
L 162.313118 145.014353 
L 162.42151 144.851294 
L 162.48527 144.742588 
L 162.574535 144.579529 
L 162.804071 144.525176 
L 162.893335 144.307765 
L 163.129247 144.199059 
L 163.129247 144.144706 
L 163.390663 144.036 
L 163.499055 143.709882 
L 163.703087 143.601176 
L 163.715839 143.492471 
L 163.938999 143.383765 
L 163.996384 143.220706 
L 164.22592 143.112 
L 164.264176 142.948941 
L 164.44908 142.894588 
L 164.557472 142.677176 
L 164.710496 142.568471 
L 164.787008 142.459765 
L 165.226952 142.351059 
L 165.271584 142.242353 
L 165.513873 142.133647 
L 165.622265 141.916235 
L 165.737033 141.807529 
L 165.832673 141.644471 
L 165.992073 141.535765 
L 166.081337 141.372706 
L 166.546785 141.264 
L 166.572289 141.155294 
L 166.827329 141.046588 
L 166.859209 140.883529 
L 167.037738 140.774824 
L 167.095122 140.666118 
L 167.439426 140.557412 
L 167.439426 140.503059 
L 168.089778 140.394353 
L 168.089778 140.34 
L 168.351194 140.231294 
L 168.351194 140.176941 
L 168.606235 140.068235 
L 168.689123 139.796471 
L 168.950539 139.687765 
L 169.020675 139.470353 
L 169.160947 139.361647 
L 169.250211 139.252941 
L 169.409611 139.144235 
L 169.447867 138.981176 
L 170.079092 138.926824 
L 170.104596 138.655059 
L 170.308628 138.546353 
L 170.38514 138.383294 
L 170.557292 138.274588 
L 170.557292 138.220235 
L 170.748572 138.111529 
L 170.856964 137.785412 
L 171.099252 137.676706 
L 171.105628 137.513647 
L 171.271404 137.404941 
L 171.296908 137.296235 
L 171.590205 137.187529 
L 171.590205 137.133176 
L 172.017397 137.024471 
L 172.042901 136.915765 
L 172.361701 136.807059 
L 172.412709 136.698353 
L 172.763389 136.589647 
L 172.839901 136.317882 
L 173.05031 136.209176 
L 173.075814 136.100471 
L 173.235214 135.991765 
L 173.235214 135.937412 
L 173.503006 135.828706 
L 173.503006 135.774353 
L 174.255374 135.665647 
L 174.274502 135.502588 
L 174.497663 135.393882 
L 174.497663 135.339529 
L 174.822839 135.230824 
L 174.861095 135.122118 
L 175.218151 135.013412 
L 175.320167 134.850353 
L 175.626215 134.741647 
L 175.734607 134.524235 
L 176.078912 134.415529 
L 176.155424 134.198118 
L 176.238312 134.089412 
L 176.238312 134.035059 
L 176.57624 133.926353 
L 176.57624 133.872 
L 176.812152 133.763294 
L 176.920544 133.600235 
L 177.1182 133.491529 
L 177.1182 133.437176 
L 177.526265 133.328471 
L 177.577273 133.165412 
L 178.029969 133.056706 
L 178.029969 133.002353 
L 178.482665 132.893647 
L 178.552801 132.784941 
L 178.795089 132.676235 
L 178.826969 132.567529 
L 179.36893 132.458824 
L 179.419938 132.295765 
L 179.930018 132.187059 
L 179.936394 132.078353 
L 180.414595 131.969647 
L 180.484731 131.806588 
L 180.593123 131.697882 
L 180.695139 131.426118 
L 181.154211 131.317412 
L 181.217971 131.154353 
L 181.555899 131.045647 
L 181.664291 130.936941 
L 181.919332 130.828235 
L 181.932084 130.719529 
L 182.244508 130.610824 
L 182.295516 130.502118 
L 182.601564 130.393412 
L 182.601564 130.339059 
L 182.933116 130.230353 
L 183.016004 130.012941 
L 183.443197 129.904235 
L 183.481453 129.741176 
L 183.640853 129.632471 
L 183.640853 129.578118 
L 184.087173 129.469412 
L 184.150933 129.360706 
L 184.552621 129.252 
L 184.629133 129.088941 
L 184.743901 128.980235 
L 184.845918 128.817176 
L 185.062702 128.708471 
L 185.062702 128.654118 
L 185.285862 128.545412 
L 185.355998 128.382353 
L 185.713054 128.273647 
L 185.738558 128.056235 
L 186.204006 127.947529 
L 186.242262 127.838824 
L 186.459047 127.730118 
L 186.459047 127.675765 
L 187.007383 127.567059 
L 187.045639 127.458353 
L 187.504711 127.349647 
L 187.574847 127.186588 
L 187.951032 127.077882 
L 188.059424 126.969176 
L 188.110432 126.860471 
L 188.218824 126.751765 
L 188.410104 126.643059 
L 188.461112 126.48 
L 188.722528 126.371294 
L 188.83092 126.208235 
L 188.996696 126.099529 
L 189.015824 125.936471 
L 189.481273 125.827765 
L 189.519529 125.719059 
L 189.691681 125.610353 
L 189.800073 125.392941 
L 190.240017 125.284235 
L 190.348409 125.066824 
L 190.565193 124.958118 
L 190.577945 124.849412 
L 190.718217 124.795059 
L 190.781978 124.632 
L 190.883994 124.523294 
L 190.89037 124.414588 
L 191.629986 124.305882 
L 191.629986 124.251529 
L 192.312219 124.142824 
L 192.414235 123.979765 
L 192.458867 123.871059 
L 192.522627 123.599294 
L 192.662899 123.490588 
L 192.752163 123.381882 
L 193.338755 123.273176 
L 193.402515 123.110118 
L 193.606547 123.001412 
L 193.689435 122.784 
L 193.96998 122.675294 
L 193.96998 122.620941 
L 194.22502 122.512235 
L 194.22502 122.457882 
L 194.44818 122.349176 
L 194.531068 122.186118 
L 194.881748 122.077412 
L 194.99014 121.805647 
L 195.245181 121.696941 
L 195.334445 121.588235 
L 195.576733 121.479529 
L 195.583109 121.370824 
L 196.080437 121.262118 
L 196.099565 121.099059 
L 196.258965 120.990353 
L 196.258965 120.936 
L 196.724413 120.827294 
L 196.82643 120.609882 
L 197.036838 120.501176 
L 197.055966 120.392471 
L 197.323758 120.283765 
L 197.323758 120.229412 
L 197.572422 120.120706 
L 197.668062 119.903294 
L 197.916726 119.794588 
L 197.993238 119.577176 
L 198.452311 119.468471 
L 198.541575 119.305412 
L 198.694599 119.196706 
L 198.694599 119.142353 
L 199.313071 119.033647 
L 199.313071 118.979294 
L 199.612743 118.870588 
L 199.612743 118.816235 
L 199.880536 118.707529 
L 199.880536 118.653176 
L 200.263096 118.544471 
L 200.269472 118.435765 
L 200.57552 118.327059 
L 200.664784 118.055294 
L 200.779552 117.946588 
L 200.887944 117.837882 
L 201.174864 117.729176 
L 201.270505 117.566118 
L 201.716825 117.457412 
L 201.716825 117.403059 
L 202.124889 117.348706 
L 202.124889 117.24 
L 202.418185 117.185647 
L 202.520201 116.913882 
L 202.73061 116.805176 
L 202.832626 116.587765 
L 202.934642 116.533412 
L 202.934642 116.424706 
L 203.482978 116.316 
L 203.59137 116.098588 
L 203.967554 116.044235 
L 204.075946 115.881176 
L 204.337363 115.772471 
L 204.426627 115.609412 
L 204.496763 115.500706 
L 204.496763 115.446353 
L 204.726299 115.337647 
L 204.821939 115.228941 
L 205.076979 115.120235 
L 205.121611 114.902824 
L 205.357523 114.794118 
L 205.376651 114.685412 
L 205.669948 114.576706 
L 205.740084 114.413647 
L 206.333052 114.304941 
L 206.428692 114.141882 
L 206.588092 114.033176 
L 206.651852 113.924471 
L 206.804876 113.870118 
L 206.849508 113.707059 
L 207.404221 113.598353 
L 207.487109 113.489647 
L 207.907925 113.380941 
L 207.971685 113.272235 
L 208.245853 113.217882 
L 208.328741 112.783059 
L 208.507269 112.674353 
L 208.609285 112.456941 
L 208.768686 112.348235 
L 208.877078 112.130824 
L 209.744214 112.022118 
L 209.744214 111.967765 
L 209.999254 111.859059 
L 210.050262 111.696 
L 210.222415 111.587294 
L 210.311679 111.478588 
L 210.700615 111.369882 
L 210.809007 111.152471 
L 211.242575 111.043765 
L 211.312711 110.880706 
L 211.529495 110.772 
L 211.625136 110.608941 
L 212.12884 110.500235 
L 212.237232 110.337176 
L 212.549656 110.228471 
L 212.549656 110.174118 
L 212.887584 110.065412 
L 212.900336 109.956706 
L 213.327529 109.848 
L 213.429545 109.739294 
L 214.086273 109.630588 
L 214.175537 109.467529 
L 214.653738 109.358824 
L 214.653738 109.304471 
L 215.20845 109.195765 
L 215.316842 109.032706 
L 215.648394 108.924 
L 215.648394 108.815294 
L 215.94169 108.706588 
L 215.94169 108.652235 
L 216.337003 108.543529 
L 216.381635 108.380471 
L 216.847083 108.271765 
L 216.878963 108.163059 
L 217.159507 108.054353 
L 217.159507 108 
L 217.376291 107.891294 
L 217.440051 107.782588 
L 217.80986 107.673882 
L 217.822612 107.565176 
L 218.122284 107.510824 
L 218.122284 107.402118 
L 218.434708 107.293412 
L 218.498468 107.184706 
L 219.110565 107.076 
L 219.110565 107.021647 
L 219.493125 106.912941 
L 219.493125 106.858588 
L 220.545166 106.749882 
L 220.615302 106.586824 
L 220.679062 106.478118 
L 220.787454 106.315059 
L 221.010614 106.206353 
L 221.010614 106.152 
L 221.380422 106.043294 
L 221.437806 105.880235 
L 221.660966 105.771529 
L 221.660966 105.717176 
L 221.986142 105.662824 
L 221.992518 105.499765 
L 222.457967 105.391059 
L 222.528103 105.173647 
L 223.133823 105.064941 
L 223.242215 104.847529 
L 223.452623 104.738824 
L 223.52276 104.575765 
L 223.892568 104.467059 
L 223.892568 104.412706 
L 224.364392 104.304 
L 224.421776 104.140941 
L 224.523792 104.032235 
L 224.613056 103.923529 
L 224.874472 103.814824 
L 224.874472 103.760471 
L 225.072129 103.651765 
L 225.072129 103.597412 
L 225.295289 103.488706 
L 225.295289 103.434353 
L 225.709729 103.325647 
L 225.709729 103.271294 
L 225.964769 103.162588 
L 225.964769 103.108235 
L 226.704386 102.999529 
L 226.79365 102.890824 
L 227.322858 102.782118 
L 227.380242 102.619059 
L 227.871194 102.510353 
L 227.871194 102.456 
L 228.260131 102.347294 
L 228.279259 102.184235 
L 228.521547 102.075529 
L 228.623563 101.912471 
L 228.916859 101.803765 
L 228.916859 101.749412 
L 229.305795 101.640706 
L 229.382307 101.532 
L 229.548084 101.423294 
L 229.599092 101.260235 
L 229.981652 101.151529 
L 229.981652 101.097176 
L 230.695764 100.988471 
L 230.7659 100.825412 
L 231.020941 100.716706 
L 231.020941 100.662353 
L 231.473637 100.553647 
L 231.473637 100.444941 
L 231.792437 100.336235 
L 231.900829 100.173176 
L 232.436413 100.064471 
L 232.47467 99.901412 
L 232.882734 99.792706 
L 232.933742 99.684 
L 233.23979 99.575294 
L 233.23979 99.520941 
L 234.011287 99.412235 
L 234.119679 99.303529 
L 234.177063 99.194824 
L 234.240823 99.086118 
L 234.731775 98.977412 
L 234.840167 98.705647 
L 235.114335 98.596941 
L 235.146215 98.433882 
L 235.528776 98.325176 
L 235.528776 98.270824 
L 236.217384 98.162118 
L 236.217384 98.107765 
L 236.752968 97.999059 
L 236.752968 97.944706 
L 236.963377 97.836 
L 236.963377 97.781647 
L 237.135529 97.672941 
L 237.243921 97.564235 
L 237.543593 97.455529 
L 237.626481 97.292471 
L 237.926153 97.183765 
L 238.028169 97.075059 
L 238.480866 96.966353 
L 238.487242 96.857647 
L 239.092962 96.748941 
L 239.092962 96.694588 
L 239.488274 96.585882 
L 239.571162 96.477176 
L 239.736938 96.368471 
L 239.736938 96.314118 
L 240.400043 96.205412 
L 240.489307 96.096706 
L 241.012139 95.988 
L 241.012139 95.933647 
L 241.560476 95.824941 
L 241.598732 95.661882 
L 242.140692 95.553176 
L 242.140692 95.498824 
L 242.3511 95.390118 
L 242.421236 95.281412 
L 242.689028 95.172706 
L 242.689028 95.064 
L 243.071589 94.955294 
L 243.173605 94.737882 
L 243.479653 94.629176 
L 243.581669 94.520471 
L 243.779325 94.411765 
L 243.811205 94.303059 
L 243.983357 94.248706 
L 244.008861 94.085647 
L 244.455182 93.976941 
L 244.455182 93.922588 
L 245.041774 93.813882 
L 245.086406 93.705176 
L 245.411582 93.596471 
L 245.513598 93.433412 
L 245.768638 93.324706 
L 245.877031 93.161647 
L 246.017303 93.052941 
L 246.061935 92.944235 
L 246.348855 92.835529 
L 246.425367 92.726824 
L 246.559263 92.618118 
L 246.559263 92.563765 
L 247.082095 92.455059 
L 247.082095 92.400706 
L 247.866344 92.292 
L 247.974736 92.183294 
L 248.2234 92.074588 
L 248.242528 91.965882 
L 248.682472 91.857176 
L 248.682472 91.802824 
L 249.243561 91.694118 
L 249.281817 91.585412 
L 250.053313 91.476706 
L 250.161705 91.259294 
L 250.41037 91.150588 
L 250.467754 90.987529 
L 250.837562 90.878824 
L 250.926826 90.715765 
L 251.194618 90.607059 
L 251.245626 90.498353 
L 251.628186 90.389647 
L 251.628186 90.335294 
L 252.272163 90.226588 
L 252.272163 90.172235 
L 252.756739 90.063529 
L 252.756739 90.009176 
L 253.407092 89.900471 
L 253.509108 89.791765 
L 253.732268 89.737412 
L 253.834284 89.411294 
L 254.35074 89.302588 
L 254.35074 89.248235 
L 254.675916 89.139529 
L 254.752428 88.976471 
L 255.045725 88.867765 
L 255.141365 88.704706 
L 255.810845 88.596 
L 255.810845 88.432941 
L 256.059509 88.378588 
L 256.059509 88.269882 
L 256.493078 88.161176 
L 256.493078 88.106824 
L 256.754494 87.998118 
L 256.754494 87.943765 
L 257.188062 87.835059 
L 257.188062 87.780706 
L 257.474982 87.672 
L 257.506862 87.563294 
L 257.806535 87.454588 
L 257.806535 87.400235 
L 258.029695 87.345882 
L 258.112583 87.182824 
L 258.361247 87.074118 
L 258.425007 86.965412 
L 258.660919 86.856706 
L 258.660919 86.802353 
L 258.960591 86.693647 
L 259.017975 86.476235 
L 259.406912 86.367529 
L 259.515304 86.258824 
L 259.591816 86.150118 
L 259.591816 86.095765 
L 260.019008 85.987059 
L 260.019008 85.932706 
L 260.66936 85.824 
L 260.777753 85.660941 
L 260.898897 85.552235 
L 260.969033 85.389176 
L 262.21873 85.280471 
L 262.269738 85.117412 
L 262.79257 85.008706 
L 262.79257 84.954353 
L 263.774475 84.845647 
L 263.774475 84.791294 
L 264.246299 84.682588 
L 264.246299 84.628235 
L 265.700028 84.519529 
L 265.795668 84.356471 
L 266.006076 84.247765 
L 266.088964 84.139059 
L 266.503404 84.030353 
L 266.567164 83.921647 
L 266.975229 83.812941 
L 267.007109 83.704235 
L 267.491685 83.595529 
L 267.574573 83.432471 
L 268.295062 83.323765 
L 268.295062 83.269412 
L 268.773262 83.160706 
L 268.773262 83.106353 
L 269.455494 82.997647 
L 269.455494 82.943294 
L 270.488407 82.834588 
L 270.488407 82.780235 
L 270.947479 82.671529 
L 270.947479 82.617176 
L 271.463936 82.508471 
L 271.470312 82.399765 
L 271.750856 82.291059 
L 271.763608 82.182353 
L 272.171672 82.073647 
L 272.216304 81.910588 
L 272.38208 81.801882 
L 272.426712 81.584471 
L 272.688129 81.475765 
L 272.688129 81.421412 
L 273.026057 81.367059 
L 273.026057 81.258353 
L 274.020713 81.149647 
L 274.103601 81.040941 
L 274.422402 80.932235 
L 274.479786 80.823529 
L 274.95161 80.714824 
L 274.95161 80.660471 
L 275.232154 80.551765 
L 275.232154 80.497412 
L 275.608339 80.388706 
L 275.672099 80.225647 
L 275.959019 80.116941 
L 276.003651 80.008235 
L 276.277819 79.899529 
L 276.335203 79.790824 
L 276.705011 79.682118 
L 276.794275 79.573412 
L 276.940923 79.519059 
L 276.998307 79.356 
L 277.374492 79.247294 
L 277.463756 79.138588 
L 277.769804 79.029882 
L 277.801684 78.921176 
L 278.107732 78.812471 
L 278.19062 78.703765 
L 278.426532 78.649412 
L 278.426532 78.540706 
L 279.223533 78.432 
L 279.223533 78.377647 
L 279.784621 78.268941 
L 279.880261 78.160235 
L 280.148054 78.051529 
L 280.148054 77.997176 
L 280.747398 77.888471 
L 280.836662 77.725412 
L 281.410502 77.616706 
L 281.512518 77.508 
L 281.926959 77.399294 
L 282.035351 77.236235 
L 282.322271 77.127529 
L 282.322271 77.073176 
L 282.621943 76.964471 
L 282.692079 76.855765 
L 283.501832 76.747059 
L 283.540088 76.529647 
L 283.980032 76.420941 
L 283.980032 76.366588 
L 284.834417 76.257882 
L 284.847169 76.094824 
L 285.427385 75.986118 
L 285.516649 75.877412 
L 286.211634 75.768706 
L 286.237138 75.66 
L 286.645202 75.551294 
L 286.66433 75.388235 
L 287.11065 75.279529 
L 287.219042 75.170824 
L 287.888523 75.062118 
L 287.990539 74.790353 
L 288.251955 74.681647 
L 288.251955 74.627294 
L 288.851299 74.518588 
L 288.851299 74.464235 
L 289.0107 74.355529 
L 289.023452 74.192471 
L 289.316748 74.083765 
L 289.399636 73.975059 
L 290.139252 73.866353 
L 290.139252 73.812 
L 290.821485 73.703294 
L 290.917125 73.540235 
L 291.299685 73.431529 
L 291.299685 73.377176 
L 291.605733 73.268471 
L 291.605733 73.214118 
L 291.784261 73.105412 
L 291.841645 72.996706 
L 291.930909 72.888 
L 291.930909 72.833647 
L 292.358102 72.724941 
L 292.358102 72.670588 
L 292.893686 72.561882 
L 292.893686 72.507529 
L 293.983983 72.398824 
L 293.983983 72.344471 
L 294.647087 72.235765 
L 294.755479 72.018353 
L 294.857495 71.909647 
L 294.857495 71.855294 
L 295.431336 71.746588 
L 295.431336 71.692235 
L 295.93504 71.583529 
L 296.011552 71.474824 
L 296.470625 71.366118 
L 296.470625 71.311765 
L 296.808553 71.203059 
L 296.808553 71.148706 
L 297.401521 71.04 
L 297.420649 70.931294 
L 297.771329 70.822588 
L 297.803209 70.713882 
L 298.300538 70.605176 
L 298.34517 70.496471 
L 298.63209 70.387765 
L 298.651218 70.279059 
L 298.893506 70.170353 
L 299.001898 70.007294 
L 299.26969 69.898588 
L 299.26969 69.844235 
L 299.582115 69.735529 
L 299.671379 69.572471 
L 300.022059 69.463765 
L 300.022059 69.409412 
L 300.634155 69.300706 
L 300.634155 69.192 
L 301.182492 69.083294 
L 301.284508 68.974588 
L 301.533172 68.865882 
L 301.533172 68.811529 
L 301.99862 68.702824 
L 302.107012 68.539765 
L 303.012405 68.431059 
L 303.037909 68.268 
L 303.286573 68.159294 
L 303.286573 68.104941 
L 303.701013 67.996235 
L 303.701013 67.887529 
L 304.651038 67.778824 
L 304.651038 67.724471 
L 305.658447 67.615765 
L 305.658447 67.561412 
L 305.900735 67.452706 
L 305.983623 67.289647 
L 306.531959 67.180941 
L 306.557463 67.017882 
L 307.156808 66.909176 
L 307.214192 66.800471 
L 307.590376 66.691765 
L 307.67964 66.583059 
L 308.202472 66.474353 
L 308.202472 66.42 
L 308.687049 66.311294 
L 308.687049 66.256941 
L 308.922961 66.148235 
L 309.012225 65.985176 
L 309.343777 65.876471 
L 309.343777 65.822118 
L 309.987754 65.713412 
L 309.987754 65.659059 
L 311.148186 65.550353 
L 311.218322 65.387294 
L 311.677395 65.278588 
L 311.677395 65.224235 
L 312.136467 65.115529 
L 312.225731 65.006824 
L 313.067364 64.898118 
L 313.067364 64.843765 
L 313.564692 64.789412 
L 313.564692 64.680706 
L 314.234172 64.572 
L 314.234172 64.517647 
L 314.527469 64.408941 
L 314.610357 64.300235 
L 315.031173 64.245882 
L 315.088557 64.082824 
L 315.254333 63.974118 
L 315.267085 63.865412 
L 315.560381 63.756706 
L 315.560381 63.702353 
L 316.523158 63.593647 
L 316.59967 63.484941 
L 316.79095 63.376235 
L 316.79095 63.321882 
L 317.893999 63.213176 
L 317.893999 63.158824 
L 318.346695 63.050118 
L 318.346695 62.995765 
L 318.716503 62.887059 
L 318.799392 62.778353 
L 319.156448 62.669647 
L 319.194704 62.560941 
L 319.315848 62.452235 
L 319.315848 62.397882 
L 319.577264 62.289176 
L 319.653776 62.180471 
L 319.985328 62.071765 
L 319.985328 62.017412 
L 320.151104 61.908706 
L 320.151104 61.854353 
L 320.444401 61.745647 
L 320.444401 61.691294 
L 320.909849 61.582588 
L 320.909849 61.528235 
L 321.541073 61.419529 
L 321.617585 61.310824 
L 322.522978 61.202118 
L 322.624994 61.093412 
L 323.186082 60.984706 
L 323.294475 60.821647 
L 323.543139 60.712941 
L 323.543139 60.658588 
L 324.097851 60.549882 
L 324.097851 60.495529 
L 324.633435 60.386824 
L 324.633435 60.278118 
L 324.958612 60.169412 
L 325.00962 60.060706 
L 325.258284 59.952 
L 325.258284 59.897647 
L 326.367709 59.788941 
L 326.367709 59.734588 
L 328.133862 59.625882 
L 328.133862 59.571529 
L 328.63119 59.462824 
L 328.63119 59.408471 
L 328.94999 59.299765 
L 328.94999 59.245412 
L 329.874511 59.136706 
L 329.880887 59.028 
L 330.837288 58.919294 
L 330.837288 58.864941 
L 332.380281 58.756235 
L 332.380281 58.701882 
L 332.794721 58.593176 
L 332.794721 58.538824 
L 333.521585 58.430118 
L 333.521585 58.375765 
L 333.853138 58.267059 
L 333.853138 58.212706 
L 334.235698 58.104 
L 334.31221 57.940941 
L 335.211227 57.832235 
L 335.211227 57.777882 
L 335.804195 57.669176 
L 335.804195 57.614824 
L 336.263267 57.506118 
L 336.263267 57.451765 
L 337.053892 57.343059 
L 337.053892 57.288706 
L 337.653236 57.18 
L 337.653236 57.125647 
L 338.303589 57.016941 
L 338.303589 56.962588 
L 339.444893 56.853882 
L 339.515029 56.745176 
L 341.160039 56.636471 
L 341.204671 56.527765 
L 341.906031 56.419059 
L 341.906031 56.364706 
L 342.581888 56.256 
L 342.581888 56.201647 
L 343.493656 56.092941 
L 343.493656 56.038588 
L 343.914472 55.929882 
L 343.927224 55.821176 
L 345.317193 55.712471 
L 345.317193 55.658118 
L 345.750762 55.549412 
L 345.750762 55.495059 
L 346.879314 55.386353 
L 346.879314 55.332 
L 347.434027 55.223294 
L 347.542419 55.114588 
L 348.524324 55.005882 
L 348.524324 54.951529 
L 349.021652 54.842824 
L 349.085412 54.734118 
L 350.073693 54.625412 
L 350.131077 54.516706 
L 351.387149 54.408 
L 351.387149 54.353647 
L 352.005622 54.244941 
L 352.082134 54.136235 
L 352.464694 54.027529 
L 352.464694 53.973176 
L 353.727143 53.864471 
L 353.727143 53.810118 
L 354.396623 53.701412 
L 354.396623 53.647059 
L 355.0406 53.538353 
L 355.123488 53.429647 
L 355.729208 53.320941 
L 355.831224 53.212235 
L 356.099017 53.103529 
L 356.099017 53.049176 
L 356.589969 52.940471 
L 356.589969 52.886118 
L 357.335961 52.777412 
L 357.335961 52.723059 
L 358.018194 52.614353 
L 358.043698 52.505647 
L 358.866202 52.396941 
L 358.866202 52.342588 
L 360.058515 52.233882 
L 360.058515 52.179529 
L 360.275299 52.070824 
L 360.275299 52.016471 
L 360.72162 51.907765 
L 360.72162 51.853412 
L 361.77366 51.744706 
L 361.8693 51.527294 
L 363.067989 51.418588 
L 363.138125 51.255529 
L 363.252893 51.201176 
L 363.252893 51.092471 
L 364.776758 50.983765 
L 364.776758 50.929412 
L 365.101935 50.820706 
L 365.203951 50.712 
L 365.663023 50.603294 
L 365.765039 50.494588 
L 366.020079 50.440235 
L 366.020079 50.331529 
L 367.696968 50.222824 
L 367.754352 50.059765 
L 368.481217 49.951059 
L 368.481217 49.896706 
L 368.933913 49.788 
L 368.933913 49.733647 
L 369.443994 49.624941 
L 369.526882 49.516235 
L 370.011458 49.407529 
L 370.011458 49.353176 
L 370.400394 49.244471 
L 370.400394 49.190118 
L 370.916851 49.081412 
L 371.018867 48.972706 
L 371.707475 48.864 
L 371.752107 48.755294 
L 372.472596 48.646588 
L 372.472596 48.592235 
L 372.893412 48.537882 
L 372.893412 48.429176 
L 374.149485 48.320471 
L 374.149485 48.266118 
L 375.278037 48.157412 
L 375.278037 48.103059 
L 375.826374 47.994353 
L 375.826374 47.94 
L 377.260975 47.831294 
L 377.369367 47.722588 
L 378.925112 47.613882 
L 378.925112 47.559529 
L 379.498952 47.450824 
L 379.498952 47.396471 
L 380.589249 47.287765 
L 380.589249 47.233412 
L 381.83257 47.124706 
L 381.92821 47.016 
L 382.808099 46.907294 
L 382.808099 46.852941 
L 383.311803 46.744235 
L 383.311803 46.689882 
L 384.255452 46.581176 
L 384.255452 46.472471 
L 384.918556 46.363765 
L 385.014196 46.200706 
L 385.562532 46.092 
L 385.562532 46.037647 
L 387.162909 45.928941 
L 387.213918 45.820235 
L 388.112934 45.711529 
L 388.112934 45.657176 
L 389.407263 45.548471 
L 389.496527 45.439765 
L 390.24252 45.331059 
L 390.24252 45.276706 
L 391.275432 45.168 
L 391.383824 45.059294 
L 392.085185 44.950588 
L 392.187201 44.841882 
L 393.054337 44.733176 
L 393.130849 44.624471 
L 394.40605 44.515765 
L 394.40605 44.461412 
L 395.381579 44.352706 
L 395.381579 44.298353 
L 396.478252 44.189647 
L 396.478252 44.135294 
L 397.798085 44.026588 
L 397.798085 43.972235 
L 398.263533 43.863529 
L 398.263533 43.809176 
L 398.837373 43.700471 
L 398.933013 43.537412 
L 399.80015 43.428706 
L 399.80015 43.374353 
L 400.578022 43.265647 
L 400.578022 43.211294 
L 402.956272 43.102588 
L 402.956272 43.048235 
L 404.932833 42.939529 
L 404.996593 42.776471 
L 405.28989 42.667765 
L 405.28989 42.559059 
L 406.915771 42.450353 
L 407.005035 42.341647 
L 407.757403 42.232941 
L 407.757403 42.178588 
L 408.662796 42.069882 
L 408.662796 42.015529 
L 410.594725 41.906824 
L 410.639357 41.743765 
L 411.104806 41.635059 
L 411.104806 41.580706 
L 414.72 41.472 
L 414.72 41.472 
" style="fill:none;stroke:#ff8c00;stroke-linecap:square;stroke-width:2;"/>
   </g>
   <g id="line2d_14">
    <path clip-path="url(#p2920d8ac7e)" d="M 57.6 307.584 
L 414.72 41.472 
" style="fill:none;stroke:#000080;stroke-dasharray:7.4,3.2;stroke-dashoffset:0;stroke-width:2;"/>
   </g>
   <g id="patch_3">
    <path d="M 57.6 307.584 
L 57.6 41.472 
" style="fill:none;stroke:#000000;stroke-linecap:square;stroke-linejoin:miter;stroke-width:0.8;"/>
   </g>
   <g id="patch_4">
    <path d="M 414.72 307.584 
L 414.72 41.472 
" style="fill:none;stroke:#000000;stroke-linecap:square;stroke-linejoin:miter;stroke-width:0.8;"/>
   </g>
   <g id="patch_5">
    <path d="M 57.6 307.584 
L 414.72 307.584 
" style="fill:none;stroke:#000000;stroke-linecap:square;stroke-linejoin:miter;stroke-width:0.8;"/>
   </g>
   <g id="patch_6">
    <path d="M 57.6 41.472 
L 414.72 41.472 
" style="fill:none;stroke:#000000;stroke-linecap:square;stroke-linejoin:miter;stroke-width:0.8;"/>
   </g>
   <g id="text_15">
    <!-- Receiver operating characteristic -->
    <defs>
     <path d="M 48.78125 52.59375 
L 48.78125 44.1875 
Q 44.96875 46.296875 41.140625 47.34375 
Q 37.3125 48.390625 33.40625 48.390625 
Q 24.65625 48.390625 19.8125 42.84375 
Q 14.984375 37.3125 14.984375 27.296875 
Q 14.984375 17.28125 19.8125 11.734375 
Q 24.65625 6.203125 33.40625 6.203125 
Q 37.3125 6.203125 41.140625 7.25 
Q 44.96875 8.296875 48.78125 10.40625 
L 48.78125 2.09375 
Q 45.015625 0.34375 40.984375 -0.53125 
Q 36.96875 -1.421875 32.421875 -1.421875 
Q 20.0625 -1.421875 12.78125 6.34375 
Q 5.515625 14.109375 5.515625 27.296875 
Q 5.515625 40.671875 12.859375 48.328125 
Q 20.21875 56 33.015625 56 
Q 37.15625 56 41.109375 55.140625 
Q 45.0625 54.296875 48.78125 52.59375 
z
" id="DejaVuSans-99"/>
     <path d="M 18.109375 8.203125 
L 18.109375 -20.796875 
L 9.078125 -20.796875 
L 9.078125 54.6875 
L 18.109375 54.6875 
L 18.109375 46.390625 
Q 20.953125 51.265625 25.265625 53.625 
Q 29.59375 56 35.59375 56 
Q 45.5625 56 51.78125 48.09375 
Q 58.015625 40.1875 58.015625 27.296875 
Q 58.015625 14.40625 51.78125 6.484375 
Q 45.5625 -1.421875 35.59375 -1.421875 
Q 29.59375 -1.421875 25.265625 0.953125 
Q 20.953125 3.328125 18.109375 8.203125 
z
M 48.6875 27.296875 
Q 48.6875 37.203125 44.609375 42.84375 
Q 40.53125 48.484375 33.40625 48.484375 
Q 26.265625 48.484375 22.1875 42.84375 
Q 18.109375 37.203125 18.109375 27.296875 
Q 18.109375 17.390625 22.1875 11.75 
Q 26.265625 6.109375 33.40625 6.109375 
Q 40.53125 6.109375 44.609375 11.75 
Q 48.6875 17.390625 48.6875 27.296875 
z
" id="DejaVuSans-112"/>
     <path d="M 54.890625 33.015625 
L 54.890625 0 
L 45.90625 0 
L 45.90625 32.71875 
Q 45.90625 40.484375 42.875 44.328125 
Q 39.84375 48.1875 33.796875 48.1875 
Q 26.515625 48.1875 22.3125 43.546875 
Q 18.109375 38.921875 18.109375 30.90625 
L 18.109375 0 
L 9.078125 0 
L 9.078125 54.6875 
L 18.109375 54.6875 
L 18.109375 46.1875 
Q 21.34375 51.125 25.703125 53.5625 
Q 30.078125 56 35.796875 56 
Q 45.21875 56 50.046875 50.171875 
Q 54.890625 44.34375 54.890625 33.015625 
z
" id="DejaVuSans-110"/>
     <path d="M 45.40625 27.984375 
Q 45.40625 37.75 41.375 43.109375 
Q 37.359375 48.484375 30.078125 48.484375 
Q 22.859375 48.484375 18.828125 43.109375 
Q 14.796875 37.75 14.796875 27.984375 
Q 14.796875 18.265625 18.828125 12.890625 
Q 22.859375 7.515625 30.078125 7.515625 
Q 37.359375 7.515625 41.375 12.890625 
Q 45.40625 18.265625 45.40625 27.984375 
z
M 54.390625 6.78125 
Q 54.390625 -7.171875 48.1875 -13.984375 
Q 42 -20.796875 29.203125 -20.796875 
Q 24.46875 -20.796875 20.265625 -20.09375 
Q 16.0625 -19.390625 12.109375 -17.921875 
L 12.109375 -9.1875 
Q 16.0625 -11.328125 19.921875 -12.34375 
Q 23.78125 -13.375 27.78125 -13.375 
Q 36.625 -13.375 41.015625 -8.765625 
Q 45.40625 -4.15625 45.40625 5.171875 
L 45.40625 9.625 
Q 42.625 4.78125 38.28125 2.390625 
Q 33.9375 0 27.875 0 
Q 17.828125 0 11.671875 7.65625 
Q 5.515625 15.328125 5.515625 27.984375 
Q 5.515625 40.671875 11.671875 48.328125 
Q 17.828125 56 27.875 56 
Q 33.9375 56 38.28125 53.609375 
Q 42.625 51.21875 45.40625 46.390625 
L 45.40625 54.6875 
L 54.390625 54.6875 
z
" id="DejaVuSans-103"/>
     <path d="M 54.890625 33.015625 
L 54.890625 0 
L 45.90625 0 
L 45.90625 32.71875 
Q 45.90625 40.484375 42.875 44.328125 
Q 39.84375 48.1875 33.796875 48.1875 
Q 26.515625 48.1875 22.3125 43.546875 
Q 18.109375 38.921875 18.109375 30.90625 
L 18.109375 0 
L 9.078125 0 
L 9.078125 75.984375 
L 18.109375 75.984375 
L 18.109375 46.1875 
Q 21.34375 51.125 25.703125 53.5625 
Q 30.078125 56 35.796875 56 
Q 45.21875 56 50.046875 50.171875 
Q 54.890625 44.34375 54.890625 33.015625 
z
" id="DejaVuSans-104"/>
    </defs>
    <g transform="translate(136.333125 35.472)scale(0.12 -0.12)">
     <use xlink:href="#DejaVuSans-82"/>
     <use x="69.419922" xlink:href="#DejaVuSans-101"/>
     <use x="130.943359" xlink:href="#DejaVuSans-99"/>
     <use x="185.923828" xlink:href="#DejaVuSans-101"/>
     <use x="247.447266" xlink:href="#DejaVuSans-105"/>
     <use x="275.230469" xlink:href="#DejaVuSans-118"/>
     <use x="334.410156" xlink:href="#DejaVuSans-101"/>
     <use x="395.933594" xlink:href="#DejaVuSans-114"/>
     <use x="437.046875" xlink:href="#DejaVuSans-32"/>
     <use x="468.833984" xlink:href="#DejaVuSans-111"/>
     <use x="530.015625" xlink:href="#DejaVuSans-112"/>
     <use x="593.492188" xlink:href="#DejaVuSans-101"/>
     <use x="655.015625" xlink:href="#DejaVuSans-114"/>
     <use x="696.128906" xlink:href="#DejaVuSans-97"/>
     <use x="757.408203" xlink:href="#DejaVuSans-116"/>
     <use x="796.617188" xlink:href="#DejaVuSans-105"/>
     <use x="824.400391" xlink:href="#DejaVuSans-110"/>
     <use x="887.779297" xlink:href="#DejaVuSans-103"/>
     <use x="951.255859" xlink:href="#DejaVuSans-32"/>
     <use x="983.042969" xlink:href="#DejaVuSans-99"/>
     <use x="1038.023438" xlink:href="#DejaVuSans-104"/>
     <use x="1101.402344" xlink:href="#DejaVuSans-97"/>
     <use x="1162.681641" xlink:href="#DejaVuSans-114"/>
     <use x="1203.794922" xlink:href="#DejaVuSans-97"/>
     <use x="1265.074219" xlink:href="#DejaVuSans-99"/>
     <use x="1320.054688" xlink:href="#DejaVuSans-116"/>
     <use x="1359.263672" xlink:href="#DejaVuSans-101"/>
     <use x="1420.787109" xlink:href="#DejaVuSans-114"/>
     <use x="1461.900391" xlink:href="#DejaVuSans-105"/>
     <use x="1489.683594" xlink:href="#DejaVuSans-115"/>
     <use x="1541.783203" xlink:href="#DejaVuSans-116"/>
     <use x="1580.992188" xlink:href="#DejaVuSans-105"/>
     <use x="1608.775391" xlink:href="#DejaVuSans-99"/>
    </g>
   </g>
   <g id="legend_1">
    <g id="patch_7">
     <path d="M 247.5575 302.584 
L 407.72 302.584 
Q 409.72 302.584 409.72 300.584 
L 409.72 286.905875 
Q 409.72 284.905875 407.72 284.905875 
L 247.5575 284.905875 
Q 245.5575 284.905875 245.5575 286.905875 
L 245.5575 300.584 
Q 245.5575 302.584 247.5575 302.584 
z
" style="fill:#ffffff;opacity:0.8;stroke:#cccccc;stroke-linejoin:miter;"/>
    </g>
    <g id="line2d_15">
     <path d="M 249.5575 293.004312 
L 269.5575 293.004312 
" style="fill:none;stroke:#ff8c00;stroke-linecap:square;stroke-width:2;"/>
    </g>
    <g id="line2d_16"/>
    <g id="text_16">
     <!-- ROC Curve (area =  0.72) -->
     <defs>
      <path d="M 39.40625 66.21875 
Q 28.65625 66.21875 22.328125 58.203125 
Q 16.015625 50.203125 16.015625 36.375 
Q 16.015625 22.609375 22.328125 14.59375 
Q 28.65625 6.59375 39.40625 6.59375 
Q 50.140625 6.59375 56.421875 14.59375 
Q 62.703125 22.609375 62.703125 36.375 
Q 62.703125 50.203125 56.421875 58.203125 
Q 50.140625 66.21875 39.40625 66.21875 
z
M 39.40625 74.21875 
Q 54.734375 74.21875 63.90625 63.9375 
Q 73.09375 53.65625 73.09375 36.375 
Q 73.09375 19.140625 63.90625 8.859375 
Q 54.734375 -1.421875 39.40625 -1.421875 
Q 24.03125 -1.421875 14.8125 8.828125 
Q 5.609375 19.09375 5.609375 36.375 
Q 5.609375 53.65625 14.8125 63.9375 
Q 24.03125 74.21875 39.40625 74.21875 
z
" id="DejaVuSans-79"/>
      <path d="M 64.40625 67.28125 
L 64.40625 56.890625 
Q 59.421875 61.53125 53.78125 63.8125 
Q 48.140625 66.109375 41.796875 66.109375 
Q 29.296875 66.109375 22.65625 58.46875 
Q 16.015625 50.828125 16.015625 36.375 
Q 16.015625 21.96875 22.65625 14.328125 
Q 29.296875 6.6875 41.796875 6.6875 
Q 48.140625 6.6875 53.78125 8.984375 
Q 59.421875 11.28125 64.40625 15.921875 
L 64.40625 5.609375 
Q 59.234375 2.09375 53.4375 0.328125 
Q 47.65625 -1.421875 41.21875 -1.421875 
Q 24.65625 -1.421875 15.125 8.703125 
Q 5.609375 18.84375 5.609375 36.375 
Q 5.609375 53.953125 15.125 64.078125 
Q 24.65625 74.21875 41.21875 74.21875 
Q 47.75 74.21875 53.53125 72.484375 
Q 59.328125 70.75 64.40625 67.28125 
z
" id="DejaVuSans-67"/>
      <path d="M 31 75.875 
Q 24.46875 64.65625 21.28125 53.65625 
Q 18.109375 42.671875 18.109375 31.390625 
Q 18.109375 20.125 21.3125 9.0625 
Q 24.515625 -2 31 -13.1875 
L 23.1875 -13.1875 
Q 15.875 -1.703125 12.234375 9.375 
Q 8.59375 20.453125 8.59375 31.390625 
Q 8.59375 42.28125 12.203125 53.3125 
Q 15.828125 64.359375 23.1875 75.875 
z
" id="DejaVuSans-40"/>
      <path d="M 10.59375 45.40625 
L 73.1875 45.40625 
L 73.1875 37.203125 
L 10.59375 37.203125 
z
M 10.59375 25.484375 
L 73.1875 25.484375 
L 73.1875 17.1875 
L 10.59375 17.1875 
z
" id="DejaVuSans-61"/>
      <path d="M 8.203125 72.90625 
L 55.078125 72.90625 
L 55.078125 68.703125 
L 28.609375 0 
L 18.3125 0 
L 43.21875 64.59375 
L 8.203125 64.59375 
z
" id="DejaVuSans-55"/>
      <path d="M 8.015625 75.875 
L 15.828125 75.875 
Q 23.140625 64.359375 26.78125 53.3125 
Q 30.421875 42.28125 30.421875 31.390625 
Q 30.421875 20.453125 26.78125 9.375 
Q 23.140625 -1.703125 15.828125 -13.1875 
L 8.015625 -13.1875 
Q 14.5 -2 17.703125 9.0625 
Q 20.90625 20.125 20.90625 31.390625 
Q 20.90625 42.671875 17.703125 53.65625 
Q 14.5 64.65625 8.015625 75.875 
z
" id="DejaVuSans-41"/>
     </defs>
     <g transform="translate(277.5575 296.504312)scale(0.1 -0.1)">
      <use xlink:href="#DejaVuSans-82"/>
      <use x="69.482422" xlink:href="#DejaVuSans-79"/>
      <use x="148.193359" xlink:href="#DejaVuSans-67"/>
      <use x="218.017578" xlink:href="#DejaVuSans-32"/>
      <use x="249.804688" xlink:href="#DejaVuSans-67"/>
      <use x="319.628906" xlink:href="#DejaVuSans-117"/>
      <use x="383.007812" xlink:href="#DejaVuSans-114"/>
      <use x="424.121094" xlink:href="#DejaVuSans-118"/>
      <use x="483.300781" xlink:href="#DejaVuSans-101"/>
      <use x="544.824219" xlink:href="#DejaVuSans-32"/>
      <use x="576.611328" xlink:href="#DejaVuSans-40"/>
      <use x="615.625" xlink:href="#DejaVuSans-97"/>
      <use x="676.904297" xlink:href="#DejaVuSans-114"/>
      <use x="717.986328" xlink:href="#DejaVuSans-101"/>
      <use x="779.509766" xlink:href="#DejaVuSans-97"/>
      <use x="840.789062" xlink:href="#DejaVuSans-32"/>
      <use x="872.576172" xlink:href="#DejaVuSans-61"/>
      <use x="956.365234" xlink:href="#DejaVuSans-32"/>
      <use x="988.152344" xlink:href="#DejaVuSans-32"/>
      <use x="1019.939453" xlink:href="#DejaVuSans-48"/>
      <use x="1083.5625" xlink:href="#DejaVuSans-46"/>
      <use x="1115.349609" xlink:href="#DejaVuSans-55"/>
      <use x="1178.972656" xlink:href="#DejaVuSans-50"/>
      <use x="1242.595703" xlink:href="#DejaVuSans-41"/>
     </g>
    </g>
   </g>
  </g>
 </g>
 <defs>
  <clipPath id="p2920d8ac7e">
   <rect height="266.112" width="357.12" x="57.6" y="41.472"/>
  </clipPath>
 </defs>
</svg>
