<?xml version="1.0" encoding="utf-8" standalone="no"?>
<!DOCTYPE svg PUBLIC "-//W3C//DTD SVG 1.1//EN"
  "http://www.w3.org/Graphics/SVG/1.1/DTD/svg11.dtd">
<!-- Created with matplotlib (https://matplotlib.org/) -->
<svg height="345.6pt" version="1.1" viewBox="0 0 460.8 345.6" width="460.8pt" xmlns="http://www.w3.org/2000/svg" xmlns:xlink="http://www.w3.org/1999/xlink">
 <defs>
  <style type="text/css">
*{stroke-linecap:butt;stroke-linejoin:round;}
  </style>
 </defs>
 <g id="figure_1">
  <g id="patch_1">
   <path d="M 0 345.6 
L 460.8 345.6 
L 460.8 0 
L 0 0 
z
" style="fill:#ffffff;"/>
  </g>
  <g id="axes_1">
   <g id="patch_2">
    <path d="M 57.6 307.584 
L 414.72 307.584 
L 414.72 41.472 
L 57.6 41.472 
z
" style="fill:#ffffff;"/>
   </g>
   <g id="matplotlib.axis_1">
    <g id="xtick_1">
     <g id="line2d_1">
      <defs>
       <path d="M 0 0 
L 0 3.5 
" id="m2e8f05fd29" style="stroke:#000000;stroke-width:0.8;"/>
      </defs>
      <g>
       <use style="stroke:#000000;stroke-width:0.8;" x="57.6" xlink:href="#m2e8f05fd29" y="307.584"/>
      </g>
     </g>
     <g id="text_1">
      <!-- 0.0 -->
      <defs>
       <path d="M 31.78125 66.40625 
Q 24.171875 66.40625 20.328125 58.90625 
Q 16.5 51.421875 16.5 36.375 
Q 16.5 21.390625 20.328125 13.890625 
Q 24.171875 6.390625 31.78125 6.390625 
Q 39.453125 6.390625 43.28125 13.890625 
Q 47.125 21.390625 47.125 36.375 
Q 47.125 51.421875 43.28125 58.90625 
Q 39.453125 66.40625 31.78125 66.40625 
z
M 31.78125 74.21875 
Q 44.046875 74.21875 50.515625 64.515625 
Q 56.984375 54.828125 56.984375 36.375 
Q 56.984375 17.96875 50.515625 8.265625 
Q 44.046875 -1.421875 31.78125 -1.421875 
Q 19.53125 -1.421875 13.0625 8.265625 
Q 6.59375 17.96875 6.59375 36.375 
Q 6.59375 54.828125 13.0625 64.515625 
Q 19.53125 74.21875 31.78125 74.21875 
z
" id="DejaVuSans-48"/>
       <path d="M 10.6875 12.40625 
L 21 12.40625 
L 21 0 
L 10.6875 0 
z
" id="DejaVuSans-46"/>
      </defs>
      <g transform="translate(49.648438 322.182437)scale(0.1 -0.1)">
       <use xlink:href="#DejaVuSans-48"/>
       <use x="63.623047" xlink:href="#DejaVuSans-46"/>
       <use x="95.410156" xlink:href="#DejaVuSans-48"/>
      </g>
     </g>
    </g>
    <g id="xtick_2">
     <g id="line2d_2">
      <g>
       <use style="stroke:#000000;stroke-width:0.8;" x="129.024" xlink:href="#m2e8f05fd29" y="307.584"/>
      </g>
     </g>
     <g id="text_2">
      <!-- 0.2 -->
      <defs>
       <path d="M 19.1875 8.296875 
L 53.609375 8.296875 
L 53.609375 0 
L 7.328125 0 
L 7.328125 8.296875 
Q 12.9375 14.109375 22.625 23.890625 
Q 32.328125 33.6875 34.8125 36.53125 
Q 39.546875 41.84375 41.421875 45.53125 
Q 43.3125 49.21875 43.3125 52.78125 
Q 43.3125 58.59375 39.234375 62.25 
Q 35.15625 65.921875 28.609375 65.921875 
Q 23.96875 65.921875 18.8125 64.3125 
Q 13.671875 62.703125 7.8125 59.421875 
L 7.8125 69.390625 
Q 13.765625 71.78125 18.9375 73 
Q 24.125 74.21875 28.421875 74.21875 
Q 39.75 74.21875 46.484375 68.546875 
Q 53.21875 62.890625 53.21875 53.421875 
Q 53.21875 48.921875 51.53125 44.890625 
Q 49.859375 40.875 45.40625 35.40625 
Q 44.1875 33.984375 37.640625 27.21875 
Q 31.109375 20.453125 19.1875 8.296875 
z
" id="DejaVuSans-50"/>
      </defs>
      <g transform="translate(121.072438 322.182437)scale(0.1 -0.1)">
       <use xlink:href="#DejaVuSans-48"/>
       <use x="63.623047" xlink:href="#DejaVuSans-46"/>
       <use x="95.410156" xlink:href="#DejaVuSans-50"/>
      </g>
     </g>
    </g>
    <g id="xtick_3">
     <g id="line2d_3">
      <g>
       <use style="stroke:#000000;stroke-width:0.8;" x="200.448" xlink:href="#m2e8f05fd29" y="307.584"/>
      </g>
     </g>
     <g id="text_3">
      <!-- 0.4 -->
      <defs>
       <path d="M 37.796875 64.3125 
L 12.890625 25.390625 
L 37.796875 25.390625 
z
M 35.203125 72.90625 
L 47.609375 72.90625 
L 47.609375 25.390625 
L 58.015625 25.390625 
L 58.015625 17.1875 
L 47.609375 17.1875 
L 47.609375 0 
L 37.796875 0 
L 37.796875 17.1875 
L 4.890625 17.1875 
L 4.890625 26.703125 
z
" id="DejaVuSans-52"/>
      </defs>
      <g transform="translate(192.496438 322.182437)scale(0.1 -0.1)">
       <use xlink:href="#DejaVuSans-48"/>
       <use x="63.623047" xlink:href="#DejaVuSans-46"/>
       <use x="95.410156" xlink:href="#DejaVuSans-52"/>
      </g>
     </g>
    </g>
    <g id="xtick_4">
     <g id="line2d_4">
      <g>
       <use style="stroke:#000000;stroke-width:0.8;" x="271.872" xlink:href="#m2e8f05fd29" y="307.584"/>
      </g>
     </g>
     <g id="text_4">
      <!-- 0.6 -->
      <defs>
       <path d="M 33.015625 40.375 
Q 26.375 40.375 22.484375 35.828125 
Q 18.609375 31.296875 18.609375 23.390625 
Q 18.609375 15.53125 22.484375 10.953125 
Q 26.375 6.390625 33.015625 6.390625 
Q 39.65625 6.390625 43.53125 10.953125 
Q 47.40625 15.53125 47.40625 23.390625 
Q 47.40625 31.296875 43.53125 35.828125 
Q 39.65625 40.375 33.015625 40.375 
z
M 52.59375 71.296875 
L 52.59375 62.3125 
Q 48.875 64.0625 45.09375 64.984375 
Q 41.3125 65.921875 37.59375 65.921875 
Q 27.828125 65.921875 22.671875 59.328125 
Q 17.53125 52.734375 16.796875 39.40625 
Q 19.671875 43.65625 24.015625 45.921875 
Q 28.375 48.1875 33.59375 48.1875 
Q 44.578125 48.1875 50.953125 41.515625 
Q 57.328125 34.859375 57.328125 23.390625 
Q 57.328125 12.15625 50.6875 5.359375 
Q 44.046875 -1.421875 33.015625 -1.421875 
Q 20.359375 -1.421875 13.671875 8.265625 
Q 6.984375 17.96875 6.984375 36.375 
Q 6.984375 53.65625 15.1875 63.9375 
Q 23.390625 74.21875 37.203125 74.21875 
Q 40.921875 74.21875 44.703125 73.484375 
Q 48.484375 72.75 52.59375 71.296875 
z
" id="DejaVuSans-54"/>
      </defs>
      <g transform="translate(263.920438 322.182437)scale(0.1 -0.1)">
       <use xlink:href="#DejaVuSans-48"/>
       <use x="63.623047" xlink:href="#DejaVuSans-46"/>
       <use x="95.410156" xlink:href="#DejaVuSans-54"/>
      </g>
     </g>
    </g>
    <g id="xtick_5">
     <g id="line2d_5">
      <g>
       <use style="stroke:#000000;stroke-width:0.8;" x="343.296" xlink:href="#m2e8f05fd29" y="307.584"/>
      </g>
     </g>
     <g id="text_5">
      <!-- 0.8 -->
      <defs>
       <path d="M 31.78125 34.625 
Q 24.75 34.625 20.71875 30.859375 
Q 16.703125 27.09375 16.703125 20.515625 
Q 16.703125 13.921875 20.71875 10.15625 
Q 24.75 6.390625 31.78125 6.390625 
Q 38.8125 6.390625 42.859375 10.171875 
Q 46.921875 13.96875 46.921875 20.515625 
Q 46.921875 27.09375 42.890625 30.859375 
Q 38.875 34.625 31.78125 34.625 
z
M 21.921875 38.8125 
Q 15.578125 40.375 12.03125 44.71875 
Q 8.5 49.078125 8.5 55.328125 
Q 8.5 64.0625 14.71875 69.140625 
Q 20.953125 74.21875 31.78125 74.21875 
Q 42.671875 74.21875 48.875 69.140625 
Q 55.078125 64.0625 55.078125 55.328125 
Q 55.078125 49.078125 51.53125 44.71875 
Q 48 40.375 41.703125 38.8125 
Q 48.828125 37.15625 52.796875 32.3125 
Q 56.78125 27.484375 56.78125 20.515625 
Q 56.78125 9.90625 50.3125 4.234375 
Q 43.84375 -1.421875 31.78125 -1.421875 
Q 19.734375 -1.421875 13.25 4.234375 
Q 6.78125 9.90625 6.78125 20.515625 
Q 6.78125 27.484375 10.78125 32.3125 
Q 14.796875 37.15625 21.921875 38.8125 
z
M 18.3125 54.390625 
Q 18.3125 48.734375 21.84375 45.5625 
Q 25.390625 42.390625 31.78125 42.390625 
Q 38.140625 42.390625 41.71875 45.5625 
Q 45.3125 48.734375 45.3125 54.390625 
Q 45.3125 60.0625 41.71875 63.234375 
Q 38.140625 66.40625 31.78125 66.40625 
Q 25.390625 66.40625 21.84375 63.234375 
Q 18.3125 60.0625 18.3125 54.390625 
z
" id="DejaVuSans-56"/>
      </defs>
      <g transform="translate(335.344438 322.182437)scale(0.1 -0.1)">
       <use xlink:href="#DejaVuSans-48"/>
       <use x="63.623047" xlink:href="#DejaVuSans-46"/>
       <use x="95.410156" xlink:href="#DejaVuSans-56"/>
      </g>
     </g>
    </g>
    <g id="xtick_6">
     <g id="line2d_6">
      <g>
       <use style="stroke:#000000;stroke-width:0.8;" x="414.72" xlink:href="#m2e8f05fd29" y="307.584"/>
      </g>
     </g>
     <g id="text_6">
      <!-- 1.0 -->
      <defs>
       <path d="M 12.40625 8.296875 
L 28.515625 8.296875 
L 28.515625 63.921875 
L 10.984375 60.40625 
L 10.984375 69.390625 
L 28.421875 72.90625 
L 38.28125 72.90625 
L 38.28125 8.296875 
L 54.390625 8.296875 
L 54.390625 0 
L 12.40625 0 
z
" id="DejaVuSans-49"/>
      </defs>
      <g transform="translate(406.768438 322.182437)scale(0.1 -0.1)">
       <use xlink:href="#DejaVuSans-49"/>
       <use x="63.623047" xlink:href="#DejaVuSans-46"/>
       <use x="95.410156" xlink:href="#DejaVuSans-48"/>
      </g>
     </g>
    </g>
    <g id="text_7">
     <!-- False Positive Rate -->
     <defs>
      <path d="M 9.8125 72.90625 
L 51.703125 72.90625 
L 51.703125 64.59375 
L 19.671875 64.59375 
L 19.671875 43.109375 
L 48.578125 43.109375 
L 48.578125 34.8125 
L 19.671875 34.8125 
L 19.671875 0 
L 9.8125 0 
z
" id="DejaVuSans-70"/>
      <path d="M 34.28125 27.484375 
Q 23.390625 27.484375 19.1875 25 
Q 14.984375 22.515625 14.984375 16.5 
Q 14.984375 11.71875 18.140625 8.90625 
Q 21.296875 6.109375 26.703125 6.109375 
Q 34.1875 6.109375 38.703125 11.40625 
Q 43.21875 16.703125 43.21875 25.484375 
L 43.21875 27.484375 
z
M 52.203125 31.203125 
L 52.203125 0 
L 43.21875 0 
L 43.21875 8.296875 
Q 40.140625 3.328125 35.546875 0.953125 
Q 30.953125 -1.421875 24.3125 -1.421875 
Q 15.921875 -1.421875 10.953125 3.296875 
Q 6 8.015625 6 15.921875 
Q 6 25.140625 12.171875 29.828125 
Q 18.359375 34.515625 30.609375 34.515625 
L 43.21875 34.515625 
L 43.21875 35.40625 
Q 43.21875 41.609375 39.140625 45 
Q 35.0625 48.390625 27.6875 48.390625 
Q 23 48.390625 18.546875 47.265625 
Q 14.109375 46.140625 10.015625 43.890625 
L 10.015625 52.203125 
Q 14.9375 54.109375 19.578125 55.046875 
Q 24.21875 56 28.609375 56 
Q 40.484375 56 46.34375 49.84375 
Q 52.203125 43.703125 52.203125 31.203125 
z
" id="DejaVuSans-97"/>
      <path d="M 9.421875 75.984375 
L 18.40625 75.984375 
L 18.40625 0 
L 9.421875 0 
z
" id="DejaVuSans-108"/>
      <path d="M 44.28125 53.078125 
L 44.28125 44.578125 
Q 40.484375 46.53125 36.375 47.5 
Q 32.28125 48.484375 27.875 48.484375 
Q 21.1875 48.484375 17.84375 46.4375 
Q 14.5 44.390625 14.5 40.28125 
Q 14.5 37.15625 16.890625 35.375 
Q 19.28125 33.59375 26.515625 31.984375 
L 29.59375 31.296875 
Q 39.15625 29.25 43.1875 25.515625 
Q 47.21875 21.78125 47.21875 15.09375 
Q 47.21875 7.46875 41.1875 3.015625 
Q 35.15625 -1.421875 24.609375 -1.421875 
Q 20.21875 -1.421875 15.453125 -0.5625 
Q 10.6875 0.296875 5.421875 2 
L 5.421875 11.28125 
Q 10.40625 8.6875 15.234375 7.390625 
Q 20.0625 6.109375 24.8125 6.109375 
Q 31.15625 6.109375 34.5625 8.28125 
Q 37.984375 10.453125 37.984375 14.40625 
Q 37.984375 18.0625 35.515625 20.015625 
Q 33.0625 21.96875 24.703125 23.78125 
L 21.578125 24.515625 
Q 13.234375 26.265625 9.515625 29.90625 
Q 5.8125 33.546875 5.8125 39.890625 
Q 5.8125 47.609375 11.28125 51.796875 
Q 16.75 56 26.8125 56 
Q 31.78125 56 36.171875 55.265625 
Q 40.578125 54.546875 44.28125 53.078125 
z
" id="DejaVuSans-115"/>
      <path d="M 56.203125 29.59375 
L 56.203125 25.203125 
L 14.890625 25.203125 
Q 15.484375 15.921875 20.484375 11.0625 
Q 25.484375 6.203125 34.421875 6.203125 
Q 39.59375 6.203125 44.453125 7.46875 
Q 49.3125 8.734375 54.109375 11.28125 
L 54.109375 2.78125 
Q 49.265625 0.734375 44.1875 -0.34375 
Q 39.109375 -1.421875 33.890625 -1.421875 
Q 20.796875 -1.421875 13.15625 6.1875 
Q 5.515625 13.8125 5.515625 26.8125 
Q 5.515625 40.234375 12.765625 48.109375 
Q 20.015625 56 32.328125 56 
Q 43.359375 56 49.78125 48.890625 
Q 56.203125 41.796875 56.203125 29.59375 
z
M 47.21875 32.234375 
Q 47.125 39.59375 43.09375 43.984375 
Q 39.0625 48.390625 32.421875 48.390625 
Q 24.90625 48.390625 20.390625 44.140625 
Q 15.875 39.890625 15.1875 32.171875 
z
" id="DejaVuSans-101"/>
      <path id="DejaVuSans-32"/>
      <path d="M 19.671875 64.796875 
L 19.671875 37.40625 
L 32.078125 37.40625 
Q 38.96875 37.40625 42.71875 40.96875 
Q 46.484375 44.53125 46.484375 51.125 
Q 46.484375 57.671875 42.71875 61.234375 
Q 38.96875 64.796875 32.078125 64.796875 
z
M 9.8125 72.90625 
L 32.078125 72.90625 
Q 44.34375 72.90625 50.609375 67.359375 
Q 56.890625 61.8125 56.890625 51.125 
Q 56.890625 40.328125 50.609375 34.8125 
Q 44.34375 29.296875 32.078125 29.296875 
L 19.671875 29.296875 
L 19.671875 0 
L 9.8125 0 
z
" id="DejaVuSans-80"/>
      <path d="M 30.609375 48.390625 
Q 23.390625 48.390625 19.1875 42.75 
Q 14.984375 37.109375 14.984375 27.296875 
Q 14.984375 17.484375 19.15625 11.84375 
Q 23.34375 6.203125 30.609375 6.203125 
Q 37.796875 6.203125 41.984375 11.859375 
Q 46.1875 17.53125 46.1875 27.296875 
Q 46.1875 37.015625 41.984375 42.703125 
Q 37.796875 48.390625 30.609375 48.390625 
z
M 30.609375 56 
Q 42.328125 56 49.015625 48.375 
Q 55.71875 40.765625 55.71875 27.296875 
Q 55.71875 13.875 49.015625 6.21875 
Q 42.328125 -1.421875 30.609375 -1.421875 
Q 18.84375 -1.421875 12.171875 6.21875 
Q 5.515625 13.875 5.515625 27.296875 
Q 5.515625 40.765625 12.171875 48.375 
Q 18.84375 56 30.609375 56 
z
" id="DejaVuSans-111"/>
      <path d="M 9.421875 54.6875 
L 18.40625 54.6875 
L 18.40625 0 
L 9.421875 0 
z
M 9.421875 75.984375 
L 18.40625 75.984375 
L 18.40625 64.59375 
L 9.421875 64.59375 
z
" id="DejaVuSans-105"/>
      <path d="M 18.3125 70.21875 
L 18.3125 54.6875 
L 36.8125 54.6875 
L 36.8125 47.703125 
L 18.3125 47.703125 
L 18.3125 18.015625 
Q 18.3125 11.328125 20.140625 9.421875 
Q 21.96875 7.515625 27.59375 7.515625 
L 36.8125 7.515625 
L 36.8125 0 
L 27.59375 0 
Q 17.1875 0 13.234375 3.875 
Q 9.28125 7.765625 9.28125 18.015625 
L 9.28125 47.703125 
L 2.6875 47.703125 
L 2.6875 54.6875 
L 9.28125 54.6875 
L 9.28125 70.21875 
z
" id="DejaVuSans-116"/>
      <path d="M 2.984375 54.6875 
L 12.5 54.6875 
L 29.59375 8.796875 
L 46.6875 54.6875 
L 56.203125 54.6875 
L 35.6875 0 
L 23.484375 0 
z
" id="DejaVuSans-118"/>
      <path d="M 44.390625 34.1875 
Q 47.5625 33.109375 50.5625 29.59375 
Q 53.5625 26.078125 56.59375 19.921875 
L 66.609375 0 
L 56 0 
L 46.6875 18.703125 
Q 43.0625 26.03125 39.671875 28.421875 
Q 36.28125 30.8125 30.421875 30.8125 
L 19.671875 30.8125 
L 19.671875 0 
L 9.8125 0 
L 9.8125 72.90625 
L 32.078125 72.90625 
Q 44.578125 72.90625 50.734375 67.671875 
Q 56.890625 62.453125 56.890625 51.90625 
Q 56.890625 45.015625 53.6875 40.46875 
Q 50.484375 35.9375 44.390625 34.1875 
z
M 19.671875 64.796875 
L 19.671875 38.921875 
L 32.078125 38.921875 
Q 39.203125 38.921875 42.84375 42.21875 
Q 46.484375 45.515625 46.484375 51.90625 
Q 46.484375 58.296875 42.84375 61.546875 
Q 39.203125 64.796875 32.078125 64.796875 
z
" id="DejaVuSans-82"/>
     </defs>
     <g transform="translate(188.954531 335.860562)scale(0.1 -0.1)">
      <use xlink:href="#DejaVuSans-70"/>
      <use x="57.378906" xlink:href="#DejaVuSans-97"/>
      <use x="118.658203" xlink:href="#DejaVuSans-108"/>
      <use x="146.441406" xlink:href="#DejaVuSans-115"/>
      <use x="198.541016" xlink:href="#DejaVuSans-101"/>
      <use x="260.064453" xlink:href="#DejaVuSans-32"/>
      <use x="291.851562" xlink:href="#DejaVuSans-80"/>
      <use x="352.107422" xlink:href="#DejaVuSans-111"/>
      <use x="413.289062" xlink:href="#DejaVuSans-115"/>
      <use x="465.388672" xlink:href="#DejaVuSans-105"/>
      <use x="493.171875" xlink:href="#DejaVuSans-116"/>
      <use x="532.380859" xlink:href="#DejaVuSans-105"/>
      <use x="560.164062" xlink:href="#DejaVuSans-118"/>
      <use x="619.34375" xlink:href="#DejaVuSans-101"/>
      <use x="680.867188" xlink:href="#DejaVuSans-32"/>
      <use x="712.654297" xlink:href="#DejaVuSans-82"/>
      <use x="782.105469" xlink:href="#DejaVuSans-97"/>
      <use x="843.384766" xlink:href="#DejaVuSans-116"/>
      <use x="882.59375" xlink:href="#DejaVuSans-101"/>
     </g>
    </g>
   </g>
   <g id="matplotlib.axis_2">
    <g id="ytick_1">
     <g id="line2d_7">
      <defs>
       <path d="M 0 0 
L -3.5 0 
" id="m79e2d3a441" style="stroke:#000000;stroke-width:0.8;"/>
      </defs>
      <g>
       <use style="stroke:#000000;stroke-width:0.8;" x="57.6" xlink:href="#m79e2d3a441" y="307.584"/>
      </g>
     </g>
     <g id="text_8">
      <!-- 0.0 -->
      <g transform="translate(34.696875 311.383219)scale(0.1 -0.1)">
       <use xlink:href="#DejaVuSans-48"/>
       <use x="63.623047" xlink:href="#DejaVuSans-46"/>
       <use x="95.410156" xlink:href="#DejaVuSans-48"/>
      </g>
     </g>
    </g>
    <g id="ytick_2">
     <g id="line2d_8">
      <g>
       <use style="stroke:#000000;stroke-width:0.8;" x="57.6" xlink:href="#m79e2d3a441" y="254.3616"/>
      </g>
     </g>
     <g id="text_9">
      <!-- 0.2 -->
      <g transform="translate(34.696875 258.160819)scale(0.1 -0.1)">
       <use xlink:href="#DejaVuSans-48"/>
       <use x="63.623047" xlink:href="#DejaVuSans-46"/>
       <use x="95.410156" xlink:href="#DejaVuSans-50"/>
      </g>
     </g>
    </g>
    <g id="ytick_3">
     <g id="line2d_9">
      <g>
       <use style="stroke:#000000;stroke-width:0.8;" x="57.6" xlink:href="#m79e2d3a441" y="201.1392"/>
      </g>
     </g>
     <g id="text_10">
      <!-- 0.4 -->
      <g transform="translate(34.696875 204.938419)scale(0.1 -0.1)">
       <use xlink:href="#DejaVuSans-48"/>
       <use x="63.623047" xlink:href="#DejaVuSans-46"/>
       <use x="95.410156" xlink:href="#DejaVuSans-52"/>
      </g>
     </g>
    </g>
    <g id="ytick_4">
     <g id="line2d_10">
      <g>
       <use style="stroke:#000000;stroke-width:0.8;" x="57.6" xlink:href="#m79e2d3a441" y="147.9168"/>
      </g>
     </g>
     <g id="text_11">
      <!-- 0.6 -->
      <g transform="translate(34.696875 151.716019)scale(0.1 -0.1)">
       <use xlink:href="#DejaVuSans-48"/>
       <use x="63.623047" xlink:href="#DejaVuSans-46"/>
       <use x="95.410156" xlink:href="#DejaVuSans-54"/>
      </g>
     </g>
    </g>
    <g id="ytick_5">
     <g id="line2d_11">
      <g>
       <use style="stroke:#000000;stroke-width:0.8;" x="57.6" xlink:href="#m79e2d3a441" y="94.6944"/>
      </g>
     </g>
     <g id="text_12">
      <!-- 0.8 -->
      <g transform="translate(34.696875 98.493619)scale(0.1 -0.1)">
       <use xlink:href="#DejaVuSans-48"/>
       <use x="63.623047" xlink:href="#DejaVuSans-46"/>
       <use x="95.410156" xlink:href="#DejaVuSans-56"/>
      </g>
     </g>
    </g>
    <g id="ytick_6">
     <g id="line2d_12">
      <g>
       <use style="stroke:#000000;stroke-width:0.8;" x="57.6" xlink:href="#m79e2d3a441" y="41.472"/>
      </g>
     </g>
     <g id="text_13">
      <!-- 1.0 -->
      <g transform="translate(34.696875 45.271219)scale(0.1 -0.1)">
       <use xlink:href="#DejaVuSans-49"/>
       <use x="63.623047" xlink:href="#DejaVuSans-46"/>
       <use x="95.410156" xlink:href="#DejaVuSans-48"/>
      </g>
     </g>
    </g>
    <g id="text_14">
     <!-- True Positive Rate -->
     <defs>
      <path d="M -0.296875 72.90625 
L 61.375 72.90625 
L 61.375 64.59375 
L 35.5 64.59375 
L 35.5 0 
L 25.59375 0 
L 25.59375 64.59375 
L -0.296875 64.59375 
z
" id="DejaVuSans-84"/>
      <path d="M 41.109375 46.296875 
Q 39.59375 47.171875 37.8125 47.578125 
Q 36.03125 48 33.890625 48 
Q 26.265625 48 22.1875 43.046875 
Q 18.109375 38.09375 18.109375 28.8125 
L 18.109375 0 
L 9.078125 0 
L 9.078125 54.6875 
L 18.109375 54.6875 
L 18.109375 46.1875 
Q 20.953125 51.171875 25.484375 53.578125 
Q 30.03125 56 36.53125 56 
Q 37.453125 56 38.578125 55.875 
Q 39.703125 55.765625 41.0625 55.515625 
z
" id="DejaVuSans-114"/>
      <path d="M 8.5 21.578125 
L 8.5 54.6875 
L 17.484375 54.6875 
L 17.484375 21.921875 
Q 17.484375 14.15625 20.5 10.265625 
Q 23.53125 6.390625 29.59375 6.390625 
Q 36.859375 6.390625 41.078125 11.03125 
Q 45.3125 15.671875 45.3125 23.6875 
L 45.3125 54.6875 
L 54.296875 54.6875 
L 54.296875 0 
L 45.3125 0 
L 45.3125 8.40625 
Q 42.046875 3.421875 37.71875 1 
Q 33.40625 -1.421875 27.6875 -1.421875 
Q 18.265625 -1.421875 13.375 4.4375 
Q 8.5 10.296875 8.5 21.578125 
z
M 31.109375 56 
z
" id="DejaVuSans-117"/>
     </defs>
     <g transform="translate(28.617187 220.074094)rotate(-90)scale(0.1 -0.1)">
      <use xlink:href="#DejaVuSans-84"/>
      <use x="60.865234" xlink:href="#DejaVuSans-114"/>
      <use x="101.978516" xlink:href="#DejaVuSans-117"/>
      <use x="165.357422" xlink:href="#DejaVuSans-101"/>
      <use x="226.880859" xlink:href="#DejaVuSans-32"/>
      <use x="258.667969" xlink:href="#DejaVuSans-80"/>
      <use x="318.923828" xlink:href="#DejaVuSans-111"/>
      <use x="380.105469" xlink:href="#DejaVuSans-115"/>
      <use x="432.205078" xlink:href="#DejaVuSans-105"/>
      <use x="459.988281" xlink:href="#DejaVuSans-116"/>
      <use x="499.197266" xlink:href="#DejaVuSans-105"/>
      <use x="526.980469" xlink:href="#DejaVuSans-118"/>
      <use x="586.160156" xlink:href="#DejaVuSans-101"/>
      <use x="647.683594" xlink:href="#DejaVuSans-32"/>
      <use x="679.470703" xlink:href="#DejaVuSans-82"/>
      <use x="748.921875" xlink:href="#DejaVuSans-97"/>
      <use x="810.201172" xlink:href="#DejaVuSans-116"/>
      <use x="849.410156" xlink:href="#DejaVuSans-101"/>
     </g>
    </g>
   </g>
   <g id="line2d_13">
    <path clip-path="url(#p4e0a9338ae)" d="M 57.6 307.584 
L 57.631946 307.530905 
L 57.727785 306.94686 
L 57.753342 306.94686 
L 57.861959 305.938056 
L 57.893905 305.884961 
L 57.996133 304.769966 
L 58.02169 304.663777 
L 58.123917 303.708067 
L 58.149474 303.601877 
L 58.251702 302.699263 
L 58.283648 302.593073 
L 58.379487 301.849743 
L 58.398655 301.849743 
L 58.500882 300.894034 
L 58.564775 300.787844 
L 58.667003 299.832134 
L 58.68617 299.725944 
L 58.794787 298.876425 
L 58.845901 298.770235 
L 58.928961 298.451665 
L 58.999243 298.345475 
L 59.095081 297.76143 
L 59.139806 297.65524 
L 59.229255 297.23048 
L 59.286759 297.124291 
L 59.35704 296.434056 
L 59.446489 296.327866 
L 59.542328 296.009296 
L 59.60622 295.956201 
L 59.69567 295.531441 
L 59.746784 295.425251 
L 59.849011 295.159777 
L 59.887347 295.106682 
L 59.957628 294.575732 
L 60.015131 294.469542 
L 60.123749 293.726212 
L 60.200419 293.673117 
L 60.309036 292.982883 
L 60.385707 292.876693 
L 60.487935 292.398838 
L 60.53266 292.292648 
L 60.61572 291.867888 
L 60.724337 291.761698 
L 60.826565 291.230749 
L 60.903235 291.177654 
L 60.967128 290.752894 
L 61.043799 290.646704 
L 61.146026 290.009564 
L 61.267422 289.903374 
L 61.376039 289.10695 
L 61.388817 289.00076 
L 61.484656 288.46981 
L 61.561327 288.36362 
L 61.669944 287.991955 
L 61.753004 287.885765 
L 61.861621 287.567196 
L 61.944681 287.461006 
L 62.053298 286.611486 
L 62.078855 286.505296 
L 62.168304 286.133631 
L 62.251364 286.027441 
L 62.353592 285.496492 
L 62.385538 285.390302 
L 62.449431 285.177922 
L 62.577215 285.071732 
L 62.679443 284.487687 
L 62.756114 284.381497 
L 62.864731 284.062927 
L 62.915845 283.956737 
L 62.986127 283.797453 
L 63.120301 283.691263 
L 63.165025 283.478883 
L 63.241696 283.372693 
L 63.318367 283.001028 
L 63.401427 282.894838 
L 63.510044 282.416983 
L 63.535601 282.310793 
L 63.62505 282.045318 
L 63.656996 281.939128 
L 63.765613 281.673654 
L 63.810338 281.567464 
L 63.887009 281.408179 
L 64.04674 281.301989 
L 64.097854 281.036514 
L 64.283142 280.930324 
L 64.37898 280.611754 
L 64.519543 280.505564 
L 64.602603 280.293184 
L 64.685664 280.240089 
L 64.794281 279.762235 
L 64.819838 279.70914 
L 64.909287 279.17819 
L 64.947622 279.125095 
L 64.973179 278.912715 
L 65.158467 278.806525 
L 65.222359 278.54105 
L 65.292641 278.487955 
L 65.401258 277.797721 
L 65.414037 277.691531 
L 65.522654 277.532246 
L 65.592935 277.426056 
L 65.663217 277.319866 
L 65.759055 277.213676 
L 65.861283 276.842011 
L 65.906008 276.788916 
L 66.008236 276.151777 
L 66.167967 276.045587 
L 66.276584 275.673922 
L 66.334087 275.567732 
L 66.429925 275.196067 
L 66.493818 275.089877 
L 66.602435 274.505832 
L 66.634381 274.399642 
L 66.717441 273.709408 
L 66.794112 273.603218 
L 66.851615 273.125363 
L 66.992178 273.019173 
L 67.100795 272.753698 
L 67.13913 272.647508 
L 67.234969 272.222749 
L 67.349975 272.116559 
L 67.458592 271.320134 
L 67.535263 271.213944 
L 67.631102 270.948469 
L 67.771665 270.842279 
L 67.841947 270.523709 
L 67.963342 270.41752 
L 68.059181 269.833475 
L 68.129462 269.727285 
L 68.238079 269.090145 
L 68.257247 269.03705 
L 68.359475 268.82467 
L 68.429756 268.71848 
L 68.531984 268.453006 
L 68.774775 268.346816 
L 68.870614 268.134436 
L 69.030345 268.028246 
L 69.113405 267.656581 
L 69.170908 267.603486 
L 69.253968 267.125631 
L 69.330639 267.072536 
L 69.420088 266.647777 
L 69.528705 266.594682 
L 69.637322 266.223017 
L 69.803442 266.116827 
L 69.90567 265.851352 
L 69.98873 265.745162 
L 69.98873 265.585877 
L 70.161239 265.479687 
L 70.2443 265.108022 
L 70.308192 265.001832 
L 70.40403 264.683263 
L 70.519037 264.683263 
L 70.627654 264.258503 
L 70.691546 264.152313 
L 70.774606 263.993028 
L 71.042954 263.886838 
L 71.145182 263.568268 
L 71.196296 263.462078 
L 71.298524 262.931128 
L 71.336859 262.878034 
L 71.426308 262.506369 
L 71.502979 262.400179 
L 71.547704 262.240894 
L 71.66271 262.134704 
L 71.771327 261.816134 
L 71.867166 261.763039 
L 71.937447 261.497564 
L 72.065232 261.391374 
L 72.135514 261.232089 
L 72.212184 261.125899 
L 72.314412 260.754235 
L 72.467754 260.648045 
L 72.493311 260.541855 
L 72.646653 260.435665 
L 72.736102 260.17019 
L 72.844719 260.064 
L 72.927779 259.798525 
L 73.049175 259.692335 
L 73.132235 259.373765 
L 73.176959 259.32067 
L 73.285576 258.895911 
L 73.343079 258.789721 
L 73.438918 258.577341 
L 73.5092 258.471151 
L 73.617817 257.940201 
L 73.739212 257.834011 
L 73.828661 257.568536 
L 73.886165 257.462346 
L 73.994782 257.090682 
L 74.001171 257.090682 
L 74.097009 256.506637 
L 74.231183 256.453542 
L 74.3398 256.028782 
L 74.448417 255.975687 
L 74.525088 255.763307 
L 74.665651 255.657117 
L 74.767879 255.444737 
L 74.84455 255.338547 
L 74.940389 254.860693 
L 75.017059 254.754503 
L 75.074563 254.489028 
L 75.164012 254.382838 
L 75.253461 254.011173 
L 75.317354 253.958078 
L 75.317354 253.851888 
L 75.457917 253.745698 
L 75.560145 253.533318 
L 75.707097 253.427128 
L 75.777379 253.267844 
L 75.854049 253.161654 
L 75.93711 252.683799 
L 75.994613 252.577609 
L 76.090451 252.205944 
L 76.231014 252.099754 
L 76.294907 251.940469 
L 76.43547 251.834279 
L 76.531309 251.462615 
L 76.722986 251.356425 
L 76.818824 250.931665 
L 76.94022 250.825475 
L 77.042447 250.613095 
L 77.087172 250.56 
L 77.183011 250.188335 
L 77.208568 250.082145 
L 77.208568 249.975955 
L 77.43858 249.869765 
L 77.547197 249.498101 
L 77.745264 249.391911 
L 77.847491 249.232626 
L 77.911384 249.126436 
L 77.949719 248.807866 
L 78.083893 248.701676 
L 78.160564 248.330011 
L 78.237235 248.276916 
L 78.288349 247.905251 
L 78.390576 247.799061 
L 78.473637 247.480492 
L 78.52475 247.374302 
L 78.595032 247.002637 
L 78.825045 246.896447 
L 78.908105 246.577877 
L 79.010332 246.471687 
L 79.099782 246.312402 
L 79.182842 246.206212 
L 79.240345 245.993832 
L 79.400076 245.887642 
L 79.508693 245.250503 
L 79.572585 245.144313 
L 79.642867 244.719553 
L 79.757873 244.613363 
L 79.777041 244.454078 
L 79.936772 244.400983 
L 80.03261 244.029318 
L 80.12206 243.923128 
L 80.19873 243.763844 
L 80.307347 243.657654 
L 80.403186 243.073609 
L 80.569306 242.967419 
L 80.677923 242.436469 
L 80.754594 242.330279 
L 80.850433 242.117899 
L 80.914325 242.011709 
L 80.997385 241.852425 
L 81.086834 241.79933 
L 81.189062 241.533855 
L 81.323236 241.427665 
L 81.323236 241.37457 
L 81.559638 241.26838 
L 81.604363 241.002905 
L 81.732147 240.896715 
L 81.834375 240.73743 
L 81.96216 240.63124 
L 82.057998 240.20648 
L 82.166615 240.100291 
L 82.179394 239.941006 
L 82.409406 239.834816 
L 82.454131 239.622436 
L 82.575527 239.516246 
L 82.677754 239.144581 
L 82.722479 239.091486 
L 82.722479 238.985296 
L 82.997216 238.932201 
L 83.086665 238.613631 
L 83.284732 238.507441 
L 83.367792 238.241966 
L 83.495577 238.135777 
L 83.514744 237.870302 
L 83.738368 237.764112 
L 83.840595 237.339352 
L 83.923655 237.233162 
L 83.993937 237.126972 
L 84.160057 237.020782 
L 84.255896 236.755307 
L 84.422016 236.649117 
L 84.524244 236.436737 
L 84.72231 236.330547 
L 84.773424 236.118168 
L 84.894819 236.011978 
L 84.907598 235.905788 
L 85.118443 235.799598 
L 85.207892 235.534123 
L 85.335677 235.427933 
L 85.437905 235.056268 
L 85.635971 234.950078 
L 85.635971 234.896983 
L 85.929876 234.790793 
L 86.038493 234.525318 
L 86.211002 234.419128 
L 86.300452 234.259844 
L 86.345176 234.153654 
L 86.415458 233.835084 
L 86.511296 233.728894 
L 86.619913 233.357229 
L 86.65186 233.304134 
L 86.754087 232.932469 
L 86.990489 232.826279 
L 87.086328 232.348425 
L 87.162999 232.29533 
L 87.246059 232.029855 
L 87.393011 231.923665 
L 87.501628 231.605095 
L 87.597467 231.498905 
L 87.674137 231.33962 
L 87.795533 231.23343 
L 87.90415 230.91486 
L 88.012767 230.80867 
L 88.108606 230.596291 
L 88.223612 230.490101 
L 88.32584 230.383911 
L 88.421678 230.277721 
L 88.49196 230.012246 
L 88.709194 229.906056 
L 88.805032 229.693676 
L 88.849757 229.587486 
L 88.945596 229.481296 
L 89.124494 229.375106 
L 89.124494 229.322011 
L 89.290614 229.215821 
L 89.316171 229.109631 
L 89.622855 229.003441 
L 89.622855 228.950346 
L 89.801753 228.844156 
L 89.878424 228.684872 
L 90.057323 228.578682 
L 90.153161 228.419397 
L 90.319281 228.313207 
L 90.408731 228.153922 
L 90.517348 228.047732 
L 90.606797 227.835352 
L 90.728193 227.729162 
L 90.817642 227.357497 
L 90.887924 227.251307 
L 90.990151 226.985832 
L 91.060433 226.879642 
L 91.137104 226.720358 
L 91.194607 226.614168 
L 91.296835 226.401788 
L 91.50768 226.401788 
L 91.58435 226.189408 
L 91.641854 226.083218 
L 91.718524 225.870838 
L 91.929369 225.764648 
L 92.037986 225.605363 
L 92.108268 225.499173 
L 92.210496 225.286793 
L 92.236053 225.233698 
L 92.306334 224.968223 
L 92.440508 224.862034 
L 92.542736 224.649654 
L 92.574682 224.596559 
L 92.664131 224.118704 
L 92.779138 224.012514 
L 92.881365 223.747039 
L 93.015539 223.640849 
L 93.085821 223.375374 
L 93.315834 223.269184 
L 93.405283 223.056804 
L 93.635295 222.950615 
L 93.635295 222.844425 
L 93.833362 222.738235 
L 93.93559 222.57895 
L 94.09532 222.47276 
L 94.178381 222.36657 
L 94.465896 222.26038 
L 94.510621 222.101095 
L 94.695909 221.994905 
L 94.759801 221.782525 
L 94.874807 221.72943 
L 94.970646 221.41086 
L 95.136766 221.30467 
L 95.194269 221.039196 
L 95.309275 220.986101 
L 95.417892 220.667531 
L 95.481785 220.561341 
L 95.584013 220.455151 
L 95.60318 220.455151 
L 95.705408 220.189676 
L 95.718187 220.189676 
L 95.826804 219.977296 
L 95.960978 219.871106 
L 96.056816 219.658726 
L 96.19099 219.605631 
L 96.286829 219.287061 
L 96.331553 219.180872 
L 96.401835 218.968492 
L 96.452949 218.915397 
L 96.548787 218.703017 
L 96.638237 218.596827 
L 96.721297 218.278257 
L 96.86186 218.172067 
L 96.912974 218.065877 
L 97.002423 218.012782 
L 97.11104 217.588022 
L 97.181322 217.481832 
L 97.264382 217.269453 
L 97.411334 217.163263 
L 97.500784 217.057073 
L 97.711628 216.950883 
L 97.756353 216.738503 
L 97.896916 216.632313 
L 97.986366 216.260648 
L 98.069426 216.207553 
L 98.152486 215.942078 
L 98.382498 215.835888 
L 98.382498 215.782793 
L 98.561397 215.676603 
L 98.631679 215.358034 
L 98.944751 215.251844 
L 98.995865 214.986369 
L 99.251435 214.880179 
L 99.276991 214.720894 
L 99.590064 214.614704 
L 99.590064 214.561609 
L 99.839244 214.455419 
L 99.890358 214.296134 
L 100.082035 214.189944 
L 100.152317 214.030659 
L 100.235377 213.977564 
L 100.248155 213.765184 
L 100.459 213.658994 
L 100.459 213.499709 
L 100.835965 213.446615 
L 100.919025 213.07495 
L 101.008475 212.96876 
L 101.065978 212.75638 
L 101.251266 212.65019 
L 101.359883 212.43781 
L 101.487667 212.33162 
L 101.538781 212.22543 
L 101.724069 212.11924 
L 101.768794 211.959955 
L 102.152148 211.90686 
L 102.241597 211.69448 
L 102.401328 211.588291 
L 102.446053 211.216626 
L 102.573838 211.110436 
L 102.573838 211.057341 
L 102.861353 210.951151 
L 102.957192 210.632581 
L 103.148869 210.526391 
L 103.238318 210.101631 
L 103.321378 209.995441 
L 103.321378 209.889251 
L 103.583337 209.783061 
L 103.615283 209.676872 
L 103.762236 209.570682 
L 103.838907 209.358302 
L 104.043362 209.252112 
L 104.14559 208.880447 
L 104.203093 208.774257 
L 104.22865 208.668067 
L 104.471441 208.614972 
L 104.567279 208.296402 
L 104.7334 208.190212 
L 104.81646 208.084022 
L 104.944244 207.977832 
L 105.052861 207.659263 
L 105.187035 207.553073 
L 105.250928 207.340693 
L 105.442605 207.234503 
L 105.538443 207.075218 
L 105.787624 206.969028 
L 105.889852 206.703553 
L 105.98569 206.597363 
L 106.030415 206.491173 
L 106.228481 206.384983 
L 106.228481 206.278793 
L 106.40738 206.172603 
L 106.452104 205.907128 
L 106.694895 205.907128 
L 106.694895 205.747844 
L 106.995189 205.694749 
L 107.084639 205.482369 
L 107.480771 205.376179 
L 107.589388 205.057609 
L 107.685227 204.951419 
L 107.710784 204.792134 
L 107.870515 204.685944 
L 107.979132 204.420469 
L 108.209144 204.314279 
L 108.209144 204.261184 
L 108.554163 204.154994 
L 108.650002 203.836425 
L 108.733062 203.730235 
L 108.784176 203.57095 
L 108.988631 203.46476 
L 109.039745 203.35857 
L 109.148362 203.305475 
L 109.218644 202.93381 
L 109.295315 202.880715 
L 109.327261 202.668335 
L 109.486992 202.562145 
L 109.58283 202.40286 
L 109.729783 202.29667 
L 109.825621 202.137385 
L 109.991742 202.031196 
L 110.093969 201.818816 
L 110.221754 201.712626 
L 110.298425 201.500246 
L 110.407042 201.394056 
L 110.515659 201.022391 
L 110.579551 200.916201 
L 110.67539 200.756916 
L 110.726504 200.650726 
L 110.835121 200.438346 
L 110.854288 200.332156 
L 110.956516 200.066682 
L 111.103469 199.960492 
L 111.186529 199.801207 
L 111.295146 199.695017 
L 111.33987 199.429542 
L 111.486823 199.429542 
L 111.486823 199.270257 
L 111.640165 199.164067 
L 111.640165 199.110972 
L 111.857399 199.004782 
L 111.902123 198.898592 
L 112.042687 198.792402 
L 112.074633 198.686212 
L 112.362148 198.580022 
L 112.394095 198.367642 
L 112.51549 198.261453 
L 112.585772 198.102168 
L 112.662442 198.102168 
L 112.662442 197.942883 
L 112.994683 197.889788 
L 112.994683 197.783598 
L 113.263031 197.677408 
L 113.263031 197.624313 
L 113.486654 197.518123 
L 113.582493 197.040268 
L 113.761391 196.934078 
L 113.870008 196.668603 
L 114.234195 196.562413 
L 114.336423 196.296939 
L 114.489764 196.190749 
L 114.598381 195.925274 
L 114.706998 195.819084 
L 114.783669 195.712894 
L 114.898675 195.606704 
L 114.981735 195.394324 
L 115.045628 195.394324 
L 115.115909 195.128849 
L 115.250083 195.022659 
L 115.250083 194.757184 
L 115.435371 194.650994 
L 115.53121 194.544804 
L 115.69733 194.438615 
L 115.729276 194.332425 
L 115.882618 194.226235 
L 115.908175 194.120045 
L 116.061516 194.06695 
L 116.061516 193.96076 
L 116.342643 193.85457 
L 116.45126 193.482905 
L 116.489595 193.376715 
L 116.515152 193.270525 
L 116.713219 193.164335 
L 116.738776 193.058145 
L 116.860171 192.951955 
L 116.962399 192.79267 
L 117.134908 192.68648 
L 117.134908 192.633385 
L 117.531041 192.527196 
L 117.639658 192.208626 
L 117.722718 192.102436 
L 117.831335 191.836961 
L 117.914395 191.730771 
L 118.016623 191.571486 
L 118.169965 191.518391 
L 118.278582 191.306011 
L 118.406366 191.199821 
L 118.406366 191.146726 
L 118.54693 191.093631 
L 118.610822 190.615777 
L 118.783331 190.509587 
L 118.783331 190.456492 
L 119.051679 190.350302 
L 119.102793 190.137922 
L 119.217799 190.084827 
L 119.300859 189.660067 
L 119.55004 189.606972 
L 119.652268 189.394592 
L 119.907837 189.288402 
L 120.016454 189.129117 
L 120.291191 189.022927 
L 120.355084 188.916737 
L 120.783162 188.810547 
L 120.866222 188.545073 
L 121.006786 188.438883 
L 121.038732 188.332693 
L 121.339026 188.226503 
L 121.434865 187.961028 
L 121.613763 187.907933 
L 121.696823 187.589363 
L 121.741548 187.483173 
L 121.786273 187.376983 
L 121.965171 187.270793 
L 122.067399 187.111508 
L 122.214351 187.005318 
L 122.214351 186.952223 
L 122.610484 186.846034 
L 122.655209 186.633654 
L 122.744658 186.580559 
L 122.853275 186.315084 
L 123.166348 186.208894 
L 123.249408 185.943419 
L 123.358025 185.837229 
L 123.434696 185.518659 
L 123.504977 185.412469 
L 123.607205 185.253184 
L 123.760547 185.146994 
L 123.869164 184.88152 
L 123.945835 184.77533 
L 123.945835 184.722235 
L 124.111955 184.616045 
L 124.207793 184.45676 
L 124.456974 184.35057 
L 124.559201 184.085095 
L 124.610315 183.978905 
L 124.718932 183.554145 
L 124.923388 183.447955 
L 125.019226 183.28867 
L 125.198125 183.18248 
L 125.293964 182.917006 
L 125.447305 182.810816 
L 125.504808 182.704626 
L 126.041504 182.598436 
L 126.041504 182.545341 
L 126.290685 182.439151 
L 126.309852 182.279866 
L 126.622925 182.173676 
L 126.712374 181.961296 
L 126.897662 181.855106 
L 126.980722 181.748916 
L 127.121285 181.642726 
L 127.217124 181.483441 
L 127.511029 181.377251 
L 127.600478 181.271061 
L 127.875215 181.164872 
L 127.983832 180.899397 
L 128.124395 180.793207 
L 128.220234 180.527732 
L 128.411911 180.421542 
L 128.475803 180.102972 
L 128.75693 179.996782 
L 128.808044 179.784402 
L 128.929439 179.678212 
L 129.025278 179.359642 
L 129.121116 179.253453 
L 129.17223 179.147263 
L 129.34474 179.041073 
L 129.434189 178.881788 
L 129.542806 178.828693 
L 129.542806 178.722503 
L 129.696148 178.616313 
L 129.696148 178.510123 
L 129.913382 178.403933 
L 130.021999 178.191553 
L 130.137005 178.085363 
L 130.232844 177.713698 
L 130.405353 177.607508 
L 130.443688 177.288939 
L 130.910103 177.182749 
L 131.01233 176.917274 
L 131.076223 176.811084 
L 131.076223 176.757989 
L 131.389295 176.651799 
L 131.408463 176.545609 
L 131.587362 176.439419 
L 131.638476 176.227039 
L 131.906824 176.120849 
L 131.964327 175.961564 
L 132.047387 175.855374 
L 132.10489 175.536804 
L 132.302956 175.430615 
L 132.386016 175.16514 
L 132.539358 175.05895 
L 132.647975 174.899665 
L 132.762981 174.793475 
L 132.801317 174.581095 
L 132.986605 174.474905 
L 133.082443 174.20943 
L 133.27412 174.10324 
L 133.27412 174.050145 
L 133.663864 173.943955 
L 133.702199 173.731575 
L 134.040829 173.625385 
L 134.11111 173.413006 
L 134.321955 173.306816 
L 134.417794 173.147531 
L 134.686142 173.041341 
L 134.737256 172.935151 
L 135.344233 172.828961 
L 135.427293 172.457296 
L 135.574246 172.351106 
L 135.650916 172.191821 
L 135.919264 172.085631 
L 136.015103 171.926346 
L 136.078995 171.873251 
L 136.104552 171.660872 
L 136.79459 171.554682 
L 136.890428 171.448492 
L 137.005435 171.342302 
L 137.107662 171.183017 
L 137.331286 171.076827 
L 137.344064 170.970637 
L 137.599634 170.864447 
L 137.669915 170.705162 
L 137.765754 170.598972 
L 137.861592 170.439687 
L 138.168276 170.333497 
L 138.168276 170.280402 
L 138.487738 170.174212 
L 138.589965 170.014927 
L 138.979709 169.908737 
L 138.979709 169.855642 
L 139.158607 169.749453 
L 139.228889 169.483978 
L 139.38862 169.430883 
L 139.497237 169.165408 
L 139.663357 169.059218 
L 139.740028 168.899933 
L 139.797531 168.846838 
L 139.835866 168.687553 
L 140.021154 168.581363 
L 140.085047 168.422078 
L 140.340616 168.315888 
L 140.340616 168.262793 
L 140.493958 168.156603 
L 140.519515 168.050413 
L 140.743138 167.944223 
L 140.838977 167.678749 
L 141.254277 167.572559 
L 141.305391 167.466369 
L 141.407619 167.360179 
L 141.497068 167.253989 
L 141.73347 167.147799 
L 141.778194 167.041609 
L 141.905979 166.935419 
L 141.950704 166.829229 
L 142.129602 166.723039 
L 142.129602 166.669944 
L 142.327669 166.563754 
L 142.410729 166.457564 
L 142.538514 166.351374 
L 142.576849 166.192089 
L 142.749358 166.085899 
L 142.81964 165.926615 
L 143.132713 165.820425 
L 143.209383 165.608045 
L 143.318001 165.55495 
L 143.401061 165.34257 
L 143.624684 165.23638 
L 143.701355 165.077095 
L 143.829139 164.970905 
L 143.918589 164.864715 
L 144.129434 164.758525 
L 144.231661 164.546145 
L 144.353057 164.439955 
L 144.448895 164.28067 
L 144.512788 164.17448 
L 144.615016 163.855911 
L 144.7428 163.749721 
L 144.813082 163.590436 
L 145.266718 163.484246 
L 145.305053 163.378056 
L 145.471173 163.271866 
L 145.471173 163.218771 
L 145.701186 163.112581 
L 145.809803 162.900201 
L 145.937588 162.794011 
L 146.046205 162.475441 
L 146.154822 162.369251 
L 146.225103 162.263061 
L 146.42317 162.156872 
L 146.525397 161.891397 
L 146.710685 161.785207 
L 146.710685 161.732112 
L 147.055704 161.625922 
L 147.081261 161.519732 
L 147.292106 161.466637 
L 147.394334 161.254257 
L 148.122707 161.148067 
L 148.205767 161.041877 
L 148.320773 160.935687 
L 148.333551 160.829497 
L 148.627456 160.723307 
L 148.736073 160.617117 
L 148.748852 160.564022 
L 148.831912 160.192358 
L 148.921361 160.139263 
L 149.01081 159.979978 
L 149.176931 159.873788 
L 149.189709 159.767598 
L 149.374997 159.661408 
L 149.470836 159.449028 
L 149.560285 159.342838 
L 149.585842 159.236648 
L 149.783908 159.130458 
L 149.892525 159.024268 
L 150.18643 158.918078 
L 150.218376 158.811888 
L 150.365329 158.758793 
L 150.467556 158.546413 
L 150.895635 158.440223 
L 150.895635 158.387128 
L 151.215097 158.280939 
L 151.304546 158.015464 
L 151.643176 157.909274 
L 151.668733 157.803084 
L 151.956249 157.749989 
L 151.956249 157.643799 
L 152.576005 157.537609 
L 152.684622 157.272134 
L 152.86352 157.165944 
L 152.959359 156.847374 
L 153.170204 156.741184 
L 153.240485 156.581899 
L 153.412995 156.475709 
L 153.515222 156.316425 
L 153.566336 156.210235 
L 153.623839 156.104045 
L 153.758013 155.997855 
L 153.758013 155.94476 
L 154.128589 155.83857 
L 154.166925 155.679285 
L 154.511943 155.573095 
L 154.556668 155.466905 
L 154.71001 155.360715 
L 154.805848 155.20143 
L 155.157256 155.09524 
L 155.157256 154.98905 
L 155.37449 154.88286 
L 155.451161 154.617385 
L 155.655617 154.511196 
L 155.693952 154.351911 
L 155.943132 154.245721 
L 156.04536 154.033341 
L 156.230648 153.927151 
L 156.249816 153.820961 
L 156.428714 153.714771 
L 156.492607 153.608581 
L 156.601224 153.502391 
L 156.697062 153.343106 
L 156.818458 153.236916 
L 156.869572 153.077631 
L 157.252926 153.024536 
L 157.252926 152.918346 
L 157.63628 152.812156 
L 157.668226 152.705966 
L 157.783233 152.652872 
L 157.88546 152.493587 
L 158.045191 152.387397 
L 158.045191 152.334302 
L 158.511606 152.228112 
L 158.575498 152.121922 
L 158.869403 152.015732 
L 158.965241 151.803352 
L 159.195254 151.697162 
L 159.195254 151.644067 
L 159.495548 151.537877 
L 159.604165 151.272402 
L 160.06419 151.166212 
L 160.115304 150.847642 
L 160.275035 150.741453 
L 160.364484 150.582168 
L 160.562551 150.475978 
L 160.652 150.316693 
L 160.683946 150.210503 
L 160.690335 150.104313 
L 160.965072 149.998123 
L 160.965072 149.891933 
L 161.099246 149.785743 
L 161.15675 149.573363 
L 161.361205 149.467173 
L 161.469822 149.307888 
L 161.757338 149.201698 
L 161.757338 149.148603 
L 162.025686 149.042413 
L 162.089578 148.883128 
L 162.32598 148.776939 
L 162.389872 148.564559 
L 162.4921 148.458369 
L 162.57516 148.299084 
L 162.849897 148.245989 
L 162.849897 148.139799 
L 163.022407 148.033609 
L 163.124634 147.821229 
L 163.220473 147.715039 
L 163.309922 147.502659 
L 163.58466 147.396469 
L 163.622995 147.290279 
L 163.904121 147.184089 
L 164.006349 147.077899 
L 164.134134 146.971709 
L 164.134134 146.918615 
L 164.536656 146.812425 
L 164.606937 146.706235 
L 164.817782 146.600045 
L 164.881675 146.44076 
L 165.411981 146.33457 
L 165.469484 146.12219 
L 165.616437 146.016 
L 165.616437 145.962905 
L 165.833671 145.856715 
L 165.903952 145.69743 
L 166.076462 145.59124 
L 166.1723 145.431955 
L 166.319253 145.325765 
L 166.408702 145.219575 
L 166.581212 145.113385 
L 166.689829 145.007196 
L 166.830392 144.901006 
L 166.830392 144.847911 
L 167.041237 144.741721 
L 167.047626 144.635531 
L 167.335142 144.529341 
L 167.443759 144.316961 
L 167.571543 144.210771 
L 167.654603 143.945296 
L 167.839891 143.892201 
L 167.839891 143.786011 
L 168.006011 143.679821 
L 168.082682 143.573631 
L 168.363809 143.467441 
L 168.421312 143.308156 
L 168.68966 143.201966 
L 168.740774 143.042682 
L 168.989954 142.936492 
L 169.015511 142.830302 
L 169.475536 142.724112 
L 169.577764 142.511732 
L 169.807776 142.405542 
L 169.807776 142.352447 
L 170.19113 142.246257 
L 170.267801 142.140067 
L 170.568095 142.033877 
L 170.631988 141.715307 
L 170.753383 141.609117 
L 170.766162 141.502927 
L 170.94506 141.396737 
L 170.970617 141.290547 
L 171.245354 141.237453 
L 171.245354 141.131263 
L 171.705379 141.025073 
L 171.762883 140.865788 
L 172.03762 140.759598 
L 172.133458 140.494123 
L 172.222908 140.387933 
L 172.248465 140.228648 
L 172.829885 140.122458 
L 172.912945 139.963173 
L 173.28991 139.856983 
L 173.398527 139.591508 
L 173.673264 139.485318 
L 173.724378 139.326034 
L 174.011894 139.219844 
L 174.037451 139.060559 
L 174.203571 139.007464 
L 174.29941 138.795084 
L 174.810549 138.688894 
L 174.919166 138.476514 
L 175.142789 138.370324 
L 175.142789 138.317229 
L 175.372801 138.264134 
L 175.443083 138.104849 
L 175.628371 137.998659 
L 175.692263 137.839374 
L 176.094785 137.733184 
L 176.113953 137.573899 
L 176.30563 137.467709 
L 176.30563 137.414615 
L 176.497307 137.36152 
L 176.510086 137.14914 
L 176.746487 137.04295 
L 176.842326 136.883665 
L 177.034003 136.777475 
L 177.097895 136.565095 
L 177.251237 136.458905 
L 177.315129 136.29962 
L 177.698484 136.19343 
L 177.743208 136.08724 
L 177.998778 135.98105 
L 178.101005 135.821765 
L 178.324629 135.715575 
L 178.350186 135.556291 
L 178.707983 135.450101 
L 178.707983 135.397006 
L 179.008277 135.343911 
L 179.104116 135.025341 
L 179.519416 134.919151 
L 179.576919 134.759866 
L 179.73665 134.653676 
L 179.81971 134.494391 
L 179.921938 134.494391 
L 179.934716 134.282011 
L 180.2414 134.228916 
L 180.32446 134.016536 
L 180.522526 133.910346 
L 180.605586 133.697966 
L 180.752539 133.591777 
L 180.803653 133.379397 
L 181.014497 133.273207 
L 181.014497 133.220112 
L 181.263678 133.113922 
L 181.263678 133.060827 
L 181.538415 132.954637 
L 181.570361 132.848447 
L 181.857877 132.742257 
L 181.960104 132.529877 
L 182.215674 132.423687 
L 182.222063 132.317497 
L 182.599028 132.211307 
L 182.688477 132.052022 
L 182.912101 131.945832 
L 182.931268 131.839642 
L 183.116556 131.733453 
L 183.161281 131.521073 
L 183.352958 131.414883 
L 183.42324 131.202503 
L 183.736312 131.096313 
L 183.825762 130.937028 
L 183.985493 130.830838 
L 184.081331 130.724648 
L 184.330511 130.618458 
L 184.330511 130.565363 
L 184.554135 130.459173 
L 184.554135 130.406078 
L 184.899153 130.299888 
L 185.00777 130.193698 
L 185.237783 130.087508 
L 185.333621 129.822034 
L 185.748922 129.715844 
L 185.857539 129.556559 
L 186.036438 129.503464 
L 186.106719 129.291084 
L 186.330342 129.184894 
L 186.336732 129.078704 
L 186.573133 128.972514 
L 186.649804 128.813229 
L 186.950098 128.707039 
L 187.039548 128.441564 
L 187.544297 128.335374 
L 187.633747 128.176089 
L 187.742364 128.069899 
L 187.780699 127.804425 
L 188.502683 127.698235 
L 188.515461 127.592045 
L 188.751863 127.485855 
L 188.790199 127.379665 
L 189.103271 127.273475 
L 189.211888 126.90181 
L 189.28217 126.79562 
L 189.28217 126.742525 
L 189.665524 126.636335 
L 189.703859 126.530145 
L 189.857201 126.423955 
L 189.921093 126.15848 
L 190.170274 126.052291 
L 190.189441 125.893006 
L 190.777251 125.786816 
L 190.821976 125.627531 
L 191.103102 125.521341 
L 191.179773 125.362056 
L 191.499235 125.255866 
L 191.569517 125.149676 
L 191.658966 125.096581 
L 191.71008 124.884201 
L 192.227608 124.778011 
L 192.29789 124.565631 
L 192.387339 124.459441 
L 192.387339 124.406346 
L 192.777082 124.300156 
L 192.834585 124.193966 
L 193.032652 124.087777 
L 193.032652 124.034682 
L 193.345724 123.928492 
L 193.454341 123.716112 
L 193.812139 123.609922 
L 193.824917 123.450637 
L 194.106044 123.344447 
L 194.176325 123.185162 
L 194.361613 123.078972 
L 194.425505 122.972782 
L 194.617183 122.866592 
L 194.617183 122.813497 
L 194.840806 122.707307 
L 194.917477 122.601117 
L 195.045261 122.494927 
L 195.102765 122.282547 
L 195.217771 122.176358 
L 195.268885 121.963978 
L 195.543622 121.857788 
L 195.543622 121.751598 
L 195.875862 121.645408 
L 195.952533 121.433028 
L 196.137821 121.326838 
L 196.137821 121.273743 
L 196.412558 121.167553 
L 196.457283 121.061363 
L 196.904529 120.955173 
L 196.993979 120.795888 
L 197.473171 120.689698 
L 197.473171 120.636603 
L 197.920418 120.530413 
L 198.016256 120.371128 
L 198.348497 120.264939 
L 198.418778 120.105654 
L 198.597677 119.999464 
L 198.629623 119.893274 
L 198.846857 119.787084 
L 198.878803 119.627799 
L 199.262158 119.521609 
L 199.262158 119.468514 
L 199.581619 119.362324 
L 199.651901 119.149944 
L 199.920249 119.043754 
L 199.977752 118.831374 
L 200.194986 118.725184 
L 200.290825 118.618994 
L 200.469723 118.512804 
L 200.476113 118.35352 
L 200.987252 118.24733 
L 200.987252 118.194235 
L 201.33227 118.088045 
L 201.357827 117.981855 
L 201.792295 117.875665 
L 201.843409 117.663285 
L 202.265099 117.557095 
L 202.303434 117.344715 
L 202.571782 117.238525 
L 202.654842 117.07924 
L 203.044586 116.97305 
L 203.140424 116.86686 
L 203.312934 116.76067 
L 203.383215 116.65448 
L 203.836851 116.548291 
L 203.907133 116.442101 
L 204.149924 116.335911 
L 204.149924 116.229721 
L 204.373547 116.123531 
L 204.373547 116.070436 
L 204.578003 115.964246 
L 204.578003 115.911151 
L 204.712177 115.804961 
L 204.776069 115.645676 
L 204.967746 115.592581 
L 205.012471 115.433296 
L 205.344711 115.327106 
L 205.344711 115.274011 
L 205.900575 115.167821 
L 205.926132 115.061631 
L 206.430881 114.955441 
L 206.494774 114.849251 
L 206.673672 114.743061 
L 206.699229 114.636872 
L 206.903685 114.530682 
L 206.967577 114.371397 
L 207.229536 114.265207 
L 207.229536 114.212112 
L 207.651226 114.105922 
L 207.683172 113.946637 
L 208.36682 113.840447 
L 208.475437 113.681162 
L 208.877959 113.574972 
L 208.980187 113.468782 
L 209.063247 113.362592 
L 209.063247 113.309497 
L 209.561607 113.203307 
L 209.631889 113.097117 
L 210.238866 112.990927 
L 210.309148 112.884737 
L 210.858622 112.778547 
L 210.916126 112.672358 
L 211.146138 112.566168 
L 211.248366 112.406883 
L 212.015074 112.353788 
L 212.059799 112.194503 
L 212.353704 112.141408 
L 212.360093 111.982123 
L 212.762615 111.875933 
L 212.826507 111.663553 
L 212.941514 111.557363 
L 213.030963 111.451173 
L 213.439874 111.344983 
L 213.503766 111.238793 
L 213.880731 111.132603 
L 213.989348 110.973318 
L 214.155469 110.867128 
L 214.257696 110.707844 
L 214.449373 110.601654 
L 214.519655 110.336179 
L 214.845506 110.229989 
L 214.954123 110.070704 
L 215.15219 109.964514 
L 215.164968 109.858324 
L 215.478041 109.752134 
L 215.554711 109.539754 
L 215.874173 109.433564 
L 215.874173 109.327374 
L 216.212803 109.221184 
L 216.212803 109.114994 
L 216.838948 109.008804 
L 216.934787 108.796425 
L 217.375644 108.690235 
L 217.394812 108.584045 
L 217.797334 108.477855 
L 217.880394 108.31857 
L 218.557653 108.21238 
L 218.595988 108.10619 
L 218.768498 108 
L 218.768498 107.946905 
L 219.496871 107.840715 
L 219.560763 107.734525 
L 219.726883 107.628335 
L 219.726883 107.57524 
L 220.244411 107.522145 
L 220.333861 107.36286 
L 220.634155 107.25667 
L 220.634155 107.203575 
L 220.876946 107.097385 
L 220.876946 107.044291 
L 221.132515 106.938101 
L 221.132515 106.885006 
L 221.560594 106.778816 
L 221.618097 106.619531 
L 221.854499 106.513341 
L 221.956727 106.407151 
L 222.027008 106.300961 
L 222.027008 106.247866 
L 222.352859 106.141676 
L 222.403973 105.982391 
L 222.774549 105.876201 
L 222.870388 105.770011 
L 223.253742 105.663821 
L 223.253742 105.610726 
L 224.014061 105.504536 
L 224.014061 105.451441 
L 224.231295 105.345251 
L 224.244073 105.239061 
L 224.710488 105.132872 
L 224.710488 105.079777 
L 224.991614 104.973587 
L 224.991614 104.920492 
L 225.451639 104.814302 
L 225.464418 104.708112 
L 225.879718 104.601922 
L 225.969167 104.495732 
L 226.103341 104.389542 
L 226.167234 104.230257 
L 226.582534 104.124067 
L 226.582534 104.070972 
L 226.972278 103.964782 
L 226.972278 103.911687 
L 228.052059 103.805497 
L 228.090394 103.699307 
L 228.416245 103.593117 
L 228.473748 103.486927 
L 228.690982 103.380737 
L 228.690982 103.327642 
L 229.189343 103.221453 
L 229.189343 103.168358 
L 229.400187 103.062168 
L 229.476858 102.955978 
L 229.617422 102.849788 
L 229.719649 102.531218 
L 230.326627 102.425028 
L 230.326627 102.371933 
L 230.575807 102.265743 
L 230.665256 102.106458 
L 230.812209 102.053363 
L 230.914437 101.840983 
L 231.170006 101.734793 
L 231.246677 101.628603 
L 231.438354 101.522413 
L 231.438354 101.469318 
L 232.237009 101.363128 
L 232.313679 101.203844 
L 232.869543 101.097654 
L 232.946214 100.938369 
L 233.572359 100.832179 
L 233.629862 100.619799 
L 234.038773 100.513609 
L 234.14739 100.301229 
L 234.441295 100.195039 
L 234.549912 100.088849 
L 234.850206 99.982659 
L 234.850206 99.929564 
L 235.124944 99.823374 
L 235.201614 99.717184 
L 235.444405 99.610994 
L 235.527466 99.504804 
L 236.147222 99.398615 
L 236.223892 99.23933 
L 237.086439 99.13314 
L 237.156721 99.02695 
L 237.380344 98.92076 
L 237.380344 98.867665 
L 237.623135 98.761475 
L 237.629524 98.655285 
L 237.814812 98.549095 
L 237.821202 98.442905 
L 238.147053 98.336715 
L 238.24928 98.230525 
L 238.722084 98.124335 
L 238.792366 98.018145 
L 239.047935 97.911955 
L 239.047935 97.85886 
L 239.367397 97.75267 
L 239.380175 97.64648 
L 239.936039 97.540291 
L 240.019099 97.434101 
L 240.313004 97.327911 
L 240.376896 97.221721 
L 240.715526 97.115531 
L 240.779418 96.956246 
L 241.469456 96.850056 
L 241.469456 96.796961 
L 242.044487 96.690771 
L 242.114769 96.584581 
L 242.204218 96.478391 
L 242.26811 96.372201 
L 242.740914 96.266011 
L 242.849531 95.894346 
L 243.354281 95.788156 
L 243.354281 95.735061 
L 243.86542 95.628872 
L 243.86542 95.575777 
L 244.287109 95.469587 
L 244.287109 95.416492 
L 244.478786 95.310302 
L 244.478786 95.257207 
L 244.926033 95.151017 
L 245.028261 94.938637 
L 245.584124 94.832447 
L 245.584124 94.779352 
L 246.114431 94.673162 
L 246.184712 94.513877 
L 246.510564 94.407687 
L 246.510564 94.354592 
L 246.87475 94.248402 
L 246.919475 94.036022 
L 247.417835 93.929832 
L 247.417835 93.876737 
L 247.583955 93.770547 
L 247.583955 93.717453 
L 248.063148 93.611263 
L 248.063148 93.558168 
L 248.561509 93.451978 
L 248.663736 93.239598 
L 248.906527 93.133408 
L 248.906527 93.080313 
L 249.487948 92.974123 
L 249.55823 92.867933 
L 250.114093 92.761743 
L 250.114093 92.708648 
L 250.465501 92.602458 
L 250.465501 92.549363 
L 251.002197 92.443173 
L 251.002197 92.390078 
L 251.628342 92.283888 
L 251.628342 92.230793 
L 251.877522 92.124603 
L 251.947804 91.965318 
L 252.797573 91.859128 
L 252.855076 91.699844 
L 253.232041 91.593654 
L 253.232041 91.540559 
L 253.666509 91.434369 
L 253.666509 91.381274 
L 254.184037 91.275084 
L 254.260708 91.115799 
L 254.58017 91.009609 
L 254.618505 90.850324 
L 255.155201 90.744134 
L 255.219093 90.637944 
L 255.41716 90.531754 
L 255.461884 90.425564 
L 255.928299 90.319374 
L 255.928299 90.266279 
L 256.784456 90.160089 
L 256.880295 89.947709 
L 257.391434 89.84152 
L 257.416991 89.73533 
L 257.621446 89.62914 
L 257.621446 89.576045 
L 257.92174 89.469855 
L 257.92174 89.41676 
L 258.145364 89.31057 
L 258.145364 89.257475 
L 259.161252 89.151285 
L 259.231534 89.045095 
L 259.4296 88.938905 
L 259.531828 88.832715 
L 259.908793 88.77962 
L 259.972685 88.514145 
L 260.279369 88.407955 
L 260.279369 88.35486 
L 260.656334 88.24867 
L 260.707448 88.14248 
L 261.052466 88.036291 
L 261.122748 87.930101 
L 261.263311 87.823911 
L 261.371928 87.664626 
L 261.838343 87.558436 
L 261.908624 87.452246 
L 262.521991 87.346056 
L 262.534769 87.239866 
L 262.930902 87.133676 
L 262.975627 87.027486 
L 263.473987 86.921296 
L 263.569826 86.655821 
L 264.055408 86.549631 
L 264.1193 86.443441 
L 264.95629 86.337251 
L 265.026572 86.177966 
L 265.435483 86.071777 
L 265.531321 85.965587 
L 265.87634 85.859397 
L 265.87634 85.806302 
L 266.553599 85.700112 
L 266.662216 85.540827 
L 266.815558 85.434637 
L 266.815558 85.381542 
L 267.556709 85.275352 
L 267.556709 85.222257 
L 268.195633 85.116067 
L 268.265915 85.009877 
L 268.64288 84.903687 
L 268.72594 84.691307 
L 269.05818 84.585117 
L 269.064569 84.425832 
L 269.588487 84.319642 
L 269.588487 84.266547 
L 269.824889 84.160358 
L 269.850445 84.001073 
L 270.463812 83.894883 
L 270.534094 83.629408 
L 270.751328 83.523218 
L 270.834388 83.417028 
L 271.377473 83.310838 
L 271.40303 83.204648 
L 272.444476 83.098458 
L 272.444476 83.045363 
L 273.230352 82.939173 
L 273.300633 82.779888 
L 273.479532 82.673698 
L 273.505089 82.567508 
L 273.677598 82.514413 
L 273.786215 82.302034 
L 273.850108 82.195844 
L 273.850108 82.142749 
L 274.207905 82.036559 
L 274.227073 81.930369 
L 274.885164 81.824179 
L 274.885164 81.771084 
L 275.415471 81.664894 
L 275.447417 81.558704 
L 275.817993 81.452514 
L 275.830771 81.346324 
L 276.054394 81.240134 
L 276.054394 81.187039 
L 276.616647 81.080849 
L 276.616647 81.027754 
L 277.051115 80.921564 
L 277.089451 80.815374 
L 277.281128 80.709184 
L 277.325853 80.602994 
L 278.01589 80.496804 
L 278.01589 80.443709 
L 278.26507 80.33752 
L 278.27146 80.23133 
L 278.865659 80.12514 
L 278.865659 80.072045 
L 279.27457 79.965855 
L 279.370408 79.859665 
L 279.849601 79.753475 
L 279.900715 79.59419 
L 280.252123 79.488 
L 280.252123 79.434905 
L 280.878268 79.328715 
L 280.980496 79.222525 
L 281.184952 79.116335 
L 281.184952 79.06324 
L 281.78554 78.95705 
L 281.811097 78.85086 
L 282.11778 78.74467 
L 282.20084 78.479196 
L 282.858932 78.373006 
L 282.858932 78.319911 
L 283.012273 78.266816 
L 283.095333 78.107531 
L 284.175114 78.001341 
L 284.175114 77.948246 
L 284.513744 77.842056 
L 284.590415 77.735866 
L 284.890709 77.629676 
L 284.890709 77.576581 
L 285.242117 77.523486 
L 285.242117 77.417296 
L 285.72131 77.417296 
L 285.72131 77.258011 
L 286.283562 77.151821 
L 286.328287 77.045631 
L 286.775534 76.939441 
L 286.864983 76.780156 
L 287.31223 76.673966 
L 287.31223 76.620872 
L 287.682805 76.514682 
L 287.682805 76.461587 
L 288.532574 76.355397 
L 288.532574 76.302302 
L 289.784864 76.196112 
L 289.784864 76.143017 
L 290.973262 76.036827 
L 291.049933 75.930637 
L 291.426898 75.824447 
L 291.49079 75.718257 
L 291.906091 75.612067 
L 291.989151 75.399687 
L 292.321391 75.293497 
L 292.410841 75.028022 
L 292.736692 74.921832 
L 292.826141 74.762547 
L 293.16477 74.656358 
L 293.16477 74.603263 
L 293.707856 74.497073 
L 293.746191 74.390883 
L 294.129545 74.284693 
L 294.187048 74.125408 
L 294.659852 74.019218 
L 294.685409 73.913028 
L 295.234883 73.806838 
L 295.234883 73.753743 
L 295.662962 73.647553 
L 295.733244 73.541363 
L 295.905753 73.435173 
L 295.905753 73.328983 
L 296.26355 73.222793 
L 296.321053 73.116603 
L 296.876917 73.010413 
L 296.889695 72.904223 
L 297.279439 72.798034 
L 297.279439 72.744939 
L 297.598901 72.638749 
L 297.598901 72.585654 
L 297.995033 72.479464 
L 298.001423 72.373274 
L 298.333663 72.267084 
L 298.333663 72.213989 
L 298.685071 72.107799 
L 298.685071 72.054704 
L 299.470947 71.948514 
L 299.554007 71.736134 
L 300.001254 71.629944 
L 300.039589 71.523754 
L 300.231266 71.417564 
L 300.231266 71.364469 
L 300.831855 71.258279 
L 300.831855 71.205184 
L 301.221598 71.098994 
L 301.221598 71.045899 
L 301.847743 70.992804 
L 301.8733 70.83352 
L 302.282211 70.72733 
L 302.282211 70.674235 
L 303.304489 70.568045 
L 303.304489 70.51495 
L 303.604783 70.40876 
L 303.604783 70.355665 
L 304.147868 70.249475 
L 304.230929 70.037095 
L 304.46733 69.930905 
L 304.518444 69.824715 
L 304.844295 69.718525 
L 304.88902 69.55924 
L 305.783513 69.45305 
L 305.783513 69.399955 
L 305.821848 69.399955 
L 306.128532 69.293765 
L 306.128532 69.24067 
L 306.390491 69.187575 
L 306.422437 69.028291 
L 306.767456 68.922101 
L 306.767456 68.869006 
L 307.23387 68.762816 
L 307.284984 68.656626 
L 307.73223 68.550436 
L 307.745009 68.444246 
L 308.339208 68.338056 
L 308.415879 68.231866 
L 308.914239 68.125676 
L 308.927018 67.966391 
L 309.188976 67.860201 
L 309.291204 67.754011 
L 309.808732 67.647821 
L 309.885403 67.541631 
L 310.575441 67.435441 
L 310.626555 67.329251 
L 310.677668 67.329251 
L 311.674389 67.223061 
L 311.674389 67.169966 
L 312.747781 67.063777 
L 312.824452 66.957587 
L 313.316423 66.851397 
L 313.405873 66.692112 
L 313.770059 66.585922 
L 313.840341 66.426637 
L 314.313144 66.320447 
L 314.396204 66.161162 
L 314.702888 66.054972 
L 314.709277 65.948782 
L 315.277919 65.842592 
L 315.322644 65.736402 
L 315.801836 65.630212 
L 315.85295 65.524022 
L 316.063795 65.470927 
L 316.063795 65.364737 
L 316.734665 65.258547 
L 316.843282 65.152358 
L 317.552487 65.046168 
L 317.622769 64.939978 
L 318.402256 64.833788 
L 318.402256 64.780693 
L 318.977287 64.674503 
L 319.053958 64.568313 
L 320.382919 64.462123 
L 320.382919 64.409028 
L 321.334915 64.302838 
L 321.373251 64.196648 
L 321.647988 64.090458 
L 321.647988 64.037363 
L 322.574427 63.931173 
L 322.574427 63.878078 
L 323.206962 63.771888 
L 323.206962 63.718793 
L 323.551981 63.612603 
L 323.551981 63.559508 
L 324.152569 63.453318 
L 324.152569 63.400223 
L 325.136511 63.294034 
L 325.136511 63.240939 
L 325.372913 63.134749 
L 325.455973 63.028559 
L 325.769046 62.922369 
L 325.858495 62.816179 
L 326.842437 62.709989 
L 326.944665 62.550704 
L 327.315241 62.444514 
L 327.385523 62.338324 
L 327.589978 62.232134 
L 327.653871 62.019754 
L 328.037225 61.913564 
L 328.037225 61.860469 
L 329.16173 61.754279 
L 329.257569 61.648089 
L 329.602588 61.541899 
L 329.602588 61.488804 
L 330.043445 61.382615 
L 330.043445 61.32952 
L 330.701536 61.22333 
L 330.701536 61.170235 
L 331.493802 61.064045 
L 331.493802 61.01095 
L 331.659922 60.957855 
L 331.659922 60.851665 
L 332.605529 60.745475 
L 332.643864 60.639285 
L 333.321124 60.533095 
L 333.391405 60.320715 
L 333.666142 60.214525 
L 333.666142 60.16143 
L 334.828983 60.05524 
L 334.905654 59.94905 
L 335.653195 59.895955 
L 335.653195 59.789765 
L 335.851261 59.683575 
L 335.934321 59.524291 
L 336.483796 59.418101 
L 336.483796 59.365006 
L 337.263283 59.258816 
L 337.263283 59.205721 
L 337.499684 59.099531 
L 337.499684 59.046436 
L 338.164165 58.940246 
L 338.164165 58.887151 
L 338.387788 58.780961 
L 338.387788 58.727866 
L 339.160886 58.621676 
L 339.160886 58.568581 
L 339.985098 58.462391 
L 340.04899 58.356201 
L 340.47068 58.250011 
L 340.534572 58.143821 
L 341.032932 58.037631 
L 341.096825 57.931441 
L 342.713302 57.825251 
L 342.713302 57.772156 
L 343.524735 57.665966 
L 343.524735 57.612872 
L 344.495899 57.506682 
L 344.578959 57.400492 
L 344.7323 57.294302 
L 344.796193 57.188112 
L 345.294553 57.081922 
L 345.352056 56.869542 
L 345.729021 56.763352 
L 345.831249 56.657162 
L 347.204935 56.550972 
L 347.230492 56.444782 
L 347.965254 56.338592 
L 348.073871 56.073117 
L 348.770298 55.966927 
L 348.770298 55.913832 
L 349.243102 55.807642 
L 349.294215 55.701453 
L 349.626456 55.595263 
L 349.664791 55.489073 
L 350.757351 55.382883 
L 350.757351 55.329788 
L 350.770129 55.329788 
L 351.044866 55.223598 
L 351.121537 55.117408 
L 351.479334 55.011218 
L 351.556005 54.905028 
L 351.568784 54.905028 
L 352.079923 54.798838 
L 352.079923 54.745743 
L 353.453609 54.639553 
L 353.453609 54.586458 
L 353.932801 54.480268 
L 353.932801 54.427173 
L 354.19476 54.320983 
L 354.19476 54.267888 
L 354.987025 54.161698 
L 354.987025 54.108603 
L 355.338433 54.002413 
L 355.376769 53.896223 
L 355.740955 53.790034 
L 355.78568 53.630749 
L 356.418214 53.524559 
L 356.418214 53.471464 
L 356.846293 53.365274 
L 356.846293 53.312179 
L 357.172144 53.205989 
L 357.172144 53.152894 
L 357.466049 53.046704 
L 357.536331 52.887419 
L 358.418046 52.781229 
L 358.418046 52.728134 
L 359.708671 52.621944 
L 359.727839 52.515754 
L 360.468991 52.409564 
L 360.507326 52.303374 
L 362.769116 52.197184 
L 362.769116 52.144089 
L 363.631663 52.037899 
L 363.708334 51.931709 
L 364.49421 51.82552 
L 364.596438 51.71933 
L 365.516488 51.666235 
L 365.516488 51.560045 
L 366.117076 51.453855 
L 366.180968 51.347665 
L 366.890174 51.241475 
L 366.992401 51.08219 
L 367.362977 50.976 
L 367.362977 50.922905 
L 367.867727 50.816715 
L 367.867727 50.76362 
L 368.890005 50.65743 
L 368.890005 50.604335 
L 369.771719 50.55124 
L 369.771719 50.44505 
L 370.167852 50.33886 
L 370.167852 50.285765 
L 370.985674 50.179575 
L 371.055956 50.073385 
L 372.039898 49.967196 
L 372.039898 49.914101 
L 372.378528 49.807911 
L 372.378528 49.754816 
L 372.94717 49.648626 
L 372.94717 49.595531 
L 373.637208 49.489341 
L 373.662765 49.383151 
L 374.276131 49.276961 
L 374.327245 49.170771 
L 375.368691 49.064581 
L 375.368691 49.011486 
L 376.755155 48.905296 
L 376.755155 48.852201 
L 377.47075 48.746011 
L 377.55381 48.586726 
L 378.346075 48.480536 
L 378.346075 48.427441 
L 378.857214 48.321251 
L 378.901939 48.215061 
L 378.927496 48.215061 
L 379.598365 48.108872 
L 379.598365 48.055777 
L 380.754817 47.949587 
L 380.754817 47.896492 
L 381.221232 47.790302 
L 381.221232 47.737207 
L 382.179617 47.631017 
L 382.179617 47.577922 
L 382.984661 47.471732 
L 382.984661 47.418637 
L 383.91749 47.312447 
L 384.019717 47.153162 
L 385.093109 47.046972 
L 385.093109 46.993877 
L 385.987602 46.887687 
L 385.987602 46.834592 
L 386.441238 46.728402 
L 386.441238 46.675307 
L 387.380456 46.569117 
L 387.418791 46.462927 
L 388.415512 46.356737 
L 388.415512 46.303642 
L 389.680581 46.197453 
L 389.680581 46.144358 
L 390.038378 46.038168 
L 390.038378 45.985073 
L 390.741194 45.878883 
L 390.766751 45.772693 
L 392.11488 45.666503 
L 392.11488 45.613408 
L 392.549348 45.507218 
L 392.549348 45.454123 
L 393.194661 45.347933 
L 393.194661 45.294838 
L 393.724968 45.188648 
L 393.724968 45.135553 
L 394.466119 45.029363 
L 394.466119 44.976268 
L 396.108153 44.870078 
L 396.108153 44.816983 
L 396.881251 44.710793 
L 396.919586 44.551508 
L 397.334887 44.445318 
L 397.373222 44.339128 
L 398.484949 44.232939 
L 398.56162 44.126749 
L 399.960863 44.020559 
L 399.960863 43.967464 
L 400.810632 43.861274 
L 400.880913 43.755084 
L 402.126814 43.648894 
L 402.126814 43.542704 
L 403.596339 43.436514 
L 403.596339 43.383419 
L 404.848629 43.277229 
L 404.874186 43.171039 
L 406.637615 43.064849 
L 406.68234 42.958659 
L 407.794067 42.852469 
L 407.845181 42.799374 
L 407.85796 42.799374 
L 408.631057 42.693184 
L 408.631057 42.586994 
L 409.321095 42.480804 
L 409.321095 42.427709 
L 410.138917 42.32152 
L 410.138917 42.268425 
L 410.95035 42.162235 
L 410.95035 42.10914 
L 411.506214 42.00295 
L 411.506214 41.949855 
L 412.771283 41.843665 
L 412.873511 41.79057 
L 413.761614 41.68438 
L 413.825507 41.525095 
L 414.72 41.472 
L 414.72 41.472 
" style="fill:none;stroke:#ff8c00;stroke-linecap:square;stroke-width:2;"/>
   </g>
   <g id="line2d_14">
    <path clip-path="url(#p4e0a9338ae)" d="M 57.6 307.584 
L 414.72 41.472 
" style="fill:none;stroke:#000080;stroke-dasharray:7.4,3.2;stroke-dashoffset:0;stroke-width:2;"/>
   </g>
   <g id="patch_3">
    <path d="M 57.6 307.584 
L 57.6 41.472 
" style="fill:none;stroke:#000000;stroke-linecap:square;stroke-linejoin:miter;stroke-width:0.8;"/>
   </g>
   <g id="patch_4">
    <path d="M 414.72 307.584 
L 414.72 41.472 
" style="fill:none;stroke:#000000;stroke-linecap:square;stroke-linejoin:miter;stroke-width:0.8;"/>
   </g>
   <g id="patch_5">
    <path d="M 57.6 307.584 
L 414.72 307.584 
" style="fill:none;stroke:#000000;stroke-linecap:square;stroke-linejoin:miter;stroke-width:0.8;"/>
   </g>
   <g id="patch_6">
    <path d="M 57.6 41.472 
L 414.72 41.472 
" style="fill:none;stroke:#000000;stroke-linecap:square;stroke-linejoin:miter;stroke-width:0.8;"/>
   </g>
   <g id="text_15">
    <!-- Receiver operating characteristic -->
    <defs>
     <path d="M 48.78125 52.59375 
L 48.78125 44.1875 
Q 44.96875 46.296875 41.140625 47.34375 
Q 37.3125 48.390625 33.40625 48.390625 
Q 24.65625 48.390625 19.8125 42.84375 
Q 14.984375 37.3125 14.984375 27.296875 
Q 14.984375 17.28125 19.8125 11.734375 
Q 24.65625 6.203125 33.40625 6.203125 
Q 37.3125 6.203125 41.140625 7.25 
Q 44.96875 8.296875 48.78125 10.40625 
L 48.78125 2.09375 
Q 45.015625 0.34375 40.984375 -0.53125 
Q 36.96875 -1.421875 32.421875 -1.421875 
Q 20.0625 -1.421875 12.78125 6.34375 
Q 5.515625 14.109375 5.515625 27.296875 
Q 5.515625 40.671875 12.859375 48.328125 
Q 20.21875 56 33.015625 56 
Q 37.15625 56 41.109375 55.140625 
Q 45.0625 54.296875 48.78125 52.59375 
z
" id="DejaVuSans-99"/>
     <path d="M 18.109375 8.203125 
L 18.109375 -20.796875 
L 9.078125 -20.796875 
L 9.078125 54.6875 
L 18.109375 54.6875 
L 18.109375 46.390625 
Q 20.953125 51.265625 25.265625 53.625 
Q 29.59375 56 35.59375 56 
Q 45.5625 56 51.78125 48.09375 
Q 58.015625 40.1875 58.015625 27.296875 
Q 58.015625 14.40625 51.78125 6.484375 
Q 45.5625 -1.421875 35.59375 -1.421875 
Q 29.59375 -1.421875 25.265625 0.953125 
Q 20.953125 3.328125 18.109375 8.203125 
z
M 48.6875 27.296875 
Q 48.6875 37.203125 44.609375 42.84375 
Q 40.53125 48.484375 33.40625 48.484375 
Q 26.265625 48.484375 22.1875 42.84375 
Q 18.109375 37.203125 18.109375 27.296875 
Q 18.109375 17.390625 22.1875 11.75 
Q 26.265625 6.109375 33.40625 6.109375 
Q 40.53125 6.109375 44.609375 11.75 
Q 48.6875 17.390625 48.6875 27.296875 
z
" id="DejaVuSans-112"/>
     <path d="M 54.890625 33.015625 
L 54.890625 0 
L 45.90625 0 
L 45.90625 32.71875 
Q 45.90625 40.484375 42.875 44.328125 
Q 39.84375 48.1875 33.796875 48.1875 
Q 26.515625 48.1875 22.3125 43.546875 
Q 18.109375 38.921875 18.109375 30.90625 
L 18.109375 0 
L 9.078125 0 
L 9.078125 54.6875 
L 18.109375 54.6875 
L 18.109375 46.1875 
Q 21.34375 51.125 25.703125 53.5625 
Q 30.078125 56 35.796875 56 
Q 45.21875 56 50.046875 50.171875 
Q 54.890625 44.34375 54.890625 33.015625 
z
" id="DejaVuSans-110"/>
     <path d="M 45.40625 27.984375 
Q 45.40625 37.75 41.375 43.109375 
Q 37.359375 48.484375 30.078125 48.484375 
Q 22.859375 48.484375 18.828125 43.109375 
Q 14.796875 37.75 14.796875 27.984375 
Q 14.796875 18.265625 18.828125 12.890625 
Q 22.859375 7.515625 30.078125 7.515625 
Q 37.359375 7.515625 41.375 12.890625 
Q 45.40625 18.265625 45.40625 27.984375 
z
M 54.390625 6.78125 
Q 54.390625 -7.171875 48.1875 -13.984375 
Q 42 -20.796875 29.203125 -20.796875 
Q 24.46875 -20.796875 20.265625 -20.09375 
Q 16.0625 -19.390625 12.109375 -17.921875 
L 12.109375 -9.1875 
Q 16.0625 -11.328125 19.921875 -12.34375 
Q 23.78125 -13.375 27.78125 -13.375 
Q 36.625 -13.375 41.015625 -8.765625 
Q 45.40625 -4.15625 45.40625 5.171875 
L 45.40625 9.625 
Q 42.625 4.78125 38.28125 2.390625 
Q 33.9375 0 27.875 0 
Q 17.828125 0 11.671875 7.65625 
Q 5.515625 15.328125 5.515625 27.984375 
Q 5.515625 40.671875 11.671875 48.328125 
Q 17.828125 56 27.875 56 
Q 33.9375 56 38.28125 53.609375 
Q 42.625 51.21875 45.40625 46.390625 
L 45.40625 54.6875 
L 54.390625 54.6875 
z
" id="DejaVuSans-103"/>
     <path d="M 54.890625 33.015625 
L 54.890625 0 
L 45.90625 0 
L 45.90625 32.71875 
Q 45.90625 40.484375 42.875 44.328125 
Q 39.84375 48.1875 33.796875 48.1875 
Q 26.515625 48.1875 22.3125 43.546875 
Q 18.109375 38.921875 18.109375 30.90625 
L 18.109375 0 
L 9.078125 0 
L 9.078125 75.984375 
L 18.109375 75.984375 
L 18.109375 46.1875 
Q 21.34375 51.125 25.703125 53.5625 
Q 30.078125 56 35.796875 56 
Q 45.21875 56 50.046875 50.171875 
Q 54.890625 44.34375 54.890625 33.015625 
z
" id="DejaVuSans-104"/>
    </defs>
    <g transform="translate(136.333125 35.472)scale(0.12 -0.12)">
     <use xlink:href="#DejaVuSans-82"/>
     <use x="69.419922" xlink:href="#DejaVuSans-101"/>
     <use x="130.943359" xlink:href="#DejaVuSans-99"/>
     <use x="185.923828" xlink:href="#DejaVuSans-101"/>
     <use x="247.447266" xlink:href="#DejaVuSans-105"/>
     <use x="275.230469" xlink:href="#DejaVuSans-118"/>
     <use x="334.410156" xlink:href="#DejaVuSans-101"/>
     <use x="395.933594" xlink:href="#DejaVuSans-114"/>
     <use x="437.046875" xlink:href="#DejaVuSans-32"/>
     <use x="468.833984" xlink:href="#DejaVuSans-111"/>
     <use x="530.015625" xlink:href="#DejaVuSans-112"/>
     <use x="593.492188" xlink:href="#DejaVuSans-101"/>
     <use x="655.015625" xlink:href="#DejaVuSans-114"/>
     <use x="696.128906" xlink:href="#DejaVuSans-97"/>
     <use x="757.408203" xlink:href="#DejaVuSans-116"/>
     <use x="796.617188" xlink:href="#DejaVuSans-105"/>
     <use x="824.400391" xlink:href="#DejaVuSans-110"/>
     <use x="887.779297" xlink:href="#DejaVuSans-103"/>
     <use x="951.255859" xlink:href="#DejaVuSans-32"/>
     <use x="983.042969" xlink:href="#DejaVuSans-99"/>
     <use x="1038.023438" xlink:href="#DejaVuSans-104"/>
     <use x="1101.402344" xlink:href="#DejaVuSans-97"/>
     <use x="1162.681641" xlink:href="#DejaVuSans-114"/>
     <use x="1203.794922" xlink:href="#DejaVuSans-97"/>
     <use x="1265.074219" xlink:href="#DejaVuSans-99"/>
     <use x="1320.054688" xlink:href="#DejaVuSans-116"/>
     <use x="1359.263672" xlink:href="#DejaVuSans-101"/>
     <use x="1420.787109" xlink:href="#DejaVuSans-114"/>
     <use x="1461.900391" xlink:href="#DejaVuSans-105"/>
     <use x="1489.683594" xlink:href="#DejaVuSans-115"/>
     <use x="1541.783203" xlink:href="#DejaVuSans-116"/>
     <use x="1580.992188" xlink:href="#DejaVuSans-105"/>
     <use x="1608.775391" xlink:href="#DejaVuSans-99"/>
    </g>
   </g>
   <g id="legend_1">
    <g id="patch_7">
     <path d="M 247.5575 302.584 
L 407.72 302.584 
Q 409.72 302.584 409.72 300.584 
L 409.72 286.905875 
Q 409.72 284.905875 407.72 284.905875 
L 247.5575 284.905875 
Q 245.5575 284.905875 245.5575 286.905875 
L 245.5575 300.584 
Q 245.5575 302.584 247.5575 302.584 
z
" style="fill:#ffffff;opacity:0.8;stroke:#cccccc;stroke-linejoin:miter;"/>
    </g>
    <g id="line2d_15">
     <path d="M 249.5575 293.004312 
L 269.5575 293.004312 
" style="fill:none;stroke:#ff8c00;stroke-linecap:square;stroke-width:2;"/>
    </g>
    <g id="line2d_16"/>
    <g id="text_16">
     <!-- ROC Curve (area =  0.71) -->
     <defs>
      <path d="M 39.40625 66.21875 
Q 28.65625 66.21875 22.328125 58.203125 
Q 16.015625 50.203125 16.015625 36.375 
Q 16.015625 22.609375 22.328125 14.59375 
Q 28.65625 6.59375 39.40625 6.59375 
Q 50.140625 6.59375 56.421875 14.59375 
Q 62.703125 22.609375 62.703125 36.375 
Q 62.703125 50.203125 56.421875 58.203125 
Q 50.140625 66.21875 39.40625 66.21875 
z
M 39.40625 74.21875 
Q 54.734375 74.21875 63.90625 63.9375 
Q 73.09375 53.65625 73.09375 36.375 
Q 73.09375 19.140625 63.90625 8.859375 
Q 54.734375 -1.421875 39.40625 -1.421875 
Q 24.03125 -1.421875 14.8125 8.828125 
Q 5.609375 19.09375 5.609375 36.375 
Q 5.609375 53.65625 14.8125 63.9375 
Q 24.03125 74.21875 39.40625 74.21875 
z
" id="DejaVuSans-79"/>
      <path d="M 64.40625 67.28125 
L 64.40625 56.890625 
Q 59.421875 61.53125 53.78125 63.8125 
Q 48.140625 66.109375 41.796875 66.109375 
Q 29.296875 66.109375 22.65625 58.46875 
Q 16.015625 50.828125 16.015625 36.375 
Q 16.015625 21.96875 22.65625 14.328125 
Q 29.296875 6.6875 41.796875 6.6875 
Q 48.140625 6.6875 53.78125 8.984375 
Q 59.421875 11.28125 64.40625 15.921875 
L 64.40625 5.609375 
Q 59.234375 2.09375 53.4375 0.328125 
Q 47.65625 -1.421875 41.21875 -1.421875 
Q 24.65625 -1.421875 15.125 8.703125 
Q 5.609375 18.84375 5.609375 36.375 
Q 5.609375 53.953125 15.125 64.078125 
Q 24.65625 74.21875 41.21875 74.21875 
Q 47.75 74.21875 53.53125 72.484375 
Q 59.328125 70.75 64.40625 67.28125 
z
" id="DejaVuSans-67"/>
      <path d="M 31 75.875 
Q 24.46875 64.65625 21.28125 53.65625 
Q 18.109375 42.671875 18.109375 31.390625 
Q 18.109375 20.125 21.3125 9.0625 
Q 24.515625 -2 31 -13.1875 
L 23.1875 -13.1875 
Q 15.875 -1.703125 12.234375 9.375 
Q 8.59375 20.453125 8.59375 31.390625 
Q 8.59375 42.28125 12.203125 53.3125 
Q 15.828125 64.359375 23.1875 75.875 
z
" id="DejaVuSans-40"/>
      <path d="M 10.59375 45.40625 
L 73.1875 45.40625 
L 73.1875 37.203125 
L 10.59375 37.203125 
z
M 10.59375 25.484375 
L 73.1875 25.484375 
L 73.1875 17.1875 
L 10.59375 17.1875 
z
" id="DejaVuSans-61"/>
      <path d="M 8.203125 72.90625 
L 55.078125 72.90625 
L 55.078125 68.703125 
L 28.609375 0 
L 18.3125 0 
L 43.21875 64.59375 
L 8.203125 64.59375 
z
" id="DejaVuSans-55"/>
      <path d="M 8.015625 75.875 
L 15.828125 75.875 
Q 23.140625 64.359375 26.78125 53.3125 
Q 30.421875 42.28125 30.421875 31.390625 
Q 30.421875 20.453125 26.78125 9.375 
Q 23.140625 -1.703125 15.828125 -13.1875 
L 8.015625 -13.1875 
Q 14.5 -2 17.703125 9.0625 
Q 20.90625 20.125 20.90625 31.390625 
Q 20.90625 42.671875 17.703125 53.65625 
Q 14.5 64.65625 8.015625 75.875 
z
" id="DejaVuSans-41"/>
     </defs>
     <g transform="translate(277.5575 296.504312)scale(0.1 -0.1)">
      <use xlink:href="#DejaVuSans-82"/>
      <use x="69.482422" xlink:href="#DejaVuSans-79"/>
      <use x="148.193359" xlink:href="#DejaVuSans-67"/>
      <use x="218.017578" xlink:href="#DejaVuSans-32"/>
      <use x="249.804688" xlink:href="#DejaVuSans-67"/>
      <use x="319.628906" xlink:href="#DejaVuSans-117"/>
      <use x="383.007812" xlink:href="#DejaVuSans-114"/>
      <use x="424.121094" xlink:href="#DejaVuSans-118"/>
      <use x="483.300781" xlink:href="#DejaVuSans-101"/>
      <use x="544.824219" xlink:href="#DejaVuSans-32"/>
      <use x="576.611328" xlink:href="#DejaVuSans-40"/>
      <use x="615.625" xlink:href="#DejaVuSans-97"/>
      <use x="676.904297" xlink:href="#DejaVuSans-114"/>
      <use x="717.986328" xlink:href="#DejaVuSans-101"/>
      <use x="779.509766" xlink:href="#DejaVuSans-97"/>
      <use x="840.789062" xlink:href="#DejaVuSans-32"/>
      <use x="872.576172" xlink:href="#DejaVuSans-61"/>
      <use x="956.365234" xlink:href="#DejaVuSans-32"/>
      <use x="988.152344" xlink:href="#DejaVuSans-32"/>
      <use x="1019.939453" xlink:href="#DejaVuSans-48"/>
      <use x="1083.5625" xlink:href="#DejaVuSans-46"/>
      <use x="1115.349609" xlink:href="#DejaVuSans-55"/>
      <use x="1178.972656" xlink:href="#DejaVuSans-49"/>
      <use x="1242.595703" xlink:href="#DejaVuSans-41"/>
     </g>
    </g>
   </g>
  </g>
 </g>
 <defs>
  <clipPath id="p4e0a9338ae">
   <rect height="266.112" width="357.12" x="57.6" y="41.472"/>
  </clipPath>
 </defs>
</svg>
