<?xml version="1.0" encoding="utf-8" standalone="no"?>
<!DOCTYPE svg PUBLIC "-//W3C//DTD SVG 1.1//EN"
  "http://www.w3.org/Graphics/SVG/1.1/DTD/svg11.dtd">
<!-- Created with matplotlib (https://matplotlib.org/) -->
<svg height="345.6pt" version="1.1" viewBox="0 0 460.8 345.6" width="460.8pt" xmlns="http://www.w3.org/2000/svg" xmlns:xlink="http://www.w3.org/1999/xlink">
 <defs>
  <style type="text/css">
*{stroke-linecap:butt;stroke-linejoin:round;}
  </style>
 </defs>
 <g id="figure_1">
  <g id="patch_1">
   <path d="M 0 345.6 
L 460.8 345.6 
L 460.8 0 
L 0 0 
z
" style="fill:#ffffff;"/>
  </g>
  <g id="axes_1">
   <g id="patch_2">
    <path d="M 57.6 307.584 
L 414.72 307.584 
L 414.72 41.472 
L 57.6 41.472 
z
" style="fill:#ffffff;"/>
   </g>
   <g id="matplotlib.axis_1">
    <g id="xtick_1">
     <g id="line2d_1">
      <defs>
       <path d="M 0 0 
L 0 3.5 
" id="m4d146cab8a" style="stroke:#000000;stroke-width:0.8;"/>
      </defs>
      <g>
       <use style="stroke:#000000;stroke-width:0.8;" x="57.6" xlink:href="#m4d146cab8a" y="307.584"/>
      </g>
     </g>
     <g id="text_1">
      <!-- 0.0 -->
      <defs>
       <path d="M 31.78125 66.40625 
Q 24.171875 66.40625 20.328125 58.90625 
Q 16.5 51.421875 16.5 36.375 
Q 16.5 21.390625 20.328125 13.890625 
Q 24.171875 6.390625 31.78125 6.390625 
Q 39.453125 6.390625 43.28125 13.890625 
Q 47.125 21.390625 47.125 36.375 
Q 47.125 51.421875 43.28125 58.90625 
Q 39.453125 66.40625 31.78125 66.40625 
z
M 31.78125 74.21875 
Q 44.046875 74.21875 50.515625 64.515625 
Q 56.984375 54.828125 56.984375 36.375 
Q 56.984375 17.96875 50.515625 8.265625 
Q 44.046875 -1.421875 31.78125 -1.421875 
Q 19.53125 -1.421875 13.0625 8.265625 
Q 6.59375 17.96875 6.59375 36.375 
Q 6.59375 54.828125 13.0625 64.515625 
Q 19.53125 74.21875 31.78125 74.21875 
z
" id="DejaVuSans-48"/>
       <path d="M 10.6875 12.40625 
L 21 12.40625 
L 21 0 
L 10.6875 0 
z
" id="DejaVuSans-46"/>
      </defs>
      <g transform="translate(49.648438 322.182437)scale(0.1 -0.1)">
       <use xlink:href="#DejaVuSans-48"/>
       <use x="63.623047" xlink:href="#DejaVuSans-46"/>
       <use x="95.410156" xlink:href="#DejaVuSans-48"/>
      </g>
     </g>
    </g>
    <g id="xtick_2">
     <g id="line2d_2">
      <g>
       <use style="stroke:#000000;stroke-width:0.8;" x="129.024" xlink:href="#m4d146cab8a" y="307.584"/>
      </g>
     </g>
     <g id="text_2">
      <!-- 0.2 -->
      <defs>
       <path d="M 19.1875 8.296875 
L 53.609375 8.296875 
L 53.609375 0 
L 7.328125 0 
L 7.328125 8.296875 
Q 12.9375 14.109375 22.625 23.890625 
Q 32.328125 33.6875 34.8125 36.53125 
Q 39.546875 41.84375 41.421875 45.53125 
Q 43.3125 49.21875 43.3125 52.78125 
Q 43.3125 58.59375 39.234375 62.25 
Q 35.15625 65.921875 28.609375 65.921875 
Q 23.96875 65.921875 18.8125 64.3125 
Q 13.671875 62.703125 7.8125 59.421875 
L 7.8125 69.390625 
Q 13.765625 71.78125 18.9375 73 
Q 24.125 74.21875 28.421875 74.21875 
Q 39.75 74.21875 46.484375 68.546875 
Q 53.21875 62.890625 53.21875 53.421875 
Q 53.21875 48.921875 51.53125 44.890625 
Q 49.859375 40.875 45.40625 35.40625 
Q 44.1875 33.984375 37.640625 27.21875 
Q 31.109375 20.453125 19.1875 8.296875 
z
" id="DejaVuSans-50"/>
      </defs>
      <g transform="translate(121.072438 322.182437)scale(0.1 -0.1)">
       <use xlink:href="#DejaVuSans-48"/>
       <use x="63.623047" xlink:href="#DejaVuSans-46"/>
       <use x="95.410156" xlink:href="#DejaVuSans-50"/>
      </g>
     </g>
    </g>
    <g id="xtick_3">
     <g id="line2d_3">
      <g>
       <use style="stroke:#000000;stroke-width:0.8;" x="200.448" xlink:href="#m4d146cab8a" y="307.584"/>
      </g>
     </g>
     <g id="text_3">
      <!-- 0.4 -->
      <defs>
       <path d="M 37.796875 64.3125 
L 12.890625 25.390625 
L 37.796875 25.390625 
z
M 35.203125 72.90625 
L 47.609375 72.90625 
L 47.609375 25.390625 
L 58.015625 25.390625 
L 58.015625 17.1875 
L 47.609375 17.1875 
L 47.609375 0 
L 37.796875 0 
L 37.796875 17.1875 
L 4.890625 17.1875 
L 4.890625 26.703125 
z
" id="DejaVuSans-52"/>
      </defs>
      <g transform="translate(192.496438 322.182437)scale(0.1 -0.1)">
       <use xlink:href="#DejaVuSans-48"/>
       <use x="63.623047" xlink:href="#DejaVuSans-46"/>
       <use x="95.410156" xlink:href="#DejaVuSans-52"/>
      </g>
     </g>
    </g>
    <g id="xtick_4">
     <g id="line2d_4">
      <g>
       <use style="stroke:#000000;stroke-width:0.8;" x="271.872" xlink:href="#m4d146cab8a" y="307.584"/>
      </g>
     </g>
     <g id="text_4">
      <!-- 0.6 -->
      <defs>
       <path d="M 33.015625 40.375 
Q 26.375 40.375 22.484375 35.828125 
Q 18.609375 31.296875 18.609375 23.390625 
Q 18.609375 15.53125 22.484375 10.953125 
Q 26.375 6.390625 33.015625 6.390625 
Q 39.65625 6.390625 43.53125 10.953125 
Q 47.40625 15.53125 47.40625 23.390625 
Q 47.40625 31.296875 43.53125 35.828125 
Q 39.65625 40.375 33.015625 40.375 
z
M 52.59375 71.296875 
L 52.59375 62.3125 
Q 48.875 64.0625 45.09375 64.984375 
Q 41.3125 65.921875 37.59375 65.921875 
Q 27.828125 65.921875 22.671875 59.328125 
Q 17.53125 52.734375 16.796875 39.40625 
Q 19.671875 43.65625 24.015625 45.921875 
Q 28.375 48.1875 33.59375 48.1875 
Q 44.578125 48.1875 50.953125 41.515625 
Q 57.328125 34.859375 57.328125 23.390625 
Q 57.328125 12.15625 50.6875 5.359375 
Q 44.046875 -1.421875 33.015625 -1.421875 
Q 20.359375 -1.421875 13.671875 8.265625 
Q 6.984375 17.96875 6.984375 36.375 
Q 6.984375 53.65625 15.1875 63.9375 
Q 23.390625 74.21875 37.203125 74.21875 
Q 40.921875 74.21875 44.703125 73.484375 
Q 48.484375 72.75 52.59375 71.296875 
z
" id="DejaVuSans-54"/>
      </defs>
      <g transform="translate(263.920438 322.182437)scale(0.1 -0.1)">
       <use xlink:href="#DejaVuSans-48"/>
       <use x="63.623047" xlink:href="#DejaVuSans-46"/>
       <use x="95.410156" xlink:href="#DejaVuSans-54"/>
      </g>
     </g>
    </g>
    <g id="xtick_5">
     <g id="line2d_5">
      <g>
       <use style="stroke:#000000;stroke-width:0.8;" x="343.296" xlink:href="#m4d146cab8a" y="307.584"/>
      </g>
     </g>
     <g id="text_5">
      <!-- 0.8 -->
      <defs>
       <path d="M 31.78125 34.625 
Q 24.75 34.625 20.71875 30.859375 
Q 16.703125 27.09375 16.703125 20.515625 
Q 16.703125 13.921875 20.71875 10.15625 
Q 24.75 6.390625 31.78125 6.390625 
Q 38.8125 6.390625 42.859375 10.171875 
Q 46.921875 13.96875 46.921875 20.515625 
Q 46.921875 27.09375 42.890625 30.859375 
Q 38.875 34.625 31.78125 34.625 
z
M 21.921875 38.8125 
Q 15.578125 40.375 12.03125 44.71875 
Q 8.5 49.078125 8.5 55.328125 
Q 8.5 64.0625 14.71875 69.140625 
Q 20.953125 74.21875 31.78125 74.21875 
Q 42.671875 74.21875 48.875 69.140625 
Q 55.078125 64.0625 55.078125 55.328125 
Q 55.078125 49.078125 51.53125 44.71875 
Q 48 40.375 41.703125 38.8125 
Q 48.828125 37.15625 52.796875 32.3125 
Q 56.78125 27.484375 56.78125 20.515625 
Q 56.78125 9.90625 50.3125 4.234375 
Q 43.84375 -1.421875 31.78125 -1.421875 
Q 19.734375 -1.421875 13.25 4.234375 
Q 6.78125 9.90625 6.78125 20.515625 
Q 6.78125 27.484375 10.78125 32.3125 
Q 14.796875 37.15625 21.921875 38.8125 
z
M 18.3125 54.390625 
Q 18.3125 48.734375 21.84375 45.5625 
Q 25.390625 42.390625 31.78125 42.390625 
Q 38.140625 42.390625 41.71875 45.5625 
Q 45.3125 48.734375 45.3125 54.390625 
Q 45.3125 60.0625 41.71875 63.234375 
Q 38.140625 66.40625 31.78125 66.40625 
Q 25.390625 66.40625 21.84375 63.234375 
Q 18.3125 60.0625 18.3125 54.390625 
z
" id="DejaVuSans-56"/>
      </defs>
      <g transform="translate(335.344438 322.182437)scale(0.1 -0.1)">
       <use xlink:href="#DejaVuSans-48"/>
       <use x="63.623047" xlink:href="#DejaVuSans-46"/>
       <use x="95.410156" xlink:href="#DejaVuSans-56"/>
      </g>
     </g>
    </g>
    <g id="xtick_6">
     <g id="line2d_6">
      <g>
       <use style="stroke:#000000;stroke-width:0.8;" x="414.72" xlink:href="#m4d146cab8a" y="307.584"/>
      </g>
     </g>
     <g id="text_6">
      <!-- 1.0 -->
      <defs>
       <path d="M 12.40625 8.296875 
L 28.515625 8.296875 
L 28.515625 63.921875 
L 10.984375 60.40625 
L 10.984375 69.390625 
L 28.421875 72.90625 
L 38.28125 72.90625 
L 38.28125 8.296875 
L 54.390625 8.296875 
L 54.390625 0 
L 12.40625 0 
z
" id="DejaVuSans-49"/>
      </defs>
      <g transform="translate(406.768438 322.182437)scale(0.1 -0.1)">
       <use xlink:href="#DejaVuSans-49"/>
       <use x="63.623047" xlink:href="#DejaVuSans-46"/>
       <use x="95.410156" xlink:href="#DejaVuSans-48"/>
      </g>
     </g>
    </g>
    <g id="text_7">
     <!-- False Positive Rate -->
     <defs>
      <path d="M 9.8125 72.90625 
L 51.703125 72.90625 
L 51.703125 64.59375 
L 19.671875 64.59375 
L 19.671875 43.109375 
L 48.578125 43.109375 
L 48.578125 34.8125 
L 19.671875 34.8125 
L 19.671875 0 
L 9.8125 0 
z
" id="DejaVuSans-70"/>
      <path d="M 34.28125 27.484375 
Q 23.390625 27.484375 19.1875 25 
Q 14.984375 22.515625 14.984375 16.5 
Q 14.984375 11.71875 18.140625 8.90625 
Q 21.296875 6.109375 26.703125 6.109375 
Q 34.1875 6.109375 38.703125 11.40625 
Q 43.21875 16.703125 43.21875 25.484375 
L 43.21875 27.484375 
z
M 52.203125 31.203125 
L 52.203125 0 
L 43.21875 0 
L 43.21875 8.296875 
Q 40.140625 3.328125 35.546875 0.953125 
Q 30.953125 -1.421875 24.3125 -1.421875 
Q 15.921875 -1.421875 10.953125 3.296875 
Q 6 8.015625 6 15.921875 
Q 6 25.140625 12.171875 29.828125 
Q 18.359375 34.515625 30.609375 34.515625 
L 43.21875 34.515625 
L 43.21875 35.40625 
Q 43.21875 41.609375 39.140625 45 
Q 35.0625 48.390625 27.6875 48.390625 
Q 23 48.390625 18.546875 47.265625 
Q 14.109375 46.140625 10.015625 43.890625 
L 10.015625 52.203125 
Q 14.9375 54.109375 19.578125 55.046875 
Q 24.21875 56 28.609375 56 
Q 40.484375 56 46.34375 49.84375 
Q 52.203125 43.703125 52.203125 31.203125 
z
" id="DejaVuSans-97"/>
      <path d="M 9.421875 75.984375 
L 18.40625 75.984375 
L 18.40625 0 
L 9.421875 0 
z
" id="DejaVuSans-108"/>
      <path d="M 44.28125 53.078125 
L 44.28125 44.578125 
Q 40.484375 46.53125 36.375 47.5 
Q 32.28125 48.484375 27.875 48.484375 
Q 21.1875 48.484375 17.84375 46.4375 
Q 14.5 44.390625 14.5 40.28125 
Q 14.5 37.15625 16.890625 35.375 
Q 19.28125 33.59375 26.515625 31.984375 
L 29.59375 31.296875 
Q 39.15625 29.25 43.1875 25.515625 
Q 47.21875 21.78125 47.21875 15.09375 
Q 47.21875 7.46875 41.1875 3.015625 
Q 35.15625 -1.421875 24.609375 -1.421875 
Q 20.21875 -1.421875 15.453125 -0.5625 
Q 10.6875 0.296875 5.421875 2 
L 5.421875 11.28125 
Q 10.40625 8.6875 15.234375 7.390625 
Q 20.0625 6.109375 24.8125 6.109375 
Q 31.15625 6.109375 34.5625 8.28125 
Q 37.984375 10.453125 37.984375 14.40625 
Q 37.984375 18.0625 35.515625 20.015625 
Q 33.0625 21.96875 24.703125 23.78125 
L 21.578125 24.515625 
Q 13.234375 26.265625 9.515625 29.90625 
Q 5.8125 33.546875 5.8125 39.890625 
Q 5.8125 47.609375 11.28125 51.796875 
Q 16.75 56 26.8125 56 
Q 31.78125 56 36.171875 55.265625 
Q 40.578125 54.546875 44.28125 53.078125 
z
" id="DejaVuSans-115"/>
      <path d="M 56.203125 29.59375 
L 56.203125 25.203125 
L 14.890625 25.203125 
Q 15.484375 15.921875 20.484375 11.0625 
Q 25.484375 6.203125 34.421875 6.203125 
Q 39.59375 6.203125 44.453125 7.46875 
Q 49.3125 8.734375 54.109375 11.28125 
L 54.109375 2.78125 
Q 49.265625 0.734375 44.1875 -0.34375 
Q 39.109375 -1.421875 33.890625 -1.421875 
Q 20.796875 -1.421875 13.15625 6.1875 
Q 5.515625 13.8125 5.515625 26.8125 
Q 5.515625 40.234375 12.765625 48.109375 
Q 20.015625 56 32.328125 56 
Q 43.359375 56 49.78125 48.890625 
Q 56.203125 41.796875 56.203125 29.59375 
z
M 47.21875 32.234375 
Q 47.125 39.59375 43.09375 43.984375 
Q 39.0625 48.390625 32.421875 48.390625 
Q 24.90625 48.390625 20.390625 44.140625 
Q 15.875 39.890625 15.1875 32.171875 
z
" id="DejaVuSans-101"/>
      <path id="DejaVuSans-32"/>
      <path d="M 19.671875 64.796875 
L 19.671875 37.40625 
L 32.078125 37.40625 
Q 38.96875 37.40625 42.71875 40.96875 
Q 46.484375 44.53125 46.484375 51.125 
Q 46.484375 57.671875 42.71875 61.234375 
Q 38.96875 64.796875 32.078125 64.796875 
z
M 9.8125 72.90625 
L 32.078125 72.90625 
Q 44.34375 72.90625 50.609375 67.359375 
Q 56.890625 61.8125 56.890625 51.125 
Q 56.890625 40.328125 50.609375 34.8125 
Q 44.34375 29.296875 32.078125 29.296875 
L 19.671875 29.296875 
L 19.671875 0 
L 9.8125 0 
z
" id="DejaVuSans-80"/>
      <path d="M 30.609375 48.390625 
Q 23.390625 48.390625 19.1875 42.75 
Q 14.984375 37.109375 14.984375 27.296875 
Q 14.984375 17.484375 19.15625 11.84375 
Q 23.34375 6.203125 30.609375 6.203125 
Q 37.796875 6.203125 41.984375 11.859375 
Q 46.1875 17.53125 46.1875 27.296875 
Q 46.1875 37.015625 41.984375 42.703125 
Q 37.796875 48.390625 30.609375 48.390625 
z
M 30.609375 56 
Q 42.328125 56 49.015625 48.375 
Q 55.71875 40.765625 55.71875 27.296875 
Q 55.71875 13.875 49.015625 6.21875 
Q 42.328125 -1.421875 30.609375 -1.421875 
Q 18.84375 -1.421875 12.171875 6.21875 
Q 5.515625 13.875 5.515625 27.296875 
Q 5.515625 40.765625 12.171875 48.375 
Q 18.84375 56 30.609375 56 
z
" id="DejaVuSans-111"/>
      <path d="M 9.421875 54.6875 
L 18.40625 54.6875 
L 18.40625 0 
L 9.421875 0 
z
M 9.421875 75.984375 
L 18.40625 75.984375 
L 18.40625 64.59375 
L 9.421875 64.59375 
z
" id="DejaVuSans-105"/>
      <path d="M 18.3125 70.21875 
L 18.3125 54.6875 
L 36.8125 54.6875 
L 36.8125 47.703125 
L 18.3125 47.703125 
L 18.3125 18.015625 
Q 18.3125 11.328125 20.140625 9.421875 
Q 21.96875 7.515625 27.59375 7.515625 
L 36.8125 7.515625 
L 36.8125 0 
L 27.59375 0 
Q 17.1875 0 13.234375 3.875 
Q 9.28125 7.765625 9.28125 18.015625 
L 9.28125 47.703125 
L 2.6875 47.703125 
L 2.6875 54.6875 
L 9.28125 54.6875 
L 9.28125 70.21875 
z
" id="DejaVuSans-116"/>
      <path d="M 2.984375 54.6875 
L 12.5 54.6875 
L 29.59375 8.796875 
L 46.6875 54.6875 
L 56.203125 54.6875 
L 35.6875 0 
L 23.484375 0 
z
" id="DejaVuSans-118"/>
      <path d="M 44.390625 34.1875 
Q 47.5625 33.109375 50.5625 29.59375 
Q 53.5625 26.078125 56.59375 19.921875 
L 66.609375 0 
L 56 0 
L 46.6875 18.703125 
Q 43.0625 26.03125 39.671875 28.421875 
Q 36.28125 30.8125 30.421875 30.8125 
L 19.671875 30.8125 
L 19.671875 0 
L 9.8125 0 
L 9.8125 72.90625 
L 32.078125 72.90625 
Q 44.578125 72.90625 50.734375 67.671875 
Q 56.890625 62.453125 56.890625 51.90625 
Q 56.890625 45.015625 53.6875 40.46875 
Q 50.484375 35.9375 44.390625 34.1875 
z
M 19.671875 64.796875 
L 19.671875 38.921875 
L 32.078125 38.921875 
Q 39.203125 38.921875 42.84375 42.21875 
Q 46.484375 45.515625 46.484375 51.90625 
Q 46.484375 58.296875 42.84375 61.546875 
Q 39.203125 64.796875 32.078125 64.796875 
z
" id="DejaVuSans-82"/>
     </defs>
     <g transform="translate(188.954531 335.860562)scale(0.1 -0.1)">
      <use xlink:href="#DejaVuSans-70"/>
      <use x="57.378906" xlink:href="#DejaVuSans-97"/>
      <use x="118.658203" xlink:href="#DejaVuSans-108"/>
      <use x="146.441406" xlink:href="#DejaVuSans-115"/>
      <use x="198.541016" xlink:href="#DejaVuSans-101"/>
      <use x="260.064453" xlink:href="#DejaVuSans-32"/>
      <use x="291.851562" xlink:href="#DejaVuSans-80"/>
      <use x="352.107422" xlink:href="#DejaVuSans-111"/>
      <use x="413.289062" xlink:href="#DejaVuSans-115"/>
      <use x="465.388672" xlink:href="#DejaVuSans-105"/>
      <use x="493.171875" xlink:href="#DejaVuSans-116"/>
      <use x="532.380859" xlink:href="#DejaVuSans-105"/>
      <use x="560.164062" xlink:href="#DejaVuSans-118"/>
      <use x="619.34375" xlink:href="#DejaVuSans-101"/>
      <use x="680.867188" xlink:href="#DejaVuSans-32"/>
      <use x="712.654297" xlink:href="#DejaVuSans-82"/>
      <use x="782.105469" xlink:href="#DejaVuSans-97"/>
      <use x="843.384766" xlink:href="#DejaVuSans-116"/>
      <use x="882.59375" xlink:href="#DejaVuSans-101"/>
     </g>
    </g>
   </g>
   <g id="matplotlib.axis_2">
    <g id="ytick_1">
     <g id="line2d_7">
      <defs>
       <path d="M 0 0 
L -3.5 0 
" id="m2bd0aa5004" style="stroke:#000000;stroke-width:0.8;"/>
      </defs>
      <g>
       <use style="stroke:#000000;stroke-width:0.8;" x="57.6" xlink:href="#m2bd0aa5004" y="307.584"/>
      </g>
     </g>
     <g id="text_8">
      <!-- 0.0 -->
      <g transform="translate(34.696875 311.383219)scale(0.1 -0.1)">
       <use xlink:href="#DejaVuSans-48"/>
       <use x="63.623047" xlink:href="#DejaVuSans-46"/>
       <use x="95.410156" xlink:href="#DejaVuSans-48"/>
      </g>
     </g>
    </g>
    <g id="ytick_2">
     <g id="line2d_8">
      <g>
       <use style="stroke:#000000;stroke-width:0.8;" x="57.6" xlink:href="#m2bd0aa5004" y="254.3616"/>
      </g>
     </g>
     <g id="text_9">
      <!-- 0.2 -->
      <g transform="translate(34.696875 258.160819)scale(0.1 -0.1)">
       <use xlink:href="#DejaVuSans-48"/>
       <use x="63.623047" xlink:href="#DejaVuSans-46"/>
       <use x="95.410156" xlink:href="#DejaVuSans-50"/>
      </g>
     </g>
    </g>
    <g id="ytick_3">
     <g id="line2d_9">
      <g>
       <use style="stroke:#000000;stroke-width:0.8;" x="57.6" xlink:href="#m2bd0aa5004" y="201.1392"/>
      </g>
     </g>
     <g id="text_10">
      <!-- 0.4 -->
      <g transform="translate(34.696875 204.938419)scale(0.1 -0.1)">
       <use xlink:href="#DejaVuSans-48"/>
       <use x="63.623047" xlink:href="#DejaVuSans-46"/>
       <use x="95.410156" xlink:href="#DejaVuSans-52"/>
      </g>
     </g>
    </g>
    <g id="ytick_4">
     <g id="line2d_10">
      <g>
       <use style="stroke:#000000;stroke-width:0.8;" x="57.6" xlink:href="#m2bd0aa5004" y="147.9168"/>
      </g>
     </g>
     <g id="text_11">
      <!-- 0.6 -->
      <g transform="translate(34.696875 151.716019)scale(0.1 -0.1)">
       <use xlink:href="#DejaVuSans-48"/>
       <use x="63.623047" xlink:href="#DejaVuSans-46"/>
       <use x="95.410156" xlink:href="#DejaVuSans-54"/>
      </g>
     </g>
    </g>
    <g id="ytick_5">
     <g id="line2d_11">
      <g>
       <use style="stroke:#000000;stroke-width:0.8;" x="57.6" xlink:href="#m2bd0aa5004" y="94.6944"/>
      </g>
     </g>
     <g id="text_12">
      <!-- 0.8 -->
      <g transform="translate(34.696875 98.493619)scale(0.1 -0.1)">
       <use xlink:href="#DejaVuSans-48"/>
       <use x="63.623047" xlink:href="#DejaVuSans-46"/>
       <use x="95.410156" xlink:href="#DejaVuSans-56"/>
      </g>
     </g>
    </g>
    <g id="ytick_6">
     <g id="line2d_12">
      <g>
       <use style="stroke:#000000;stroke-width:0.8;" x="57.6" xlink:href="#m2bd0aa5004" y="41.472"/>
      </g>
     </g>
     <g id="text_13">
      <!-- 1.0 -->
      <g transform="translate(34.696875 45.271219)scale(0.1 -0.1)">
       <use xlink:href="#DejaVuSans-49"/>
       <use x="63.623047" xlink:href="#DejaVuSans-46"/>
       <use x="95.410156" xlink:href="#DejaVuSans-48"/>
      </g>
     </g>
    </g>
    <g id="text_14">
     <!-- True Positive Rate -->
     <defs>
      <path d="M -0.296875 72.90625 
L 61.375 72.90625 
L 61.375 64.59375 
L 35.5 64.59375 
L 35.5 0 
L 25.59375 0 
L 25.59375 64.59375 
L -0.296875 64.59375 
z
" id="DejaVuSans-84"/>
      <path d="M 41.109375 46.296875 
Q 39.59375 47.171875 37.8125 47.578125 
Q 36.03125 48 33.890625 48 
Q 26.265625 48 22.1875 43.046875 
Q 18.109375 38.09375 18.109375 28.8125 
L 18.109375 0 
L 9.078125 0 
L 9.078125 54.6875 
L 18.109375 54.6875 
L 18.109375 46.1875 
Q 20.953125 51.171875 25.484375 53.578125 
Q 30.03125 56 36.53125 56 
Q 37.453125 56 38.578125 55.875 
Q 39.703125 55.765625 41.0625 55.515625 
z
" id="DejaVuSans-114"/>
      <path d="M 8.5 21.578125 
L 8.5 54.6875 
L 17.484375 54.6875 
L 17.484375 21.921875 
Q 17.484375 14.15625 20.5 10.265625 
Q 23.53125 6.390625 29.59375 6.390625 
Q 36.859375 6.390625 41.078125 11.03125 
Q 45.3125 15.671875 45.3125 23.6875 
L 45.3125 54.6875 
L 54.296875 54.6875 
L 54.296875 0 
L 45.3125 0 
L 45.3125 8.40625 
Q 42.046875 3.421875 37.71875 1 
Q 33.40625 -1.421875 27.6875 -1.421875 
Q 18.265625 -1.421875 13.375 4.4375 
Q 8.5 10.296875 8.5 21.578125 
z
M 31.109375 56 
z
" id="DejaVuSans-117"/>
     </defs>
     <g transform="translate(28.617187 220.074094)rotate(-90)scale(0.1 -0.1)">
      <use xlink:href="#DejaVuSans-84"/>
      <use x="60.865234" xlink:href="#DejaVuSans-114"/>
      <use x="101.978516" xlink:href="#DejaVuSans-117"/>
      <use x="165.357422" xlink:href="#DejaVuSans-101"/>
      <use x="226.880859" xlink:href="#DejaVuSans-32"/>
      <use x="258.667969" xlink:href="#DejaVuSans-80"/>
      <use x="318.923828" xlink:href="#DejaVuSans-111"/>
      <use x="380.105469" xlink:href="#DejaVuSans-115"/>
      <use x="432.205078" xlink:href="#DejaVuSans-105"/>
      <use x="459.988281" xlink:href="#DejaVuSans-116"/>
      <use x="499.197266" xlink:href="#DejaVuSans-105"/>
      <use x="526.980469" xlink:href="#DejaVuSans-118"/>
      <use x="586.160156" xlink:href="#DejaVuSans-101"/>
      <use x="647.683594" xlink:href="#DejaVuSans-32"/>
      <use x="679.470703" xlink:href="#DejaVuSans-82"/>
      <use x="748.921875" xlink:href="#DejaVuSans-97"/>
      <use x="810.201172" xlink:href="#DejaVuSans-116"/>
      <use x="849.410156" xlink:href="#DejaVuSans-101"/>
     </g>
    </g>
   </g>
   <g id="line2d_13">
    <path clip-path="url(#p424268c878)" d="M 57.6 307.584 
L 57.708475 306.344766 
L 57.727618 306.290886 
L 57.823332 305.64433 
L 57.842474 305.64433 
L 57.95095 304.890013 
L 57.982854 304.836134 
L 58.09133 304.189577 
L 58.116853 304.081817 
L 58.218948 303.381381 
L 58.231709 303.381381 
L 58.340185 302.734824 
L 58.346566 302.734824 
L 58.44866 301.872748 
L 58.461422 301.872748 
L 58.569897 300.849033 
L 58.595421 300.741274 
L 58.697515 300.202477 
L 58.767705 300.094717 
L 58.863419 299.071002 
L 58.914466 298.963243 
L 58.991037 298.155047 
L 59.08675 298.047287 
L 59.176083 297.185212 
L 59.214368 297.077452 
L 59.316463 296.592535 
L 59.373891 296.484775 
L 59.482366 295.676579 
L 59.539795 295.56882 
L 59.622746 295.083902 
L 59.680174 294.976143 
L 59.750364 294.706744 
L 59.801412 294.652864 
L 59.903506 294.167947 
L 59.941791 294.114067 
L 60.050267 293.090352 
L 60.088552 292.982592 
L 60.190647 292.443795 
L 60.222551 292.336036 
L 60.305503 291.851118 
L 60.343788 291.797238 
L 60.452264 291.258441 
L 60.503311 291.150682 
L 60.605405 290.342486 
L 60.681976 290.234726 
L 60.790452 289.803688 
L 60.796832 289.803688 
L 60.892546 289.157131 
L 60.943593 289.103252 
L 61.052069 288.779973 
L 61.237115 288.672214 
L 61.300924 288.295056 
L 61.422161 288.187296 
L 61.511494 287.3791 
L 61.568922 287.271341 
L 61.664635 286.463145 
L 61.702921 286.463145 
L 61.811396 286.139866 
L 61.868824 286.032107 
L 61.939014 285.654949 
L 61.990061 285.547189 
L 62.066632 285.170031 
L 62.175107 285.062272 
L 62.258059 284.685114 
L 62.328249 284.577354 
L 62.430344 284.146316 
L 62.500534 284.038557 
L 62.583485 283.769158 
L 62.647294 283.661399 
L 62.723865 283.44588 
L 62.774912 283.44588 
L 62.877007 282.583804 
L 62.90253 282.476045 
L 62.97272 281.883367 
L 63.068434 281.775608 
L 63.145005 281.34457 
L 63.215195 281.29069 
L 63.32367 280.913532 
L 63.374717 280.859653 
L 63.483193 280.213096 
L 63.515097 280.213096 
L 63.617192 279.728178 
L 63.67462 279.620419 
L 63.783095 279.189381 
L 63.802238 279.081621 
L 63.910713 278.650584 
L 63.942618 278.596704 
L 64.038331 278.165666 
L 64.185092 278.057906 
L 64.293567 277.734628 
L 64.331853 277.626869 
L 64.414804 277.30359 
L 64.478613 277.195831 
L 64.567946 276.980312 
L 64.625374 276.872552 
L 64.721088 276.010477 
L 64.791278 275.956597 
L 64.886991 275.471679 
L 64.969943 275.4178 
L 65.033752 275.094521 
L 65.129466 274.986762 
L 65.23156 274.609604 
L 65.250703 274.609604 
L 65.333654 274.286325 
L 65.410225 274.178566 
L 65.467653 273.693648 
L 65.588891 273.585889 
L 65.690985 272.939332 
L 65.748413 272.831572 
L 65.856889 272.400535 
L 65.927078 272.292775 
L 66.029173 271.646218 
L 66.086601 271.646218 
L 66.195076 271.26906 
L 66.284409 271.161301 
L 66.341837 270.891902 
L 66.50136 270.784143 
L 66.603454 270.353105 
L 66.699168 270.299225 
L 66.801262 269.598788 
L 66.820405 269.598788 
L 66.92888 268.898352 
L 67.062879 268.790592 
L 67.152212 268.144036 
L 67.247925 268.036276 
L 67.311734 267.820757 
L 67.445733 267.766878 
L 67.484019 267.389719 
L 67.579732 267.28196 
L 67.586113 267.1742 
L 67.77754 267.066441 
L 67.866873 266.635403 
L 68.026396 266.527644 
L 68.12849 266.096606 
L 68.205061 265.988846 
L 68.307155 265.34229 
L 68.402869 265.28841 
L 68.511344 265.072891 
L 68.587915 264.965131 
L 68.664486 264.857372 
L 68.728295 264.803492 
L 68.83677 264.587973 
L 68.919722 264.534094 
L 69.015436 264.103056 
L 69.053721 264.049176 
L 69.066483 263.833657 
L 69.194101 263.779777 
L 69.302576 263.13322 
L 69.379147 263.025461 
L 69.487622 262.648303 
L 69.557812 262.540543 
L 69.666288 262.055626 
L 69.851334 261.947866 
L 69.959809 261.516829 
L 70.055523 261.462949 
L 70.061904 261.24743 
L 70.221426 261.13967 
L 70.31714 260.978031 
L 70.45752 260.870272 
L 70.52771 260.546993 
L 70.617042 260.439234 
L 70.719137 260.169835 
L 70.840374 260.062076 
L 70.904183 259.792677 
L 71.02542 259.684918 
L 71.108372 259.25388 
L 71.197704 259.14612 
L 71.197704 259.038361 
L 71.350846 258.930601 
L 71.408274 258.391804 
L 71.484845 258.284045 
L 71.586939 257.960766 
L 71.657129 257.853007 
L 71.759224 257.475849 
L 71.912366 257.368089 
L 72.01446 257.044811 
L 72.135697 256.937051 
L 72.212268 256.829292 
L 72.384552 256.775412 
L 72.480266 256.236615 
L 72.537694 256.128855 
L 72.646169 255.536178 
L 72.697217 255.482298 
L 72.799311 255.2129 
L 72.965215 255.10514 
L 73.060928 254.620223 
L 73.086452 254.620223 
L 73.14388 254.296944 
L 73.207689 254.296944 
L 73.303402 253.704267 
L 73.35445 253.650388 
L 73.437401 253.273229 
L 73.520353 253.16547 
L 73.5714 252.896071 
L 73.679876 252.788312 
L 73.788351 252.357274 
L 73.890445 252.249514 
L 73.960635 252.033996 
L 74.06273 251.926236 
L 74.120158 251.656837 
L 74.247776 251.549078 
L 74.356251 251.2258 
L 74.483869 251.11804 
L 74.56044 250.902521 
L 74.719963 250.794762 
L 74.809295 250.579243 
L 74.956056 250.471483 
L 75.045389 250.202085 
L 75.115579 250.148205 
L 75.179388 249.771047 
L 75.294244 249.663287 
L 75.396339 249.286129 
L 75.441005 249.17837 
L 75.511195 249.07061 
L 75.657956 248.962851 
L 75.766431 248.477933 
L 75.83024 248.370174 
L 75.913192 248.046895 
L 76.072714 247.939136 
L 76.162047 247.615857 
L 76.219475 247.508098 
L 76.302427 247.18482 
L 76.404521 247.07706 
L 76.506616 246.807661 
L 76.717185 246.753782 
L 76.787375 246.322744 
L 76.88947 246.214984 
L 76.991564 245.730067 
L 77.189372 245.622307 
L 77.278705 245.352909 
L 77.329752 245.299029 
L 77.412704 245.02963 
L 77.476513 244.921871 
L 77.572226 244.598592 
L 77.629655 244.544713 
L 77.725368 244.329194 
L 77.967842 244.221434 
L 78.069937 244.059795 
L 78.223079 243.952036 
L 78.331554 243.628757 
L 78.395363 243.520998 
L 78.471934 243.14384 
L 78.548505 243.03608 
L 78.650599 242.766682 
L 78.733551 242.658922 
L 78.816503 242.335644 
L 78.893073 242.227884 
L 78.950502 241.904606 
L 79.027072 241.850726 
L 79.097262 241.527448 
L 79.301451 241.419688 
L 79.397165 241.09641 
L 79.512021 240.98865 
L 79.556687 240.827011 
L 79.735353 240.719252 
L 79.811923 240.557612 
L 79.920399 240.449853 
L 79.952303 240.342094 
L 80.188397 240.234334 
L 80.271348 239.641657 
L 80.379824 239.533898 
L 80.481918 238.9951 
L 80.584013 238.887341 
L 80.63506 238.779581 
L 80.826487 238.671822 
L 80.852011 238.510183 
L 81.024295 238.402423 
L 81.113628 238.133024 
L 81.234865 238.025265 
L 81.247627 237.917506 
L 81.426292 237.809746 
L 81.515625 237.540347 
L 81.585814 237.432588 
L 81.675147 237.163189 
L 81.719813 237.05543 
L 81.802765 236.893791 
L 81.872955 236.786031 
L 81.955907 236.570512 
L 82.077144 236.462753 
L 82.147334 236.247234 
L 82.217524 236.139474 
L 82.319618 235.870076 
L 82.447236 235.762316 
L 82.447236 235.708437 
L 82.645044 235.600677 
L 82.670568 235.439038 
L 82.810948 235.439038 
L 82.919423 235.06188 
L 83.008756 234.95412 
L 83.104469 234.684722 
L 83.276754 234.576962 
L 83.276754 234.469203 
L 83.404372 234.415323 
L 83.4618 234.199804 
L 83.768083 234.092045 
L 83.81275 233.876526 
L 83.946749 233.768766 
L 84.048843 233.607127 
L 84.259413 233.499367 
L 84.355126 233.122209 
L 84.508268 233.01445 
L 84.559315 232.745051 
L 84.795409 232.637292 
L 84.884741 232.421773 
L 84.916646 232.421773 
L 85.01874 232.206254 
L 85.08893 232.098494 
L 85.114454 231.882976 
L 85.280357 231.775216 
L 85.382452 231.559697 
L 85.490927 231.451938 
L 85.586641 231.182539 
L 85.631307 231.128659 
L 85.707878 230.91314 
L 85.905686 230.805381 
L 85.912067 230.697621 
L 86.122637 230.589862 
L 86.167303 230.320463 
L 86.422539 230.212704 
L 86.422539 230.158824 
L 86.626728 230.051065 
L 86.70968 229.943305 
L 86.869202 229.889425 
L 86.920249 229.620027 
L 87.047867 229.566147 
L 87.118057 229.188989 
L 87.239295 229.081229 
L 87.296723 228.811831 
L 87.500912 228.704071 
L 87.609387 228.380793 
L 87.654053 228.273033 
L 87.679577 228.111394 
L 87.883766 228.003635 
L 87.973098 227.841996 
L 88.043288 227.734236 
L 88.113478 227.303198 
L 88.324048 227.195439 
L 88.343191 227.087679 
L 88.496332 226.97992 
L 88.592046 226.764401 
L 88.623951 226.764401 
L 88.623951 226.602762 
L 88.777092 226.548882 
L 88.853663 226.333363 
L 89.083376 226.225604 
L 89.18547 225.956205 
L 89.287564 225.848445 
L 89.344993 225.686806 
L 89.459849 225.579047 
L 89.555562 225.255768 
L 89.740609 225.148009 
L 89.842703 224.93249 
L 90.002226 224.824731 
L 90.10432 224.501452 
L 90.155367 224.501452 
L 90.212795 224.178174 
L 90.359556 224.070414 
L 90.461651 223.693256 
L 90.716887 223.585497 
L 90.8126 223.316098 
L 90.908314 223.208339 
L 91.004027 222.93894 
L 91.131645 222.88506 
L 91.227359 222.561782 
L 91.5145 222.454022 
L 91.571928 222.184624 
L 91.73145 222.184624 
L 91.788878 221.753586 
L 91.94202 221.699706 
L 92.024972 221.322548 
L 92.107924 221.268668 
L 92.210018 221.107029 
L 92.305732 220.999269 
L 92.305732 220.94539 
L 92.465254 220.83763 
L 92.57373 220.514352 
L 92.663062 220.406592 
L 92.663062 220.352713 
L 92.918298 220.244953 
L 93.020393 220.029434 
L 93.275629 219.921675 
L 93.326676 219.813915 
L 93.447913 219.706156 
L 93.556389 219.544517 
L 93.652102 219.436757 
L 93.754197 219.275118 
L 93.932862 219.221238 
L 94.034956 219.005719 
L 94.239145 218.89796 
L 94.302954 218.736321 
L 94.430572 218.628561 
L 94.532667 218.305283 
L 94.596476 218.197523 
L 94.69857 217.766486 
L 94.858093 217.658726 
L 94.858093 217.604846 
L 94.97933 217.604846 
L 95.075044 217.173808 
L 95.196281 217.066049 
L 95.298375 216.90441 
L 95.438755 216.79665 
L 95.540849 216.581131 
L 95.713134 216.473372 
L 95.802466 216.311733 
L 95.974751 216.203973 
L 96.083226 215.880695 
L 96.210844 215.772935 
L 96.31932 215.395777 
L 96.376748 215.288018 
L 96.478842 214.964739 
L 96.612841 214.85698 
L 96.663888 214.695341 
L 96.740459 214.641461 
L 96.848935 214.479822 
L 96.944648 214.372062 
L 96.944648 214.318183 
L 97.078647 214.264303 
L 97.187122 213.941024 
L 97.244551 213.833265 
L 97.333883 213.509987 
L 97.45512 213.402227 
L 97.461501 213.294468 
L 97.678452 213.186708 
L 97.755023 212.86343 
L 97.869879 212.80955 
L 97.908164 212.594031 
L 98.01664 212.486272 
L 98.061306 212.216873 
L 98.30378 212.109114 
L 98.367589 211.839715 
L 98.456922 211.731955 
L 98.546255 211.354797 
L 98.610064 211.247038 
L 98.718539 210.923759 
L 98.807872 210.86988 
L 98.807872 210.76212 
L 99.114155 210.654361 
L 99.139679 210.546601 
L 99.337487 210.438842 
L 99.343868 210.277203 
L 99.560818 210.169443 
L 99.656532 209.953924 
L 99.828816 209.846165 
L 99.911768 209.738405 
L 100.109576 209.630646 
L 100.218051 209.469007 
L 100.390336 209.361247 
L 100.441383 209.199608 
L 100.543477 209.145728 
L 100.543477 208.930209 
L 100.728524 208.82245 
L 100.766809 208.71469 
L 100.951855 208.606931 
L 101.060331 208.175893 
L 101.392138 208.068134 
L 101.494232 207.637096 
L 101.609088 207.583216 
L 101.660135 207.421577 
L 102.011085 207.313817 
L 102.11956 207.152178 
L 102.323749 207.044419 
L 102.432225 206.8289 
L 102.527938 206.72114 
L 102.636414 206.343982 
L 102.802317 206.236223 
L 102.827841 206.128463 
L 102.923554 206.074584 
L 103.019268 205.859065 
L 103.076696 205.805185 
L 103.159648 205.481906 
L 103.255361 205.374147 
L 103.312789 205.212508 
L 103.440407 205.104748 
L 103.52974 204.996989 
L 103.753072 204.889229 
L 103.836023 204.565951 
L 104.065736 204.458192 
L 104.142307 204.296552 
L 104.225258 204.242673 
L 104.225258 204.081033 
L 104.512399 203.973274 
L 104.557065 203.865514 
L 104.722969 203.757755 
L 104.805921 203.488356 
L 104.965443 203.380597 
L 105.061157 203.111198 
L 105.201537 203.003439 
L 105.310012 202.78792 
L 105.456773 202.68016 
L 105.546105 202.356882 
L 105.712009 202.249122 
L 105.782199 202.141363 
L 105.85877 202.033604 
L 105.960864 201.871964 
L 106.07572 201.764205 
L 106.158672 201.387047 
L 106.279909 201.279287 
L 106.35648 201.009889 
L 106.42667 200.902129 
L 106.439432 200.74049 
L 106.656383 200.632731 
L 106.70743 200.471091 
L 106.84781 200.417212 
L 106.898857 200.255572 
L 107.332758 200.147813 
L 107.383805 200.040053 
L 107.600756 199.932294 
L 107.702851 199.770655 
L 107.734755 199.662895 
L 107.830469 199.501256 
L 108.009134 199.393497 
L 108.117609 199.016339 
L 108.219704 198.908579 
L 108.296275 198.63918 
L 108.40475 198.531421 
L 108.487702 198.423661 
L 108.653605 198.315902 
L 108.653605 198.262022 
L 109.068364 198.154263 
L 109.125792 197.992624 
L 109.227886 197.884864 
L 109.317219 197.615465 
L 109.527789 197.507706 
L 109.597979 197.130548 
L 109.719216 197.022788 
L 109.81493 196.915029 
L 109.923405 196.807269 
L 110.019118 196.483991 
L 110.17226 196.376232 
L 110.17226 196.322352 
L 110.350925 196.214592 
L 110.440258 195.891314 
L 110.580638 195.783555 
L 110.657209 195.621915 
L 110.721018 195.514156 
L 110.81035 195.298637 
L 110.976254 195.190878 
L 111.084729 194.975359 
L 111.257014 194.867599 
L 111.365489 194.5982 
L 111.563297 194.490441 
L 111.65901 194.274922 
L 111.735581 194.167163 
L 111.818533 194.059403 
L 111.86958 193.951644 
L 111.971675 193.790004 
L 112.041865 193.790004 
L 112.08015 193.466726 
L 112.316244 193.358967 
L 112.399195 193.197327 
L 112.526813 193.089568 
L 112.558718 192.981808 
L 112.660812 192.927929 
L 112.769288 192.60465 
L 112.947953 192.550771 
L 112.986238 192.335252 
L 113.184046 192.227492 
L 113.292522 191.904214 
L 113.394616 191.850334 
L 113.477568 191.527056 
L 113.547758 191.419296 
L 113.63709 191.257657 
L 113.720042 191.149898 
L 113.815756 190.988258 
L 114.007183 190.880499 
L 114.109277 190.71886 
L 114.256038 190.6111 
L 114.275181 190.503341 
L 114.55594 190.395581 
L 114.562321 190.287822 
L 114.804796 190.180062 
L 114.900509 189.964543 
L 115.066413 189.856784 
L 115.155745 189.749024 
L 115.213173 189.641265 
L 115.213173 189.587385 
L 115.39822 189.479626 
L 115.39822 189.425746 
L 115.640694 189.317987 
L 115.653456 189.210227 
L 115.96612 189.102468 
L 115.96612 188.994708 
L 116.400021 188.886949 
L 116.470211 188.61755 
L 116.578687 188.509791 
L 116.6744 188.294272 
L 116.808399 188.186512 
L 116.81478 188.024873 
L 116.929636 187.970993 
L 117.031731 187.701595 
L 117.146587 187.593835 
L 117.223158 187.432196 
L 117.433728 187.324437 
L 117.510299 187.162797 
L 117.740011 187.055038 
L 117.784677 186.893399 
L 117.937819 186.893399 
L 117.937819 186.731759 
L 118.103723 186.67788 
L 118.193055 186.516241 
L 118.282388 186.408481 
L 118.339816 186.246842 
L 118.44191 186.139082 
L 118.492958 185.977443 
L 118.716289 185.923563 
L 118.818384 185.600285 
L 118.882193 185.492526 
L 118.965144 185.384766 
L 119.067239 185.277007 
L 119.067239 185.223127 
L 119.35438 185.115367 
L 119.35438 185.061488 
L 119.705329 184.953728 
L 119.71171 184.845969 
L 120.005232 184.792089 
L 120.069041 184.57657 
L 120.20304 184.468811 
L 120.241325 184.361051 
L 120.49018 184.253292 
L 120.49018 184.199412 
L 120.719893 184.091653 
L 120.764559 183.876134 
L 120.885796 183.768374 
L 120.968748 183.660615 
L 121.0517 183.552855 
L 121.102747 183.445096 
L 121.357983 183.337336 
L 121.357983 183.283457 
L 121.887598 183.175697 
L 121.983312 183.014058 
L 122.04074 182.906298 
L 122.136453 182.52914 
L 122.308738 182.421381 
L 122.372547 182.313621 
L 122.493784 182.205862 
L 122.563974 181.990343 
L 122.844734 181.882584 
L 122.914923 181.613185 
L 123.036161 181.559305 
L 123.09997 181.343786 
L 123.17654 181.236027 
L 123.24673 181.020508 
L 123.336063 180.912748 
L 123.444538 180.58947 
L 123.578537 180.48171 
L 123.687013 180.212312 
L 123.706155 180.158432 
L 123.782726 179.727394 
L 124.050724 179.619635 
L 124.1592 179.404116 
L 124.30596 179.296356 
L 124.357008 178.973078 
L 124.510149 178.865318 
L 124.593101 178.703679 
L 124.695195 178.6498 
L 124.759004 178.272641 
L 124.912146 178.164882 
L 125.001479 177.949363 
L 125.103573 177.841604 
L 125.15462 177.679964 
L 125.384333 177.572205 
L 125.397095 177.464445 
L 125.531094 177.356686 
L 125.57576 177.195047 
L 125.709759 177.087287 
L 125.709759 177.033408 
L 125.984138 176.925648 
L 126.035185 176.764009 
L 126.188327 176.710129 
L 126.220231 176.440731 
L 126.418039 176.386851 
L 126.526515 176.225212 
L 126.590324 176.117452 
L 126.679656 175.848053 
L 126.851941 175.740294 
L 126.902988 175.524775 
L 127.017844 175.417016 
L 127.107177 175.255376 
L 127.375175 175.147617 
L 127.470888 174.932098 
L 127.62403 174.824339 
L 127.681458 174.60882 
L 127.802695 174.55494 
L 127.866504 174.231661 
L 128.045169 174.123902 
L 128.153645 173.962263 
L 128.396119 173.854503 
L 128.485452 173.638984 
L 128.536499 173.531225 
L 128.536499 173.477345 
L 128.874687 173.369586 
L 128.925734 173.207947 
L 129.174589 173.100187 
L 129.18097 172.992428 
L 129.340493 172.884668 
L 129.340493 172.830788 
L 129.551063 172.723029 
L 129.557443 172.615269 
L 129.710585 172.50751 
L 129.761632 172.291991 
L 129.908393 172.184232 
L 129.984964 172.076472 
L 130.361437 171.968713 
L 130.386961 171.860953 
L 130.616673 171.753194 
L 130.718768 171.591555 
L 131.133527 171.483795 
L 131.190955 171.268276 
L 131.395144 171.160517 
L 131.497238 170.944998 
L 131.994948 170.837238 
L 132.014091 170.729479 
L 132.339517 170.621719 
L 132.390564 170.46008 
L 132.601134 170.352321 
L 132.652181 170.244561 
L 132.843609 170.136802 
L 132.920179 169.921283 
L 132.990369 169.867403 
L 133.06694 169.651884 
L 133.169035 169.544125 
L 133.271129 169.274726 
L 133.449794 169.166967 
L 133.48808 169.059207 
L 133.717792 168.951448 
L 133.717792 168.897568 
L 133.902838 168.789808 
L 133.998552 168.52041 
L 134.170836 168.41265 
L 134.260169 168.251011 
L 134.304835 168.143252 
L 134.381406 168.035492 
L 134.719594 167.927733 
L 134.719594 167.873853 
L 134.917402 167.766094 
L 135.000354 167.604454 
L 135.121591 167.496695 
L 135.121591 167.442815 
L 135.561873 167.335056 
L 135.670349 167.011777 
L 135.695872 166.904018 
L 135.708634 166.796258 
L 135.89368 166.688499 
L 135.957489 166.47298 
L 136.085107 166.36522 
L 136.085107 166.311341 
L 136.346724 166.203581 
L 136.448819 165.988062 
L 136.499866 165.880303 
L 136.531771 165.772543 
L 136.755102 165.718664 
L 136.844435 165.449265 
L 137.0231 165.395385 
L 137.112433 165.125987 
L 137.431478 165.018227 
L 137.508049 164.910468 
L 137.763285 164.802708 
L 137.839856 164.641069 
L 137.999378 164.53331 
L 137.999378 164.47943 
L 138.356709 164.42555 
L 138.439661 164.102272 
L 138.586421 163.994512 
L 138.605564 163.886753 
L 138.937371 163.778993 
L 138.962895 163.617354 
L 139.371272 163.509595 
L 139.371272 163.455715 
L 139.549938 163.401835 
L 139.652032 162.916918 
L 139.671175 162.809158 
L 139.766888 162.539759 
L 139.875364 162.432 
L 139.951935 162.324241 
L 140.232694 162.216481 
L 140.27098 162.054842 
L 140.564501 161.947082 
L 140.609168 161.785443 
L 140.851642 161.677684 
L 140.851642 161.623804 
L 141.004784 161.516045 
L 141.087735 161.408285 
L 141.285543 161.300526 
L 141.387638 161.031127 
L 141.630112 160.923367 
L 141.681159 160.815608 
L 142.012966 160.707849 
L 142.070394 160.49233 
L 142.210774 160.43845 
L 142.229917 160.276811 
L 142.459629 160.169051 
L 142.555343 159.953532 
L 142.848865 159.845773 
L 142.944578 159.630254 
L 143.250861 159.522494 
L 143.333813 159.199216 
L 143.627335 159.091457 
L 143.678382 158.822058 
L 143.908094 158.714298 
L 144.01657 158.49878 
L 144.22714 158.39102 
L 144.284568 158.175501 
L 144.552566 158.067742 
L 144.661041 157.798343 
L 145.011991 157.690584 
L 145.018372 157.582824 
L 145.29275 157.475065 
L 145.401226 157.151786 
L 145.50332 157.097906 
L 145.605415 156.936267 
L 145.841508 156.828508 
L 145.892555 156.505229 
L 146.058459 156.39747 
L 146.122268 156.235831 
L 146.224362 156.128071 
L 146.307314 155.966432 
L 146.613597 155.858673 
L 146.715692 155.643154 
L 146.792263 155.535394 
L 146.792263 155.481514 
L 147.12407 155.373755 
L 147.20064 155.265996 
L 147.379306 155.158236 
L 147.487781 154.942717 
L 147.506924 154.942717 
L 147.526066 154.727198 
L 147.845112 154.619439 
L 147.845112 154.565559 
L 148.145014 154.4578 
L 148.18968 154.188401 
L 148.381107 154.080641 
L 148.489583 153.811243 
L 148.553392 153.703483 
L 148.655486 153.595724 
L 148.974531 153.487964 
L 149.076626 153.272445 
L 149.3191 153.164686 
L 149.3191 153.110806 
L 149.536051 153.003047 
L 149.580717 152.895287 
L 149.842334 152.787528 
L 149.874239 152.518129 
L 150.37833 152.41037 
L 150.410235 152.30261 
L 150.639947 152.194851 
L 150.697375 152.033212 
L 150.786708 151.925452 
L 150.863279 151.763813 
L 151.08661 151.656053 
L 151.112134 151.548294 
L 151.469465 151.440535 
L 151.469465 151.386655 
L 151.686415 151.278895 
L 151.750224 150.847857 
L 151.979937 150.740098 
L 151.979937 150.686218 
L 152.311744 150.578459 
L 152.311744 150.524579 
L 152.484028 150.41682 
L 152.592503 150.147421 
L 152.720122 150.039661 
L 152.771169 149.878022 
L 152.879644 149.824143 
L 152.943453 149.608624 
L 153.13488 149.500864 
L 153.13488 149.446984 
L 153.460306 149.339225 
L 153.55602 149.177586 
L 153.721923 149.069826 
L 153.798494 148.908187 
L 153.938874 148.800428 
L 153.989921 148.638788 
L 154.270681 148.531029 
L 154.283443 148.36939 
L 154.564202 148.26163 
L 154.666297 148.046111 
L 155.061913 147.938352 
L 155.11296 147.830592 
L 155.46391 147.722833 
L 155.553242 147.561194 
L 155.706384 147.453434 
L 155.814859 147.184036 
L 155.916954 147.076276 
L 155.955239 146.968517 
L 156.082857 146.860757 
L 156.165809 146.645238 
L 156.440188 146.537479 
L 156.535902 146.37584 
L 156.6699 146.32196 
L 156.6699 146.2142 
L 156.976184 146.106441 
L 157.059136 145.944802 
L 157.30161 145.837042 
L 157.390943 145.675403 
L 157.595131 145.567644 
L 157.614274 145.459884 
L 157.786559 145.352125 
L 157.831225 145.082726 
L 158.099223 144.974967 
L 158.099223 144.921087 
L 158.405506 144.813327 
L 158.405506 144.759448 
L 158.616076 144.651688 
L 158.6416 144.543929 
L 158.852169 144.436169 
L 158.852169 144.38229 
L 159.183976 144.27453 
L 159.247785 144.059011 
L 159.592354 143.951252 
L 159.688068 143.789612 
L 159.866733 143.681853 
L 159.968827 143.466334 
L 160.19854 143.358575 
L 160.26873 143.196935 
L 160.453776 143.143056 
L 160.562251 142.927537 
L 160.664346 142.819777 
L 160.747298 142.712018 
L 160.868535 142.604258 
L 160.887677 142.496499 
L 161.079104 142.388739 
L 161.162056 142.2271 
L 161.379007 142.119341 
L 161.423673 141.903822 
L 161.570434 141.796062 
L 161.666148 141.526664 
L 161.915003 141.418904 
L 161.96605 141.257265 
L 162.342523 141.149506 
L 162.450999 140.987866 
L 162.667949 140.880107 
L 162.731758 140.664588 
L 162.929566 140.556829 
L 162.999756 140.395189 
L 163.363468 140.28743 
L 163.471943 139.964151 
L 163.810131 139.856392 
L 163.816512 139.748633 
L 164.046224 139.640873 
L 164.046224 139.586993 
L 164.282318 139.479234 
L 164.352508 139.263715 
L 164.594982 139.155955 
L 164.65241 139.048196 
L 164.93317 138.940437 
L 164.990598 138.832677 
L 165.086312 138.724918 
L 165.162882 138.563278 
L 165.28412 138.455519 
L 165.28412 138.401639 
L 165.71164 138.29388 
L 165.71164 138.24 
L 165.979638 138.132241 
L 165.979638 138.078361 
L 166.145541 137.970601 
L 166.247636 137.808962 
L 166.477348 137.701203 
L 166.477348 137.647323 
L 166.643252 137.539563 
L 166.643252 137.485684 
L 167.045249 137.377924 
L 167.102677 137.216285 
L 167.26858 137.162405 
L 167.26858 137.054646 
L 168.232097 136.946886 
L 168.295906 136.839127 
L 168.53838 136.731367 
L 168.60857 136.515849 
L 168.991424 136.408089 
L 169.080757 136.24645 
L 169.374278 136.13869 
L 169.412564 136.030931 
L 169.59761 135.977051 
L 169.706085 135.707653 
L 169.94856 135.599893 
L 170.025131 135.438254 
L 170.2357 135.330494 
L 170.331414 135.222735 
L 170.510079 135.114976 
L 170.580269 135.007216 
L 170.765315 134.899457 
L 170.765315 134.845577 
L 170.988647 134.791697 
L 171.065218 134.576178 
L 171.307692 134.468419 
L 171.403406 134.360659 
L 172.169114 134.2529 
L 172.264827 134.037381 
L 172.56473 133.929621 
L 172.596634 133.767982 
L 172.756157 133.714102 
L 172.864632 133.444704 
L 172.883775 133.336944 
L 172.883775 133.283065 
L 173.324057 133.175305 
L 173.41339 132.905906 
L 173.62396 132.798147 
L 173.719673 132.636508 
L 173.955767 132.528748 
L 174.019576 132.313229 
L 174.166337 132.20547 
L 174.166337 132.15159 
L 174.383287 132.043831 
L 174.466239 131.882192 
L 174.791665 131.774432 
L 174.90014 131.505033 
L 175.078806 131.397274 
L 175.174519 131.235635 
L 175.442517 131.127875 
L 175.519088 130.966236 
L 175.627563 130.858477 
L 175.665849 130.750717 
L 176.182702 130.642958 
L 176.182702 130.589078 
L 176.354986 130.481318 
L 176.431557 130.373559 
L 176.584699 130.2658 
L 176.693174 130.050281 
L 176.87822 129.996401 
L 176.986696 129.834762 
L 177.235551 129.727002 
L 177.29936 129.619243 
L 177.752404 129.511483 
L 177.752404 129.457604 
L 178.109735 129.349844 
L 178.109735 129.295964 
L 178.524493 129.188205 
L 178.575541 129.026566 
L 178.798872 128.918806 
L 178.798872 128.864927 
L 178.977537 128.757167 
L 179.009442 128.595528 
L 179.354011 128.487768 
L 179.392296 128.326129 
L 179.781531 128.21837 
L 179.813436 127.948971 
L 179.98572 127.841212 
L 180.036767 127.733452 
L 180.138862 127.625693 
L 180.145243 127.517933 
L 180.515335 127.410174 
L 180.553621 127.302414 
L 180.636572 127.302414 
L 180.636572 127.140775 
L 180.879047 127.033016 
L 180.917332 126.925256 
L 181.472471 126.817497 
L 181.472471 126.763617 
L 181.855325 126.655857 
L 181.906372 126.440339 
L 182.327512 126.332579 
L 182.327512 126.278699 
L 182.576367 126.17094 
L 182.576367 126.11706 
L 182.81246 126.009301 
L 182.901793 125.847661 
L 183.074077 125.739902 
L 183.118744 125.632143 
L 183.342075 125.524383 
L 183.450551 125.308864 
L 183.616454 125.201105 
L 183.680263 125.039465 
L 183.87169 124.931706 
L 183.967404 124.662307 
L 184.139688 124.554548 
L 184.139688 124.500668 
L 184.369401 124.446788 
L 184.458733 124.285149 
L 184.592732 124.17739 
L 184.701207 124.06963 
L 185.122347 123.961871 
L 185.122347 123.907991 
L 186.162434 123.800232 
L 186.175196 123.692472 
L 186.392147 123.584713 
L 186.48786 123.476953 
L 186.845191 123.369194 
L 186.845191 123.315314 
L 187.055761 123.261434 
L 187.145093 122.992036 
L 187.279092 122.884276 
L 187.355663 122.668757 
L 187.4769 122.560998 
L 187.559852 122.453238 
L 187.89804 122.345479 
L 187.904421 122.237719 
L 188.810509 122.12996 
L 188.88708 121.968321 
L 189.180601 121.860561 
L 189.257172 121.752802 
L 189.391171 121.645042 
L 189.391171 121.591163 
L 189.703835 121.483403 
L 189.80593 121.375644 
L 189.94631 121.267884 
L 189.959072 121.160125 
L 190.335545 121.052365 
L 190.424878 120.944606 
L 190.763065 120.836846 
L 190.782208 120.621327 
L 191.114015 120.513568 
L 191.177824 120.405808 
L 191.426679 120.298049 
L 191.528774 120.13641 
L 191.937152 120.02865 
L 191.937152 119.974771 
L 192.383815 119.867011 
L 192.479528 119.705372 
L 192.63267 119.597612 
L 192.63267 119.543733 
L 193.487711 119.435973 
L 193.564282 119.166575 
L 194.157706 119.058815 
L 194.202372 118.951056 
L 194.553322 118.843296 
L 194.553322 118.789416 
L 194.840462 118.681657 
L 194.917033 118.520018 
L 195.274364 118.412258 
L 195.274364 118.358379 
L 195.593409 118.250619 
L 195.701884 117.98122 
L 195.937978 117.873461 
L 195.937978 117.819581 
L 196.314451 117.711822 
L 196.314451 117.657942 
L 196.907875 117.550183 
L 196.907875 117.496303 
L 197.482156 117.388543 
L 197.57787 117.173024 
L 198.018152 117.065265 
L 198.018152 116.957506 
L 198.503101 116.849746 
L 198.503101 116.795866 
L 198.720051 116.688107 
L 198.720051 116.634227 
L 198.962526 116.526468 
L 198.962526 116.472588 
L 199.562331 116.364829 
L 199.562331 116.310949 
L 199.798424 116.257069 
L 199.862233 116.09543 
L 200.091946 115.98767 
L 200.098327 115.826031 
L 200.819369 115.718272 
L 200.819369 115.610512 
L 201.234127 115.502753 
L 201.234127 115.448873 
L 201.738219 115.341114 
L 201.738219 115.287234 
L 201.948788 115.179474 
L 202.057264 114.963955 
L 202.127454 114.856196 
L 202.159358 114.748437 
L 202.440118 114.640677 
L 202.52307 114.532918 
L 202.637926 114.425158 
L 202.714497 114.317399 
L 203.001637 114.209639 
L 203.027161 114.10188 
L 203.237731 113.99412 
L 203.237731 113.940241 
L 203.703537 113.886361 
L 203.722679 113.724722 
L 203.984296 113.670842 
L 204.086391 113.401443 
L 204.36077 113.293684 
L 204.418198 113.132045 
L 205.037145 113.024285 
L 205.037145 112.970405 
L 205.368952 112.862646 
L 205.413619 112.754886 
L 205.783711 112.647127 
L 205.783711 112.593247 
L 206.089994 112.485488 
L 206.166565 112.377728 
L 206.306945 112.269969 
L 206.389897 112.05445 
L 206.683418 111.94669 
L 206.747227 111.838931 
L 206.945035 111.731171 
L 206.957797 111.623412 
L 207.429984 111.515653 
L 207.429984 111.461773 
L 208.208454 111.354013 
L 208.265882 111.192374 
L 208.419024 111.084615 
L 208.495595 110.976855 
L 209.02521 110.869096 
L 209.108162 110.761336 
L 209.612253 110.653577 
L 209.612253 110.599697 
L 210.007869 110.491938 
L 210.052535 110.384178 
L 210.665102 110.276419 
L 210.697006 110.168659 
L 210.869291 110.0609 
L 210.958623 109.95314 
L 211.22024 109.845381 
L 211.322335 109.737621 
L 212.017853 109.629862 
L 212.017853 109.575982 
L 212.183757 109.468223 
L 212.183757 109.414343 
L 212.464517 109.306584 
L 212.541087 109.198824 
L 212.847371 109.091065 
L 212.847371 109.037185 
L 213.255749 108.929425 
L 213.255749 108.875546 
L 213.696031 108.767786 
L 213.696031 108.713906 
L 214.193741 108.606147 
L 214.251169 108.498388 
L 214.672309 108.390628 
L 214.672309 108.336748 
L 215.157258 108.228989 
L 215.214686 108.121229 
L 215.342304 108.01347 
L 215.450779 107.90571 
L 215.642206 107.797951 
L 215.718777 107.690192 
L 215.942109 107.582432 
L 215.999537 107.474673 
L 216.273916 107.366913 
L 216.273916 107.259154 
L 216.618484 107.151394 
L 216.675913 107.043635 
L 217.180004 106.935875 
L 217.288479 106.666477 
L 217.416097 106.558717 
L 217.416097 106.504837 
L 217.913808 106.397078 
L 217.913808 106.343198 
L 218.347709 106.235439 
L 218.347709 106.181559 
L 218.577422 106.0738 
L 218.641231 105.91216 
L 218.839039 105.804401 
L 218.947514 105.642762 
L 219.279321 105.535002 
L 219.279321 105.481122 
L 219.502653 105.373363 
L 219.560081 105.211724 
L 219.828079 105.103964 
L 219.828079 105.050085 
L 220.108838 104.942325 
L 220.185409 104.619047 
L 220.708643 104.511287 
L 220.791595 104.403528 
L 220.868166 104.295768 
L 220.868166 104.241889 
L 221.225496 104.134129 
L 221.225496 104.080249 
L 221.397781 103.97249 
L 221.397781 103.91861 
L 221.74235 103.810851 
L 221.74235 103.756971 
L 222.297488 103.649212 
L 222.399583 103.487572 
L 222.788818 103.379813 
L 222.80158 103.272053 
L 223.209957 103.164294 
L 223.209957 103.110414 
L 223.516241 103.002655 
L 223.516241 102.894895 
L 223.675763 102.841016 
L 223.739572 102.625497 
L 223.969285 102.517737 
L 223.969285 102.463857 
L 224.677565 102.356098 
L 224.677565 102.302218 
L 224.958325 102.194459 
L 225.034896 102.086699 
L 225.290132 101.97894 
L 225.360322 101.87118 
L 225.609177 101.763421 
L 225.666605 101.655661 
L 226.049459 101.547902 
L 226.049459 101.494022 
L 226.349362 101.386263 
L 226.457837 101.278503 
L 226.610979 101.170744 
L 226.636502 101.062984 
L 226.949166 100.955225 
L 227.038499 100.847465 
L 227.319259 100.739706 
L 227.383068 100.631947 
L 227.61278 100.524187 
L 227.61278 100.470307 
L 228.027539 100.362548 
L 228.123253 100.147029 
L 228.263632 100.039269 
L 228.365727 99.93151 
L 228.767724 99.823751 
L 228.837914 99.662111 
L 229.201625 99.554352 
L 229.30372 99.446592 
L 229.826954 99.392713 
L 229.916286 99.123314 
L 230.209808 99.015555 
L 230.241712 98.907795 
L 230.739423 98.800036 
L 230.803232 98.638396 
L 231.058468 98.530637 
L 231.14142 98.422878 
L 231.664654 98.315118 
L 231.70932 98.207359 
L 232.021984 98.099599 
L 232.021984 97.99184 
L 232.245316 97.88408 
L 232.245316 97.8302 
L 232.615408 97.722441 
L 232.691979 97.506922 
L 233.227975 97.399163 
L 233.227975 97.345283 
L 233.604448 97.237523 
L 233.674638 97.129764 
L 234.17873 97.022004 
L 234.236158 96.914245 
L 234.682821 96.806486 
L 234.682821 96.752606 
L 235.059294 96.644846 
L 235.059294 96.590967 
L 235.295388 96.537087 
L 235.371958 96.267688 
L 235.87605 96.159929 
L 235.888812 96.052169 
L 236.335475 95.94441 
L 236.348237 95.83665 
L 236.609854 95.728891 
L 236.686425 95.621131 
L 236.973565 95.513372 
L 237.037374 95.297853 
L 237.209659 95.190094 
L 237.209659 95.136214 
L 237.566989 95.028454 
L 237.669084 94.866815 
L 237.968986 94.759056 
L 237.968986 94.705176 
L 238.530505 94.597416 
L 238.536886 94.489657 
L 239.423832 94.381898 
L 239.423832 94.328018 
L 240.042779 94.220258 
L 240.042779 94.166379 
L 240.782964 94.058619 
L 240.834011 93.95086 
L 241.338103 93.8431 
L 241.338103 93.78922 
L 242.148477 93.681461 
L 242.186763 93.573702 
L 243.290659 93.465942 
L 243.316183 93.358183 
L 243.679894 93.250423 
L 243.781989 93.142664 
L 243.954273 93.034904 
L 244.024463 92.927145 
L 244.573221 92.819385 
L 244.573221 92.765506 
L 244.764648 92.711626 
L 244.764648 92.603866 
L 245.498452 92.496107 
L 245.498452 92.442227 
L 246.059971 92.334468 
L 246.136542 92.226708 
L 246.315207 92.118949 
L 246.321588 92.011189 
L 246.6853 91.90343 
L 246.6853 91.79567 
L 247.106439 91.687911 
L 247.106439 91.634031 
L 247.508436 91.526272 
L 247.578626 91.418512 
L 247.75091 91.310753 
L 247.8211 91.095234 
L 247.967861 90.987474 
L 248.076336 90.879715 
L 248.306049 90.825835 
L 248.414524 90.502557 
L 248.867568 90.394797 
L 248.867568 90.340918 
L 249.110043 90.233158 
L 249.180233 90.125399 
L 249.575849 90.017639 
L 249.684324 89.80212 
L 250.437271 89.694361 
L 250.532984 89.586601 
L 250.78822 89.478842 
L 250.78822 89.424962 
L 251.196598 89.317203 
L 251.27955 89.047804 
L 251.579452 88.940045 
L 251.675166 88.778405 
L 251.968687 88.670646 
L 252.05802 88.455127 
L 252.192019 88.347367 
L 252.192019 88.293488 
L 252.41535 88.239608 
L 252.41535 88.131849 
L 252.600397 88.024089 
L 252.702491 87.80857 
L 252.855633 87.700811 
L 252.855633 87.646931 
L 253.161916 87.539171 
L 253.161916 87.485292 
L 253.525628 87.377532 
L 253.525628 87.323653 
L 254.048862 87.215893 
L 254.150956 87.054254 
L 254.450859 86.946494 
L 254.514668 86.730976 
L 254.725237 86.623216 
L 254.808189 86.461577 
L 255.344185 86.353817 
L 255.350566 86.246058 
L 255.701516 86.138298 
L 255.701516 86.084419 
L 256.026942 85.976659 
L 256.122655 85.8689 
L 256.352368 85.76114 
L 256.352368 85.707261 
L 256.964934 85.599501 
L 256.964934 85.545621 
L 257.449883 85.437862 
L 257.449883 85.383982 
L 257.730643 85.276223 
L 257.794452 85.114584 
L 258.228353 85.006824 
L 258.336828 84.845185 
L 258.891967 84.737425 
L 258.891967 84.683546 
L 259.568343 84.575786 
L 259.632152 84.468027 
L 259.938435 84.360267 
L 260.008625 84.198628 
L 260.480812 84.090869 
L 260.480812 84.036989 
L 260.761572 83.929229 
L 260.838142 83.82147 
L 261.125283 83.71371 
L 261.125283 83.659831 
L 261.718707 83.552071 
L 261.782516 83.390432 
L 261.935658 83.282673 
L 261.935658 83.228793 
L 262.16537 83.174913 
L 262.216418 82.959394 
L 262.554605 82.851635 
L 262.624795 82.743875 
L 263.256505 82.636116 
L 263.36498 82.528356 
L 263.9265 82.420597 
L 263.983928 82.312837 
L 264.156212 82.258958 
L 264.156212 82.151198 
L 264.456114 82.043439 
L 264.456114 81.989559 
L 265.004872 81.8818 
L 265.094205 81.72016 
L 266.223625 81.612401 
L 266.325719 81.504641 
L 266.478861 81.396882 
L 266.478861 81.289122 
L 266.708573 81.181363 
L 266.746859 81.073604 
L 267.002095 80.965844 
L 267.072285 80.858085 
L 267.582757 80.750325 
L 267.678471 80.642566 
L 267.920945 80.534806 
L 267.920945 80.480927 
L 268.354846 80.373167 
L 268.354846 80.319287 
L 269.075888 80.211528 
L 269.075888 80.157648 
L 269.560837 80.049889 
L 269.560837 79.996009 
L 269.854358 79.888249 
L 269.854358 79.83437 
L 270.466925 79.72661 
L 270.466925 79.672731 
L 271.111396 79.564971 
L 271.156063 79.403332 
L 271.77501 79.295572 
L 271.8452 79.080053 
L 272.189769 79.026174 
L 272.215293 78.864535 
L 272.55348 78.756775 
L 272.642813 78.649016 
L 273.063953 78.541256 
L 273.063953 78.433497 
L 273.6829 78.325737 
L 273.727567 78.217978 
L 274.537941 78.110218 
L 274.633655 78.002459 
L 275.284507 77.894699 
L 275.386601 77.67918 
L 275.960883 77.571421 
L 275.960883 77.517541 
L 276.2225 77.409782 
L 276.279928 77.302022 
L 276.637258 77.194263 
L 276.726591 77.032624 
L 276.898875 76.924864 
L 276.969065 76.655465 
L 277.173254 76.601586 
L 277.198778 76.439947 
L 277.651822 76.332187 
L 277.651822 76.278307 
L 277.970867 76.224428 
L 277.970867 76.116668 
L 278.583434 76.008909 
L 278.583434 75.955029 
L 279.081144 75.847269 
L 279.081144 75.79339 
L 279.342761 75.68563 
L 279.419332 75.523991 
L 279.674568 75.416232 
L 279.783044 75.254592 
L 280.497705 75.146833 
L 280.523228 75.039073 
L 280.937987 74.931314 
L 281.020939 74.823555 
L 281.512268 74.715795 
L 281.52503 74.608036 
L 281.869599 74.500276 
L 281.933408 74.392517 
L 282.367309 74.284757 
L 282.367309 74.230878 
L 282.507689 74.123118 
L 282.507689 74.069238 
L 282.839496 73.961479 
L 282.839496 73.907599 
L 283.458444 73.79984 
L 283.458444 73.74596 
L 284.134819 73.6382 
L 284.192248 73.476561 
L 284.868623 73.368802 
L 284.868623 73.314922 
L 285.844901 73.207163 
L 285.844901 73.153283 
L 286.489373 73.045523 
L 286.489373 72.991644 
L 287.363556 72.883884 
L 287.465651 72.668365 
L 287.631554 72.614486 
L 287.650697 72.452846 
L 288.301549 72.345087 
L 288.352596 72.183448 
L 288.58869 72.075688 
L 288.665261 71.967929 
L 288.894973 71.860169 
L 288.894973 71.80629 
L 290.107345 71.69853 
L 290.107345 71.64465 
L 290.936862 71.536891 
L 290.987909 71.429131 
L 292.646944 71.321372 
L 292.742658 71.213612 
L 293.119131 71.105853 
L 293.119131 71.051973 
L 294.0316 70.944214 
L 294.133694 70.836454 
L 294.625024 70.728695 
L 294.625024 70.674815 
L 294.937688 70.567056 
L 295.027021 70.459296 
L 295.671492 70.351537 
L 295.671492 70.297657 
L 296.226631 70.189898 
L 296.226631 70.136018 
L 296.641389 70.028258 
L 296.654151 69.920499 
L 297.132719 69.812739 
L 297.1391 69.70498 
L 297.477288 69.59722 
L 297.56662 69.489461 
L 298.077093 69.381702 
L 298.160044 69.273942 
L 298.517375 69.166183 
L 298.517375 69.112303 
L 298.957657 69.004543 
L 299.015085 68.896784 
L 299.378797 68.789024 
L 299.429844 68.681265 
L 299.863745 68.573506 
L 299.863745 68.519626 
L 300.489074 68.411866 
L 300.559264 68.304107 
L 300.865547 68.250227 
L 300.865547 68.142468 
L 301.127164 68.034708 
L 301.127164 67.980829 
L 301.407924 67.873069 
L 301.407924 67.819189 
L 301.822683 67.71143 
L 301.912015 67.60367 
L 302.448011 67.495911 
L 302.448011 67.442031 
L 303.226481 67.334272 
L 303.296671 67.226512 
L 303.960285 67.118753 
L 303.960285 67.064873 
L 304.566471 66.957114 
L 304.668565 66.795474 
L 305.172657 66.687715 
L 305.172657 66.633835 
L 305.510845 66.526076 
L 305.568273 66.418316 
L 306.008555 66.310557 
L 306.053221 66.148918 
L 306.972071 66.041158 
L 307.0295 65.879519 
L 307.533591 65.771759 
L 307.635685 65.664 
L 308.088729 65.556241 
L 308.088729 65.502361 
L 308.382251 65.394601 
L 308.388632 65.232962 
L 308.886342 65.125203 
L 308.886342 65.071323 
L 309.29472 64.963563 
L 309.29472 64.909684 
L 310.35395 64.801924 
L 310.35395 64.748045 
L 311.374894 64.640285 
L 311.374894 64.586405 
L 311.738606 64.478646 
L 311.738606 64.424766 
L 311.974699 64.317007 
L 312.083175 64.209247 
L 312.523457 64.101488 
L 312.631932 63.993728 
L 313.684781 63.885969 
L 313.684781 63.832089 
L 314.673821 63.72433 
L 314.673821 63.67045 
L 314.890772 63.56269 
L 314.897153 63.454931 
L 315.841527 63.347171 
L 315.841527 63.293292 
L 316.300952 63.185532 
L 316.383903 63.077773 
L 316.64552 62.970013 
L 316.664663 62.862254 
L 317.838749 62.754494 
L 317.947225 62.646735 
L 318.036557 62.538976 
L 318.036557 62.485096 
L 318.291793 62.377336 
L 318.349222 62.269577 
L 318.891598 62.161817 
L 318.891598 62.107938 
L 319.848734 62.000178 
L 319.874257 61.892419 
L 320.652728 61.784659 
L 320.684632 61.62302 
L 320.959011 61.515261 
L 320.959011 61.461381 
L 321.565197 61.353621 
L 321.565197 61.299742 
L 322.196906 61.191982 
L 322.196906 61.138102 
L 323.460325 61.030343 
L 323.460325 60.976463 
L 323.875084 60.868704 
L 323.875084 60.814824 
L 324.27708 60.707065 
L 324.27708 60.653185 
L 324.755648 60.599305 
L 324.755648 60.491546 
L 325.291644 60.383786 
L 325.374596 60.276027 
L 325.738307 60.168267 
L 325.738307 60.114388 
L 326.350874 60.006628 
L 326.452968 59.844989 
L 326.944298 59.737229 
L 327.008107 59.62947 
L 327.710006 59.52171 
L 327.73553 59.413951 
L 328.297049 59.360071 
L 328.297049 59.252312 
L 329.01171 59.144552 
L 329.01171 59.090673 
L 329.879513 58.982913 
L 329.975227 58.821274 
L 330.198558 58.713514 
L 330.198558 58.659635 
L 330.638841 58.551875 
L 330.715412 58.336356 
L 332.157496 58.228597 
L 332.1894 58.066958 
L 333.03806 57.959198 
L 333.146536 57.797559 
L 333.797388 57.6898 
L 333.797388 57.63592 
L 334.218527 57.52816 
L 334.218527 57.474281 
L 334.429097 57.366521 
L 334.429097 57.312641 
L 334.901284 57.204882 
L 334.901284 57.151002 
L 335.443661 57.043243 
L 335.513851 56.881604 
L 336.464605 56.773844 
L 336.464605 56.719964 
L 337.128219 56.612205 
L 337.128219 56.558325 
L 337.651453 56.450566 
L 337.740786 56.342806 
L 338.174687 56.235047 
L 338.174687 56.181167 
L 339.163727 56.073408 
L 339.246679 55.965648 
L 339.425344 55.857889 
L 339.425344 55.804009 
L 340.037911 55.696249 
L 340.037911 55.64237 
L 340.771715 55.53461 
L 340.771715 55.480731 
L 341.058855 55.372971 
L 341.058855 55.319091 
L 342.041514 55.211332 
L 342.124466 55.103572 
L 343.145411 54.995813 
L 343.221982 54.834174 
L 344.574733 54.726414 
L 344.574733 54.672535 
L 345.512726 54.564775 
L 345.512726 54.510895 
L 346.444338 54.403136 
L 346.444338 54.349256 
L 347.050523 54.241497 
L 347.050523 54.187617 
L 349.736884 54.079857 
L 349.736884 54.025978 
L 350.623829 53.918218 
L 350.694019 53.810459 
L 351.580964 53.702699 
L 351.676678 53.59494 
L 351.938295 53.48718 
L 352.04677 53.325541 
L 353.048572 53.217782 
L 353.093239 53.110022 
L 354.292848 53.002263 
L 354.292848 52.948383 
L 355.358459 52.840624 
L 355.383983 52.732864 
L 355.830646 52.625105 
L 355.830646 52.571225 
L 356.794162 52.463465 
L 356.794162 52.409586 
L 357.579013 52.301826 
L 357.579013 52.247947 
L 358.848813 52.140187 
L 358.848813 52.086307 
L 359.620902 51.978548 
L 359.67195 51.870788 
L 359.876138 51.763029 
L 359.971852 51.60139 
L 360.386611 51.49363 
L 360.386611 51.439751 
L 360.852417 51.331991 
L 360.852417 51.278111 
L 361.101272 51.170352 
L 361.101272 51.116472 
L 361.892504 51.008713 
L 361.892504 50.900953 
L 362.56888 50.793194 
L 362.56888 50.739314 
L 363.334588 50.631555 
L 363.334588 50.577675 
L 363.621729 50.469915 
L 363.672776 50.308276 
L 364.776672 50.200517 
L 364.827719 50.092757 
L 365.740188 49.984998 
L 365.765712 49.877238 
L 366.403802 49.769479 
L 366.505897 49.60784 
L 368.515881 49.50008 
L 368.515881 49.4462 
L 369.900537 49.338441 
L 369.900537 49.284561 
L 371.240527 49.176802 
L 371.26605 49.069042 
L 372.261471 48.961283 
L 372.261471 48.907403 
L 373.167559 48.799644 
L 373.167559 48.745764 
L 373.601461 48.638004 
L 373.697174 48.530245 
L 374.105552 48.422486 
L 374.105552 48.368606 
L 374.947831 48.260846 
L 374.947831 48.206967 
L 375.534874 48.099207 
L 375.534874 48.045327 
L 375.873062 47.937568 
L 375.873062 47.883688 
L 376.440963 47.775929 
L 376.440963 47.722049 
L 376.887626 47.61429 
L 376.887626 47.56041 
L 377.276861 47.45265 
L 377.276861 47.398771 
L 378.380757 47.291011 
L 378.425424 47.129372 
L 379.286845 47.021612 
L 379.286845 46.967733 
L 380.607692 46.859973 
L 380.633216 46.752214 
L 381.354258 46.644454 
L 381.354258 46.590575 
L 382.470916 46.482815 
L 382.470916 46.428935 
L 383.294053 46.321176 
L 383.294053 46.267296 
L 384.174617 46.159537 
L 384.174617 46.105657 
L 384.500043 45.997898 
L 384.538329 45.890138 
L 385.54013 45.782379 
L 385.54013 45.728499 
L 386.076126 45.620739 
L 386.076126 45.56686 
L 386.778026 45.4591 
L 386.778026 45.40522 
L 387.664971 45.297461 
L 387.664971 45.243581 
L 388.966675 45.135822 
L 388.966675 45.081942 
L 390.370474 44.974183 
L 390.370474 44.920303 
L 391.091516 44.812543 
L 391.091516 44.758664 
L 392.010366 44.650904 
L 392.023128 44.543145 
L 392.865407 44.435385 
L 392.941978 44.219866 
L 393.261023 44.112107 
L 393.261023 44.058227 
L 394.23092 43.950468 
L 394.23092 43.896588 
L 395.175294 43.788829 
L 395.175294 43.734949 
L 396.904519 43.627189 
L 397.006613 43.51943 
L 397.75956 43.41167 
L 397.823369 43.250031 
L 399.342024 43.142272 
L 399.393071 43.034512 
L 400.350206 42.926753 
L 400.350206 42.872873 
L 401.773148 42.765114 
L 401.773148 42.711234 
L 403.247136 42.603474 
L 403.247136 42.549595 
L 405.627213 42.441835 
L 405.627213 42.387955 
L 406.59073 42.280196 
L 406.59073 42.226316 
L 407.58615 42.118557 
L 407.58615 42.064677 
L 409.49404 41.956918 
L 409.49404 41.903038 
L 411.389169 41.795278 
L 411.389169 41.741399 
L 412.205924 41.633639 
L 412.205924 41.579759 
L 414.72 41.472 
L 414.72 41.472 
" style="fill:none;stroke:#ff8c00;stroke-linecap:square;stroke-width:0.5;"/>
   </g>
   <g id="line2d_14">
    <path clip-path="url(#p424268c878)" d="M 57.6 307.584 
L 414.72 41.472 
" style="fill:none;stroke:#000080;stroke-dasharray:1.85,0.8;stroke-dashoffset:0;stroke-width:0.5;"/>
   </g>
   <g id="patch_3">
    <path d="M 57.6 307.584 
L 57.6 41.472 
" style="fill:none;stroke:#000000;stroke-linecap:square;stroke-linejoin:miter;stroke-width:0.8;"/>
   </g>
   <g id="patch_4">
    <path d="M 414.72 307.584 
L 414.72 41.472 
" style="fill:none;stroke:#000000;stroke-linecap:square;stroke-linejoin:miter;stroke-width:0.8;"/>
   </g>
   <g id="patch_5">
    <path d="M 57.6 307.584 
L 414.72 307.584 
" style="fill:none;stroke:#000000;stroke-linecap:square;stroke-linejoin:miter;stroke-width:0.8;"/>
   </g>
   <g id="patch_6">
    <path d="M 57.6 41.472 
L 414.72 41.472 
" style="fill:none;stroke:#000000;stroke-linecap:square;stroke-linejoin:miter;stroke-width:0.8;"/>
   </g>
   <g id="text_15">
    <!-- Receiver operating characteristic -->
    <defs>
     <path d="M 48.78125 52.59375 
L 48.78125 44.1875 
Q 44.96875 46.296875 41.140625 47.34375 
Q 37.3125 48.390625 33.40625 48.390625 
Q 24.65625 48.390625 19.8125 42.84375 
Q 14.984375 37.3125 14.984375 27.296875 
Q 14.984375 17.28125 19.8125 11.734375 
Q 24.65625 6.203125 33.40625 6.203125 
Q 37.3125 6.203125 41.140625 7.25 
Q 44.96875 8.296875 48.78125 10.40625 
L 48.78125 2.09375 
Q 45.015625 0.34375 40.984375 -0.53125 
Q 36.96875 -1.421875 32.421875 -1.421875 
Q 20.0625 -1.421875 12.78125 6.34375 
Q 5.515625 14.109375 5.515625 27.296875 
Q 5.515625 40.671875 12.859375 48.328125 
Q 20.21875 56 33.015625 56 
Q 37.15625 56 41.109375 55.140625 
Q 45.0625 54.296875 48.78125 52.59375 
z
" id="DejaVuSans-99"/>
     <path d="M 18.109375 8.203125 
L 18.109375 -20.796875 
L 9.078125 -20.796875 
L 9.078125 54.6875 
L 18.109375 54.6875 
L 18.109375 46.390625 
Q 20.953125 51.265625 25.265625 53.625 
Q 29.59375 56 35.59375 56 
Q 45.5625 56 51.78125 48.09375 
Q 58.015625 40.1875 58.015625 27.296875 
Q 58.015625 14.40625 51.78125 6.484375 
Q 45.5625 -1.421875 35.59375 -1.421875 
Q 29.59375 -1.421875 25.265625 0.953125 
Q 20.953125 3.328125 18.109375 8.203125 
z
M 48.6875 27.296875 
Q 48.6875 37.203125 44.609375 42.84375 
Q 40.53125 48.484375 33.40625 48.484375 
Q 26.265625 48.484375 22.1875 42.84375 
Q 18.109375 37.203125 18.109375 27.296875 
Q 18.109375 17.390625 22.1875 11.75 
Q 26.265625 6.109375 33.40625 6.109375 
Q 40.53125 6.109375 44.609375 11.75 
Q 48.6875 17.390625 48.6875 27.296875 
z
" id="DejaVuSans-112"/>
     <path d="M 54.890625 33.015625 
L 54.890625 0 
L 45.90625 0 
L 45.90625 32.71875 
Q 45.90625 40.484375 42.875 44.328125 
Q 39.84375 48.1875 33.796875 48.1875 
Q 26.515625 48.1875 22.3125 43.546875 
Q 18.109375 38.921875 18.109375 30.90625 
L 18.109375 0 
L 9.078125 0 
L 9.078125 54.6875 
L 18.109375 54.6875 
L 18.109375 46.1875 
Q 21.34375 51.125 25.703125 53.5625 
Q 30.078125 56 35.796875 56 
Q 45.21875 56 50.046875 50.171875 
Q 54.890625 44.34375 54.890625 33.015625 
z
" id="DejaVuSans-110"/>
     <path d="M 45.40625 27.984375 
Q 45.40625 37.75 41.375 43.109375 
Q 37.359375 48.484375 30.078125 48.484375 
Q 22.859375 48.484375 18.828125 43.109375 
Q 14.796875 37.75 14.796875 27.984375 
Q 14.796875 18.265625 18.828125 12.890625 
Q 22.859375 7.515625 30.078125 7.515625 
Q 37.359375 7.515625 41.375 12.890625 
Q 45.40625 18.265625 45.40625 27.984375 
z
M 54.390625 6.78125 
Q 54.390625 -7.171875 48.1875 -13.984375 
Q 42 -20.796875 29.203125 -20.796875 
Q 24.46875 -20.796875 20.265625 -20.09375 
Q 16.0625 -19.390625 12.109375 -17.921875 
L 12.109375 -9.1875 
Q 16.0625 -11.328125 19.921875 -12.34375 
Q 23.78125 -13.375 27.78125 -13.375 
Q 36.625 -13.375 41.015625 -8.765625 
Q 45.40625 -4.15625 45.40625 5.171875 
L 45.40625 9.625 
Q 42.625 4.78125 38.28125 2.390625 
Q 33.9375 0 27.875 0 
Q 17.828125 0 11.671875 7.65625 
Q 5.515625 15.328125 5.515625 27.984375 
Q 5.515625 40.671875 11.671875 48.328125 
Q 17.828125 56 27.875 56 
Q 33.9375 56 38.28125 53.609375 
Q 42.625 51.21875 45.40625 46.390625 
L 45.40625 54.6875 
L 54.390625 54.6875 
z
" id="DejaVuSans-103"/>
     <path d="M 54.890625 33.015625 
L 54.890625 0 
L 45.90625 0 
L 45.90625 32.71875 
Q 45.90625 40.484375 42.875 44.328125 
Q 39.84375 48.1875 33.796875 48.1875 
Q 26.515625 48.1875 22.3125 43.546875 
Q 18.109375 38.921875 18.109375 30.90625 
L 18.109375 0 
L 9.078125 0 
L 9.078125 75.984375 
L 18.109375 75.984375 
L 18.109375 46.1875 
Q 21.34375 51.125 25.703125 53.5625 
Q 30.078125 56 35.796875 56 
Q 45.21875 56 50.046875 50.171875 
Q 54.890625 44.34375 54.890625 33.015625 
z
" id="DejaVuSans-104"/>
    </defs>
    <g transform="translate(136.333125 35.472)scale(0.12 -0.12)">
     <use xlink:href="#DejaVuSans-82"/>
     <use x="69.419922" xlink:href="#DejaVuSans-101"/>
     <use x="130.943359" xlink:href="#DejaVuSans-99"/>
     <use x="185.923828" xlink:href="#DejaVuSans-101"/>
     <use x="247.447266" xlink:href="#DejaVuSans-105"/>
     <use x="275.230469" xlink:href="#DejaVuSans-118"/>
     <use x="334.410156" xlink:href="#DejaVuSans-101"/>
     <use x="395.933594" xlink:href="#DejaVuSans-114"/>
     <use x="437.046875" xlink:href="#DejaVuSans-32"/>
     <use x="468.833984" xlink:href="#DejaVuSans-111"/>
     <use x="530.015625" xlink:href="#DejaVuSans-112"/>
     <use x="593.492188" xlink:href="#DejaVuSans-101"/>
     <use x="655.015625" xlink:href="#DejaVuSans-114"/>
     <use x="696.128906" xlink:href="#DejaVuSans-97"/>
     <use x="757.408203" xlink:href="#DejaVuSans-116"/>
     <use x="796.617188" xlink:href="#DejaVuSans-105"/>
     <use x="824.400391" xlink:href="#DejaVuSans-110"/>
     <use x="887.779297" xlink:href="#DejaVuSans-103"/>
     <use x="951.255859" xlink:href="#DejaVuSans-32"/>
     <use x="983.042969" xlink:href="#DejaVuSans-99"/>
     <use x="1038.023438" xlink:href="#DejaVuSans-104"/>
     <use x="1101.402344" xlink:href="#DejaVuSans-97"/>
     <use x="1162.681641" xlink:href="#DejaVuSans-114"/>
     <use x="1203.794922" xlink:href="#DejaVuSans-97"/>
     <use x="1265.074219" xlink:href="#DejaVuSans-99"/>
     <use x="1320.054688" xlink:href="#DejaVuSans-116"/>
     <use x="1359.263672" xlink:href="#DejaVuSans-101"/>
     <use x="1420.787109" xlink:href="#DejaVuSans-114"/>
     <use x="1461.900391" xlink:href="#DejaVuSans-105"/>
     <use x="1489.683594" xlink:href="#DejaVuSans-115"/>
     <use x="1541.783203" xlink:href="#DejaVuSans-116"/>
     <use x="1580.992188" xlink:href="#DejaVuSans-105"/>
     <use x="1608.775391" xlink:href="#DejaVuSans-99"/>
    </g>
   </g>
   <g id="legend_1">
    <g id="patch_7">
     <path d="M 247.5575 302.584 
L 407.72 302.584 
Q 409.72 302.584 409.72 300.584 
L 409.72 286.905875 
Q 409.72 284.905875 407.72 284.905875 
L 247.5575 284.905875 
Q 245.5575 284.905875 245.5575 286.905875 
L 245.5575 300.584 
Q 245.5575 302.584 247.5575 302.584 
z
" style="fill:#ffffff;opacity:0.8;stroke:#cccccc;stroke-linejoin:miter;"/>
    </g>
    <g id="line2d_15">
     <path d="M 249.5575 293.004312 
L 269.5575 293.004312 
" style="fill:none;stroke:#ff8c00;stroke-linecap:square;stroke-width:0.5;"/>
    </g>
    <g id="line2d_16"/>
    <g id="text_16">
     <!-- ROC Curve (area =  0.72) -->
     <defs>
      <path d="M 39.40625 66.21875 
Q 28.65625 66.21875 22.328125 58.203125 
Q 16.015625 50.203125 16.015625 36.375 
Q 16.015625 22.609375 22.328125 14.59375 
Q 28.65625 6.59375 39.40625 6.59375 
Q 50.140625 6.59375 56.421875 14.59375 
Q 62.703125 22.609375 62.703125 36.375 
Q 62.703125 50.203125 56.421875 58.203125 
Q 50.140625 66.21875 39.40625 66.21875 
z
M 39.40625 74.21875 
Q 54.734375 74.21875 63.90625 63.9375 
Q 73.09375 53.65625 73.09375 36.375 
Q 73.09375 19.140625 63.90625 8.859375 
Q 54.734375 -1.421875 39.40625 -1.421875 
Q 24.03125 -1.421875 14.8125 8.828125 
Q 5.609375 19.09375 5.609375 36.375 
Q 5.609375 53.65625 14.8125 63.9375 
Q 24.03125 74.21875 39.40625 74.21875 
z
" id="DejaVuSans-79"/>
      <path d="M 64.40625 67.28125 
L 64.40625 56.890625 
Q 59.421875 61.53125 53.78125 63.8125 
Q 48.140625 66.109375 41.796875 66.109375 
Q 29.296875 66.109375 22.65625 58.46875 
Q 16.015625 50.828125 16.015625 36.375 
Q 16.015625 21.96875 22.65625 14.328125 
Q 29.296875 6.6875 41.796875 6.6875 
Q 48.140625 6.6875 53.78125 8.984375 
Q 59.421875 11.28125 64.40625 15.921875 
L 64.40625 5.609375 
Q 59.234375 2.09375 53.4375 0.328125 
Q 47.65625 -1.421875 41.21875 -1.421875 
Q 24.65625 -1.421875 15.125 8.703125 
Q 5.609375 18.84375 5.609375 36.375 
Q 5.609375 53.953125 15.125 64.078125 
Q 24.65625 74.21875 41.21875 74.21875 
Q 47.75 74.21875 53.53125 72.484375 
Q 59.328125 70.75 64.40625 67.28125 
z
" id="DejaVuSans-67"/>
      <path d="M 31 75.875 
Q 24.46875 64.65625 21.28125 53.65625 
Q 18.109375 42.671875 18.109375 31.390625 
Q 18.109375 20.125 21.3125 9.0625 
Q 24.515625 -2 31 -13.1875 
L 23.1875 -13.1875 
Q 15.875 -1.703125 12.234375 9.375 
Q 8.59375 20.453125 8.59375 31.390625 
Q 8.59375 42.28125 12.203125 53.3125 
Q 15.828125 64.359375 23.1875 75.875 
z
" id="DejaVuSans-40"/>
      <path d="M 10.59375 45.40625 
L 73.1875 45.40625 
L 73.1875 37.203125 
L 10.59375 37.203125 
z
M 10.59375 25.484375 
L 73.1875 25.484375 
L 73.1875 17.1875 
L 10.59375 17.1875 
z
" id="DejaVuSans-61"/>
      <path d="M 8.203125 72.90625 
L 55.078125 72.90625 
L 55.078125 68.703125 
L 28.609375 0 
L 18.3125 0 
L 43.21875 64.59375 
L 8.203125 64.59375 
z
" id="DejaVuSans-55"/>
      <path d="M 8.015625 75.875 
L 15.828125 75.875 
Q 23.140625 64.359375 26.78125 53.3125 
Q 30.421875 42.28125 30.421875 31.390625 
Q 30.421875 20.453125 26.78125 9.375 
Q 23.140625 -1.703125 15.828125 -13.1875 
L 8.015625 -13.1875 
Q 14.5 -2 17.703125 9.0625 
Q 20.90625 20.125 20.90625 31.390625 
Q 20.90625 42.671875 17.703125 53.65625 
Q 14.5 64.65625 8.015625 75.875 
z
" id="DejaVuSans-41"/>
     </defs>
     <g transform="translate(277.5575 296.504312)scale(0.1 -0.1)">
      <use xlink:href="#DejaVuSans-82"/>
      <use x="69.482422" xlink:href="#DejaVuSans-79"/>
      <use x="148.193359" xlink:href="#DejaVuSans-67"/>
      <use x="218.017578" xlink:href="#DejaVuSans-32"/>
      <use x="249.804688" xlink:href="#DejaVuSans-67"/>
      <use x="319.628906" xlink:href="#DejaVuSans-117"/>
      <use x="383.007812" xlink:href="#DejaVuSans-114"/>
      <use x="424.121094" xlink:href="#DejaVuSans-118"/>
      <use x="483.300781" xlink:href="#DejaVuSans-101"/>
      <use x="544.824219" xlink:href="#DejaVuSans-32"/>
      <use x="576.611328" xlink:href="#DejaVuSans-40"/>
      <use x="615.625" xlink:href="#DejaVuSans-97"/>
      <use x="676.904297" xlink:href="#DejaVuSans-114"/>
      <use x="717.986328" xlink:href="#DejaVuSans-101"/>
      <use x="779.509766" xlink:href="#DejaVuSans-97"/>
      <use x="840.789062" xlink:href="#DejaVuSans-32"/>
      <use x="872.576172" xlink:href="#DejaVuSans-61"/>
      <use x="956.365234" xlink:href="#DejaVuSans-32"/>
      <use x="988.152344" xlink:href="#DejaVuSans-32"/>
      <use x="1019.939453" xlink:href="#DejaVuSans-48"/>
      <use x="1083.5625" xlink:href="#DejaVuSans-46"/>
      <use x="1115.349609" xlink:href="#DejaVuSans-55"/>
      <use x="1178.972656" xlink:href="#DejaVuSans-50"/>
      <use x="1242.595703" xlink:href="#DejaVuSans-41"/>
     </g>
    </g>
   </g>
  </g>
 </g>
 <defs>
  <clipPath id="p424268c878">
   <rect height="266.112" width="357.12" x="57.6" y="41.472"/>
  </clipPath>
 </defs>
</svg>
