<?xml version="1.0" encoding="utf-8" standalone="no"?>
<!DOCTYPE svg PUBLIC "-//W3C//DTD SVG 1.1//EN"
  "http://www.w3.org/Graphics/SVG/1.1/DTD/svg11.dtd">
<!-- Created with matplotlib (https://matplotlib.org/) -->
<svg height="345.6pt" version="1.1" viewBox="0 0 460.8 345.6" width="460.8pt" xmlns="http://www.w3.org/2000/svg" xmlns:xlink="http://www.w3.org/1999/xlink">
 <defs>
  <style type="text/css">
*{stroke-linecap:butt;stroke-linejoin:round;}
  </style>
 </defs>
 <g id="figure_1">
  <g id="patch_1">
   <path d="M 0 345.6 
L 460.8 345.6 
L 460.8 0 
L 0 0 
z
" style="fill:#ffffff;"/>
  </g>
  <g id="axes_1">
   <g id="patch_2">
    <path d="M 57.6 307.584 
L 414.72 307.584 
L 414.72 41.472 
L 57.6 41.472 
z
" style="fill:#ffffff;"/>
   </g>
   <g id="matplotlib.axis_1">
    <g id="xtick_1">
     <g id="line2d_1">
      <defs>
       <path d="M 0 0 
L 0 3.5 
" id="mebe5c3f6c4" style="stroke:#000000;stroke-width:0.8;"/>
      </defs>
      <g>
       <use style="stroke:#000000;stroke-width:0.8;" x="57.6" xlink:href="#mebe5c3f6c4" y="307.584"/>
      </g>
     </g>
     <g id="text_1">
      <!-- 0.0 -->
      <defs>
       <path d="M 31.78125 66.40625 
Q 24.171875 66.40625 20.328125 58.90625 
Q 16.5 51.421875 16.5 36.375 
Q 16.5 21.390625 20.328125 13.890625 
Q 24.171875 6.390625 31.78125 6.390625 
Q 39.453125 6.390625 43.28125 13.890625 
Q 47.125 21.390625 47.125 36.375 
Q 47.125 51.421875 43.28125 58.90625 
Q 39.453125 66.40625 31.78125 66.40625 
z
M 31.78125 74.21875 
Q 44.046875 74.21875 50.515625 64.515625 
Q 56.984375 54.828125 56.984375 36.375 
Q 56.984375 17.96875 50.515625 8.265625 
Q 44.046875 -1.421875 31.78125 -1.421875 
Q 19.53125 -1.421875 13.0625 8.265625 
Q 6.59375 17.96875 6.59375 36.375 
Q 6.59375 54.828125 13.0625 64.515625 
Q 19.53125 74.21875 31.78125 74.21875 
z
" id="DejaVuSans-48"/>
       <path d="M 10.6875 12.40625 
L 21 12.40625 
L 21 0 
L 10.6875 0 
z
" id="DejaVuSans-46"/>
      </defs>
      <g transform="translate(49.648438 322.182437)scale(0.1 -0.1)">
       <use xlink:href="#DejaVuSans-48"/>
       <use x="63.623047" xlink:href="#DejaVuSans-46"/>
       <use x="95.410156" xlink:href="#DejaVuSans-48"/>
      </g>
     </g>
    </g>
    <g id="xtick_2">
     <g id="line2d_2">
      <g>
       <use style="stroke:#000000;stroke-width:0.8;" x="129.024" xlink:href="#mebe5c3f6c4" y="307.584"/>
      </g>
     </g>
     <g id="text_2">
      <!-- 0.2 -->
      <defs>
       <path d="M 19.1875 8.296875 
L 53.609375 8.296875 
L 53.609375 0 
L 7.328125 0 
L 7.328125 8.296875 
Q 12.9375 14.109375 22.625 23.890625 
Q 32.328125 33.6875 34.8125 36.53125 
Q 39.546875 41.84375 41.421875 45.53125 
Q 43.3125 49.21875 43.3125 52.78125 
Q 43.3125 58.59375 39.234375 62.25 
Q 35.15625 65.921875 28.609375 65.921875 
Q 23.96875 65.921875 18.8125 64.3125 
Q 13.671875 62.703125 7.8125 59.421875 
L 7.8125 69.390625 
Q 13.765625 71.78125 18.9375 73 
Q 24.125 74.21875 28.421875 74.21875 
Q 39.75 74.21875 46.484375 68.546875 
Q 53.21875 62.890625 53.21875 53.421875 
Q 53.21875 48.921875 51.53125 44.890625 
Q 49.859375 40.875 45.40625 35.40625 
Q 44.1875 33.984375 37.640625 27.21875 
Q 31.109375 20.453125 19.1875 8.296875 
z
" id="DejaVuSans-50"/>
      </defs>
      <g transform="translate(121.072438 322.182437)scale(0.1 -0.1)">
       <use xlink:href="#DejaVuSans-48"/>
       <use x="63.623047" xlink:href="#DejaVuSans-46"/>
       <use x="95.410156" xlink:href="#DejaVuSans-50"/>
      </g>
     </g>
    </g>
    <g id="xtick_3">
     <g id="line2d_3">
      <g>
       <use style="stroke:#000000;stroke-width:0.8;" x="200.448" xlink:href="#mebe5c3f6c4" y="307.584"/>
      </g>
     </g>
     <g id="text_3">
      <!-- 0.4 -->
      <defs>
       <path d="M 37.796875 64.3125 
L 12.890625 25.390625 
L 37.796875 25.390625 
z
M 35.203125 72.90625 
L 47.609375 72.90625 
L 47.609375 25.390625 
L 58.015625 25.390625 
L 58.015625 17.1875 
L 47.609375 17.1875 
L 47.609375 0 
L 37.796875 0 
L 37.796875 17.1875 
L 4.890625 17.1875 
L 4.890625 26.703125 
z
" id="DejaVuSans-52"/>
      </defs>
      <g transform="translate(192.496438 322.182437)scale(0.1 -0.1)">
       <use xlink:href="#DejaVuSans-48"/>
       <use x="63.623047" xlink:href="#DejaVuSans-46"/>
       <use x="95.410156" xlink:href="#DejaVuSans-52"/>
      </g>
     </g>
    </g>
    <g id="xtick_4">
     <g id="line2d_4">
      <g>
       <use style="stroke:#000000;stroke-width:0.8;" x="271.872" xlink:href="#mebe5c3f6c4" y="307.584"/>
      </g>
     </g>
     <g id="text_4">
      <!-- 0.6 -->
      <defs>
       <path d="M 33.015625 40.375 
Q 26.375 40.375 22.484375 35.828125 
Q 18.609375 31.296875 18.609375 23.390625 
Q 18.609375 15.53125 22.484375 10.953125 
Q 26.375 6.390625 33.015625 6.390625 
Q 39.65625 6.390625 43.53125 10.953125 
Q 47.40625 15.53125 47.40625 23.390625 
Q 47.40625 31.296875 43.53125 35.828125 
Q 39.65625 40.375 33.015625 40.375 
z
M 52.59375 71.296875 
L 52.59375 62.3125 
Q 48.875 64.0625 45.09375 64.984375 
Q 41.3125 65.921875 37.59375 65.921875 
Q 27.828125 65.921875 22.671875 59.328125 
Q 17.53125 52.734375 16.796875 39.40625 
Q 19.671875 43.65625 24.015625 45.921875 
Q 28.375 48.1875 33.59375 48.1875 
Q 44.578125 48.1875 50.953125 41.515625 
Q 57.328125 34.859375 57.328125 23.390625 
Q 57.328125 12.15625 50.6875 5.359375 
Q 44.046875 -1.421875 33.015625 -1.421875 
Q 20.359375 -1.421875 13.671875 8.265625 
Q 6.984375 17.96875 6.984375 36.375 
Q 6.984375 53.65625 15.1875 63.9375 
Q 23.390625 74.21875 37.203125 74.21875 
Q 40.921875 74.21875 44.703125 73.484375 
Q 48.484375 72.75 52.59375 71.296875 
z
" id="DejaVuSans-54"/>
      </defs>
      <g transform="translate(263.920438 322.182437)scale(0.1 -0.1)">
       <use xlink:href="#DejaVuSans-48"/>
       <use x="63.623047" xlink:href="#DejaVuSans-46"/>
       <use x="95.410156" xlink:href="#DejaVuSans-54"/>
      </g>
     </g>
    </g>
    <g id="xtick_5">
     <g id="line2d_5">
      <g>
       <use style="stroke:#000000;stroke-width:0.8;" x="343.296" xlink:href="#mebe5c3f6c4" y="307.584"/>
      </g>
     </g>
     <g id="text_5">
      <!-- 0.8 -->
      <defs>
       <path d="M 31.78125 34.625 
Q 24.75 34.625 20.71875 30.859375 
Q 16.703125 27.09375 16.703125 20.515625 
Q 16.703125 13.921875 20.71875 10.15625 
Q 24.75 6.390625 31.78125 6.390625 
Q 38.8125 6.390625 42.859375 10.171875 
Q 46.921875 13.96875 46.921875 20.515625 
Q 46.921875 27.09375 42.890625 30.859375 
Q 38.875 34.625 31.78125 34.625 
z
M 21.921875 38.8125 
Q 15.578125 40.375 12.03125 44.71875 
Q 8.5 49.078125 8.5 55.328125 
Q 8.5 64.0625 14.71875 69.140625 
Q 20.953125 74.21875 31.78125 74.21875 
Q 42.671875 74.21875 48.875 69.140625 
Q 55.078125 64.0625 55.078125 55.328125 
Q 55.078125 49.078125 51.53125 44.71875 
Q 48 40.375 41.703125 38.8125 
Q 48.828125 37.15625 52.796875 32.3125 
Q 56.78125 27.484375 56.78125 20.515625 
Q 56.78125 9.90625 50.3125 4.234375 
Q 43.84375 -1.421875 31.78125 -1.421875 
Q 19.734375 -1.421875 13.25 4.234375 
Q 6.78125 9.90625 6.78125 20.515625 
Q 6.78125 27.484375 10.78125 32.3125 
Q 14.796875 37.15625 21.921875 38.8125 
z
M 18.3125 54.390625 
Q 18.3125 48.734375 21.84375 45.5625 
Q 25.390625 42.390625 31.78125 42.390625 
Q 38.140625 42.390625 41.71875 45.5625 
Q 45.3125 48.734375 45.3125 54.390625 
Q 45.3125 60.0625 41.71875 63.234375 
Q 38.140625 66.40625 31.78125 66.40625 
Q 25.390625 66.40625 21.84375 63.234375 
Q 18.3125 60.0625 18.3125 54.390625 
z
" id="DejaVuSans-56"/>
      </defs>
      <g transform="translate(335.344438 322.182437)scale(0.1 -0.1)">
       <use xlink:href="#DejaVuSans-48"/>
       <use x="63.623047" xlink:href="#DejaVuSans-46"/>
       <use x="95.410156" xlink:href="#DejaVuSans-56"/>
      </g>
     </g>
    </g>
    <g id="xtick_6">
     <g id="line2d_6">
      <g>
       <use style="stroke:#000000;stroke-width:0.8;" x="414.72" xlink:href="#mebe5c3f6c4" y="307.584"/>
      </g>
     </g>
     <g id="text_6">
      <!-- 1.0 -->
      <defs>
       <path d="M 12.40625 8.296875 
L 28.515625 8.296875 
L 28.515625 63.921875 
L 10.984375 60.40625 
L 10.984375 69.390625 
L 28.421875 72.90625 
L 38.28125 72.90625 
L 38.28125 8.296875 
L 54.390625 8.296875 
L 54.390625 0 
L 12.40625 0 
z
" id="DejaVuSans-49"/>
      </defs>
      <g transform="translate(406.768438 322.182437)scale(0.1 -0.1)">
       <use xlink:href="#DejaVuSans-49"/>
       <use x="63.623047" xlink:href="#DejaVuSans-46"/>
       <use x="95.410156" xlink:href="#DejaVuSans-48"/>
      </g>
     </g>
    </g>
    <g id="text_7">
     <!-- False Positive Rate -->
     <defs>
      <path d="M 9.8125 72.90625 
L 51.703125 72.90625 
L 51.703125 64.59375 
L 19.671875 64.59375 
L 19.671875 43.109375 
L 48.578125 43.109375 
L 48.578125 34.8125 
L 19.671875 34.8125 
L 19.671875 0 
L 9.8125 0 
z
" id="DejaVuSans-70"/>
      <path d="M 34.28125 27.484375 
Q 23.390625 27.484375 19.1875 25 
Q 14.984375 22.515625 14.984375 16.5 
Q 14.984375 11.71875 18.140625 8.90625 
Q 21.296875 6.109375 26.703125 6.109375 
Q 34.1875 6.109375 38.703125 11.40625 
Q 43.21875 16.703125 43.21875 25.484375 
L 43.21875 27.484375 
z
M 52.203125 31.203125 
L 52.203125 0 
L 43.21875 0 
L 43.21875 8.296875 
Q 40.140625 3.328125 35.546875 0.953125 
Q 30.953125 -1.421875 24.3125 -1.421875 
Q 15.921875 -1.421875 10.953125 3.296875 
Q 6 8.015625 6 15.921875 
Q 6 25.140625 12.171875 29.828125 
Q 18.359375 34.515625 30.609375 34.515625 
L 43.21875 34.515625 
L 43.21875 35.40625 
Q 43.21875 41.609375 39.140625 45 
Q 35.0625 48.390625 27.6875 48.390625 
Q 23 48.390625 18.546875 47.265625 
Q 14.109375 46.140625 10.015625 43.890625 
L 10.015625 52.203125 
Q 14.9375 54.109375 19.578125 55.046875 
Q 24.21875 56 28.609375 56 
Q 40.484375 56 46.34375 49.84375 
Q 52.203125 43.703125 52.203125 31.203125 
z
" id="DejaVuSans-97"/>
      <path d="M 9.421875 75.984375 
L 18.40625 75.984375 
L 18.40625 0 
L 9.421875 0 
z
" id="DejaVuSans-108"/>
      <path d="M 44.28125 53.078125 
L 44.28125 44.578125 
Q 40.484375 46.53125 36.375 47.5 
Q 32.28125 48.484375 27.875 48.484375 
Q 21.1875 48.484375 17.84375 46.4375 
Q 14.5 44.390625 14.5 40.28125 
Q 14.5 37.15625 16.890625 35.375 
Q 19.28125 33.59375 26.515625 31.984375 
L 29.59375 31.296875 
Q 39.15625 29.25 43.1875 25.515625 
Q 47.21875 21.78125 47.21875 15.09375 
Q 47.21875 7.46875 41.1875 3.015625 
Q 35.15625 -1.421875 24.609375 -1.421875 
Q 20.21875 -1.421875 15.453125 -0.5625 
Q 10.6875 0.296875 5.421875 2 
L 5.421875 11.28125 
Q 10.40625 8.6875 15.234375 7.390625 
Q 20.0625 6.109375 24.8125 6.109375 
Q 31.15625 6.109375 34.5625 8.28125 
Q 37.984375 10.453125 37.984375 14.40625 
Q 37.984375 18.0625 35.515625 20.015625 
Q 33.0625 21.96875 24.703125 23.78125 
L 21.578125 24.515625 
Q 13.234375 26.265625 9.515625 29.90625 
Q 5.8125 33.546875 5.8125 39.890625 
Q 5.8125 47.609375 11.28125 51.796875 
Q 16.75 56 26.8125 56 
Q 31.78125 56 36.171875 55.265625 
Q 40.578125 54.546875 44.28125 53.078125 
z
" id="DejaVuSans-115"/>
      <path d="M 56.203125 29.59375 
L 56.203125 25.203125 
L 14.890625 25.203125 
Q 15.484375 15.921875 20.484375 11.0625 
Q 25.484375 6.203125 34.421875 6.203125 
Q 39.59375 6.203125 44.453125 7.46875 
Q 49.3125 8.734375 54.109375 11.28125 
L 54.109375 2.78125 
Q 49.265625 0.734375 44.1875 -0.34375 
Q 39.109375 -1.421875 33.890625 -1.421875 
Q 20.796875 -1.421875 13.15625 6.1875 
Q 5.515625 13.8125 5.515625 26.8125 
Q 5.515625 40.234375 12.765625 48.109375 
Q 20.015625 56 32.328125 56 
Q 43.359375 56 49.78125 48.890625 
Q 56.203125 41.796875 56.203125 29.59375 
z
M 47.21875 32.234375 
Q 47.125 39.59375 43.09375 43.984375 
Q 39.0625 48.390625 32.421875 48.390625 
Q 24.90625 48.390625 20.390625 44.140625 
Q 15.875 39.890625 15.1875 32.171875 
z
" id="DejaVuSans-101"/>
      <path id="DejaVuSans-32"/>
      <path d="M 19.671875 64.796875 
L 19.671875 37.40625 
L 32.078125 37.40625 
Q 38.96875 37.40625 42.71875 40.96875 
Q 46.484375 44.53125 46.484375 51.125 
Q 46.484375 57.671875 42.71875 61.234375 
Q 38.96875 64.796875 32.078125 64.796875 
z
M 9.8125 72.90625 
L 32.078125 72.90625 
Q 44.34375 72.90625 50.609375 67.359375 
Q 56.890625 61.8125 56.890625 51.125 
Q 56.890625 40.328125 50.609375 34.8125 
Q 44.34375 29.296875 32.078125 29.296875 
L 19.671875 29.296875 
L 19.671875 0 
L 9.8125 0 
z
" id="DejaVuSans-80"/>
      <path d="M 30.609375 48.390625 
Q 23.390625 48.390625 19.1875 42.75 
Q 14.984375 37.109375 14.984375 27.296875 
Q 14.984375 17.484375 19.15625 11.84375 
Q 23.34375 6.203125 30.609375 6.203125 
Q 37.796875 6.203125 41.984375 11.859375 
Q 46.1875 17.53125 46.1875 27.296875 
Q 46.1875 37.015625 41.984375 42.703125 
Q 37.796875 48.390625 30.609375 48.390625 
z
M 30.609375 56 
Q 42.328125 56 49.015625 48.375 
Q 55.71875 40.765625 55.71875 27.296875 
Q 55.71875 13.875 49.015625 6.21875 
Q 42.328125 -1.421875 30.609375 -1.421875 
Q 18.84375 -1.421875 12.171875 6.21875 
Q 5.515625 13.875 5.515625 27.296875 
Q 5.515625 40.765625 12.171875 48.375 
Q 18.84375 56 30.609375 56 
z
" id="DejaVuSans-111"/>
      <path d="M 9.421875 54.6875 
L 18.40625 54.6875 
L 18.40625 0 
L 9.421875 0 
z
M 9.421875 75.984375 
L 18.40625 75.984375 
L 18.40625 64.59375 
L 9.421875 64.59375 
z
" id="DejaVuSans-105"/>
      <path d="M 18.3125 70.21875 
L 18.3125 54.6875 
L 36.8125 54.6875 
L 36.8125 47.703125 
L 18.3125 47.703125 
L 18.3125 18.015625 
Q 18.3125 11.328125 20.140625 9.421875 
Q 21.96875 7.515625 27.59375 7.515625 
L 36.8125 7.515625 
L 36.8125 0 
L 27.59375 0 
Q 17.1875 0 13.234375 3.875 
Q 9.28125 7.765625 9.28125 18.015625 
L 9.28125 47.703125 
L 2.6875 47.703125 
L 2.6875 54.6875 
L 9.28125 54.6875 
L 9.28125 70.21875 
z
" id="DejaVuSans-116"/>
      <path d="M 2.984375 54.6875 
L 12.5 54.6875 
L 29.59375 8.796875 
L 46.6875 54.6875 
L 56.203125 54.6875 
L 35.6875 0 
L 23.484375 0 
z
" id="DejaVuSans-118"/>
      <path d="M 44.390625 34.1875 
Q 47.5625 33.109375 50.5625 29.59375 
Q 53.5625 26.078125 56.59375 19.921875 
L 66.609375 0 
L 56 0 
L 46.6875 18.703125 
Q 43.0625 26.03125 39.671875 28.421875 
Q 36.28125 30.8125 30.421875 30.8125 
L 19.671875 30.8125 
L 19.671875 0 
L 9.8125 0 
L 9.8125 72.90625 
L 32.078125 72.90625 
Q 44.578125 72.90625 50.734375 67.671875 
Q 56.890625 62.453125 56.890625 51.90625 
Q 56.890625 45.015625 53.6875 40.46875 
Q 50.484375 35.9375 44.390625 34.1875 
z
M 19.671875 64.796875 
L 19.671875 38.921875 
L 32.078125 38.921875 
Q 39.203125 38.921875 42.84375 42.21875 
Q 46.484375 45.515625 46.484375 51.90625 
Q 46.484375 58.296875 42.84375 61.546875 
Q 39.203125 64.796875 32.078125 64.796875 
z
" id="DejaVuSans-82"/>
     </defs>
     <g transform="translate(188.954531 335.860562)scale(0.1 -0.1)">
      <use xlink:href="#DejaVuSans-70"/>
      <use x="57.378906" xlink:href="#DejaVuSans-97"/>
      <use x="118.658203" xlink:href="#DejaVuSans-108"/>
      <use x="146.441406" xlink:href="#DejaVuSans-115"/>
      <use x="198.541016" xlink:href="#DejaVuSans-101"/>
      <use x="260.064453" xlink:href="#DejaVuSans-32"/>
      <use x="291.851562" xlink:href="#DejaVuSans-80"/>
      <use x="352.107422" xlink:href="#DejaVuSans-111"/>
      <use x="413.289062" xlink:href="#DejaVuSans-115"/>
      <use x="465.388672" xlink:href="#DejaVuSans-105"/>
      <use x="493.171875" xlink:href="#DejaVuSans-116"/>
      <use x="532.380859" xlink:href="#DejaVuSans-105"/>
      <use x="560.164062" xlink:href="#DejaVuSans-118"/>
      <use x="619.34375" xlink:href="#DejaVuSans-101"/>
      <use x="680.867188" xlink:href="#DejaVuSans-32"/>
      <use x="712.654297" xlink:href="#DejaVuSans-82"/>
      <use x="782.105469" xlink:href="#DejaVuSans-97"/>
      <use x="843.384766" xlink:href="#DejaVuSans-116"/>
      <use x="882.59375" xlink:href="#DejaVuSans-101"/>
     </g>
    </g>
   </g>
   <g id="matplotlib.axis_2">
    <g id="ytick_1">
     <g id="line2d_7">
      <defs>
       <path d="M 0 0 
L -3.5 0 
" id="ma083ee4d19" style="stroke:#000000;stroke-width:0.8;"/>
      </defs>
      <g>
       <use style="stroke:#000000;stroke-width:0.8;" x="57.6" xlink:href="#ma083ee4d19" y="307.584"/>
      </g>
     </g>
     <g id="text_8">
      <!-- 0.0 -->
      <g transform="translate(34.696875 311.383219)scale(0.1 -0.1)">
       <use xlink:href="#DejaVuSans-48"/>
       <use x="63.623047" xlink:href="#DejaVuSans-46"/>
       <use x="95.410156" xlink:href="#DejaVuSans-48"/>
      </g>
     </g>
    </g>
    <g id="ytick_2">
     <g id="line2d_8">
      <g>
       <use style="stroke:#000000;stroke-width:0.8;" x="57.6" xlink:href="#ma083ee4d19" y="254.3616"/>
      </g>
     </g>
     <g id="text_9">
      <!-- 0.2 -->
      <g transform="translate(34.696875 258.160819)scale(0.1 -0.1)">
       <use xlink:href="#DejaVuSans-48"/>
       <use x="63.623047" xlink:href="#DejaVuSans-46"/>
       <use x="95.410156" xlink:href="#DejaVuSans-50"/>
      </g>
     </g>
    </g>
    <g id="ytick_3">
     <g id="line2d_9">
      <g>
       <use style="stroke:#000000;stroke-width:0.8;" x="57.6" xlink:href="#ma083ee4d19" y="201.1392"/>
      </g>
     </g>
     <g id="text_10">
      <!-- 0.4 -->
      <g transform="translate(34.696875 204.938419)scale(0.1 -0.1)">
       <use xlink:href="#DejaVuSans-48"/>
       <use x="63.623047" xlink:href="#DejaVuSans-46"/>
       <use x="95.410156" xlink:href="#DejaVuSans-52"/>
      </g>
     </g>
    </g>
    <g id="ytick_4">
     <g id="line2d_10">
      <g>
       <use style="stroke:#000000;stroke-width:0.8;" x="57.6" xlink:href="#ma083ee4d19" y="147.9168"/>
      </g>
     </g>
     <g id="text_11">
      <!-- 0.6 -->
      <g transform="translate(34.696875 151.716019)scale(0.1 -0.1)">
       <use xlink:href="#DejaVuSans-48"/>
       <use x="63.623047" xlink:href="#DejaVuSans-46"/>
       <use x="95.410156" xlink:href="#DejaVuSans-54"/>
      </g>
     </g>
    </g>
    <g id="ytick_5">
     <g id="line2d_11">
      <g>
       <use style="stroke:#000000;stroke-width:0.8;" x="57.6" xlink:href="#ma083ee4d19" y="94.6944"/>
      </g>
     </g>
     <g id="text_12">
      <!-- 0.8 -->
      <g transform="translate(34.696875 98.493619)scale(0.1 -0.1)">
       <use xlink:href="#DejaVuSans-48"/>
       <use x="63.623047" xlink:href="#DejaVuSans-46"/>
       <use x="95.410156" xlink:href="#DejaVuSans-56"/>
      </g>
     </g>
    </g>
    <g id="ytick_6">
     <g id="line2d_12">
      <g>
       <use style="stroke:#000000;stroke-width:0.8;" x="57.6" xlink:href="#ma083ee4d19" y="41.472"/>
      </g>
     </g>
     <g id="text_13">
      <!-- 1.0 -->
      <g transform="translate(34.696875 45.271219)scale(0.1 -0.1)">
       <use xlink:href="#DejaVuSans-49"/>
       <use x="63.623047" xlink:href="#DejaVuSans-46"/>
       <use x="95.410156" xlink:href="#DejaVuSans-48"/>
      </g>
     </g>
    </g>
    <g id="text_14">
     <!-- True Positive Rate -->
     <defs>
      <path d="M -0.296875 72.90625 
L 61.375 72.90625 
L 61.375 64.59375 
L 35.5 64.59375 
L 35.5 0 
L 25.59375 0 
L 25.59375 64.59375 
L -0.296875 64.59375 
z
" id="DejaVuSans-84"/>
      <path d="M 41.109375 46.296875 
Q 39.59375 47.171875 37.8125 47.578125 
Q 36.03125 48 33.890625 48 
Q 26.265625 48 22.1875 43.046875 
Q 18.109375 38.09375 18.109375 28.8125 
L 18.109375 0 
L 9.078125 0 
L 9.078125 54.6875 
L 18.109375 54.6875 
L 18.109375 46.1875 
Q 20.953125 51.171875 25.484375 53.578125 
Q 30.03125 56 36.53125 56 
Q 37.453125 56 38.578125 55.875 
Q 39.703125 55.765625 41.0625 55.515625 
z
" id="DejaVuSans-114"/>
      <path d="M 8.5 21.578125 
L 8.5 54.6875 
L 17.484375 54.6875 
L 17.484375 21.921875 
Q 17.484375 14.15625 20.5 10.265625 
Q 23.53125 6.390625 29.59375 6.390625 
Q 36.859375 6.390625 41.078125 11.03125 
Q 45.3125 15.671875 45.3125 23.6875 
L 45.3125 54.6875 
L 54.296875 54.6875 
L 54.296875 0 
L 45.3125 0 
L 45.3125 8.40625 
Q 42.046875 3.421875 37.71875 1 
Q 33.40625 -1.421875 27.6875 -1.421875 
Q 18.265625 -1.421875 13.375 4.4375 
Q 8.5 10.296875 8.5 21.578125 
z
M 31.109375 56 
z
" id="DejaVuSans-117"/>
     </defs>
     <g transform="translate(28.617187 220.074094)rotate(-90)scale(0.1 -0.1)">
      <use xlink:href="#DejaVuSans-84"/>
      <use x="60.865234" xlink:href="#DejaVuSans-114"/>
      <use x="101.978516" xlink:href="#DejaVuSans-117"/>
      <use x="165.357422" xlink:href="#DejaVuSans-101"/>
      <use x="226.880859" xlink:href="#DejaVuSans-32"/>
      <use x="258.667969" xlink:href="#DejaVuSans-80"/>
      <use x="318.923828" xlink:href="#DejaVuSans-111"/>
      <use x="380.105469" xlink:href="#DejaVuSans-115"/>
      <use x="432.205078" xlink:href="#DejaVuSans-105"/>
      <use x="459.988281" xlink:href="#DejaVuSans-116"/>
      <use x="499.197266" xlink:href="#DejaVuSans-105"/>
      <use x="526.980469" xlink:href="#DejaVuSans-118"/>
      <use x="586.160156" xlink:href="#DejaVuSans-101"/>
      <use x="647.683594" xlink:href="#DejaVuSans-32"/>
      <use x="679.470703" xlink:href="#DejaVuSans-82"/>
      <use x="748.921875" xlink:href="#DejaVuSans-97"/>
      <use x="810.201172" xlink:href="#DejaVuSans-116"/>
      <use x="849.410156" xlink:href="#DejaVuSans-101"/>
     </g>
    </g>
   </g>
   <g id="line2d_13">
    <path clip-path="url(#pe85a6e3005)" d="M 57.6 307.584 
L 57.61277 307.584 
L 57.721313 306.781491 
L 57.753238 306.67449 
L 57.855396 305.604478 
L 57.868166 305.604478 
L 57.957554 304.587966 
L 58.021403 304.480965 
L 58.117177 303.838958 
L 58.181026 303.785457 
L 58.264029 303.14345 
L 58.295954 303.14345 
L 58.391727 301.752434 
L 58.430036 301.698934 
L 58.532195 300.842924 
L 58.583274 300.735923 
L 58.679047 300.040415 
L 58.704587 299.933414 
L 58.81313 299.665911 
L 58.870594 299.55891 
L 58.947213 298.863402 
L 58.985522 298.863402 
L 59.062141 298.167894 
L 59.145145 298.114393 
L 59.247303 296.990881 
L 59.291997 296.93738 
L 59.368616 296.02787 
L 59.432465 295.920869 
L 59.528239 295.385862 
L 59.579318 295.278861 
L 59.687861 294.636854 
L 59.713401 294.583353 
L 59.821944 293.887846 
L 59.873023 293.780844 
L 59.981566 293.138837 
L 60.019876 293.085337 
L 60.128419 292.229327 
L 60.153958 292.122326 
L 60.262502 291.533819 
L 60.33912 291.426818 
L 60.447664 290.838311 
L 60.454048 290.838311 
L 60.530667 290.249805 
L 60.607286 290.142803 
L 60.683905 289.928801 
L 60.760523 289.8218 
L 60.856297 289.393795 
L 60.907376 289.286794 
L 60.99038 288.644786 
L 61.054229 288.537785 
L 61.156387 288.05628 
L 61.213851 287.949279 
L 61.29047 287.735276 
L 61.399013 287.628275 
L 61.475632 287.253771 
L 61.513941 287.253771 
L 61.6161 286.397761 
L 61.667179 286.29076 
L 61.762952 285.755754 
L 61.87788 285.648753 
L 61.980039 285.220748 
L 62.094967 285.113747 
L 62.20351 284.632241 
L 62.222665 284.52524 
L 62.318438 284.257737 
L 62.471676 284.150736 
L 62.580219 283.66923 
L 62.644068 283.66923 
L 62.746226 282.813221 
L 62.797305 282.70622 
L 62.886694 282.224714 
L 62.937773 282.117713 
L 63.027162 281.475706 
L 63.084626 281.422205 
L 63.167629 281.261703 
L 63.269788 281.154702 
L 63.352791 280.673197 
L 63.42941 280.566195 
L 63.537953 279.817187 
L 63.576263 279.763686 
L 63.684806 279.014678 
L 63.812504 278.907677 
L 63.908277 278.693674 
L 63.927432 278.693674 
L 64.02959 278.31917 
L 64.112594 278.212169 
L 64.201982 277.570162 
L 64.32968 277.46316 
L 64.412684 277.195657 
L 64.457378 277.088656 
L 64.533997 276.767653 
L 64.68085 276.660651 
L 64.763853 276.339648 
L 64.808548 276.286147 
L 64.917091 275.590639 
L 64.949015 275.483638 
L 65.012864 275.055633 
L 65.115023 274.948632 
L 65.223566 274.73463 
L 65.306569 274.627628 
L 65.415113 274.360125 
L 65.421498 274.360125 
L 65.517271 273.87862 
L 65.619429 273.771619 
L 65.721588 273.343614 
L 65.747127 273.290113 
L 65.836516 272.808608 
L 65.90675 272.701607 
L 66.002523 272.434104 
L 66.091912 272.380603 
L 66.200455 271.899098 
L 66.328153 271.792097 
L 66.417541 271.631595 
L 66.50693 271.631595 
L 66.615473 270.936087 
L 66.641013 270.829086 
L 66.749556 270.454581 
L 66.877254 270.34758 
L 66.953873 269.973076 
L 67.030491 269.866075 
L 67.13265 269.545071 
L 67.177344 269.43807 
L 67.266732 269.010065 
L 67.464664 268.903064 
L 67.560438 268.635561 
L 67.624287 268.58206 
L 67.72006 267.940053 
L 67.790294 267.833052 
L 67.847758 267.619049 
L 68.077614 267.512048 
L 68.167003 267.137544 
L 68.230852 267.030543 
L 68.32024 266.656039 
L 68.479863 266.549037 
L 68.582021 266.228034 
L 68.601176 266.121033 
L 68.696949 265.372024 
L 68.722489 265.265023 
L 68.792723 265.051021 
L 68.926805 264.944019 
L 69.028964 264.516014 
L 69.182201 264.409013 
L 69.28436 263.820507 
L 69.335439 263.713505 
L 69.437597 263.285501 
L 69.539755 263.178499 
L 69.648299 262.750495 
L 69.788766 262.643493 
L 69.839846 262.536492 
L 69.993083 262.429491 
L 70.101626 262.054987 
L 70.146321 261.947986 
L 70.254864 261.46648 
L 70.312328 261.359479 
L 70.369792 261.038475 
L 70.446411 260.931474 
L 70.51026 260.717472 
L 70.676267 260.663971 
L 70.720961 260.449969 
L 70.835889 260.342967 
L 70.944433 259.754461 
L 71.033821 259.64746 
L 71.142364 258.951952 
L 71.161519 258.844951 
L 71.270062 258.416946 
L 71.455224 258.309945 
L 71.550998 258.042441 
L 71.665926 257.93544 
L 71.73616 257.560936 
L 71.800009 257.453935 
L 71.863858 257.132931 
L 71.972401 257.02593 
L 72.02348 256.811928 
L 72.227797 256.704926 
L 72.33634 256.16992 
L 72.393804 256.062919 
L 72.489577 255.795416 
L 72.591736 255.688415 
L 72.700279 255.20691 
L 72.732203 255.153409 
L 72.827977 254.778905 
L 72.955675 254.671903 
L 73.045063 254.297399 
L 73.159991 254.190398 
L 73.26215 253.655392 
L 73.287689 253.548391 
L 73.377078 253.280888 
L 73.492006 253.173887 
L 73.530315 252.906384 
L 73.658013 252.799382 
L 73.766557 252.478379 
L 73.817636 252.371378 
L 73.919794 251.943373 
L 73.938949 251.943373 
L 74.021952 251.515368 
L 74.18796 251.408367 
L 74.296503 251.087363 
L 74.328427 250.980362 
L 74.424201 250.766359 
L 74.50082 250.659358 
L 74.558284 250.284854 
L 74.641287 250.284854 
L 74.737061 249.856849 
L 74.877528 249.749848 
L 74.941377 249.428844 
L 75.177619 249.321843 
L 75.273392 248.840338 
L 75.407475 248.733337 
L 75.496863 248.572835 
L 75.567097 248.465834 
L 75.630946 248.14483 
L 75.739489 248.091329 
L 75.828878 247.663324 
L 76.00127 247.556323 
L 76.039579 247.449322 
L 76.167277 247.342321 
L 76.269436 247.074818 
L 76.33967 246.967817 
L 76.33967 246.914316 
L 76.499292 246.807315 
L 76.60145 246.325809 
L 76.658914 246.272309 
L 76.741918 246.111807 
L 76.812152 246.004806 
L 76.920695 245.630302 
L 77.035623 245.5233 
L 77.125012 245.202297 
L 77.310174 245.095296 
L 77.418717 244.667291 
L 77.54003 244.56029 
L 77.597494 244.399788 
L 77.750732 244.292786 
L 77.85289 243.918282 
L 77.872045 243.864782 
L 77.942278 243.650779 
L 78.133825 243.543778 
L 78.133825 243.490277 
L 78.280678 243.383276 
L 78.363682 243.276275 
L 78.484995 243.169274 
L 78.580768 242.901771 
L 78.657387 242.84827 
L 78.76593 242.420265 
L 78.842549 242.313264 
L 78.951092 242.099262 
L 79.129869 241.992261 
L 79.149024 241.831759 
L 79.270337 241.724758 
L 79.372495 241.403754 
L 79.442729 241.296753 
L 79.442729 241.243252 
L 79.564042 241.243252 
L 79.627891 240.922248 
L 79.69174 240.922248 
L 79.723664 240.654745 
L 79.947136 240.547744 
L 80.049294 240.17324 
L 80.183377 240.066239 
L 80.29192 239.745235 
L 80.400463 239.638234 
L 80.509007 239.424232 
L 80.636705 239.31723 
L 80.719708 238.996227 
L 80.8921 238.889226 
L 80.987874 238.621723 
L 81.102802 238.514721 
L 81.20496 238.247218 
L 81.281579 238.140217 
L 81.351813 237.979715 
L 81.524205 237.872714 
L 81.607209 237.605211 
L 81.658288 237.55171 
L 81.754061 237.177206 
L 81.868989 237.070205 
L 81.971148 236.695701 
L 82.015842 236.5887 
L 82.022227 236.481698 
L 82.226544 236.374697 
L 82.296778 236.160695 
L 82.596868 236.053694 
L 82.679871 235.893192 
L 82.801184 235.786191 
L 82.903343 235.518688 
L 82.979961 235.411686 
L 83.037425 235.037182 
L 83.133199 235.037182 
L 83.145969 234.82318 
L 83.286436 234.716179 
L 83.337516 234.502176 
L 83.471598 234.395175 
L 83.580142 234.020671 
L 83.6823 233.913669 
L 83.746149 233.699667 
L 83.861077 233.592666 
L 83.886617 233.432164 
L 84.001545 233.325163 
L 84.097318 233.164661 
L 84.288865 233.05766 
L 84.384638 232.843657 
L 84.429333 232.790157 
L 84.518721 232.469153 
L 84.588955 232.362152 
L 84.697498 232.094649 
L 84.735808 231.987648 
L 84.825196 231.666644 
L 84.946509 231.559643 
L 85.023128 231.185139 
L 85.131671 231.078138 
L 85.131671 231.024637 
L 85.297679 230.971136 
L 85.399837 230.543131 
L 85.431761 230.489631 
L 85.501995 230.168627 
L 85.610539 230.061626 
L 85.706312 229.847624 
L 85.802085 229.740622 
L 85.891474 229.366118 
L 86.070251 229.259117 
L 86.178794 228.563609 
L 86.306492 228.510109 
L 86.408651 228.242606 
L 86.517194 228.135604 
L 86.581043 227.868101 
L 86.657661 227.7611 
L 86.715126 227.600598 
L 86.842823 227.493597 
L 86.900287 227.172593 
L 87.021601 227.065592 
L 87.04714 226.958591 
L 87.193993 226.90509 
L 87.302536 226.477086 
L 87.532392 226.370084 
L 87.621781 226.209583 
L 87.755864 226.102581 
L 87.826097 225.781578 
L 88.024029 225.674577 
L 88.126188 225.407074 
L 88.349659 225.300072 
L 88.451817 225.032569 
L 88.496511 224.925568 
L 88.5859 224.551064 
L 88.726368 224.444063 
L 88.822141 224.123059 
L 89.007303 224.016058 
L 89.103077 223.802055 
L 89.17331 223.695054 
L 89.243544 223.534552 
L 89.415936 223.427551 
L 89.52448 223.160048 
L 89.569174 223.053047 
L 89.594714 222.892545 
L 89.709642 222.785544 
L 89.8118 222.357539 
L 89.945883 222.250538 
L 90.028887 222.090036 
L 90.156584 221.983035 
L 90.245973 221.769033 
L 90.341746 221.662031 
L 90.431135 221.234027 
L 90.514139 221.127025 
L 90.590757 220.966524 
L 90.826998 220.859522 
L 90.826998 220.752521 
L 91.082394 220.64552 
L 91.184553 220.431517 
L 91.3761 220.324516 
L 91.446333 220.110514 
L 91.657035 220.003513 
L 91.759193 219.896511 
L 91.842197 219.78951 
L 91.95074 219.415006 
L 92.014589 219.308005 
L 92.052899 219.201004 
L 92.301909 219.147503 
L 92.397683 218.826499 
L 92.512611 218.719498 
L 92.602 218.451995 
L 92.691388 218.344994 
L 92.774392 218.077491 
L 93.004248 217.97049 
L 93.068097 217.809988 
L 93.227719 217.702987 
L 93.336263 217.381983 
L 93.393727 217.328483 
L 93.419266 217.007479 
L 93.604428 216.900478 
L 93.668277 216.793476 
L 93.910903 216.686475 
L 93.981137 216.365472 
L 94.121605 216.25847 
L 94.217378 216.044468 
L 94.370616 215.937467 
L 94.466389 215.616463 
L 94.549393 215.509462 
L 94.638781 215.134958 
L 94.792019 215.027957 
L 94.875023 214.813954 
L 95.034645 214.706953 
L 95.143188 214.332449 
L 95.309195 214.225448 
L 95.360275 214.011445 
L 95.577361 213.904444 
L 95.583746 213.743942 
L 95.743368 213.636941 
L 95.819987 213.422938 
L 95.9413 213.369438 
L 96.017919 213.155435 
L 96.26693 213.101935 
L 96.26693 212.994934 
L 96.413782 212.887932 
L 96.509556 212.780931 
L 96.764952 212.67393 
L 96.847955 212.406427 
L 96.969268 212.299426 
L 97.052272 212.138924 
L 97.301283 212.031923 
L 97.358747 211.924922 
L 97.709916 211.81792 
L 97.754611 211.496917 
L 97.971697 211.389916 
L 98.06747 211.229414 
L 98.163244 211.122413 
L 98.252632 210.961911 
L 98.43141 210.85491 
L 98.514413 210.533906 
L 98.597417 210.426905 
L 98.680421 210.0524 
L 98.814503 209.945399 
L 98.923047 209.838398 
L 99.063514 209.731397 
L 99.146518 209.463894 
L 99.261446 209.356893 
L 99.325295 209.196391 
L 99.555151 209.08939 
L 99.555151 209.035889 
L 99.836087 208.928888 
L 99.925475 208.768386 
L 100.110637 208.661385 
L 100.187256 208.500883 
L 100.461806 208.393882 
L 100.519271 208.179879 
L 100.761897 208.126379 
L 100.83213 207.912376 
L 101.004523 207.805375 
L 101.113066 207.644873 
L 101.272688 207.537872 
L 101.291843 207.37737 
L 101.406771 207.270369 
L 101.515314 206.949366 
L 101.566393 206.895865 
L 101.636627 206.574861 
L 101.726016 206.46786 
L 101.78348 206.253858 
L 101.923948 206.146856 
L 101.987797 205.986355 
L 102.121879 205.879353 
L 102.121879 205.825853 
L 102.313426 205.718852 
L 102.390045 205.183846 
L 102.575207 205.076844 
L 102.575207 205.023344 
L 102.939146 204.916343 
L 103.047689 204.70234 
L 103.130693 204.64884 
L 103.226466 204.327836 
L 103.328625 204.220835 
L 103.392474 203.953332 
L 103.59679 203.846331 
L 103.667024 203.525327 
L 103.813877 203.418326 
L 103.89688 203.204323 
L 104.005424 203.150823 
L 104.101197 202.88332 
L 104.152276 202.776318 
L 104.22251 202.615817 
L 104.420442 202.508815 
L 104.516215 202.187812 
L 104.631144 202.080811 
L 104.663068 201.920309 
L 104.950388 201.813308 
L 105.046162 201.438803 
L 105.442025 201.331802 
L 105.499489 201.224801 
L 105.582493 201.1178 
L 105.614418 201.010799 
L 105.933662 200.903797 
L 106.042206 200.529293 
L 106.214598 200.422292 
L 106.233752 200.315291 
L 106.463609 200.20829 
L 106.463609 200.154789 
L 106.795623 200.047788 
L 106.897782 199.940786 
L 107.134023 199.833785 
L 107.242566 199.512782 
L 107.280875 199.40578 
L 107.363879 199.138277 
L 107.510732 199.031276 
L 107.619275 198.870774 
L 107.772512 198.817274 
L 107.823592 198.656772 
L 108.027908 198.549771 
L 108.027908 198.49627 
L 108.206685 198.389269 
L 108.264149 198.228767 
L 108.417387 198.175267 
L 108.52593 197.907764 
L 108.723862 197.800762 
L 108.82602 197.640261 
L 108.85156 197.533259 
L 108.928179 197.372758 
L 109.068646 197.265756 
L 109.16442 197.105255 
L 109.343197 196.998253 
L 109.394276 196.891252 
L 109.490049 196.784251 
L 109.560283 196.516748 
L 109.675211 196.409747 
L 109.783755 196.249245 
L 109.866758 196.142244 
L 109.943377 196.035242 
L 110.071075 195.928241 
L 110.141309 195.767739 
L 110.217927 195.660738 
L 110.326471 195.446736 
L 110.371165 195.393235 
L 110.371165 195.286234 
L 110.620176 195.232733 
L 110.696795 195.018731 
L 110.901111 194.91173 
L 110.996885 194.590726 
L 111.067119 194.483725 
L 111.137352 194.376724 
L 111.284205 194.269723 
L 111.373594 194.109221 
L 111.507676 194.00222 
L 111.61622 193.734717 
L 111.660914 193.627715 
L 111.724763 193.413713 
L 111.858846 193.306712 
L 111.948234 193.14621 
L 112.22917 193.039209 
L 112.305788 192.932207 
L 112.382407 192.825206 
L 112.459026 192.557703 
L 112.733576 192.450702 
L 112.80381 192.2367 
L 113.046436 192.129698 
L 113.065591 191.969197 
L 113.372066 191.862195 
L 113.384836 191.755194 
L 113.684926 191.648193 
L 113.787084 191.327189 
L 113.882858 191.220188 
L 113.940322 191.113187 
L 114.119099 191.006186 
L 114.157408 190.899185 
L 114.400034 190.792183 
L 114.431959 190.631682 
L 114.795898 190.52468 
L 114.885286 190.310678 
L 115.032139 190.203677 
L 115.108758 189.936174 
L 115.217301 189.829172 
L 115.25561 189.722171 
L 115.357769 189.61517 
L 115.428003 189.508169 
L 115.657859 189.401168 
L 115.708938 189.294166 
L 116.028183 189.187165 
L 116.053722 189.080164 
L 116.20696 188.973163 
L 116.315503 188.866162 
L 116.49428 188.75916 
L 116.590054 188.438157 
L 116.756061 188.331156 
L 116.83268 188.117153 
L 116.992302 188.010152 
L 117.081691 187.689148 
L 117.209389 187.582147 
L 117.266853 187.421645 
L 117.458399 187.314644 
L 117.554173 187.100642 
L 117.598867 186.993641 
L 117.630792 186.886639 
L 117.726565 186.779638 
L 117.809569 186.619136 
L 117.892572 186.512135 
L 117.969191 186.298133 
L 118.301206 186.191131 
L 118.35867 186.08413 
L 118.537447 185.977129 
L 118.614066 185.709626 
L 118.716224 185.602625 
L 118.818382 185.495624 
L 118.869461 185.442123 
L 118.93331 185.281621 
L 119.009929 185.17462 
L 119.054623 184.907117 
L 119.278095 184.800116 
L 119.367483 184.479112 
L 119.642034 184.372111 
L 119.642034 184.26511 
L 119.916584 184.158109 
L 120.012358 183.890606 
L 120.274139 183.783604 
L 120.331603 183.623103 
L 120.52315 183.516101 
L 120.567844 183.4091 
L 120.855164 183.3556 
L 120.899858 183.141597 
L 121.046711 183.034596 
L 121.12333 182.767093 
L 121.314877 182.660092 
L 121.417035 182.49959 
L 121.595812 182.392589 
L 121.685201 182.071585 
L 121.838438 182.018084 
L 121.876747 181.750581 
L 122.0236 181.64358 
L 122.125758 181.376077 
L 122.451388 181.269076 
L 122.553546 181.108574 
L 122.757863 181.001573 
L 122.860021 180.627069 
L 122.968565 180.573568 
L 123.070723 180.413066 
L 123.166496 180.306065 
L 123.223961 180.199064 
L 123.453817 180.092063 
L 123.53682 179.931561 
L 123.785831 179.82456 
L 123.84968 179.557057 
L 124.130616 179.450055 
L 124.239159 179.236053 
L 124.290238 179.129052 
L 124.386012 178.96855 
L 124.50094 178.861549 
L 124.564789 178.647546 
L 124.647792 178.594046 
L 124.718026 178.326543 
L 124.935113 178.219542 
L 125.037271 178.005539 
L 125.139429 177.898538 
L 125.190508 177.791537 
L 125.382055 177.684536 
L 125.471444 177.577534 
L 125.611912 177.470533 
L 125.650221 177.363532 
L 125.924772 177.256531 
L 126.020545 177.14953 
L 126.263171 177.042528 
L 126.33979 176.882027 
L 126.416408 176.775025 
L 126.467488 176.668024 
L 126.65265 176.561023 
L 126.722884 176.400521 
L 126.971894 176.29352 
L 127.022974 176.133018 
L 127.329449 176.079517 
L 127.374143 175.812014 
L 127.667848 175.705013 
L 127.667848 175.651513 
L 127.961553 175.544511 
L 128.057327 175.277008 
L 128.1531 175.170007 
L 128.197794 175.009505 
L 128.395726 174.902504 
L 128.497885 174.688502 
L 128.612813 174.581501 
L 128.612813 174.528 
L 128.957597 174.420999 
L 129.021446 174.313998 
L 129.193838 174.206996 
L 129.257687 173.939493 
L 129.513083 173.832492 
L 129.545008 173.725491 
L 129.70463 173.61849 
L 129.755709 173.511489 
L 130.043029 173.404487 
L 130.087724 173.136984 
L 130.253731 173.029983 
L 130.355889 172.869481 
L 130.521897 172.76248 
L 130.61767 172.441476 
L 130.662364 172.387976 
L 130.732598 172.227474 
L 131.007149 172.120473 
L 131.102922 171.799469 
L 131.56902 171.692468 
L 131.652023 171.424965 
L 131.888264 171.317964 
L 131.964883 171.050461 
L 132.226664 170.99696 
L 132.335207 170.729457 
L 132.450135 170.622456 
L 132.450135 170.568955 
L 132.826844 170.461954 
L 132.890693 170.354953 
L 133.197168 170.247952 
L 133.197168 170.194451 
L 133.331251 170.08745 
L 133.40787 169.980449 
L 133.746269 169.926948 
L 133.835658 169.766446 
L 133.937816 169.659445 
L 133.99528 169.445443 
L 134.359219 169.338441 
L 134.359219 169.284941 
L 134.601845 169.17794 
L 134.684849 168.963937 
L 134.787007 168.856936 
L 134.889165 168.589433 
L 134.959399 168.482432 
L 135.036018 168.375431 
L 135.431882 168.268429 
L 135.489346 168.161428 
L 135.680893 168.054427 
L 135.763896 167.893925 
L 135.853285 167.786924 
L 135.917134 167.572922 
L 136.038447 167.46592 
L 136.070371 167.358919 
L 136.236378 167.251918 
L 136.236378 167.198417 
L 136.42154 167.091416 
L 136.44708 166.930914 
L 136.619472 166.823913 
L 136.715246 166.50291 
L 136.811019 166.395908 
L 136.906793 166.128405 
L 137.053645 166.021404 
L 137.149419 165.860902 
L 137.302656 165.753901 
L 137.404814 165.593399 
L 137.500588 165.539899 
L 137.558052 165.379397 
L 137.845372 165.272396 
L 137.934761 165.111894 
L 138.107153 165.004893 
L 138.209311 164.73739 
L 138.330624 164.683889 
L 138.420013 164.469887 
L 138.592405 164.362885 
L 138.61156 164.255884 
L 138.758412 164.148883 
L 138.860571 163.88138 
L 139.045733 163.774379 
L 139.045733 163.720878 
L 139.333053 163.613877 
L 139.441596 163.346374 
L 139.652298 163.239373 
L 139.754456 163.02537 
L 139.920463 162.918369 
L 140.009852 162.650866 
L 140.316327 162.543865 
L 140.367406 162.436864 
L 140.571723 162.329862 
L 140.571723 162.276362 
L 140.814349 162.169361 
L 140.827119 162.062359 
L 141.210212 162.008859 
L 141.280446 161.687855 
L 141.433684 161.634355 
L 141.510303 161.420352 
L 141.791238 161.313351 
L 141.861472 161.045848 
L 142.059404 160.938847 
L 142.097713 160.617843 
L 142.30203 160.510842 
L 142.321184 160.403841 
L 142.480807 160.29684 
L 142.480807 160.243339 
L 142.742587 160.243339 
L 142.806436 159.975836 
L 143.010753 159.868835 
L 143.049062 159.761834 
L 143.278919 159.654832 
L 143.387462 159.44083 
L 143.521545 159.333829 
L 143.553469 159.226828 
L 143.78971 159.119826 
L 143.78971 159.066326 
L 143.968487 158.959324 
L 144.051491 158.798823 
L 144.306887 158.691821 
L 144.306887 158.638321 
L 144.511204 158.53132 
L 144.594207 158.370818 
L 144.894297 158.263817 
L 144.938992 158.156815 
L 145.047535 158.103315 
L 145.117769 157.889312 
L 145.392319 157.782311 
L 145.494478 157.461308 
L 145.647715 157.354306 
L 145.647715 157.300806 
L 145.826492 157.193805 
L 145.858417 157.033303 
L 146.024424 156.979802 
L 146.107428 156.712299 
L 146.298974 156.605298 
L 146.388363 156.391296 
L 146.688453 156.284294 
L 146.739532 156.177293 
L 147.097086 156.070292 
L 147.18009 155.85629 
L 147.282248 155.749288 
L 147.378022 155.588786 
L 147.461026 155.481785 
L 147.461026 155.428285 
L 147.978202 155.321283 
L 148.010127 155.214282 
L 148.335756 155.107281 
L 148.374066 155.00028 
L 148.616692 154.893279 
L 148.699695 154.786277 
L 148.955091 154.679276 
L 148.980631 154.572275 
L 149.421189 154.465274 
L 149.491422 154.304772 
L 149.682969 154.197771 
L 149.791513 153.983768 
L 150.117142 153.876767 
L 150.200146 153.716265 
L 150.334229 153.609264 
L 150.359768 153.448762 
L 150.730092 153.341761 
L 150.730092 153.288261 
L 150.908869 153.181259 
L 150.991873 153.020758 
L 151.151495 152.913756 
L 151.151495 152.860256 
L 151.323888 152.753255 
L 151.426046 152.592753 
L 151.515434 152.485752 
L 151.521819 152.37875 
L 151.79637 152.271749 
L 151.79637 152.218248 
L 152.205003 152.111247 
L 152.294392 151.897245 
L 152.651946 151.790244 
L 152.651946 151.736743 
L 152.939266 151.629742 
L 152.977576 151.46924 
L 153.290436 151.362239 
L 153.315975 151.255238 
L 153.507522 151.148236 
L 153.577756 150.987735 
L 153.775688 150.880733 
L 153.884231 150.720232 
L 153.967234 150.61323 
L 153.967234 150.55973 
L 154.114087 150.55973 
L 154.152396 150.292227 
L 154.375868 150.185226 
L 154.375868 150.131725 
L 154.644033 150.024724 
L 154.746192 149.864222 
L 155.033512 149.757221 
L 155.13567 149.489718 
L 155.403836 149.382717 
L 155.49961 149.222215 
L 156.144484 149.115214 
L 156.170024 148.901211 
L 156.546732 148.79421 
L 156.655276 148.580207 
L 156.71274 148.473206 
L 156.770204 148.366205 
L 156.910672 148.259204 
L 157.019215 147.991701 
L 157.434233 147.8847 
L 157.542776 147.777698 
L 157.798172 147.670697 
L 157.874791 147.510195 
L 158.066338 147.403194 
L 158.174881 147.189192 
L 158.398352 147.082191 
L 158.398352 147.02869 
L 158.583514 146.921689 
L 158.692057 146.707686 
L 159.068766 146.600685 
L 159.087921 146.440183 
L 159.330547 146.333182 
L 159.413551 146.11918 
L 159.617867 146.065679 
L 159.668947 145.798176 
L 160.243587 145.691175 
L 160.288281 145.530673 
L 160.556447 145.423672 
L 160.556447 145.370171 
L 160.799073 145.26317 
L 160.850152 145.102668 
L 161.073624 144.995667 
L 161.073624 144.942166 
L 161.29071 144.835165 
L 161.29071 144.781665 
L 161.686574 144.674663 
L 161.775962 144.460661 
L 162.063283 144.35366 
L 162.159056 144.086157 
L 162.452761 143.979156 
L 162.54215 143.818654 
L 162.957168 143.711653 
L 162.957168 143.658152 
L 163.206179 143.551151 
L 163.206179 143.49765 
L 163.512654 143.390649 
L 163.608427 143.176647 
L 163.710586 143.069645 
L 163.799974 142.855643 
L 164.208608 142.748642 
L 164.297996 142.58814 
L 164.381 142.534639 
L 164.483158 142.374138 
L 164.962025 142.267136 
L 164.962025 142.213636 
L 165.204651 142.106634 
L 165.287655 141.999633 
L 165.900605 141.892632 
L 166.009148 141.73213 
L 166.175156 141.625129 
L 166.23262 141.518128 
L 166.398627 141.411127 
L 166.50717 141.250625 
L 166.749796 141.143624 
L 166.813645 141.036622 
L 166.915803 140.929621 
L 166.915803 140.876121 
L 167.43298 140.769119 
L 167.541523 140.501616 
L 167.567063 140.501616 
L 167.611757 140.234113 
L 167.752225 140.127112 
L 167.828844 139.96661 
L 168.014006 139.859609 
L 168.07147 139.752608 
L 168.237477 139.645607 
L 168.294941 139.538606 
L 168.454563 139.431604 
L 168.531182 139.324603 
L 168.748269 139.217602 
L 168.748269 139.110601 
L 169.437837 139.0036 
L 169.546381 138.789597 
L 169.757082 138.682596 
L 169.859241 138.522094 
L 170.504115 138.415093 
L 170.504115 138.361592 
L 170.931903 138.254591 
L 170.931903 138.20109 
L 171.257533 138.094089 
L 171.314997 137.933587 
L 171.43631 137.826586 
L 171.442695 137.719585 
L 171.902407 137.612584 
L 171.966256 137.398581 
L 172.419584 137.29158 
L 172.470663 137.184579 
L 172.687749 137.077578 
L 172.687749 137.024077 
L 172.9623 136.917076 
L 173.070843 136.703074 
L 173.147462 136.596072 
L 173.147462 136.542572 
L 173.422012 136.435571 
L 173.422012 136.38207 
L 173.760412 136.275069 
L 173.817876 136.168068 
L 174.086042 136.061066 
L 174.143506 135.847064 
L 174.296743 135.793563 
L 174.296743 135.686562 
L 174.545754 135.579561 
L 174.603218 135.419059 
L 174.81392 135.312058 
L 174.839459 135.205057 
L 175.018236 135.098055 
L 175.11401 134.884053 
L 175.318327 134.777052 
L 175.4141 134.61655 
L 175.522643 134.509549 
L 175.605647 134.349047 
L 175.73973 134.242046 
L 175.809964 134.081544 
L 176.02705 133.974543 
L 176.046205 133.814041 
L 176.346295 133.70704 
L 176.435683 133.600039 
L 176.646385 133.493037 
L 176.646385 133.439537 
L 177.118867 133.332536 
L 177.201871 133.172034 
L 177.572195 133.065033 
L 177.591349 132.958031 
L 177.795666 132.904531 
L 177.802051 132.744029 
L 177.974443 132.637028 
L 178.031907 132.476526 
L 178.287303 132.369525 
L 178.300073 132.262524 
L 178.734246 132.155522 
L 178.81725 132.048521 
L 179.11734 131.94152 
L 179.200343 131.834519 
L 179.4302 131.727517 
L 179.4302 131.674017 
L 179.794139 131.567016 
L 179.819678 131.460014 
L 180.100614 131.353013 
L 180.100614 131.299513 
L 180.375164 131.192511 
L 180.400704 131.03201 
L 180.892341 130.925008 
L 180.892341 130.871508 
L 181.224355 130.764507 
L 181.249895 130.657505 
L 181.454212 130.604005 
L 181.549985 130.443503 
L 181.741532 130.336502 
L 181.805381 130.176 
L 182.335327 130.068999 
L 182.431101 129.854996 
L 182.629032 129.747995 
L 182.629032 129.640994 
L 182.878043 129.533993 
L 182.954662 129.31999 
L 183.139824 129.212989 
L 183.235598 129.105988 
L 183.452684 128.998987 
L 183.465454 128.838485 
L 183.663386 128.731484 
L 183.663386 128.677983 
L 184.116713 128.570982 
L 184.225256 128.249978 
L 184.3338 128.142977 
L 184.340185 128.035976 
L 184.614735 127.928975 
L 184.710508 127.821973 
L 184.831821 127.768473 
L 184.902055 127.55447 
L 185.068063 127.447469 
L 185.176606 127.286967 
L 185.457541 127.179966 
L 185.457541 127.126466 
L 185.674628 127.019464 
L 185.751247 126.805462 
L 186.102416 126.698461 
L 186.17265 126.537959 
L 186.530204 126.430958 
L 186.530204 126.377457 
L 186.932452 126.270456 
L 186.945222 126.163455 
L 187.590097 126.056454 
L 187.66033 125.895952 
L 187.896572 125.788951 
L 187.98596 125.628449 
L 188.203047 125.521448 
L 188.203047 125.467947 
L 188.471212 125.360946 
L 188.560601 125.253945 
L 188.637219 125.146943 
L 188.643604 124.986441 
L 188.790457 124.87944 
L 188.854306 124.772439 
L 189.160781 124.665438 
L 189.192705 124.558437 
L 189.365098 124.451435 
L 189.422562 124.344434 
L 189.658803 124.237433 
L 189.722652 124.076931 
L 189.939738 123.96993 
L 190.048281 123.809428 
L 190.278138 123.702427 
L 190.373911 123.434924 
L 190.642077 123.381423 
L 190.75062 123.220922 
L 190.923012 123.11392 
L 191.018786 122.953419 
L 191.159253 122.846417 
L 191.223102 122.739416 
L 191.478498 122.632415 
L 191.548732 122.418413 
L 191.784973 122.311411 
L 191.867977 122.15091 
L 192.053139 122.043908 
L 192.148912 121.883407 
L 192.251071 121.776405 
L 192.251071 121.722905 
L 192.557546 121.615903 
L 192.557546 121.508902 
L 192.88956 121.401901 
L 192.985334 121.241399 
L 193.266269 121.134398 
L 193.330118 121.027397 
L 193.534435 120.920396 
L 193.534435 120.866895 
L 193.796215 120.813394 
L 193.879219 120.599392 
L 193.949453 120.492391 
L 194.000532 120.38539 
L 194.192079 120.278388 
L 194.262313 120.117887 
L 194.409165 120.010885 
L 194.409165 119.957385 
L 194.72841 119.850384 
L 194.72841 119.796883 
L 194.964651 119.689882 
L 194.964651 119.582881 
L 195.64145 119.475879 
L 195.64145 119.422379 
L 196.29271 119.315378 
L 196.394868 119.101375 
L 196.637494 118.994374 
L 196.663034 118.887373 
L 197.109976 118.780372 
L 197.109976 118.726871 
L 197.352602 118.61987 
L 197.422836 118.459368 
L 197.978322 118.352367 
L 198.080481 118.245366 
L 198.252873 118.138364 
L 198.252873 118.084864 
L 198.642351 117.977862 
L 198.655121 117.870861 
L 199.00629 117.76386 
L 199.00629 117.710359 
L 199.33192 117.603358 
L 199.34469 117.442856 
L 199.574546 117.335855 
L 199.65755 117.228854 
L 199.772478 117.175353 
L 199.849097 117.014852 
L 200.576975 116.90785 
L 200.672748 116.693848 
L 200.953684 116.586847 
L 201.049457 116.479846 
L 201.272929 116.372844 
L 201.272929 116.319344 
L 202.128505 116.212343 
L 202.128505 116.158842 
L 202.339206 116.051841 
L 202.39667 115.94484 
L 202.74784 115.837838 
L 202.786149 115.730837 
L 202.990466 115.623836 
L 202.990466 115.570335 
L 203.124548 115.463334 
L 203.124548 115.356333 
L 203.456563 115.249332 
L 203.526797 115.08883 
L 203.628955 115.035329 
L 203.718344 114.821327 
L 203.884351 114.714326 
L 203.884351 114.660825 
L 204.356833 114.553824 
L 204.439837 114.339821 
L 204.816546 114.23282 
L 204.893165 114.018818 
L 205.237949 113.911817 
L 205.333722 113.697814 
L 205.608273 113.590813 
L 205.614658 113.430311 
L 206.125449 113.32331 
L 206.157374 113.216309 
L 206.278687 113.109308 
L 206.323381 113.002306 
L 206.534083 112.895305 
L 206.636241 112.734803 
L 207.019335 112.627802 
L 207.070414 112.4138 
L 207.274731 112.4138 
L 207.344965 112.199797 
L 207.728058 112.092796 
L 207.836602 111.985795 
L 208.002609 111.878794 
L 208.008994 111.771793 
L 208.462321 111.664791 
L 208.558095 111.55779 
L 208.730487 111.450789 
L 208.730487 111.397288 
L 208.979498 111.290287 
L 208.979498 111.236786 
L 209.317897 111.129785 
L 209.324282 111.022784 
L 210.039391 110.915783 
L 210.135164 110.755281 
L 210.371405 110.64828 
L 210.371405 110.594779 
L 210.958816 110.487778 
L 211.060974 110.380777 
L 211.31637 110.273776 
L 211.31637 110.220275 
L 211.59092 110.113274 
L 211.654769 110.006273 
L 211.94209 109.899271 
L 211.961244 109.73877 
L 212.171946 109.685269 
L 212.248565 109.417766 
L 212.925364 109.310765 
L 212.995598 109.203764 
L 213.263763 109.096762 
L 213.263763 109.043262 
L 213.79371 108.936261 
L 213.876713 108.775759 
L 214.106569 108.668758 
L 214.195958 108.561756 
L 214.834448 108.454755 
L 214.917451 108.347754 
L 215.453782 108.240753 
L 215.453782 108.187252 
L 216.041193 108.080251 
L 216.041193 107.97325 
L 216.398747 107.866248 
L 216.481751 107.759247 
L 216.896769 107.652246 
L 216.973388 107.491744 
L 217.45864 107.384743 
L 217.548028 107.277742 
L 218.039665 107.170741 
L 218.148209 106.849737 
L 218.429144 106.742736 
L 218.492993 106.635735 
L 218.588766 106.528733 
L 218.588766 106.475233 
L 218.850547 106.368232 
L 218.850547 106.314731 
L 219.182562 106.20773 
L 219.188947 106.100729 
L 219.680584 105.993727 
L 219.680584 105.940227 
L 220.267994 105.833226 
L 220.312688 105.726224 
L 220.84902 105.619223 
L 220.893714 105.512222 
L 221.532203 105.405221 
L 221.532203 105.35172 
L 221.947222 105.244719 
L 222.055765 105.137718 
L 222.368625 105.030717 
L 222.368625 104.977216 
L 222.764488 104.870215 
L 222.764488 104.816714 
L 223.045424 104.709713 
L 223.141197 104.49571 
L 223.434902 104.388709 
L 223.530676 104.174707 
L 223.786072 104.067706 
L 223.837151 103.960704 
L 224.073392 103.853703 
L 224.073392 103.746702 
L 224.328788 103.639701 
L 224.328788 103.5862 
L 224.667187 103.479199 
L 224.731036 103.372198 
L 224.992817 103.265197 
L 224.992817 103.211696 
L 225.375911 103.104695 
L 225.45253 102.890692 
L 225.784544 102.783691 
L 225.842008 102.569689 
L 226.269796 102.462688 
L 226.359185 102.302186 
L 226.991289 102.195185 
L 227.029599 101.981182 
L 227.5787 101.874181 
L 227.5787 101.82068 
L 227.827711 101.713679 
L 227.827711 101.660179 
L 228.223574 101.553177 
L 228.255499 101.446176 
L 228.689672 101.339175 
L 228.798215 101.232174 
L 229.155769 101.125172 
L 229.155769 101.071672 
L 229.506938 100.964671 
L 229.506938 100.91117 
L 229.71764 100.804169 
L 229.74318 100.697168 
L 230.0305 100.590166 
L 230.04327 100.483165 
L 230.394439 100.376164 
L 230.458288 100.269163 
L 230.803072 100.162162 
L 230.860536 100.05516 
L 231.052083 99.948159 
L 231.058468 99.841158 
L 231.307479 99.734157 
L 231.358558 99.627156 
L 232.054512 99.520154 
L 232.080051 99.413153 
L 232.686617 99.306152 
L 232.750466 99.199151 
L 232.884548 99.09215 
L 232.922858 98.985148 
L 233.133559 98.878147 
L 233.178254 98.771146 
L 233.548578 98.664145 
L 233.548578 98.610644 
L 233.861437 98.503643 
L 233.861437 98.450142 
L 234.110448 98.343141 
L 234.174297 98.23614 
L 234.423308 98.129139 
L 234.499927 97.915136 
L 235.093722 97.808135 
L 235.176726 97.594133 
L 235.25973 97.487131 
L 235.25973 97.433631 
L 235.457661 97.32663 
L 235.508741 97.219628 
L 235.910989 97.112627 
L 235.910989 97.059127 
L 236.211079 96.952125 
L 236.211079 96.898625 
L 236.428166 96.791624 
L 236.523939 96.577621 
L 236.76018 96.47062 
L 236.862339 96.363619 
L 237.168814 96.256618 
L 237.239047 96.149616 
L 237.615756 96.042615 
L 237.615756 95.989115 
L 237.890307 95.882113 
L 237.954156 95.775112 
L 238.28617 95.668111 
L 238.28617 95.61461 
L 238.579876 95.507609 
L 238.688419 95.293607 
L 239.141746 95.186606 
L 239.167286 95.079604 
L 239.339678 94.972603 
L 239.346063 94.865602 
L 239.690847 94.758601 
L 239.690847 94.7051 
L 239.939858 94.598099 
L 240.029247 94.384097 
L 240.47619 94.277095 
L 240.47619 94.223595 
L 241.006136 94.116593 
L 241.101909 93.956092 
L 241.261532 93.84909 
L 241.261532 93.79559 
L 241.68932 93.688589 
L 241.68932 93.635088 
L 242.27673 93.528087 
L 242.27673 93.474586 
L 242.730058 93.367585 
L 242.730058 93.314084 
L 243.017378 93.260584 
L 243.017378 93.153583 
L 243.291929 93.046581 
L 243.291929 92.993081 
L 244.019807 92.88608 
L 244.019807 92.832579 
L 244.41567 92.725578 
L 244.492289 92.618577 
L 245.201013 92.511575 
L 245.232937 92.351074 
L 245.462793 92.244072 
L 245.475563 92.137071 
L 245.737344 92.03007 
L 245.756499 91.923069 
L 246.177902 91.816068 
L 246.177902 91.762567 
L 246.701463 91.655566 
L 246.701463 91.602065 
L 247.161176 91.495064 
L 247.161176 91.441563 
L 247.876284 91.334562 
L 247.965673 91.17406 
L 248.329612 91.067059 
L 248.329612 91.013559 
L 248.738245 90.906557 
L 248.738245 90.853057 
L 249.095799 90.746055 
L 249.095799 90.692555 
L 249.676825 90.585554 
L 249.676825 90.532053 
L 250.130152 90.425052 
L 250.162077 90.318051 
L 250.449397 90.211049 
L 250.449397 90.157549 
L 250.806951 90.050548 
L 250.806951 89.997047 
L 252.08393 89.890046 
L 252.103085 89.783045 
L 252.498949 89.676043 
L 252.498949 89.622543 
L 252.875658 89.515542 
L 252.875658 89.462041 
L 253.386449 89.35504 
L 253.405604 89.194538 
L 253.577996 89.087537 
L 253.67377 88.873534 
L 253.929165 88.766533 
L 253.980245 88.659532 
L 254.210101 88.552531 
L 254.27395 88.44553 
L 254.535731 88.392029 
L 254.631504 88.071025 
L 254.867745 87.964024 
L 254.957134 87.750022 
L 255.455156 87.643021 
L 255.563699 87.482519 
L 256.374581 87.375517 
L 256.40012 87.268516 
L 257.089689 87.161515 
L 257.115228 87.001013 
L 257.3387 86.894012 
L 257.345085 86.787011 
L 257.63879 86.68001 
L 257.63879 86.626509 
L 258.072963 86.519508 
L 258.136812 86.412507 
L 258.430517 86.305505 
L 258.430517 86.252005 
L 258.756147 86.145004 
L 258.756147 86.091503 
L 259.311633 85.984502 
L 259.337172 85.877501 
L 259.624493 85.770499 
L 259.650032 85.663498 
L 259.930968 85.556497 
L 259.930968 85.502996 
L 261.29095 85.395995 
L 261.367569 85.288994 
L 261.750663 85.181993 
L 261.859206 85.021491 
L 262.031598 84.91449 
L 262.031598 84.860989 
L 262.433847 84.753988 
L 262.465771 84.646987 
L 262.797786 84.539986 
L 262.906329 84.218982 
L 263.148955 84.111981 
L 263.200034 84.004979 
L 263.812984 83.897978 
L 263.812984 83.844478 
L 264.611096 83.737476 
L 264.636636 83.630475 
L 264.821798 83.523474 
L 264.930341 83.362972 
L 265.428363 83.255971 
L 265.485827 83.095469 
L 265.977464 82.988468 
L 265.977464 82.934967 
L 266.852195 82.827966 
L 266.941583 82.667464 
L 267.165055 82.560463 
L 267.273598 82.399961 
L 267.682231 82.29296 
L 267.790775 82.132458 
L 268.486728 82.025457 
L 268.512268 81.918456 
L 268.748509 81.811455 
L 268.837897 81.650953 
L 269.118833 81.543952 
L 269.118833 81.490451 
L 269.470002 81.38345 
L 269.470002 81.329949 
L 269.770092 81.222948 
L 269.770092 81.169448 
L 270.070182 81.062446 
L 270.165956 80.901945 
L 270.555434 80.794943 
L 270.555434 80.741443 
L 270.746981 80.634441 
L 270.746981 80.580941 
L 271.283313 80.47394 
L 271.283313 80.420439 
L 271.666406 80.313438 
L 271.666406 80.259937 
L 272.132504 80.152936 
L 272.151658 80.045935 
L 272.37513 79.938934 
L 272.451749 79.831932 
L 272.681605 79.724931 
L 272.681605 79.671431 
L 273.058314 79.564429 
L 273.134932 79.457428 
L 273.409483 79.350427 
L 273.409483 79.296926 
L 274.961013 79.189925 
L 274.961013 79.136425 
L 275.503729 79.029423 
L 275.612272 78.868922 
L 275.816589 78.76192 
L 275.925132 78.601419 
L 276.135834 78.494417 
L 276.135834 78.440917 
L 276.333765 78.333916 
L 276.391229 78.226914 
L 277.208496 78.119913 
L 277.208496 78.066413 
L 277.495816 77.959411 
L 277.502201 77.85241 
L 278.147076 77.745409 
L 278.185385 77.638408 
L 278.364162 77.531407 
L 278.364162 77.477906 
L 278.689792 77.424405 
L 278.689792 77.317404 
L 279.436825 77.210403 
L 279.436825 77.103402 
L 279.890152 76.9964 
L 279.890152 76.889399 
L 280.100854 76.782398 
L 280.100854 76.728897 
L 280.490333 76.675397 
L 280.560566 76.514895 
L 280.720189 76.407894 
L 280.720189 76.354393 
L 281.013894 76.247392 
L 281.013894 76.193891 
L 281.365063 76.08689 
L 281.365063 76.03339 
L 281.601304 75.926388 
L 281.690693 75.765887 
L 282.061017 75.658885 
L 282.061017 75.605385 
L 282.418571 75.498384 
L 282.527114 75.391382 
L 282.801665 75.284381 
L 282.846359 75.17738 
L 283.542313 75.070379 
L 283.555083 74.963378 
L 283.925407 74.856376 
L 283.957331 74.695875 
L 284.327655 74.588873 
L 284.327655 74.535373 
L 284.832062 74.428372 
L 284.883141 74.26787 
L 285.611019 74.160869 
L 285.662098 74.053867 
L 286.16012 73.946866 
L 286.16012 73.893366 
L 286.677297 73.786364 
L 286.677297 73.732864 
L 287.271092 73.625862 
L 287.366865 73.518861 
L 288.292675 73.41186 
L 288.292675 73.358359 
L 288.943935 73.251358 
L 288.943935 73.197858 
L 289.378108 73.144357 
L 289.378108 73.037356 
L 290.201759 72.930355 
L 290.265608 72.823353 
L 290.501849 72.716352 
L 290.591238 72.55585 
L 291.440429 72.448849 
L 291.536203 72.341848 
L 292.085304 72.234847 
L 292.142768 72.127846 
L 293.145196 72.020844 
L 293.189891 71.860343 
L 293.368668 71.753341 
L 293.445286 71.59284 
L 294.026312 71.485838 
L 294.045467 71.325337 
L 294.4541 71.218335 
L 294.562643 71.111334 
L 294.792499 71.004333 
L 294.862733 70.629829 
L 295.558687 70.522828 
L 295.635306 70.415826 
L 296.056709 70.308825 
L 296.082248 70.201824 
L 296.439803 70.094823 
L 296.484497 69.987821 
L 296.963364 69.88082 
L 296.969749 69.773819 
L 297.397537 69.666818 
L 297.455001 69.506316 
L 298.112645 69.399315 
L 298.112645 69.345814 
L 298.776675 69.238813 
L 298.795829 69.131812 
L 299.153383 69.024811 
L 299.217232 68.917809 
L 299.536477 68.810808 
L 299.638635 68.596806 
L 300.002575 68.489805 
L 300.015344 68.329303 
L 300.743222 68.222302 
L 300.743222 68.168801 
L 301.254014 68.0618 
L 301.254014 68.008299 
L 302.064896 67.901298 
L 302.064896 67.847797 
L 302.294752 67.740796 
L 302.294752 67.687296 
L 302.792774 67.580294 
L 302.792774 67.526794 
L 303.239717 67.419793 
L 303.309951 67.20579 
L 303.603656 67.098789 
L 303.603656 67.045288 
L 304.005904 66.938287 
L 304.005904 66.884786 
L 304.408153 66.777785 
L 304.408153 66.724285 
L 304.89979 66.617283 
L 304.970024 66.456782 
L 305.219035 66.34978 
L 305.321193 66.242779 
L 305.51274 66.135778 
L 305.51274 66.082277 
L 306.017147 65.975276 
L 306.12569 65.761274 
L 306.304467 65.654273 
L 306.304467 65.600772 
L 307.140888 65.493771 
L 307.243047 65.279768 
L 307.734684 65.172767 
L 307.734684 65.119267 
L 308.475331 65.012265 
L 308.475331 64.958765 
L 309.20321 64.851764 
L 309.20321 64.798263 
L 310.326951 64.691262 
L 310.397185 64.584261 
L 311.073984 64.477259 
L 311.073984 64.423759 
L 311.62947 64.316758 
L 311.674164 64.209756 
L 312.101952 64.102755 
L 312.108337 63.995754 
L 312.8426 63.888753 
L 312.8426 63.835252 
L 313.538554 63.728251 
L 313.596018 63.62125 
L 314.247277 63.514248 
L 314.247277 63.460748 
L 315.192242 63.353747 
L 315.192242 63.300246 
L 316.430912 63.193245 
L 316.430912 63.139744 
L 317.075786 63.032743 
L 317.075786 62.979242 
L 317.343952 62.872241 
L 317.356722 62.76524 
L 318.014366 62.658239 
L 318.014366 62.604738 
L 318.774169 62.497737 
L 318.774169 62.444236 
L 319.176417 62.337235 
L 319.272191 62.176733 
L 319.572281 62.069732 
L 319.572281 62.016232 
L 320.121382 61.90923 
L 320.159691 61.748729 
L 320.766256 61.641727 
L 320.766256 61.588227 
L 321.257893 61.481226 
L 321.277048 61.374224 
L 321.896383 61.267223 
L 321.902768 61.160222 
L 322.783883 61.053221 
L 322.783883 60.99972 
L 323.320215 60.892719 
L 323.364909 60.785718 
L 323.562841 60.678717 
L 323.664999 60.571715 
L 324.124711 60.464714 
L 324.124711 60.411214 
L 324.520575 60.304212 
L 324.552499 60.197211 
L 325.165449 60.09021 
L 325.261223 59.929708 
L 326.142339 59.822707 
L 326.142339 59.769206 
L 326.838292 59.662205 
L 326.934066 59.555204 
L 328.064192 59.448203 
L 328.064192 59.394702 
L 329.175164 59.287701 
L 329.219858 59.1807 
L 329.794499 59.073698 
L 329.794499 59.020198 
L 330.260596 58.913197 
L 330.260596 58.859696 
L 331.390723 58.752695 
L 331.390723 58.699194 
L 331.780202 58.592193 
L 331.780202 58.538692 
L 332.150526 58.431691 
L 332.150526 58.378191 
L 334.03407 58.271189 
L 334.04684 58.110688 
L 334.385239 58.003686 
L 334.385239 57.950186 
L 335.157812 57.843185 
L 335.157812 57.789684 
L 335.936769 57.682683 
L 335.987848 57.575682 
L 336.49864 57.46868 
L 336.49864 57.41518 
L 336.971122 57.308179 
L 336.971122 57.254678 
L 337.845853 57.147677 
L 337.909702 56.987175 
L 339.25053 56.880174 
L 339.333534 56.719672 
L 339.601699 56.612671 
L 339.601699 56.55917 
L 340.367887 56.452169 
L 340.438121 56.345168 
L 340.974452 56.238166 
L 340.974452 56.184666 
L 342.206737 56.077665 
L 342.206737 56.024164 
L 342.960154 55.917163 
L 342.960154 55.863662 
L 343.496486 55.756661 
L 343.560335 55.64966 
L 344.211594 55.542659 
L 344.224364 55.435657 
L 345.022476 55.328656 
L 345.041631 55.221655 
L 345.220408 55.114654 
L 345.245947 55.007653 
L 345.846127 54.900651 
L 345.846127 54.847151 
L 346.650624 54.74015 
L 346.650624 54.686649 
L 347.014563 54.579648 
L 347.046488 54.472647 
L 348.11915 54.365645 
L 348.11915 54.312145 
L 348.700176 54.205144 
L 348.802334 54.044642 
L 349.134349 53.937641 
L 349.134349 53.88414 
L 349.504673 53.830639 
L 349.600446 53.563136 
L 350.685879 53.456135 
L 350.762497 53.349134 
L 351.356293 53.242133 
L 351.464836 53.081631 
L 352.333182 52.97463 
L 352.333182 52.921129 
L 353.316456 52.814128 
L 353.316456 52.760627 
L 353.64847 52.653626 
L 353.693165 52.546625 
L 354.542356 52.439624 
L 354.542356 52.386123 
L 355.615018 52.279122 
L 355.615018 52.225621 
L 356.247123 52.11862 
L 356.247123 52.011619 
L 356.674911 51.904618 
L 356.674911 51.851117 
L 357.211242 51.744116 
L 357.300631 51.637115 
L 357.805038 51.530113 
L 357.907196 51.423112 
L 357.96466 51.369612 
L 357.96466 51.26261 
L 358.360523 51.155609 
L 358.360523 51.102109 
L 359.286333 50.995107 
L 359.286333 50.941607 
L 360.218528 50.834606 
L 360.218528 50.781105 
L 361.04218 50.674104 
L 361.131568 50.513602 
L 361.476353 50.406601 
L 361.572126 50.192598 
L 361.782828 50.085597 
L 361.782828 50.032097 
L 362.300004 49.925095 
L 362.395778 49.818094 
L 362.932109 49.711093 
L 363.021498 49.604092 
L 363.583368 49.49709 
L 363.615293 49.390089 
L 365.198747 49.283088 
L 365.198747 49.229587 
L 366.443802 49.122586 
L 366.443802 49.069086 
L 367.439846 48.962084 
L 367.439846 48.908584 
L 367.842094 48.801583 
L 367.905943 48.694581 
L 368.320961 48.58758 
L 368.320961 48.53408 
L 369.89803 48.427078 
L 369.89803 48.373578 
L 370.728067 48.266577 
L 370.728067 48.213076 
L 373.473572 48.106075 
L 373.537421 47.999074 
L 373.792817 47.945573 
L 373.875821 47.731571 
L 374.808015 47.624569 
L 374.8144 47.517568 
L 375.950912 47.410567 
L 375.950912 47.357066 
L 376.825643 47.250065 
L 376.876722 47.143064 
L 377.713143 47.036063 
L 377.764222 46.875561 
L 378.945428 46.76856 
L 379.041201 46.661559 
L 380.867282 46.554557 
L 380.899206 46.447556 
L 381.250375 46.340555 
L 381.250375 46.287054 
L 382.18257 46.180053 
L 382.227265 46.019551 
L 383.299927 45.91255 
L 383.299927 45.859049 
L 383.72133 45.752048 
L 383.72133 45.698548 
L 384.551367 45.591546 
L 384.608831 45.484545 
L 385.764497 45.377544 
L 385.764497 45.324043 
L 386.613688 45.217042 
L 386.613688 45.163542 
L 388.120523 45.05654 
L 388.120523 45.00304 
L 389.557125 44.896039 
L 389.557125 44.842538 
L 389.908294 44.735537 
L 389.908294 44.682036 
L 390.731946 44.575035 
L 390.731946 44.521534 
L 392.047234 44.414533 
L 392.104699 44.307532 
L 393.483836 44.200531 
L 393.483836 44.14703 
L 394.939592 44.040029 
L 394.984287 43.933028 
L 395.424844 43.826027 
L 395.424844 43.772526 
L 397.346698 43.665525 
L 397.359468 43.558524 
L 397.806411 43.451522 
L 397.806411 43.398022 
L 398.661987 43.291021 
L 398.661987 43.23752 
L 400.424218 43.130519 
L 400.424218 43.077018 
L 402.301377 42.970017 
L 402.301377 42.863016 
L 405.53852 42.756014 
L 405.53852 42.702514 
L 406.374941 42.595513 
L 406.374941 42.542012 
L 407.102819 42.435011 
L 407.102819 42.38151 
L 408.009474 42.274509 
L 408.035014 42.114007 
L 410.486814 42.007006 
L 410.544278 41.900005 
L 412.625754 41.793004 
L 412.625754 41.739503 
L 413.985737 41.632502 
L 413.985737 41.579001 
L 414.72 41.472 
L 414.72 41.472 
" style="fill:none;stroke:#ff8c00;stroke-linecap:square;stroke-width:0.5;"/>
   </g>
   <g id="line2d_14">
    <path clip-path="url(#pe85a6e3005)" d="M 57.6 307.584 
L 414.72 41.472 
" style="fill:none;stroke:#000080;stroke-dasharray:1.85,0.8;stroke-dashoffset:0;stroke-width:0.5;"/>
   </g>
   <g id="patch_3">
    <path d="M 57.6 307.584 
L 57.6 41.472 
" style="fill:none;stroke:#000000;stroke-linecap:square;stroke-linejoin:miter;stroke-width:0.8;"/>
   </g>
   <g id="patch_4">
    <path d="M 414.72 307.584 
L 414.72 41.472 
" style="fill:none;stroke:#000000;stroke-linecap:square;stroke-linejoin:miter;stroke-width:0.8;"/>
   </g>
   <g id="patch_5">
    <path d="M 57.6 307.584 
L 414.72 307.584 
" style="fill:none;stroke:#000000;stroke-linecap:square;stroke-linejoin:miter;stroke-width:0.8;"/>
   </g>
   <g id="patch_6">
    <path d="M 57.6 41.472 
L 414.72 41.472 
" style="fill:none;stroke:#000000;stroke-linecap:square;stroke-linejoin:miter;stroke-width:0.8;"/>
   </g>
   <g id="text_15">
    <!-- Receiver operating characteristic -->
    <defs>
     <path d="M 48.78125 52.59375 
L 48.78125 44.1875 
Q 44.96875 46.296875 41.140625 47.34375 
Q 37.3125 48.390625 33.40625 48.390625 
Q 24.65625 48.390625 19.8125 42.84375 
Q 14.984375 37.3125 14.984375 27.296875 
Q 14.984375 17.28125 19.8125 11.734375 
Q 24.65625 6.203125 33.40625 6.203125 
Q 37.3125 6.203125 41.140625 7.25 
Q 44.96875 8.296875 48.78125 10.40625 
L 48.78125 2.09375 
Q 45.015625 0.34375 40.984375 -0.53125 
Q 36.96875 -1.421875 32.421875 -1.421875 
Q 20.0625 -1.421875 12.78125 6.34375 
Q 5.515625 14.109375 5.515625 27.296875 
Q 5.515625 40.671875 12.859375 48.328125 
Q 20.21875 56 33.015625 56 
Q 37.15625 56 41.109375 55.140625 
Q 45.0625 54.296875 48.78125 52.59375 
z
" id="DejaVuSans-99"/>
     <path d="M 18.109375 8.203125 
L 18.109375 -20.796875 
L 9.078125 -20.796875 
L 9.078125 54.6875 
L 18.109375 54.6875 
L 18.109375 46.390625 
Q 20.953125 51.265625 25.265625 53.625 
Q 29.59375 56 35.59375 56 
Q 45.5625 56 51.78125 48.09375 
Q 58.015625 40.1875 58.015625 27.296875 
Q 58.015625 14.40625 51.78125 6.484375 
Q 45.5625 -1.421875 35.59375 -1.421875 
Q 29.59375 -1.421875 25.265625 0.953125 
Q 20.953125 3.328125 18.109375 8.203125 
z
M 48.6875 27.296875 
Q 48.6875 37.203125 44.609375 42.84375 
Q 40.53125 48.484375 33.40625 48.484375 
Q 26.265625 48.484375 22.1875 42.84375 
Q 18.109375 37.203125 18.109375 27.296875 
Q 18.109375 17.390625 22.1875 11.75 
Q 26.265625 6.109375 33.40625 6.109375 
Q 40.53125 6.109375 44.609375 11.75 
Q 48.6875 17.390625 48.6875 27.296875 
z
" id="DejaVuSans-112"/>
     <path d="M 54.890625 33.015625 
L 54.890625 0 
L 45.90625 0 
L 45.90625 32.71875 
Q 45.90625 40.484375 42.875 44.328125 
Q 39.84375 48.1875 33.796875 48.1875 
Q 26.515625 48.1875 22.3125 43.546875 
Q 18.109375 38.921875 18.109375 30.90625 
L 18.109375 0 
L 9.078125 0 
L 9.078125 54.6875 
L 18.109375 54.6875 
L 18.109375 46.1875 
Q 21.34375 51.125 25.703125 53.5625 
Q 30.078125 56 35.796875 56 
Q 45.21875 56 50.046875 50.171875 
Q 54.890625 44.34375 54.890625 33.015625 
z
" id="DejaVuSans-110"/>
     <path d="M 45.40625 27.984375 
Q 45.40625 37.75 41.375 43.109375 
Q 37.359375 48.484375 30.078125 48.484375 
Q 22.859375 48.484375 18.828125 43.109375 
Q 14.796875 37.75 14.796875 27.984375 
Q 14.796875 18.265625 18.828125 12.890625 
Q 22.859375 7.515625 30.078125 7.515625 
Q 37.359375 7.515625 41.375 12.890625 
Q 45.40625 18.265625 45.40625 27.984375 
z
M 54.390625 6.78125 
Q 54.390625 -7.171875 48.1875 -13.984375 
Q 42 -20.796875 29.203125 -20.796875 
Q 24.46875 -20.796875 20.265625 -20.09375 
Q 16.0625 -19.390625 12.109375 -17.921875 
L 12.109375 -9.1875 
Q 16.0625 -11.328125 19.921875 -12.34375 
Q 23.78125 -13.375 27.78125 -13.375 
Q 36.625 -13.375 41.015625 -8.765625 
Q 45.40625 -4.15625 45.40625 5.171875 
L 45.40625 9.625 
Q 42.625 4.78125 38.28125 2.390625 
Q 33.9375 0 27.875 0 
Q 17.828125 0 11.671875 7.65625 
Q 5.515625 15.328125 5.515625 27.984375 
Q 5.515625 40.671875 11.671875 48.328125 
Q 17.828125 56 27.875 56 
Q 33.9375 56 38.28125 53.609375 
Q 42.625 51.21875 45.40625 46.390625 
L 45.40625 54.6875 
L 54.390625 54.6875 
z
" id="DejaVuSans-103"/>
     <path d="M 54.890625 33.015625 
L 54.890625 0 
L 45.90625 0 
L 45.90625 32.71875 
Q 45.90625 40.484375 42.875 44.328125 
Q 39.84375 48.1875 33.796875 48.1875 
Q 26.515625 48.1875 22.3125 43.546875 
Q 18.109375 38.921875 18.109375 30.90625 
L 18.109375 0 
L 9.078125 0 
L 9.078125 75.984375 
L 18.109375 75.984375 
L 18.109375 46.1875 
Q 21.34375 51.125 25.703125 53.5625 
Q 30.078125 56 35.796875 56 
Q 45.21875 56 50.046875 50.171875 
Q 54.890625 44.34375 54.890625 33.015625 
z
" id="DejaVuSans-104"/>
    </defs>
    <g transform="translate(136.333125 35.472)scale(0.12 -0.12)">
     <use xlink:href="#DejaVuSans-82"/>
     <use x="69.419922" xlink:href="#DejaVuSans-101"/>
     <use x="130.943359" xlink:href="#DejaVuSans-99"/>
     <use x="185.923828" xlink:href="#DejaVuSans-101"/>
     <use x="247.447266" xlink:href="#DejaVuSans-105"/>
     <use x="275.230469" xlink:href="#DejaVuSans-118"/>
     <use x="334.410156" xlink:href="#DejaVuSans-101"/>
     <use x="395.933594" xlink:href="#DejaVuSans-114"/>
     <use x="437.046875" xlink:href="#DejaVuSans-32"/>
     <use x="468.833984" xlink:href="#DejaVuSans-111"/>
     <use x="530.015625" xlink:href="#DejaVuSans-112"/>
     <use x="593.492188" xlink:href="#DejaVuSans-101"/>
     <use x="655.015625" xlink:href="#DejaVuSans-114"/>
     <use x="696.128906" xlink:href="#DejaVuSans-97"/>
     <use x="757.408203" xlink:href="#DejaVuSans-116"/>
     <use x="796.617188" xlink:href="#DejaVuSans-105"/>
     <use x="824.400391" xlink:href="#DejaVuSans-110"/>
     <use x="887.779297" xlink:href="#DejaVuSans-103"/>
     <use x="951.255859" xlink:href="#DejaVuSans-32"/>
     <use x="983.042969" xlink:href="#DejaVuSans-99"/>
     <use x="1038.023438" xlink:href="#DejaVuSans-104"/>
     <use x="1101.402344" xlink:href="#DejaVuSans-97"/>
     <use x="1162.681641" xlink:href="#DejaVuSans-114"/>
     <use x="1203.794922" xlink:href="#DejaVuSans-97"/>
     <use x="1265.074219" xlink:href="#DejaVuSans-99"/>
     <use x="1320.054688" xlink:href="#DejaVuSans-116"/>
     <use x="1359.263672" xlink:href="#DejaVuSans-101"/>
     <use x="1420.787109" xlink:href="#DejaVuSans-114"/>
     <use x="1461.900391" xlink:href="#DejaVuSans-105"/>
     <use x="1489.683594" xlink:href="#DejaVuSans-115"/>
     <use x="1541.783203" xlink:href="#DejaVuSans-116"/>
     <use x="1580.992188" xlink:href="#DejaVuSans-105"/>
     <use x="1608.775391" xlink:href="#DejaVuSans-99"/>
    </g>
   </g>
   <g id="legend_1">
    <g id="patch_7">
     <path d="M 247.5575 302.584 
L 407.72 302.584 
Q 409.72 302.584 409.72 300.584 
L 409.72 286.905875 
Q 409.72 284.905875 407.72 284.905875 
L 247.5575 284.905875 
Q 245.5575 284.905875 245.5575 286.905875 
L 245.5575 300.584 
Q 245.5575 302.584 247.5575 302.584 
z
" style="fill:#ffffff;opacity:0.8;stroke:#cccccc;stroke-linejoin:miter;"/>
    </g>
    <g id="line2d_15">
     <path d="M 249.5575 293.004312 
L 269.5575 293.004312 
" style="fill:none;stroke:#ff8c00;stroke-linecap:square;stroke-width:0.5;"/>
    </g>
    <g id="line2d_16"/>
    <g id="text_16">
     <!-- ROC Curve (area =  0.72) -->
     <defs>
      <path d="M 39.40625 66.21875 
Q 28.65625 66.21875 22.328125 58.203125 
Q 16.015625 50.203125 16.015625 36.375 
Q 16.015625 22.609375 22.328125 14.59375 
Q 28.65625 6.59375 39.40625 6.59375 
Q 50.140625 6.59375 56.421875 14.59375 
Q 62.703125 22.609375 62.703125 36.375 
Q 62.703125 50.203125 56.421875 58.203125 
Q 50.140625 66.21875 39.40625 66.21875 
z
M 39.40625 74.21875 
Q 54.734375 74.21875 63.90625 63.9375 
Q 73.09375 53.65625 73.09375 36.375 
Q 73.09375 19.140625 63.90625 8.859375 
Q 54.734375 -1.421875 39.40625 -1.421875 
Q 24.03125 -1.421875 14.8125 8.828125 
Q 5.609375 19.09375 5.609375 36.375 
Q 5.609375 53.65625 14.8125 63.9375 
Q 24.03125 74.21875 39.40625 74.21875 
z
" id="DejaVuSans-79"/>
      <path d="M 64.40625 67.28125 
L 64.40625 56.890625 
Q 59.421875 61.53125 53.78125 63.8125 
Q 48.140625 66.109375 41.796875 66.109375 
Q 29.296875 66.109375 22.65625 58.46875 
Q 16.015625 50.828125 16.015625 36.375 
Q 16.015625 21.96875 22.65625 14.328125 
Q 29.296875 6.6875 41.796875 6.6875 
Q 48.140625 6.6875 53.78125 8.984375 
Q 59.421875 11.28125 64.40625 15.921875 
L 64.40625 5.609375 
Q 59.234375 2.09375 53.4375 0.328125 
Q 47.65625 -1.421875 41.21875 -1.421875 
Q 24.65625 -1.421875 15.125 8.703125 
Q 5.609375 18.84375 5.609375 36.375 
Q 5.609375 53.953125 15.125 64.078125 
Q 24.65625 74.21875 41.21875 74.21875 
Q 47.75 74.21875 53.53125 72.484375 
Q 59.328125 70.75 64.40625 67.28125 
z
" id="DejaVuSans-67"/>
      <path d="M 31 75.875 
Q 24.46875 64.65625 21.28125 53.65625 
Q 18.109375 42.671875 18.109375 31.390625 
Q 18.109375 20.125 21.3125 9.0625 
Q 24.515625 -2 31 -13.1875 
L 23.1875 -13.1875 
Q 15.875 -1.703125 12.234375 9.375 
Q 8.59375 20.453125 8.59375 31.390625 
Q 8.59375 42.28125 12.203125 53.3125 
Q 15.828125 64.359375 23.1875 75.875 
z
" id="DejaVuSans-40"/>
      <path d="M 10.59375 45.40625 
L 73.1875 45.40625 
L 73.1875 37.203125 
L 10.59375 37.203125 
z
M 10.59375 25.484375 
L 73.1875 25.484375 
L 73.1875 17.1875 
L 10.59375 17.1875 
z
" id="DejaVuSans-61"/>
      <path d="M 8.203125 72.90625 
L 55.078125 72.90625 
L 55.078125 68.703125 
L 28.609375 0 
L 18.3125 0 
L 43.21875 64.59375 
L 8.203125 64.59375 
z
" id="DejaVuSans-55"/>
      <path d="M 8.015625 75.875 
L 15.828125 75.875 
Q 23.140625 64.359375 26.78125 53.3125 
Q 30.421875 42.28125 30.421875 31.390625 
Q 30.421875 20.453125 26.78125 9.375 
Q 23.140625 -1.703125 15.828125 -13.1875 
L 8.015625 -13.1875 
Q 14.5 -2 17.703125 9.0625 
Q 20.90625 20.125 20.90625 31.390625 
Q 20.90625 42.671875 17.703125 53.65625 
Q 14.5 64.65625 8.015625 75.875 
z
" id="DejaVuSans-41"/>
     </defs>
     <g transform="translate(277.5575 296.504312)scale(0.1 -0.1)">
      <use xlink:href="#DejaVuSans-82"/>
      <use x="69.482422" xlink:href="#DejaVuSans-79"/>
      <use x="148.193359" xlink:href="#DejaVuSans-67"/>
      <use x="218.017578" xlink:href="#DejaVuSans-32"/>
      <use x="249.804688" xlink:href="#DejaVuSans-67"/>
      <use x="319.628906" xlink:href="#DejaVuSans-117"/>
      <use x="383.007812" xlink:href="#DejaVuSans-114"/>
      <use x="424.121094" xlink:href="#DejaVuSans-118"/>
      <use x="483.300781" xlink:href="#DejaVuSans-101"/>
      <use x="544.824219" xlink:href="#DejaVuSans-32"/>
      <use x="576.611328" xlink:href="#DejaVuSans-40"/>
      <use x="615.625" xlink:href="#DejaVuSans-97"/>
      <use x="676.904297" xlink:href="#DejaVuSans-114"/>
      <use x="717.986328" xlink:href="#DejaVuSans-101"/>
      <use x="779.509766" xlink:href="#DejaVuSans-97"/>
      <use x="840.789062" xlink:href="#DejaVuSans-32"/>
      <use x="872.576172" xlink:href="#DejaVuSans-61"/>
      <use x="956.365234" xlink:href="#DejaVuSans-32"/>
      <use x="988.152344" xlink:href="#DejaVuSans-32"/>
      <use x="1019.939453" xlink:href="#DejaVuSans-48"/>
      <use x="1083.5625" xlink:href="#DejaVuSans-46"/>
      <use x="1115.349609" xlink:href="#DejaVuSans-55"/>
      <use x="1178.972656" xlink:href="#DejaVuSans-50"/>
      <use x="1242.595703" xlink:href="#DejaVuSans-41"/>
     </g>
    </g>
   </g>
  </g>
 </g>
 <defs>
  <clipPath id="pe85a6e3005">
   <rect height="266.112" width="357.12" x="57.6" y="41.472"/>
  </clipPath>
 </defs>
</svg>
