<?xml version="1.0" encoding="utf-8" standalone="no"?>
<!DOCTYPE svg PUBLIC "-//W3C//DTD SVG 1.1//EN"
  "http://www.w3.org/Graphics/SVG/1.1/DTD/svg11.dtd">
<!-- Created with matplotlib (https://matplotlib.org/) -->
<svg height="345.6pt" version="1.1" viewBox="0 0 460.8 345.6" width="460.8pt" xmlns="http://www.w3.org/2000/svg" xmlns:xlink="http://www.w3.org/1999/xlink">
 <defs>
  <style type="text/css">
*{stroke-linecap:butt;stroke-linejoin:round;}
  </style>
 </defs>
 <g id="figure_1">
  <g id="patch_1">
   <path d="M 0 345.6 
L 460.8 345.6 
L 460.8 0 
L 0 0 
z
" style="fill:#ffffff;"/>
  </g>
  <g id="axes_1">
   <g id="patch_2">
    <path d="M 57.6 307.584 
L 414.72 307.584 
L 414.72 41.472 
L 57.6 41.472 
z
" style="fill:#ffffff;"/>
   </g>
   <g id="matplotlib.axis_1">
    <g id="xtick_1">
     <g id="line2d_1">
      <defs>
       <path d="M 0 0 
L 0 3.5 
" id="m5302654730" style="stroke:#000000;stroke-width:0.8;"/>
      </defs>
      <g>
       <use style="stroke:#000000;stroke-width:0.8;" x="57.6" xlink:href="#m5302654730" y="307.584"/>
      </g>
     </g>
     <g id="text_1">
      <!-- 0.0 -->
      <defs>
       <path d="M 31.78125 66.40625 
Q 24.171875 66.40625 20.328125 58.90625 
Q 16.5 51.421875 16.5 36.375 
Q 16.5 21.390625 20.328125 13.890625 
Q 24.171875 6.390625 31.78125 6.390625 
Q 39.453125 6.390625 43.28125 13.890625 
Q 47.125 21.390625 47.125 36.375 
Q 47.125 51.421875 43.28125 58.90625 
Q 39.453125 66.40625 31.78125 66.40625 
z
M 31.78125 74.21875 
Q 44.046875 74.21875 50.515625 64.515625 
Q 56.984375 54.828125 56.984375 36.375 
Q 56.984375 17.96875 50.515625 8.265625 
Q 44.046875 -1.421875 31.78125 -1.421875 
Q 19.53125 -1.421875 13.0625 8.265625 
Q 6.59375 17.96875 6.59375 36.375 
Q 6.59375 54.828125 13.0625 64.515625 
Q 19.53125 74.21875 31.78125 74.21875 
z
" id="DejaVuSans-48"/>
       <path d="M 10.6875 12.40625 
L 21 12.40625 
L 21 0 
L 10.6875 0 
z
" id="DejaVuSans-46"/>
      </defs>
      <g transform="translate(49.648438 322.182437)scale(0.1 -0.1)">
       <use xlink:href="#DejaVuSans-48"/>
       <use x="63.623047" xlink:href="#DejaVuSans-46"/>
       <use x="95.410156" xlink:href="#DejaVuSans-48"/>
      </g>
     </g>
    </g>
    <g id="xtick_2">
     <g id="line2d_2">
      <g>
       <use style="stroke:#000000;stroke-width:0.8;" x="129.024" xlink:href="#m5302654730" y="307.584"/>
      </g>
     </g>
     <g id="text_2">
      <!-- 0.2 -->
      <defs>
       <path d="M 19.1875 8.296875 
L 53.609375 8.296875 
L 53.609375 0 
L 7.328125 0 
L 7.328125 8.296875 
Q 12.9375 14.109375 22.625 23.890625 
Q 32.328125 33.6875 34.8125 36.53125 
Q 39.546875 41.84375 41.421875 45.53125 
Q 43.3125 49.21875 43.3125 52.78125 
Q 43.3125 58.59375 39.234375 62.25 
Q 35.15625 65.921875 28.609375 65.921875 
Q 23.96875 65.921875 18.8125 64.3125 
Q 13.671875 62.703125 7.8125 59.421875 
L 7.8125 69.390625 
Q 13.765625 71.78125 18.9375 73 
Q 24.125 74.21875 28.421875 74.21875 
Q 39.75 74.21875 46.484375 68.546875 
Q 53.21875 62.890625 53.21875 53.421875 
Q 53.21875 48.921875 51.53125 44.890625 
Q 49.859375 40.875 45.40625 35.40625 
Q 44.1875 33.984375 37.640625 27.21875 
Q 31.109375 20.453125 19.1875 8.296875 
z
" id="DejaVuSans-50"/>
      </defs>
      <g transform="translate(121.072438 322.182437)scale(0.1 -0.1)">
       <use xlink:href="#DejaVuSans-48"/>
       <use x="63.623047" xlink:href="#DejaVuSans-46"/>
       <use x="95.410156" xlink:href="#DejaVuSans-50"/>
      </g>
     </g>
    </g>
    <g id="xtick_3">
     <g id="line2d_3">
      <g>
       <use style="stroke:#000000;stroke-width:0.8;" x="200.448" xlink:href="#m5302654730" y="307.584"/>
      </g>
     </g>
     <g id="text_3">
      <!-- 0.4 -->
      <defs>
       <path d="M 37.796875 64.3125 
L 12.890625 25.390625 
L 37.796875 25.390625 
z
M 35.203125 72.90625 
L 47.609375 72.90625 
L 47.609375 25.390625 
L 58.015625 25.390625 
L 58.015625 17.1875 
L 47.609375 17.1875 
L 47.609375 0 
L 37.796875 0 
L 37.796875 17.1875 
L 4.890625 17.1875 
L 4.890625 26.703125 
z
" id="DejaVuSans-52"/>
      </defs>
      <g transform="translate(192.496438 322.182437)scale(0.1 -0.1)">
       <use xlink:href="#DejaVuSans-48"/>
       <use x="63.623047" xlink:href="#DejaVuSans-46"/>
       <use x="95.410156" xlink:href="#DejaVuSans-52"/>
      </g>
     </g>
    </g>
    <g id="xtick_4">
     <g id="line2d_4">
      <g>
       <use style="stroke:#000000;stroke-width:0.8;" x="271.872" xlink:href="#m5302654730" y="307.584"/>
      </g>
     </g>
     <g id="text_4">
      <!-- 0.6 -->
      <defs>
       <path d="M 33.015625 40.375 
Q 26.375 40.375 22.484375 35.828125 
Q 18.609375 31.296875 18.609375 23.390625 
Q 18.609375 15.53125 22.484375 10.953125 
Q 26.375 6.390625 33.015625 6.390625 
Q 39.65625 6.390625 43.53125 10.953125 
Q 47.40625 15.53125 47.40625 23.390625 
Q 47.40625 31.296875 43.53125 35.828125 
Q 39.65625 40.375 33.015625 40.375 
z
M 52.59375 71.296875 
L 52.59375 62.3125 
Q 48.875 64.0625 45.09375 64.984375 
Q 41.3125 65.921875 37.59375 65.921875 
Q 27.828125 65.921875 22.671875 59.328125 
Q 17.53125 52.734375 16.796875 39.40625 
Q 19.671875 43.65625 24.015625 45.921875 
Q 28.375 48.1875 33.59375 48.1875 
Q 44.578125 48.1875 50.953125 41.515625 
Q 57.328125 34.859375 57.328125 23.390625 
Q 57.328125 12.15625 50.6875 5.359375 
Q 44.046875 -1.421875 33.015625 -1.421875 
Q 20.359375 -1.421875 13.671875 8.265625 
Q 6.984375 17.96875 6.984375 36.375 
Q 6.984375 53.65625 15.1875 63.9375 
Q 23.390625 74.21875 37.203125 74.21875 
Q 40.921875 74.21875 44.703125 73.484375 
Q 48.484375 72.75 52.59375 71.296875 
z
" id="DejaVuSans-54"/>
      </defs>
      <g transform="translate(263.920438 322.182437)scale(0.1 -0.1)">
       <use xlink:href="#DejaVuSans-48"/>
       <use x="63.623047" xlink:href="#DejaVuSans-46"/>
       <use x="95.410156" xlink:href="#DejaVuSans-54"/>
      </g>
     </g>
    </g>
    <g id="xtick_5">
     <g id="line2d_5">
      <g>
       <use style="stroke:#000000;stroke-width:0.8;" x="343.296" xlink:href="#m5302654730" y="307.584"/>
      </g>
     </g>
     <g id="text_5">
      <!-- 0.8 -->
      <defs>
       <path d="M 31.78125 34.625 
Q 24.75 34.625 20.71875 30.859375 
Q 16.703125 27.09375 16.703125 20.515625 
Q 16.703125 13.921875 20.71875 10.15625 
Q 24.75 6.390625 31.78125 6.390625 
Q 38.8125 6.390625 42.859375 10.171875 
Q 46.921875 13.96875 46.921875 20.515625 
Q 46.921875 27.09375 42.890625 30.859375 
Q 38.875 34.625 31.78125 34.625 
z
M 21.921875 38.8125 
Q 15.578125 40.375 12.03125 44.71875 
Q 8.5 49.078125 8.5 55.328125 
Q 8.5 64.0625 14.71875 69.140625 
Q 20.953125 74.21875 31.78125 74.21875 
Q 42.671875 74.21875 48.875 69.140625 
Q 55.078125 64.0625 55.078125 55.328125 
Q 55.078125 49.078125 51.53125 44.71875 
Q 48 40.375 41.703125 38.8125 
Q 48.828125 37.15625 52.796875 32.3125 
Q 56.78125 27.484375 56.78125 20.515625 
Q 56.78125 9.90625 50.3125 4.234375 
Q 43.84375 -1.421875 31.78125 -1.421875 
Q 19.734375 -1.421875 13.25 4.234375 
Q 6.78125 9.90625 6.78125 20.515625 
Q 6.78125 27.484375 10.78125 32.3125 
Q 14.796875 37.15625 21.921875 38.8125 
z
M 18.3125 54.390625 
Q 18.3125 48.734375 21.84375 45.5625 
Q 25.390625 42.390625 31.78125 42.390625 
Q 38.140625 42.390625 41.71875 45.5625 
Q 45.3125 48.734375 45.3125 54.390625 
Q 45.3125 60.0625 41.71875 63.234375 
Q 38.140625 66.40625 31.78125 66.40625 
Q 25.390625 66.40625 21.84375 63.234375 
Q 18.3125 60.0625 18.3125 54.390625 
z
" id="DejaVuSans-56"/>
      </defs>
      <g transform="translate(335.344438 322.182437)scale(0.1 -0.1)">
       <use xlink:href="#DejaVuSans-48"/>
       <use x="63.623047" xlink:href="#DejaVuSans-46"/>
       <use x="95.410156" xlink:href="#DejaVuSans-56"/>
      </g>
     </g>
    </g>
    <g id="xtick_6">
     <g id="line2d_6">
      <g>
       <use style="stroke:#000000;stroke-width:0.8;" x="414.72" xlink:href="#m5302654730" y="307.584"/>
      </g>
     </g>
     <g id="text_6">
      <!-- 1.0 -->
      <defs>
       <path d="M 12.40625 8.296875 
L 28.515625 8.296875 
L 28.515625 63.921875 
L 10.984375 60.40625 
L 10.984375 69.390625 
L 28.421875 72.90625 
L 38.28125 72.90625 
L 38.28125 8.296875 
L 54.390625 8.296875 
L 54.390625 0 
L 12.40625 0 
z
" id="DejaVuSans-49"/>
      </defs>
      <g transform="translate(406.768438 322.182437)scale(0.1 -0.1)">
       <use xlink:href="#DejaVuSans-49"/>
       <use x="63.623047" xlink:href="#DejaVuSans-46"/>
       <use x="95.410156" xlink:href="#DejaVuSans-48"/>
      </g>
     </g>
    </g>
    <g id="text_7">
     <!-- False Positive Rate -->
     <defs>
      <path d="M 9.8125 72.90625 
L 51.703125 72.90625 
L 51.703125 64.59375 
L 19.671875 64.59375 
L 19.671875 43.109375 
L 48.578125 43.109375 
L 48.578125 34.8125 
L 19.671875 34.8125 
L 19.671875 0 
L 9.8125 0 
z
" id="DejaVuSans-70"/>
      <path d="M 34.28125 27.484375 
Q 23.390625 27.484375 19.1875 25 
Q 14.984375 22.515625 14.984375 16.5 
Q 14.984375 11.71875 18.140625 8.90625 
Q 21.296875 6.109375 26.703125 6.109375 
Q 34.1875 6.109375 38.703125 11.40625 
Q 43.21875 16.703125 43.21875 25.484375 
L 43.21875 27.484375 
z
M 52.203125 31.203125 
L 52.203125 0 
L 43.21875 0 
L 43.21875 8.296875 
Q 40.140625 3.328125 35.546875 0.953125 
Q 30.953125 -1.421875 24.3125 -1.421875 
Q 15.921875 -1.421875 10.953125 3.296875 
Q 6 8.015625 6 15.921875 
Q 6 25.140625 12.171875 29.828125 
Q 18.359375 34.515625 30.609375 34.515625 
L 43.21875 34.515625 
L 43.21875 35.40625 
Q 43.21875 41.609375 39.140625 45 
Q 35.0625 48.390625 27.6875 48.390625 
Q 23 48.390625 18.546875 47.265625 
Q 14.109375 46.140625 10.015625 43.890625 
L 10.015625 52.203125 
Q 14.9375 54.109375 19.578125 55.046875 
Q 24.21875 56 28.609375 56 
Q 40.484375 56 46.34375 49.84375 
Q 52.203125 43.703125 52.203125 31.203125 
z
" id="DejaVuSans-97"/>
      <path d="M 9.421875 75.984375 
L 18.40625 75.984375 
L 18.40625 0 
L 9.421875 0 
z
" id="DejaVuSans-108"/>
      <path d="M 44.28125 53.078125 
L 44.28125 44.578125 
Q 40.484375 46.53125 36.375 47.5 
Q 32.28125 48.484375 27.875 48.484375 
Q 21.1875 48.484375 17.84375 46.4375 
Q 14.5 44.390625 14.5 40.28125 
Q 14.5 37.15625 16.890625 35.375 
Q 19.28125 33.59375 26.515625 31.984375 
L 29.59375 31.296875 
Q 39.15625 29.25 43.1875 25.515625 
Q 47.21875 21.78125 47.21875 15.09375 
Q 47.21875 7.46875 41.1875 3.015625 
Q 35.15625 -1.421875 24.609375 -1.421875 
Q 20.21875 -1.421875 15.453125 -0.5625 
Q 10.6875 0.296875 5.421875 2 
L 5.421875 11.28125 
Q 10.40625 8.6875 15.234375 7.390625 
Q 20.0625 6.109375 24.8125 6.109375 
Q 31.15625 6.109375 34.5625 8.28125 
Q 37.984375 10.453125 37.984375 14.40625 
Q 37.984375 18.0625 35.515625 20.015625 
Q 33.0625 21.96875 24.703125 23.78125 
L 21.578125 24.515625 
Q 13.234375 26.265625 9.515625 29.90625 
Q 5.8125 33.546875 5.8125 39.890625 
Q 5.8125 47.609375 11.28125 51.796875 
Q 16.75 56 26.8125 56 
Q 31.78125 56 36.171875 55.265625 
Q 40.578125 54.546875 44.28125 53.078125 
z
" id="DejaVuSans-115"/>
      <path d="M 56.203125 29.59375 
L 56.203125 25.203125 
L 14.890625 25.203125 
Q 15.484375 15.921875 20.484375 11.0625 
Q 25.484375 6.203125 34.421875 6.203125 
Q 39.59375 6.203125 44.453125 7.46875 
Q 49.3125 8.734375 54.109375 11.28125 
L 54.109375 2.78125 
Q 49.265625 0.734375 44.1875 -0.34375 
Q 39.109375 -1.421875 33.890625 -1.421875 
Q 20.796875 -1.421875 13.15625 6.1875 
Q 5.515625 13.8125 5.515625 26.8125 
Q 5.515625 40.234375 12.765625 48.109375 
Q 20.015625 56 32.328125 56 
Q 43.359375 56 49.78125 48.890625 
Q 56.203125 41.796875 56.203125 29.59375 
z
M 47.21875 32.234375 
Q 47.125 39.59375 43.09375 43.984375 
Q 39.0625 48.390625 32.421875 48.390625 
Q 24.90625 48.390625 20.390625 44.140625 
Q 15.875 39.890625 15.1875 32.171875 
z
" id="DejaVuSans-101"/>
      <path id="DejaVuSans-32"/>
      <path d="M 19.671875 64.796875 
L 19.671875 37.40625 
L 32.078125 37.40625 
Q 38.96875 37.40625 42.71875 40.96875 
Q 46.484375 44.53125 46.484375 51.125 
Q 46.484375 57.671875 42.71875 61.234375 
Q 38.96875 64.796875 32.078125 64.796875 
z
M 9.8125 72.90625 
L 32.078125 72.90625 
Q 44.34375 72.90625 50.609375 67.359375 
Q 56.890625 61.8125 56.890625 51.125 
Q 56.890625 40.328125 50.609375 34.8125 
Q 44.34375 29.296875 32.078125 29.296875 
L 19.671875 29.296875 
L 19.671875 0 
L 9.8125 0 
z
" id="DejaVuSans-80"/>
      <path d="M 30.609375 48.390625 
Q 23.390625 48.390625 19.1875 42.75 
Q 14.984375 37.109375 14.984375 27.296875 
Q 14.984375 17.484375 19.15625 11.84375 
Q 23.34375 6.203125 30.609375 6.203125 
Q 37.796875 6.203125 41.984375 11.859375 
Q 46.1875 17.53125 46.1875 27.296875 
Q 46.1875 37.015625 41.984375 42.703125 
Q 37.796875 48.390625 30.609375 48.390625 
z
M 30.609375 56 
Q 42.328125 56 49.015625 48.375 
Q 55.71875 40.765625 55.71875 27.296875 
Q 55.71875 13.875 49.015625 6.21875 
Q 42.328125 -1.421875 30.609375 -1.421875 
Q 18.84375 -1.421875 12.171875 6.21875 
Q 5.515625 13.875 5.515625 27.296875 
Q 5.515625 40.765625 12.171875 48.375 
Q 18.84375 56 30.609375 56 
z
" id="DejaVuSans-111"/>
      <path d="M 9.421875 54.6875 
L 18.40625 54.6875 
L 18.40625 0 
L 9.421875 0 
z
M 9.421875 75.984375 
L 18.40625 75.984375 
L 18.40625 64.59375 
L 9.421875 64.59375 
z
" id="DejaVuSans-105"/>
      <path d="M 18.3125 70.21875 
L 18.3125 54.6875 
L 36.8125 54.6875 
L 36.8125 47.703125 
L 18.3125 47.703125 
L 18.3125 18.015625 
Q 18.3125 11.328125 20.140625 9.421875 
Q 21.96875 7.515625 27.59375 7.515625 
L 36.8125 7.515625 
L 36.8125 0 
L 27.59375 0 
Q 17.1875 0 13.234375 3.875 
Q 9.28125 7.765625 9.28125 18.015625 
L 9.28125 47.703125 
L 2.6875 47.703125 
L 2.6875 54.6875 
L 9.28125 54.6875 
L 9.28125 70.21875 
z
" id="DejaVuSans-116"/>
      <path d="M 2.984375 54.6875 
L 12.5 54.6875 
L 29.59375 8.796875 
L 46.6875 54.6875 
L 56.203125 54.6875 
L 35.6875 0 
L 23.484375 0 
z
" id="DejaVuSans-118"/>
      <path d="M 44.390625 34.1875 
Q 47.5625 33.109375 50.5625 29.59375 
Q 53.5625 26.078125 56.59375 19.921875 
L 66.609375 0 
L 56 0 
L 46.6875 18.703125 
Q 43.0625 26.03125 39.671875 28.421875 
Q 36.28125 30.8125 30.421875 30.8125 
L 19.671875 30.8125 
L 19.671875 0 
L 9.8125 0 
L 9.8125 72.90625 
L 32.078125 72.90625 
Q 44.578125 72.90625 50.734375 67.671875 
Q 56.890625 62.453125 56.890625 51.90625 
Q 56.890625 45.015625 53.6875 40.46875 
Q 50.484375 35.9375 44.390625 34.1875 
z
M 19.671875 64.796875 
L 19.671875 38.921875 
L 32.078125 38.921875 
Q 39.203125 38.921875 42.84375 42.21875 
Q 46.484375 45.515625 46.484375 51.90625 
Q 46.484375 58.296875 42.84375 61.546875 
Q 39.203125 64.796875 32.078125 64.796875 
z
" id="DejaVuSans-82"/>
     </defs>
     <g transform="translate(188.954531 335.860562)scale(0.1 -0.1)">
      <use xlink:href="#DejaVuSans-70"/>
      <use x="57.378906" xlink:href="#DejaVuSans-97"/>
      <use x="118.658203" xlink:href="#DejaVuSans-108"/>
      <use x="146.441406" xlink:href="#DejaVuSans-115"/>
      <use x="198.541016" xlink:href="#DejaVuSans-101"/>
      <use x="260.064453" xlink:href="#DejaVuSans-32"/>
      <use x="291.851562" xlink:href="#DejaVuSans-80"/>
      <use x="352.107422" xlink:href="#DejaVuSans-111"/>
      <use x="413.289062" xlink:href="#DejaVuSans-115"/>
      <use x="465.388672" xlink:href="#DejaVuSans-105"/>
      <use x="493.171875" xlink:href="#DejaVuSans-116"/>
      <use x="532.380859" xlink:href="#DejaVuSans-105"/>
      <use x="560.164062" xlink:href="#DejaVuSans-118"/>
      <use x="619.34375" xlink:href="#DejaVuSans-101"/>
      <use x="680.867188" xlink:href="#DejaVuSans-32"/>
      <use x="712.654297" xlink:href="#DejaVuSans-82"/>
      <use x="782.105469" xlink:href="#DejaVuSans-97"/>
      <use x="843.384766" xlink:href="#DejaVuSans-116"/>
      <use x="882.59375" xlink:href="#DejaVuSans-101"/>
     </g>
    </g>
   </g>
   <g id="matplotlib.axis_2">
    <g id="ytick_1">
     <g id="line2d_7">
      <defs>
       <path d="M 0 0 
L -3.5 0 
" id="m4e0696ff3c" style="stroke:#000000;stroke-width:0.8;"/>
      </defs>
      <g>
       <use style="stroke:#000000;stroke-width:0.8;" x="57.6" xlink:href="#m4e0696ff3c" y="307.584"/>
      </g>
     </g>
     <g id="text_8">
      <!-- 0.0 -->
      <g transform="translate(34.696875 311.383219)scale(0.1 -0.1)">
       <use xlink:href="#DejaVuSans-48"/>
       <use x="63.623047" xlink:href="#DejaVuSans-46"/>
       <use x="95.410156" xlink:href="#DejaVuSans-48"/>
      </g>
     </g>
    </g>
    <g id="ytick_2">
     <g id="line2d_8">
      <g>
       <use style="stroke:#000000;stroke-width:0.8;" x="57.6" xlink:href="#m4e0696ff3c" y="254.3616"/>
      </g>
     </g>
     <g id="text_9">
      <!-- 0.2 -->
      <g transform="translate(34.696875 258.160819)scale(0.1 -0.1)">
       <use xlink:href="#DejaVuSans-48"/>
       <use x="63.623047" xlink:href="#DejaVuSans-46"/>
       <use x="95.410156" xlink:href="#DejaVuSans-50"/>
      </g>
     </g>
    </g>
    <g id="ytick_3">
     <g id="line2d_9">
      <g>
       <use style="stroke:#000000;stroke-width:0.8;" x="57.6" xlink:href="#m4e0696ff3c" y="201.1392"/>
      </g>
     </g>
     <g id="text_10">
      <!-- 0.4 -->
      <g transform="translate(34.696875 204.938419)scale(0.1 -0.1)">
       <use xlink:href="#DejaVuSans-48"/>
       <use x="63.623047" xlink:href="#DejaVuSans-46"/>
       <use x="95.410156" xlink:href="#DejaVuSans-52"/>
      </g>
     </g>
    </g>
    <g id="ytick_4">
     <g id="line2d_10">
      <g>
       <use style="stroke:#000000;stroke-width:0.8;" x="57.6" xlink:href="#m4e0696ff3c" y="147.9168"/>
      </g>
     </g>
     <g id="text_11">
      <!-- 0.6 -->
      <g transform="translate(34.696875 151.716019)scale(0.1 -0.1)">
       <use xlink:href="#DejaVuSans-48"/>
       <use x="63.623047" xlink:href="#DejaVuSans-46"/>
       <use x="95.410156" xlink:href="#DejaVuSans-54"/>
      </g>
     </g>
    </g>
    <g id="ytick_5">
     <g id="line2d_11">
      <g>
       <use style="stroke:#000000;stroke-width:0.8;" x="57.6" xlink:href="#m4e0696ff3c" y="94.6944"/>
      </g>
     </g>
     <g id="text_12">
      <!-- 0.8 -->
      <g transform="translate(34.696875 98.493619)scale(0.1 -0.1)">
       <use xlink:href="#DejaVuSans-48"/>
       <use x="63.623047" xlink:href="#DejaVuSans-46"/>
       <use x="95.410156" xlink:href="#DejaVuSans-56"/>
      </g>
     </g>
    </g>
    <g id="ytick_6">
     <g id="line2d_12">
      <g>
       <use style="stroke:#000000;stroke-width:0.8;" x="57.6" xlink:href="#m4e0696ff3c" y="41.472"/>
      </g>
     </g>
     <g id="text_13">
      <!-- 1.0 -->
      <g transform="translate(34.696875 45.271219)scale(0.1 -0.1)">
       <use xlink:href="#DejaVuSans-49"/>
       <use x="63.623047" xlink:href="#DejaVuSans-46"/>
       <use x="95.410156" xlink:href="#DejaVuSans-48"/>
      </g>
     </g>
    </g>
    <g id="text_14">
     <!-- True Positive Rate -->
     <defs>
      <path d="M -0.296875 72.90625 
L 61.375 72.90625 
L 61.375 64.59375 
L 35.5 64.59375 
L 35.5 0 
L 25.59375 0 
L 25.59375 64.59375 
L -0.296875 64.59375 
z
" id="DejaVuSans-84"/>
      <path d="M 41.109375 46.296875 
Q 39.59375 47.171875 37.8125 47.578125 
Q 36.03125 48 33.890625 48 
Q 26.265625 48 22.1875 43.046875 
Q 18.109375 38.09375 18.109375 28.8125 
L 18.109375 0 
L 9.078125 0 
L 9.078125 54.6875 
L 18.109375 54.6875 
L 18.109375 46.1875 
Q 20.953125 51.171875 25.484375 53.578125 
Q 30.03125 56 36.53125 56 
Q 37.453125 56 38.578125 55.875 
Q 39.703125 55.765625 41.0625 55.515625 
z
" id="DejaVuSans-114"/>
      <path d="M 8.5 21.578125 
L 8.5 54.6875 
L 17.484375 54.6875 
L 17.484375 21.921875 
Q 17.484375 14.15625 20.5 10.265625 
Q 23.53125 6.390625 29.59375 6.390625 
Q 36.859375 6.390625 41.078125 11.03125 
Q 45.3125 15.671875 45.3125 23.6875 
L 45.3125 54.6875 
L 54.296875 54.6875 
L 54.296875 0 
L 45.3125 0 
L 45.3125 8.40625 
Q 42.046875 3.421875 37.71875 1 
Q 33.40625 -1.421875 27.6875 -1.421875 
Q 18.265625 -1.421875 13.375 4.4375 
Q 8.5 10.296875 8.5 21.578125 
z
M 31.109375 56 
z
" id="DejaVuSans-117"/>
     </defs>
     <g transform="translate(28.617187 220.074094)rotate(-90)scale(0.1 -0.1)">
      <use xlink:href="#DejaVuSans-84"/>
      <use x="60.865234" xlink:href="#DejaVuSans-114"/>
      <use x="101.978516" xlink:href="#DejaVuSans-117"/>
      <use x="165.357422" xlink:href="#DejaVuSans-101"/>
      <use x="226.880859" xlink:href="#DejaVuSans-32"/>
      <use x="258.667969" xlink:href="#DejaVuSans-80"/>
      <use x="318.923828" xlink:href="#DejaVuSans-111"/>
      <use x="380.105469" xlink:href="#DejaVuSans-115"/>
      <use x="432.205078" xlink:href="#DejaVuSans-105"/>
      <use x="459.988281" xlink:href="#DejaVuSans-116"/>
      <use x="499.197266" xlink:href="#DejaVuSans-105"/>
      <use x="526.980469" xlink:href="#DejaVuSans-118"/>
      <use x="586.160156" xlink:href="#DejaVuSans-101"/>
      <use x="647.683594" xlink:href="#DejaVuSans-32"/>
      <use x="679.470703" xlink:href="#DejaVuSans-82"/>
      <use x="748.921875" xlink:href="#DejaVuSans-97"/>
      <use x="810.201172" xlink:href="#DejaVuSans-116"/>
      <use x="849.410156" xlink:href="#DejaVuSans-101"/>
     </g>
    </g>
   </g>
   <g id="line2d_13">
    <path clip-path="url(#p0d085f1dc7)" d="M 57.6 307.584 
L 57.708309 305.993798 
L 57.759278 305.884129 
L 57.816618 305.116446 
L 57.893071 305.116446 
L 57.988638 304.458431 
L 58.020493 304.348762 
L 58.109689 303.635913 
L 58.217998 303.581079 
L 58.313565 302.484388 
L 58.358162 302.374719 
L 58.453729 301.936043 
L 58.491956 301.881208 
L 58.600265 300.620014 
L 58.619378 300.565179 
L 58.721316 299.742661 
L 58.7468 299.632992 
L 58.855109 298.700805 
L 58.937934 298.591136 
L 59.046243 297.878287 
L 59.071727 297.768618 
L 59.180036 297.110604 
L 59.218263 297.110604 
L 59.326572 296.397755 
L 59.339314 296.34292 
L 59.428509 295.959079 
L 59.498592 295.904244 
L 59.587787 295.520402 
L 59.638756 295.465568 
L 59.734323 294.972057 
L 59.77255 294.862388 
L 59.880858 294.314042 
L 59.931827 294.204373 
L 60.021023 293.875366 
L 60.110219 293.765697 
L 60.199414 293.162517 
L 60.269496 293.052848 
L 60.365063 292.669006 
L 60.441516 292.559337 
L 60.537083 292.010992 
L 60.568939 291.901323 
L 60.677248 291.462647 
L 60.702732 291.352978 
L 60.779185 290.914301 
L 60.868381 290.804632 
L 60.97669 290.42079 
L 61.040401 290.311121 
L 61.142339 289.762776 
L 61.186937 289.762776 
L 61.26339 289.049927 
L 61.352586 288.940258 
L 61.441781 288.666085 
L 61.530977 288.556416 
L 61.639286 288.062905 
L 61.72211 287.953236 
L 61.824048 287.51456 
L 61.849532 287.51456 
L 61.945099 287.021049 
L 62.021552 286.91138 
L 62.098006 286.637208 
L 62.206315 286.527538 
L 62.289139 286.143697 
L 62.391077 286.034028 
L 62.499386 285.485682 
L 62.614066 285.376013 
L 62.722375 285.101841 
L 62.932622 284.992171 
L 63.015446 284.443826 
L 63.085528 284.334157 
L 63.130126 284.114819 
L 63.238435 284.00515 
L 63.295775 283.730977 
L 63.391342 283.676143 
L 63.499651 282.853625 
L 63.601588 282.743955 
L 63.709897 282.085941 
L 63.72264 281.976272 
L 63.811835 281.373092 
L 63.901031 281.318258 
L 64.00934 280.824747 
L 64.060309 280.769912 
L 64.168618 280.49574 
L 64.232329 280.38607 
L 64.334266 279.89256 
L 64.404349 279.782891 
L 64.506287 279.508718 
L 64.557255 279.399049 
L 64.659193 279.015207 
L 64.742018 278.905538 
L 64.850327 278.466862 
L 64.920409 278.357193 
L 64.990491 277.808847 
L 65.073316 277.699178 
L 65.181625 277.47984 
L 65.200738 277.47984 
L 65.309047 276.547653 
L 65.321789 276.547653 
L 65.398242 275.999308 
L 65.544778 275.889639 
L 65.653087 275.560631 
L 65.72954 275.450962 
L 65.837849 275.012286 
L 65.876076 274.957451 
L 65.952529 274.792948 
L 66.067209 274.683279 
L 66.175518 274.354272 
L 66.207374 274.244603 
L 66.277456 274.080099 
L 66.379394 273.97043 
L 66.47496 273.586588 
L 66.525929 273.531754 
L 66.621496 273.093077 
L 66.672465 272.983408 
L 66.768032 272.599566 
L 66.844485 272.489897 
L 66.940052 272.16089 
L 66.997392 272.051221 
L 67.086587 271.612545 
L 67.131185 271.55771 
L 67.239494 271.338372 
L 67.284092 271.283538 
L 67.354174 270.95453 
L 67.481596 270.844861 
L 67.583534 270.132012 
L 67.609019 270.022343 
L 67.685472 269.528832 
L 67.736441 269.419163 
L 67.800152 269.25466 
L 67.908461 269.199825 
L 68.01677 268.761149 
L 68.048625 268.65148 
L 68.156934 268.486976 
L 68.227017 268.377307 
L 68.309841 268.103135 
L 68.424521 267.993465 
L 68.53283 267.554789 
L 68.641139 267.44512 
L 68.730335 267.225782 
L 68.806788 267.170947 
L 68.915097 266.732271 
L 68.978808 266.622602 
L 69.087117 266.129091 
L 69.176312 266.019422 
L 69.284621 265.471077 
L 69.405672 265.361408 
L 69.513981 265.032401 
L 69.590435 264.922732 
L 69.698744 263.990544 
L 69.775197 263.880875 
L 69.845279 263.716372 
L 70.055526 263.606703 
L 70.163835 263.387365 
L 70.253031 263.33253 
L 70.354968 262.948688 
L 70.507875 262.839019 
L 70.584328 262.455177 
L 70.679895 262.400343 
L 70.737235 262.235839 
L 70.851915 262.12617 
L 70.947482 261.742328 
L 71.068533 261.632659 
L 71.170471 261.084314 
L 71.246924 260.974645 
L 71.27878 260.755307 
L 71.412573 260.645638 
L 71.50814 260.152127 
L 71.603706 260.042458 
L 71.705644 259.548947 
L 71.718387 259.548947 
L 71.820324 258.890933 
L 71.954118 258.781264 
L 72.062427 258.287753 
L 72.157993 258.178084 
L 72.208962 258.01358 
L 72.380982 257.903911 
L 72.463807 257.4104 
L 72.5976 257.300731 
L 72.693167 256.916889 
L 72.725022 256.80722 
L 72.795105 256.587882 
L 72.865187 256.478213 
L 72.960754 255.984702 
L 73.05632 255.875033 
L 73.151887 255.546026 
L 73.381247 255.436357 
L 73.489556 255.162184 
L 73.546896 255.052515 
L 73.597865 254.778342 
L 73.757143 254.668673 
L 73.839967 254.229997 
L 73.980132 254.120328 
L 74.069327 254.010659 
L 74.126667 254.010659 
L 74.234976 253.571983 
L 74.25409 253.517148 
L 74.349656 253.242975 
L 74.451594 253.188141 
L 74.528047 252.749465 
L 74.629985 252.639796 
L 74.719181 252.475292 
L 74.840232 252.365623 
L 74.94217 252.036616 
L 75.050479 251.926947 
L 75.152416 251.652774 
L 75.22887 251.543105 
L 75.330808 251.323767 
L 75.394519 251.214098 
L 75.496457 251.049594 
L 75.560168 250.939925 
L 75.655734 250.775421 
L 75.738559 250.665752 
L 75.840497 250.39158 
L 75.967919 250.281911 
L 76.069857 249.898069 
L 76.082599 249.898069 
L 76.178166 249.569062 
L 76.267361 249.459393 
L 76.37567 248.965882 
L 76.503092 248.856213 
L 76.60503 248.636875 
L 76.668741 248.527205 
L 76.71971 248.253033 
L 76.923586 248.143364 
L 76.980926 247.97886 
L 77.101977 247.869191 
L 77.210286 247.704687 
L 77.344079 247.595018 
L 77.452388 246.937004 
L 77.586182 246.827335 
L 77.662635 246.662831 
L 77.713604 246.553162 
L 77.719975 246.388659 
L 77.891995 246.278989 
L 77.91748 246.114486 
L 78.044902 246.059651 
L 78.14684 245.785479 
L 78.274262 245.67581 
L 78.350715 245.346802 
L 78.420797 245.237133 
L 78.529106 245.07263 
L 78.637415 244.962961 
L 78.682013 244.853292 
L 78.841291 244.743623 
L 78.930487 244.46945 
L 79.038795 244.359781 
L 79.096135 244.140443 
L 79.242671 244.030774 
L 79.325496 243.921104 
L 79.440176 243.811435 
L 79.523 243.427594 
L 79.586711 243.372759 
L 79.675907 243.098586 
L 79.75236 242.988917 
L 79.822442 242.605076 
L 80.134627 242.495407 
L 80.172854 242.330903 
L 80.351245 242.221234 
L 80.3831 242.111565 
L 80.542378 242.001896 
L 80.631574 241.892227 
L 80.676171 241.782558 
L 80.78448 241.45355 
L 80.905532 241.343881 
L 81.01384 241.069709 
L 81.058438 240.96004 
L 81.141263 240.740701 
L 81.230458 240.631032 
L 81.338767 240.466529 
L 81.408849 240.35686 
L 81.510787 240.082687 
L 81.561756 239.973018 
L 81.663694 239.534342 
L 81.701921 239.424673 
L 81.740147 239.315004 
L 82.001363 239.260169 
L 82.103301 238.876327 
L 82.243465 238.766658 
L 82.339032 238.492485 
L 82.479196 238.382816 
L 82.568392 238.053809 
L 82.695814 237.998975 
L 82.78501 237.615133 
L 82.874205 237.505464 
L 82.944288 237.231291 
L 83.090823 237.121622 
L 83.199132 236.792615 
L 83.364781 236.682946 
L 83.466719 236.24427 
L 83.594141 236.1346 
L 83.606883 235.970097 
L 83.785275 235.970097 
L 83.893584 235.476586 
L 83.919068 235.421751 
L 84.027377 235.147579 
L 84.097459 235.03791 
L 84.205768 234.818572 
L 84.269479 234.708903 
L 84.294964 234.599233 
L 84.435128 234.489564 
L 84.50521 234.379895 
L 84.575293 234.325061 
L 84.664488 234.105723 
L 84.925704 233.996054 
L 85.034013 233.447708 
L 85.123208 233.338039 
L 85.206033 232.899363 
L 85.295228 232.789694 
L 85.390795 232.515521 
L 85.486362 232.460687 
L 85.562815 232.186514 
L 85.715722 232.076845 
L 85.81766 231.857507 
L 85.900484 231.747838 
L 85.900484 231.693003 
L 86.021535 231.583334 
L 86.085246 231.254327 
L 86.244524 231.144658 
L 86.320978 230.92532 
L 86.461142 230.815651 
L 86.537595 230.541478 
L 86.67776 230.431809 
L 86.728729 230.212471 
L 86.900749 230.102802 
L 86.945347 229.993132 
L 87.053656 229.938298 
L 87.110996 229.664125 
L 87.19382 229.609291 
L 87.270273 229.389953 
L 87.461407 229.280284 
L 87.556974 229.060945 
L 87.658911 228.951276 
L 87.748107 228.5126 
L 87.971096 228.402931 
L 88.041178 228.293262 
L 88.194085 228.183593 
L 88.28328 227.690082 
L 88.448929 227.580413 
L 88.550867 227.196571 
L 88.646434 227.086902 
L 88.754743 226.922399 
L 88.875794 226.812729 
L 88.958618 226.538557 
L 89.02233 226.483722 
L 89.124267 226.20955 
L 89.563874 226.09988 
L 89.563874 226.045046 
L 89.704039 225.935377 
L 89.793234 225.716039 
L 89.844203 225.60637 
L 89.901543 225.496701 
L 90.118161 225.387032 
L 90.175501 225.112859 
L 90.258326 225.058024 
L 90.315666 224.674183 
L 90.404861 224.564513 
L 90.436717 224.454844 
L 90.589623 224.345175 
L 90.697932 224.125837 
L 90.74253 224.016168 
L 90.748901 223.906499 
L 90.933663 223.79683 
L 91.010117 223.632326 
L 91.328673 223.522657 
L 91.37327 223.358154 
L 91.609001 223.248485 
L 91.710939 222.864643 
L 91.806506 222.754974 
L 91.870217 222.59047 
L 91.959413 222.535636 
L 92.061351 221.822787 
L 92.118691 221.713118 
L 92.201515 221.603449 
L 92.297082 221.49378 
L 92.379906 221.329276 
L 92.551926 221.219607 
L 92.602895 221.000269 
L 92.819513 220.8906 
L 92.921451 220.616427 
L 93.080729 220.561592 
L 93.169924 220.232585 
L 93.290975 220.122916 
L 93.392913 219.958413 
L 93.469366 219.848743 
L 93.571304 219.574571 
L 93.845262 219.464902 
L 93.921716 219.355233 
L 94.010911 219.245564 
L 94.11922 218.971391 
L 94.195673 218.861722 
L 94.284869 218.642384 
L 94.46326 218.587549 
L 94.5206 218.258542 
L 94.686249 218.148873 
L 94.788187 217.819866 
L 94.845527 217.710197 
L 94.934722 217.490858 
L 95.081258 217.381189 
L 95.164083 217.216686 
L 95.49538 217.107017 
L 95.597318 216.887679 
L 95.820307 216.778009 
L 95.864905 216.558671 
L 95.979585 216.449002 
L 96.081523 216.229664 
L 96.107007 216.229664 
L 96.215316 216.010326 
L 96.266285 215.900657 
L 96.342738 215.790988 
L 96.470161 215.681319 
L 96.514759 215.461981 
L 96.686779 215.407146 
L 96.795088 214.96847 
L 96.941623 214.858801 
L 97.018076 214.694297 
L 97.170983 214.584628 
L 97.170983 214.529794 
L 97.470425 214.420124 
L 97.540508 214.036283 
L 97.629703 213.926614 
L 97.642446 213.816945 
L 97.808094 213.707275 
L 97.89729 213.487937 
L 97.948259 213.487937 
L 98.050197 212.994427 
L 98.196732 212.884757 
L 98.203103 212.775088 
L 98.349639 212.665419 
L 98.451577 212.446081 
L 98.559886 212.336412 
L 98.629968 212.117074 
L 98.751019 212.007405 
L 98.827473 211.568729 
L 99.018606 211.45906 
L 99.120544 211.130052 
L 99.279822 211.020383 
L 99.381759 210.746211 
L 99.630233 210.636542 
L 99.681202 210.472038 
L 99.821366 210.362369 
L 99.89782 210.033362 
L 100.076211 209.923693 
L 100.171777 209.759189 
L 100.267344 209.64952 
L 100.305571 209.375347 
L 100.439364 209.265678 
L 100.547673 208.881836 
L 100.726064 208.772167 
L 100.75792 208.607664 
L 100.942682 208.497995 
L 100.949053 208.388326 
L 101.178413 208.278657 
L 101.248496 207.949649 
L 101.38866 207.83998 
L 101.458742 207.675477 
L 101.656247 207.565808 
L 101.656247 207.510973 
L 101.860122 207.401304 
L 101.898349 207.291635 
L 102.19142 207.181966 
L 102.261503 206.798124 
L 102.395296 206.688455 
L 102.503605 206.523951 
L 102.516347 206.523951 
L 102.605543 206.194944 
L 102.662883 206.085275 
L 102.70748 205.975606 
L 102.962325 205.865937 
L 103.051521 205.427261 
L 103.166201 205.317592 
L 103.172572 205.153088 
L 103.38919 205.043419 
L 103.414674 204.878915 
L 103.84791 204.769246 
L 103.917992 204.604743 
L 104.051785 204.495074 
L 104.13461 204.220901 
L 104.19195 204.111232 
L 104.287516 203.891894 
L 104.332114 203.891894 
L 104.440423 203.453217 
L 104.542361 203.343548 
L 104.637928 203.014541 
L 104.758979 202.904872 
L 104.867288 202.466196 
L 104.956483 202.356527 
L 105.020194 202.192023 
L 105.22407 202.082354 
L 105.332379 201.808181 
L 105.472543 201.698512 
L 105.561739 201.42434 
L 105.657306 201.314671 
L 105.746501 200.985663 
L 105.963119 200.875994 
L 105.982233 200.711491 
L 106.192479 200.601822 
L 106.224335 200.382483 
L 106.42821 200.272814 
L 106.523777 200.053476 
L 106.695797 199.998642 
L 106.695797 199.888973 
L 106.912415 199.779304 
L 106.912415 199.724469 
L 107.10992 199.669634 
L 107.211857 199.450296 
L 107.352022 199.340627 
L 107.358393 199.176124 
L 107.530413 199.066455 
L 107.581382 198.847116 
L 107.657835 198.792282 
L 107.721546 198.627778 
L 107.823484 198.572944 
L 107.91268 198.189102 
L 108.008246 198.079433 
L 108.103813 197.80526 
L 108.212122 197.695591 
L 108.307689 197.585922 
L 108.626244 197.476253 
L 108.71544 197.147246 
L 108.836491 197.037577 
L 108.9448 196.818239 
L 109.053109 196.70857 
L 109.161418 196.379562 
L 109.282469 196.269893 
L 109.371665 195.995721 
L 109.550056 195.886052 
L 109.550056 195.831217 
L 109.779416 195.721548 
L 109.874983 195.392541 
L 110.015147 195.282872 
L 110.110714 195.063533 
L 110.276363 194.953864 
L 110.371929 194.789361 
L 110.531207 194.679692 
L 110.626774 194.515188 
L 110.779681 194.405519 
L 110.88799 194.29585 
L 110.94533 194.186181 
L 111.040896 193.966843 
L 111.091865 193.857174 
L 111.091865 193.802339 
L 111.308483 193.69267 
L 111.416792 193.473332 
L 111.80543 193.363663 
L 111.913739 192.979821 
L 112.03479 192.924987 
L 112.136728 192.705648 
L 112.174954 192.595979 
L 112.194068 192.48631 
L 112.327861 192.431476 
L 112.327861 192.321807 
L 112.525366 192.212138 
L 112.614561 192.047634 
L 112.741983 191.9928 
L 112.818437 191.773461 
L 113.015941 191.663792 
L 113.12425 191.554123 
L 113.23893 191.444454 
L 113.23893 191.38962 
L 113.500146 191.279951 
L 113.602084 191.060612 
L 113.735877 190.950943 
L 113.780475 190.78644 
L 113.914268 190.731605 
L 113.914268 190.621936 
L 114.118144 190.512267 
L 114.213711 190.347763 
L 114.430328 190.238094 
L 114.481297 190.018756 
L 114.576864 189.909087 
L 114.60872 189.744584 
L 114.78074 189.634914 
L 114.844451 189.415576 
L 115.035584 189.305907 
L 115.131151 189.086569 
L 115.405109 188.9769 
L 115.443335 188.867231 
L 115.736407 188.757562 
L 115.749149 188.647893 
L 116.035849 188.538224 
L 116.067704 188.428555 
L 116.418116 188.318886 
L 116.513682 188.099547 
L 116.61562 187.989878 
L 116.698445 187.660871 
L 116.895949 187.551202 
L 116.991516 187.441533 
L 117.061598 187.331864 
L 117.169907 187.002857 
L 117.443865 186.893188 
L 117.513947 186.783519 
L 117.641369 186.67385 
L 117.736936 186.454511 
L 117.870729 186.344842 
L 117.972667 186.235173 
L 118.233883 186.125504 
L 118.32945 185.906166 
L 118.482356 185.796497 
L 118.584294 185.522324 
L 118.654376 185.412655 
L 118.73083 185.248152 
L 118.992045 185.138483 
L 119.081241 184.809475 
L 119.138581 184.699806 
L 119.138581 184.644972 
L 119.278745 184.535303 
L 119.323343 184.206295 
L 119.661012 184.096626 
L 119.769321 183.712785 
L 119.826661 183.603116 
L 119.903115 183.164439 
L 120.043279 183.109605 
L 120.113361 182.945101 
L 120.215299 182.835432 
L 120.215299 182.780598 
L 120.489257 182.670928 
L 120.489257 182.616094 
L 120.68039 182.561259 
L 120.699504 182.396756 
L 120.941606 182.287087 
L 121.005317 182.122583 
L 121.292017 182.012914 
L 121.355728 181.793576 
L 121.636057 181.683907 
L 121.731624 181.3549 
L 121.973726 181.245231 
L 122.056551 181.135562 
L 122.171231 181.025892 
L 122.27954 180.642051 
L 122.687291 180.532382 
L 122.757373 180.367878 
L 122.929393 180.258209 
L 122.980362 180.093705 
L 123.171496 179.984036 
L 123.273433 179.819533 
L 123.388113 179.709864 
L 123.48368 179.380856 
L 123.6557 179.271187 
L 123.700298 179.161518 
L 123.865947 179.051849 
L 123.967885 178.94218 
L 124.165389 178.887346 
L 124.241843 178.668007 
L 124.369265 178.558338 
L 124.413863 178.339 
L 124.534914 178.339 
L 124.624109 178.064828 
L 124.700563 178.009993 
L 124.789758 177.73582 
L 124.891696 177.626151 
L 124.980892 177.406813 
L 125.114685 177.297144 
L 125.114685 177.187475 
L 125.356787 177.077806 
L 125.439612 176.968137 
L 125.630745 176.858468 
L 125.726312 176.63913 
L 125.987528 176.529461 
L 126.051239 176.419791 
L 126.185032 176.310122 
L 126.261485 176.03595 
L 126.376165 175.926281 
L 126.471732 175.816612 
L 126.580041 175.706943 
L 126.599154 175.597273 
L 126.752061 175.487604 
L 126.758432 175.377935 
L 127.019648 175.268266 
L 127.127957 174.994094 
L 127.198039 174.884424 
L 127.236266 174.774755 
L 127.370059 174.665086 
L 127.370059 174.610252 
L 127.535708 174.500583 
L 127.599419 174.281245 
L 127.701357 174.22641 
L 127.701357 174.116741 
L 127.89249 174.007072 
L 127.962573 173.842568 
L 128.211046 173.732899 
L 128.217417 173.568396 
L 128.434035 173.458727 
L 128.472262 173.294223 
L 128.676137 173.184554 
L 128.771704 172.965216 
L 128.930982 172.855547 
L 128.988322 172.691043 
L 129.09026 172.581374 
L 129.115744 172.41687 
L 129.427929 172.307201 
L 129.523495 172.142698 
L 129.66366 172.033029 
L 129.752855 171.758856 
L 129.861164 171.649187 
L 129.969473 171.539518 
L 130.217947 171.429849 
L 130.217947 171.375014 
L 130.447307 171.265345 
L 130.447307 171.210511 
L 130.714893 171.100842 
L 130.765862 170.881503 
L 130.937882 170.771834 
L 131.014336 170.497662 
L 131.148129 170.387993 
L 131.243696 170.278324 
L 131.294665 170.168654 
L 131.358376 169.949316 
L 131.543138 169.839647 
L 131.632334 169.675144 
L 131.887178 169.565475 
L 131.95726 169.400971 
L 132.040085 169.346136 
L 132.135652 169.071964 
L 132.250332 169.017129 
L 132.250332 168.90746 
L 132.479692 168.797791 
L 132.58163 168.688122 
L 133.014865 168.578453 
L 133.09769 168.139777 
L 133.180514 168.030108 
L 133.288823 167.536597 
L 133.505441 167.426928 
L 133.537296 167.262424 
L 133.709317 167.152755 
L 133.804883 166.988251 
L 133.970532 166.878582 
L 134.066099 166.549575 
L 134.117068 166.439906 
L 134.161666 166.330237 
L 134.429252 166.220568 
L 134.486592 166.110899 
L 134.81789 166.00123 
L 134.894344 165.891561 
L 135.072735 165.836726 
L 135.072735 165.727057 
L 135.308466 165.617388 
L 135.33395 165.507719 
L 135.601537 165.39805 
L 135.614279 165.233546 
L 135.945577 165.123877 
L 136.053886 164.849705 
L 136.213164 164.740035 
L 136.315102 164.575532 
L 136.729224 164.465863 
L 136.831162 164.246525 
L 136.952213 164.136856 
L 136.952213 164.082021 
L 137.213429 163.972352 
L 137.27714 163.807848 
L 137.582953 163.698179 
L 137.582953 163.643345 
L 137.933364 163.533676 
L 138.028931 163.424007 
L 138.105385 163.314338 
L 138.213693 163.149834 
L 138.353858 163.040165 
L 138.430311 162.875661 
L 138.532249 162.765992 
L 138.570476 162.546654 
L 138.88266 162.436985 
L 138.959114 162.107978 
L 139.156618 161.998309 
L 139.16936 161.88864 
L 139.475174 161.778971 
L 139.583483 161.559632 
L 139.787358 161.504798 
L 139.85107 161.28546 
L 139.997605 161.230625 
L 140.08043 161.066122 
L 140.220594 160.956453 
L 140.303419 160.791949 
L 140.590119 160.68228 
L 140.65383 160.517776 
L 140.864076 160.408107 
L 140.934159 160.024265 
L 141.16989 159.914596 
L 141.259086 159.750093 
L 141.475703 159.640424 
L 141.584012 159.366251 
L 141.705063 159.256582 
L 141.80063 159.037244 
L 142.02999 158.927575 
L 142.036361 158.817906 
L 142.310319 158.708237 
L 142.329433 158.598567 
L 142.609761 158.488898 
L 142.692586 158.26956 
L 142.826379 158.159891 
L 142.928317 157.995388 
L 143.087595 157.885719 
L 143.087595 157.830884 
L 143.297842 157.721215 
L 143.355182 157.611546 
L 143.680108 157.501877 
L 143.750191 157.282539 
L 143.864871 157.17287 
L 143.954066 157.0632 
L 144.240766 156.953531 
L 144.342704 156.789028 
L 144.444642 156.679359 
L 144.476498 156.514855 
L 144.712229 156.405186 
L 144.712229 156.350352 
L 145.069011 156.240682 
L 145.158207 156.131013 
L 145.317485 156.076179 
L 145.413051 155.911675 
L 145.559587 155.802006 
L 145.585071 155.692337 
L 145.833545 155.582668 
L 145.929111 155.472999 
L 146.050163 155.418164 
L 146.120245 155.198826 
L 146.336863 155.143992 
L 146.336863 155.034323 
L 146.661789 154.924654 
L 146.750985 154.650481 
L 147.005829 154.540812 
L 147.069541 154.321474 
L 147.356241 154.211805 
L 147.451807 154.102136 
L 147.681167 153.992467 
L 147.713023 153.882797 
L 147.936012 153.773128 
L 148.03795 153.444121 
L 148.38199 153.334452 
L 148.38199 153.279618 
L 148.566752 153.169948 
L 148.630463 153.005445 
L 148.745143 152.895776 
L 148.847081 152.4571 
L 149.133781 152.34743 
L 149.235719 152.182927 
L 149.350399 152.073258 
L 149.445966 151.799085 
L 149.809119 151.689416 
L 149.809119 151.634581 
L 150.248726 151.524912 
L 150.325179 151.305574 
L 150.522684 151.195905 
L 150.618251 151.086236 
L 150.701075 150.976567 
L 150.809384 150.64756 
L 151.051486 150.537891 
L 151.12794 150.263718 
L 151.325444 150.154049 
L 151.370042 149.989545 
L 151.803278 149.879876 
L 151.911587 149.770207 
L 152.230142 149.660538 
L 152.287482 149.496035 
L 152.516842 149.386366 
L 152.529585 149.276696 
L 152.886367 149.167027 
L 152.956449 148.892855 
L 153.19218 148.83802 
L 153.275005 148.618682 
L 153.523478 148.509013 
L 153.619045 148.344509 
L 153.676385 148.289675 
L 153.784694 148.015502 
L 154.007683 147.905833 
L 154.090507 147.741329 
L 154.262527 147.63166 
L 154.351723 147.467157 
L 154.453661 147.357488 
L 154.549227 147.247819 
L 154.918752 147.192984 
L 154.918752 147.083315 
L 155.218194 147.028481 
L 155.218194 146.918811 
L 155.42207 146.809142 
L 155.485781 146.699473 
L 155.797965 146.589804 
L 155.906274 146.370466 
L 156.409592 146.260797 
L 156.51153 146.096293 
L 156.645324 145.986624 
L 156.670808 145.822121 
L 157.263321 145.712452 
L 157.269693 145.602783 
L 157.677444 145.493114 
L 157.677444 145.438279 
L 157.843093 145.32861 
L 157.868577 145.218941 
L 158.034226 145.164106 
L 158.034226 145.054437 
L 158.187133 144.999603 
L 158.257215 144.615761 
L 158.416493 144.506092 
L 158.416493 144.451257 
L 158.964409 144.341588 
L 158.964409 144.286754 
L 159.709829 144.177085 
L 159.811767 144.067416 
L 160.194034 143.957747 
L 160.225889 143.793243 
L 160.531702 143.683574 
L 160.531702 143.628739 
L 161.09236 143.51907 
L 161.175185 143.354567 
L 161.455514 143.244898 
L 161.455514 143.190063 
L 161.71673 143.080394 
L 161.77407 142.91589 
L 162.105367 142.806221 
L 162.194563 142.696552 
L 162.372954 142.586883 
L 162.449408 142.477214 
L 162.767963 142.367545 
L 162.844417 142.203041 
L 163.169343 142.093372 
L 163.20757 141.983703 
L 163.360477 141.874034 
L 163.43693 141.709531 
L 163.583466 141.599862 
L 163.66629 141.490192 
L 163.787341 141.380523 
L 163.819197 141.270854 
L 164.195093 141.161185 
L 164.220577 141.051516 
L 164.367113 140.941847 
L 164.379855 140.832178 
L 164.692039 140.722509 
L 164.800348 140.448336 
L 164.908657 140.393502 
L 164.934142 140.228998 
L 165.074306 140.174164 
L 165.176244 139.954825 
L 165.32278 139.954825 
L 165.373748 139.625818 
L 165.60948 139.516149 
L 165.60948 139.461315 
L 166.004489 139.351646 
L 166.0682 139.132307 
L 166.393127 139.022638 
L 166.393127 138.967804 
L 166.6416 138.858135 
L 166.730795 138.693631 
L 167.316938 138.583962 
L 167.412505 138.419458 
L 167.590896 138.309789 
L 167.590896 138.254955 
L 167.839369 138.145286 
L 167.947678 138.035617 
L 168.202523 137.925948 
L 168.202523 137.871113 
L 168.629387 137.761444 
L 168.673985 137.651775 
L 168.814149 137.59694 
L 168.852376 137.432437 
L 169.266498 137.322768 
L 169.285612 137.10343 
L 169.534085 136.993761 
L 169.565941 136.884091 
L 169.795301 136.774422 
L 169.884496 136.609919 
L 170.273134 136.50025 
L 170.336845 136.390581 
L 170.64903 136.280912 
L 170.64903 136.226077 
L 170.916617 136.116408 
L 170.980328 135.89707 
L 171.368966 135.787401 
L 171.368966 135.732566 
L 172.006077 135.622897 
L 172.037933 135.513228 
L 172.445684 135.403559 
L 172.452055 135.29389 
L 172.929888 135.184221 
L 173.019084 135.074552 
L 173.203846 134.964883 
L 173.2803 134.800379 
L 173.834587 134.69071 
L 173.885555 134.526206 
L 174.19774 134.416537 
L 174.267822 134.306868 
L 174.726542 134.197199 
L 174.822109 134.08753 
L 175.242603 133.977861 
L 175.261716 133.868192 
L 175.51656 133.758523 
L 175.599385 133.539185 
L 175.822374 133.429516 
L 175.924312 133.319847 
L 176.153672 133.210178 
L 176.179156 133.100509 
L 176.472227 132.990839 
L 176.567794 132.826336 
L 176.835381 132.716667 
L 176.937319 132.442494 
L 177.17305 132.332825 
L 177.243132 132.168321 
L 177.453379 132.058652 
L 177.478863 131.948983 
L 177.727337 131.839314 
L 177.727337 131.78448 
L 178.141459 131.674811 
L 178.243397 131.510307 
L 178.358077 131.400638 
L 178.415417 131.236134 
L 178.714859 131.126465 
L 178.77857 131.016796 
L 178.976075 130.907127 
L 179.084384 130.797458 
L 179.664155 130.687789 
L 179.759722 130.523285 
L 180.454173 130.413616 
L 180.543369 130.303947 
L 180.868295 130.194278 
L 180.89378 130.029775 
L 181.116769 129.97494 
L 181.142253 129.810436 
L 181.435324 129.700767 
L 181.52452 129.536264 
L 181.690169 129.426595 
L 181.747509 129.316926 
L 181.951385 129.207257 
L 182.059694 128.933084 
L 182.066065 128.933084 
L 182.174374 128.604077 
L 182.61398 128.494408 
L 182.722289 128.384739 
L 182.977134 128.275069 
L 183.066329 128.1654 
L 183.295689 128.055731 
L 183.403998 127.836393 
L 183.792636 127.726724 
L 183.792636 127.67189 
L 184.053852 127.56222 
L 184.136676 127.452551 
L 184.346923 127.397717 
L 184.429748 127.233213 
L 184.646365 127.123544 
L 184.748303 126.904206 
L 184.90121 126.849372 
L 184.90121 126.739702 
L 185.24525 126.630033 
L 185.328075 126.520364 
L 185.684857 126.410695 
L 185.70397 126.246192 
L 186.041639 126.136523 
L 186.092608 125.917184 
L 186.385679 125.807515 
L 186.385679 125.752681 
L 186.659637 125.697846 
L 186.697864 125.533343 
L 187.169326 125.423674 
L 187.233037 125.314005 
L 187.545222 125.204335 
L 187.570706 125.039832 
L 187.736355 124.930163 
L 187.800066 124.820494 
L 188.118622 124.710825 
L 188.201446 124.546321 
L 188.475404 124.491487 
L 188.570971 124.272148 
L 188.819444 124.162479 
L 188.819444 124.107645 
L 189.055176 123.997976 
L 189.163485 123.778638 
L 189.348247 123.668968 
L 189.348247 123.559299 
L 189.622205 123.44963 
L 189.647689 123.339961 
L 189.870678 123.230292 
L 189.88342 123.120623 
L 190.469563 123.010954 
L 190.482305 122.901285 
L 190.813603 122.791616 
L 190.845458 122.681947 
L 191.272323 122.572278 
L 191.361519 122.35294 
L 191.629105 122.243271 
L 191.718301 122.133601 
L 191.839352 122.023932 
L 191.839352 121.969098 
L 192.272588 121.859429 
L 192.272588 121.804594 
L 192.74405 121.694925 
L 192.839617 121.475587 
L 192.928812 121.365918 
L 192.998895 121.256249 
L 193.285595 121.14658 
L 193.285595 121.091745 
L 193.457615 120.982076 
L 193.514955 120.817573 
L 193.71883 120.707904 
L 193.795284 120.488565 
L 194.107468 120.378896 
L 194.107468 120.324062 
L 194.45788 120.214393 
L 194.534333 120.104724 
L 194.74458 119.995055 
L 194.821033 119.775716 
L 194.993053 119.666047 
L 195.012166 119.556378 
L 195.521855 119.446709 
L 195.60468 119.117702 
L 195.763958 119.062868 
L 195.763958 118.953198 
L 196.356471 118.843529 
L 196.356471 118.788695 
L 196.553976 118.679026 
L 196.655914 118.350019 
L 197.318509 118.240349 
L 197.38222 117.966177 
L 197.617952 117.856508 
L 197.617952 117.801673 
L 198.019332 117.692004 
L 198.114898 117.527501 
L 198.433454 117.417831 
L 198.490794 117.198493 
L 198.777494 117.088824 
L 198.847576 116.979155 
L 199.338152 116.869486 
L 199.344523 116.759817 
L 199.567512 116.650148 
L 199.567512 116.595313 
L 199.866954 116.485644 
L 199.95615 116.266306 
L 200.140912 116.156637 
L 200.160026 115.937299 
L 200.542292 115.82763 
L 200.542292 115.772795 
L 200.803508 115.663126 
L 200.860848 115.498623 
L 201.236744 115.388954 
L 201.281342 115.279285 
L 201.472475 115.169615 
L 201.548928 115.059946 
L 201.829257 114.950277 
L 201.861113 114.840608 
L 202.084102 114.730939 
L 202.084102 114.676105 
L 202.778553 114.566436 
L 202.855007 114.401932 
L 202.969687 114.292263 
L 203.039769 114.182594 
L 203.186304 114.072925 
L 203.186304 114.01809 
L 203.383809 113.963256 
L 203.383809 113.853587 
L 203.715107 113.743918 
L 203.715107 113.689083 
L 203.982694 113.579414 
L 203.982694 113.524579 
L 204.492383 113.41491 
L 204.492383 113.360076 
L 204.817309 113.250407 
L 204.919247 113.085903 
L 205.231432 112.976234 
L 205.269658 112.866565 
L 205.84943 112.756896 
L 205.913141 112.592392 
L 206.206212 112.482723 
L 206.301779 112.31822 
L 206.499283 112.208551 
L 206.569365 111.989212 
L 207.16825 111.879543 
L 207.16825 111.824709 
L 207.588744 111.71504 
L 207.607857 111.605371 
L 207.843588 111.495702 
L 207.91367 111.331198 
L 208.283195 111.221529 
L 208.334164 111.11186 
L 209.124182 111.002191 
L 209.124182 110.947356 
L 209.500077 110.837687 
L 209.525562 110.728018 
L 210.054364 110.618349 
L 210.130818 110.399011 
L 210.213642 110.289342 
L 210.25824 110.179673 
L 210.959062 110.070004 
L 210.959062 110.015169 
L 211.23302 109.9055 
L 211.322216 109.795831 
L 211.494236 109.686162 
L 211.494236 109.576493 
L 211.927472 109.466824 
L 211.959327 109.357155 
L 212.373449 109.247486 
L 212.398934 109.137817 
L 212.653778 109.082982 
L 212.755716 108.863644 
L 213.214436 108.753975 
L 213.214436 108.69914 
L 213.437425 108.589471 
L 213.437425 108.534637 
L 213.679528 108.424968 
L 213.679528 108.370133 
L 213.940743 108.260464 
L 214.029939 108.150795 
L 214.240186 108.041126 
L 214.284783 107.766953 
L 214.482288 107.657284 
L 214.501401 107.547615 
L 214.730761 107.437946 
L 214.762617 107.328277 
L 215.144884 107.218608 
L 215.253193 107.054104 
L 215.629088 106.944435 
L 215.629088 106.889601 
L 216.183375 106.779932 
L 216.291684 106.560593 
L 217.081702 106.450924 
L 217.081702 106.39609 
L 217.483082 106.286421 
L 217.58502 106.067083 
L 217.846236 105.957414 
L 217.935431 105.738075 
L 218.432378 105.628406 
L 218.432378 105.573572 
L 219.394416 105.463903 
L 219.496354 105.244565 
L 219.732085 105.134896 
L 219.814909 105.025226 
L 220.260887 104.915557 
L 220.318227 104.805888 
L 220.738721 104.696219 
L 220.738721 104.641385 
L 221.057277 104.531716 
L 221.095503 104.367212 
L 221.280265 104.257543 
L 221.280265 104.147874 
L 221.554223 104.038205 
L 221.656161 103.928536 
L 221.930119 103.818867 
L 221.974717 103.654363 
L 222.184964 103.544694 
L 222.248675 103.435025 
L 222.828446 103.325356 
L 222.873044 103.106018 
L 223.108775 102.996349 
L 223.108775 102.941514 
L 223.930648 102.831845 
L 223.930648 102.777011 
L 224.325658 102.667341 
L 224.325658 102.612507 
L 224.497678 102.502838 
L 224.555018 102.393169 
L 224.943655 102.2835 
L 225.020109 102.118996 
L 225.262211 102.009327 
L 225.300438 101.899658 
L 225.791014 101.789989 
L 225.82924 101.625485 
L 225.937549 101.515816 
L 225.937549 101.460982 
L 226.096827 101.351313 
L 226.122311 101.241644 
L 226.421754 101.131974 
L 226.510949 101.022305 
L 226.835876 100.912636 
L 226.937814 100.693298 
L 227.848883 100.583629 
L 227.848883 100.528795 
L 228.428654 100.419125 
L 228.428654 100.364291 
L 228.970199 100.254622 
L 228.970199 100.199787 
L 229.620052 100.090118 
L 229.620052 100.035284 
L 229.89401 99.925615 
L 229.89401 99.87078 
L 230.282648 99.761111 
L 230.327246 99.596607 
L 230.709513 99.486938 
L 230.754111 99.377269 
L 230.996213 99.2676 
L 230.996213 99.157931 
L 231.652438 99.048262 
L 231.652438 98.993428 
L 231.811715 98.883758 
L 231.875426 98.719255 
L 232.327775 98.609586 
L 232.436084 98.499917 
L 232.856578 98.390248 
L 232.856578 98.335413 
L 233.601998 98.225744 
L 233.691194 98.06124 
L 234.047976 98.006406 
L 234.143543 97.841902 
L 234.385645 97.732233 
L 234.385645 97.677399 
L 234.659603 97.56773 
L 234.672345 97.458061 
L 234.908076 97.348392 
L 234.965416 97.238722 
L 235.315828 97.129053 
L 235.315828 97.074219 
L 235.608899 96.96455 
L 235.608899 96.909715 
L 236.035763 96.800046 
L 236.035763 96.745212 
L 236.379803 96.635543 
L 236.379803 96.580708 
L 236.793926 96.471039 
L 236.87675 96.306535 
L 237.169821 96.196866 
L 237.271759 96.032363 
L 237.787819 95.922694 
L 237.889757 95.593686 
L 238.049035 95.484017 
L 238.100004 95.374348 
L 238.291137 95.264679 
L 238.291137 95.209845 
L 238.718002 95.100176 
L 238.768971 94.935672 
L 239.042929 94.826003 
L 239.087526 94.716334 
L 239.616329 94.606665 
L 239.699153 94.442161 
L 240.176987 94.332492 
L 240.285296 94.167988 
L 240.463687 94.058319 
L 240.54014 93.94865 
L 240.705789 93.838981 
L 240.705789 93.784147 
L 241.183623 93.674478 
L 241.183623 93.619643 
L 242.476959 93.509974 
L 242.476959 93.45514 
L 242.71269 93.400305 
L 242.744545 93.235801 
L 243.381657 93.126132 
L 243.438997 93.016463 
L 243.929572 92.906794 
L 244.03151 92.742291 
L 244.350066 92.632621 
L 244.350066 92.577787 
L 245.082744 92.468118 
L 245.140084 92.358449 
L 245.324846 92.24878 
L 245.324846 92.193945 
L 246.044782 92.084276 
L 246.044782 92.029442 
L 246.363338 91.919773 
L 246.363338 91.864938 
L 246.713749 91.755269 
L 246.726491 91.6456 
L 247.172469 91.535931 
L 247.172469 91.481096 
L 247.803209 91.371427 
L 247.803209 91.316593 
L 248.255558 91.206924 
L 248.306527 91.04242 
L 248.739763 90.932751 
L 248.828958 90.658578 
L 249.427843 90.548909 
L 249.427843 90.494075 
L 250.186005 90.43924 
L 250.186005 90.274736 
L 251.01425 90.165067 
L 251.01425 90.110233 
L 251.313692 90.000564 
L 251.313692 89.890895 
L 251.536681 89.781226 
L 251.594021 89.671557 
L 251.893464 89.561887 
L 251.918948 89.452218 
L 252.307586 89.342549 
L 252.307586 89.287715 
L 252.619771 89.178046 
L 252.677111 89.068377 
L 252.919213 88.958708 
L 252.976553 88.849039 
L 253.12946 88.739369 
L 253.148573 88.6297 
L 253.498984 88.520031 
L 253.569066 88.410362 
L 254.091498 88.300693 
L 254.180693 88.191024 
L 254.690382 88.081355 
L 254.690382 87.971686 
L 255.244669 87.862017 
L 255.327494 87.752348 
L 255.754358 87.642679 
L 255.754358 87.53301 
L 256.270418 87.423341 
L 256.270418 87.368506 
L 257.02221 87.258837 
L 257.047694 87.149168 
L 257.283425 87.039499 
L 257.347136 86.92983 
L 257.729403 86.820161 
L 257.82497 86.655657 
L 258.009732 86.545988 
L 258.086186 86.381484 
L 258.850719 86.271815 
L 258.882575 86.162146 
L 259.360408 86.052477 
L 259.360408 85.997643 
L 259.640737 85.887974 
L 259.647108 85.778305 
L 260.003891 85.668635 
L 260.086715 85.504132 
L 260.424384 85.394463 
L 260.519951 85.229959 
L 260.934073 85.12029 
L 261.004155 85.010621 
L 261.137949 84.955787 
L 261.137949 84.846117 
L 261.481989 84.736448 
L 261.481989 84.681614 
L 261.88974 84.626779 
L 261.978936 84.462276 
L 262.514109 84.352607 
L 262.622418 84.242938 
L 262.737098 84.133268 
L 262.737098 84.078434 
L 263.119365 83.968765 
L 263.170334 83.859096 
L 263.743734 83.749427 
L 263.743734 83.694592 
L 264.425443 83.584923 
L 264.431814 83.475254 
L 264.769483 83.365585 
L 264.858679 83.255916 
L 265.342883 83.146247 
L 265.342883 83.091412 
L 265.846201 82.981743 
L 265.922655 82.81724 
L 266.406859 82.707571 
L 266.406859 82.652736 
L 266.712673 82.543067 
L 266.81461 82.433398 
L 267.286073 82.323729 
L 267.311557 82.21406 
L 267.72568 82.159225 
L 267.808504 81.885053 
L 268.343678 81.775383 
L 268.375533 81.61088 
L 268.942562 81.501211 
L 269.0445 81.391542 
L 270.172187 81.281873 
L 270.242269 81.172204 
L 270.458887 81.062535 
L 270.560825 80.898031 
L 270.624536 80.788362 
L 270.624536 80.733527 
L 270.994061 80.623858 
L 271.070514 80.514189 
L 271.694883 80.40452 
L 271.784079 80.294851 
L 271.981583 80.185182 
L 271.987954 80.075513 
L 272.733374 79.965844 
L 272.733374 79.911009 
L 273.16661 79.80134 
L 273.198466 79.691671 
L 273.548877 79.582002 
L 273.548877 79.527168 
L 274.307039 79.417498 
L 274.307039 79.362664 
L 274.625595 79.252995 
L 274.638337 79.143326 
L 274.925037 79.033657 
L 274.925037 78.978822 
L 275.192624 78.869153 
L 275.192624 78.814319 
L 275.606746 78.704649 
L 275.606746 78.649815 
L 276.747176 78.540146 
L 276.747176 78.485311 
L 277.365174 78.375642 
L 277.473483 78.265973 
L 277.798409 78.156304 
L 277.798409 78.10147 
L 278.104223 77.991801 
L 278.104223 77.936966 
L 278.620283 77.827297 
L 278.620283 77.772462 
L 279.244652 77.662793 
L 279.327476 77.553124 
L 280.353226 77.443455 
L 280.353226 77.388621 
L 281.12413 77.278952 
L 281.232439 77.004779 
L 281.729386 76.89511 
L 281.818582 76.785441 
L 282.290044 76.675772 
L 282.290044 76.620937 
L 282.487549 76.511268 
L 282.595857 76.346764 
L 283.175629 76.237095 
L 283.188371 76.127426 
L 283.417731 76.017757 
L 283.52604 75.853254 
L 284.551789 75.743585 
L 284.551789 75.68875 
L 285.188901 75.579081 
L 285.252612 75.469412 
L 285.481972 75.359743 
L 285.552054 75.195239 
L 285.896094 75.08557 
L 285.972547 74.866232 
L 286.144567 74.756563 
L 286.144567 74.701728 
L 286.73071 74.592059 
L 286.749823 74.48239 
L 287.59081 74.372721 
L 287.680006 74.263052 
L 287.883881 74.153383 
L 287.947592 74.043714 
L 288.10687 73.934045 
L 288.215179 73.824376 
L 288.56559 73.714707 
L 288.56559 73.659872 
L 288.769466 73.550203 
L 288.769466 73.495369 
L 289.41932 73.3857 
L 289.489402 73.27603 
L 290.374987 73.166361 
L 290.374987 73.111527 
L 290.706284 73.001858 
L 290.706284 72.947023 
L 291.171376 72.837354 
L 291.171376 72.78252 
L 291.394365 72.672851 
L 291.394365 72.618016 
L 291.636467 72.508347 
L 291.636467 72.453512 
L 291.929538 72.343843 
L 292.025105 72.124505 
L 293.076338 72.014836 
L 293.076338 71.960002 
L 293.337554 71.850333 
L 293.337554 71.795498 
L 294.427014 71.685829 
L 294.528952 71.521325 
L 295.025899 71.411656 
L 295.08961 71.301987 
L 296.261895 71.192318 
L 296.274637 71.082649 
L 296.771584 70.97298 
L 296.771584 70.918145 
L 298.230569 70.808476 
L 298.23694 70.698807 
L 299.058814 70.589138 
L 299.09704 70.479469 
L 299.797863 70.3698 
L 299.842461 70.260131 
L 300.339407 70.150462 
L 300.377634 70.040793 
L 300.734416 69.931124 
L 300.734416 69.876289 
L 300.963776 69.76662 
L 301.059343 69.656951 
L 301.333301 69.547282 
L 301.428868 69.437613 
L 302.486472 69.327944 
L 302.486472 69.273109 
L 302.862368 69.16344 
L 302.862368 69.108606 
L 303.168182 68.998937 
L 303.168182 68.944102 
L 303.818035 68.834433 
L 303.894488 68.724764 
L 304.506115 68.615095 
L 304.58894 68.450591 
L 305.264278 68.340922 
L 305.264278 68.286088 
L 306.105265 68.231253 
L 306.200831 68.06675 
L 306.914396 67.957081 
L 306.914396 67.847411 
L 307.519652 67.737742 
L 307.519652 67.682908 
L 307.806352 67.573239 
L 307.806352 67.518404 
L 308.322412 67.408735 
L 308.322412 67.353901 
L 308.819359 67.244232 
L 308.819359 67.189397 
L 309.144286 67.079728 
L 309.16977 66.915224 
L 309.481955 66.86039 
L 309.481955 66.750721 
L 309.806881 66.641052 
L 309.819624 66.531383 
L 310.265601 66.421714 
L 310.265601 66.366879 
L 310.756177 66.25721 
L 310.756177 66.202375 
L 311.425144 66.092706 
L 311.469742 65.983037 
L 311.85838 65.873368 
L 311.934833 65.763699 
L 312.215162 65.65403 
L 312.215162 65.599196 
L 313.189942 65.489526 
L 313.298251 65.379857 
L 313.514869 65.270188 
L 313.514869 65.215354 
L 314.483278 65.105685 
L 314.508763 64.996016 
L 314.725381 64.886347 
L 314.782721 64.776678 
L 314.967483 64.667008 
L 315.075792 64.557339 
L 315.375234 64.44767 
L 315.40709 64.338001 
L 316.738652 64.228332 
L 316.827848 64.118663 
L 317.152775 64.008994 
L 317.152775 63.954159 
L 317.981019 63.84449 
L 318.057473 63.734821 
L 318.401513 63.625152 
L 318.401513 63.570318 
L 318.643615 63.460649 
L 318.649986 63.35098 
L 319.662993 63.241311 
L 319.662993 63.186476 
L 320.408413 63.076807 
L 320.408413 63.021972 
L 320.797051 62.912303 
L 320.860762 62.802634 
L 321.121978 62.692965 
L 321.204803 62.528462 
L 321.383194 62.418792 
L 321.383194 62.363958 
L 322.224181 62.254289 
L 322.27515 62.14462 
L 323.02057 62.034951 
L 323.02057 61.980116 
L 323.887041 61.870447 
L 323.976237 61.760778 
L 324.116401 61.651109 
L 324.211968 61.54144 
L 324.823595 61.431771 
L 324.868193 61.267267 
L 325.479819 61.157598 
L 325.588128 60.993095 
L 326.002251 60.883426 
L 326.002251 60.828591 
L 326.384518 60.718922 
L 326.384518 60.664087 
L 326.805011 60.554418 
L 326.805011 60.499584 
L 327.633256 60.389915 
L 327.633256 60.33508 
L 328.200285 60.225411 
L 328.200285 60.170577 
L 328.493356 60.060907 
L 328.493356 60.006073 
L 330.449288 59.896404 
L 330.449288 59.841569 
L 331.162852 59.7319 
L 331.162852 59.677066 
L 331.748995 59.567397 
L 331.748995 59.512562 
L 332.316024 59.402893 
L 332.316024 59.348059 
L 333.106042 59.238389 
L 333.106042 59.183555 
L 333.698555 59.073886 
L 333.698555 59.019051 
L 334.348409 58.909382 
L 334.348409 58.854548 
L 335.27222 58.744879 
L 335.348674 58.580375 
L 335.775538 58.52554 
L 335.775538 58.415871 
L 336.272485 58.306202 
L 336.272485 58.251368 
L 336.597412 58.141699 
L 336.597412 58.086864 
L 337.260007 57.977195 
L 337.310976 57.867526 
L 337.725099 57.757857 
L 337.776068 57.648188 
L 338.553343 57.538519 
L 338.597941 57.42885 
L 339.126744 57.319181 
L 339.196826 57.209512 
L 339.802082 57.099843 
L 339.897648 56.990174 
L 340.604842 56.880504 
L 340.604842 56.82567 
L 341.082675 56.716001 
L 341.082675 56.661166 
L 341.496798 56.551497 
L 341.605107 56.441828 
L 342.497062 56.332159 
L 342.497062 56.277325 
L 343.548296 56.167655 
L 343.561038 56.057986 
L 344.102583 55.948317 
L 344.204521 55.783814 
L 344.446623 55.674145 
L 344.446623 55.61931 
L 345.223899 55.509641 
L 345.332208 55.345137 
L 345.778186 55.235468 
L 345.778186 55.180634 
L 346.300617 55.070965 
L 346.300617 55.01613 
L 346.714739 54.906461 
L 346.791193 54.796792 
L 347.218057 54.687123 
L 347.249913 54.577454 
L 348.122755 54.467785 
L 348.122755 54.41295 
L 348.734382 54.303281 
L 348.759867 54.193612 
L 349.690049 54.083943 
L 349.690049 54.029109 
L 350.550149 53.91944 
L 350.550149 53.864605 
L 351.301941 53.754936 
L 351.359281 53.645267 
L 352.767297 53.535598 
L 352.767297 53.480763 
L 353.283357 53.371094 
L 353.327955 53.261425 
L 354.270879 53.151756 
L 354.353704 53.042087 
L 354.672259 52.932418 
L 354.716857 52.822749 
L 355.538731 52.71308 
L 355.538731 52.658245 
L 356.118502 52.548576 
L 356.214069 52.384073 
L 356.341491 52.329238 
L 356.424316 52.164734 
L 356.883036 52.055065 
L 356.883036 52.000231 
L 357.94064 51.890562 
L 357.94064 51.835727 
L 358.463072 51.726058 
L 358.463072 51.671224 
L 358.960019 51.561555 
L 358.960019 51.50672 
L 359.48245 51.397051 
L 359.48245 51.342216 
L 359.947541 51.232547 
L 359.947541 51.177713 
L 361.189908 51.068044 
L 361.25999 50.958375 
L 362.005411 50.848706 
L 362.050008 50.739036 
L 362.827284 50.629367 
L 362.827284 50.574533 
L 363.190438 50.464864 
L 363.190438 50.410029 
L 363.566333 50.30036 
L 363.566333 50.245526 
L 364.502887 50.135857 
L 364.502887 50.081022 
L 365.26742 49.971353 
L 365.26742 49.861684 
L 366.331396 49.752015 
L 366.369623 49.587511 
L 368.548544 49.477842 
L 368.637739 49.368173 
L 369.077346 49.258504 
L 369.172913 49.094 
L 369.446871 48.984331 
L 369.472355 48.874662 
L 370.332455 48.764993 
L 370.440764 48.655324 
L 371.116102 48.545655 
L 371.1607 48.381151 
L 371.644905 48.271482 
L 371.714987 48.161813 
L 372.715252 48.052144 
L 372.715252 47.99731 
L 374.13601 47.887641 
L 374.13601 47.832806 
L 374.88143 47.723137 
L 374.957883 47.613468 
L 375.34015 47.503799 
L 375.34015 47.448964 
L 376.678084 47.339295 
L 376.678084 47.284461 
L 377.098577 47.174792 
L 377.098577 47.119957 
L 377.621009 47.010288 
L 377.621009 46.955454 
L 378.576676 46.845784 
L 378.634016 46.736115 
L 379.640652 46.626446 
L 379.640652 46.571612 
L 380.710999 46.461943 
L 380.710999 46.407108 
L 382.042561 46.297439 
L 382.042561 46.242605 
L 383.724535 46.132936 
L 383.724535 46.078101 
L 385.100695 45.968432 
L 385.100695 45.913597 
L 385.81426 45.803928 
L 385.81426 45.749094 
L 387.916727 45.639425 
L 387.916727 45.58459 
L 388.770457 45.474921 
L 388.770457 45.420087 
L 390.172101 45.310417 
L 390.172101 45.255583 
L 391.414468 45.145914 
L 391.414468 45.091079 
L 391.790364 44.98141 
L 391.790364 44.926576 
L 392.637722 44.816907 
L 392.637722 44.762072 
L 393.262091 44.707238 
L 393.262091 44.597569 
L 394.11582 44.487899 
L 394.11582 44.433065 
L 395.746825 44.323396 
L 395.746825 44.268561 
L 396.390308 44.158892 
L 396.40305 44.049223 
L 396.677008 43.939554 
L 396.677008 43.88472 
L 397.008306 43.77505 
L 397.008306 43.720216 
L 397.702757 43.610547 
L 397.702757 43.555712 
L 398.556486 43.446043 
L 398.556486 43.391209 
L 400.015471 43.28154 
L 400.015471 43.226705 
L 400.416851 43.117036 
L 400.416851 43.062202 
L 401.448972 42.952532 
L 401.448972 42.897698 
L 403.373048 42.788029 
L 403.373048 42.733194 
L 404.41791 42.623525 
L 404.41791 42.513856 
L 405.27801 42.404187 
L 405.27801 42.349353 
L 405.774957 42.239683 
L 405.774957 42.184849 
L 407.603467 42.07518 
L 407.603467 42.020345 
L 409.553027 41.910676 
L 409.553027 41.855842 
L 411.585412 41.746173 
L 411.585412 41.691338 
L 413.560457 41.581669 
L 413.560457 41.526835 
L 414.72 41.472 
L 414.72 41.472 
" style="fill:none;stroke:#ff8c00;stroke-linecap:square;stroke-width:0.5;"/>
   </g>
   <g id="line2d_14">
    <path clip-path="url(#p0d085f1dc7)" d="M 57.6 307.584 
L 414.72 41.472 
" style="fill:none;stroke:#000080;stroke-dasharray:1.85,0.8;stroke-dashoffset:0;stroke-width:0.5;"/>
   </g>
   <g id="patch_3">
    <path d="M 57.6 307.584 
L 57.6 41.472 
" style="fill:none;stroke:#000000;stroke-linecap:square;stroke-linejoin:miter;stroke-width:0.8;"/>
   </g>
   <g id="patch_4">
    <path d="M 414.72 307.584 
L 414.72 41.472 
" style="fill:none;stroke:#000000;stroke-linecap:square;stroke-linejoin:miter;stroke-width:0.8;"/>
   </g>
   <g id="patch_5">
    <path d="M 57.6 307.584 
L 414.72 307.584 
" style="fill:none;stroke:#000000;stroke-linecap:square;stroke-linejoin:miter;stroke-width:0.8;"/>
   </g>
   <g id="patch_6">
    <path d="M 57.6 41.472 
L 414.72 41.472 
" style="fill:none;stroke:#000000;stroke-linecap:square;stroke-linejoin:miter;stroke-width:0.8;"/>
   </g>
   <g id="text_15">
    <!-- Receiver operating characteristic -->
    <defs>
     <path d="M 48.78125 52.59375 
L 48.78125 44.1875 
Q 44.96875 46.296875 41.140625 47.34375 
Q 37.3125 48.390625 33.40625 48.390625 
Q 24.65625 48.390625 19.8125 42.84375 
Q 14.984375 37.3125 14.984375 27.296875 
Q 14.984375 17.28125 19.8125 11.734375 
Q 24.65625 6.203125 33.40625 6.203125 
Q 37.3125 6.203125 41.140625 7.25 
Q 44.96875 8.296875 48.78125 10.40625 
L 48.78125 2.09375 
Q 45.015625 0.34375 40.984375 -0.53125 
Q 36.96875 -1.421875 32.421875 -1.421875 
Q 20.0625 -1.421875 12.78125 6.34375 
Q 5.515625 14.109375 5.515625 27.296875 
Q 5.515625 40.671875 12.859375 48.328125 
Q 20.21875 56 33.015625 56 
Q 37.15625 56 41.109375 55.140625 
Q 45.0625 54.296875 48.78125 52.59375 
z
" id="DejaVuSans-99"/>
     <path d="M 18.109375 8.203125 
L 18.109375 -20.796875 
L 9.078125 -20.796875 
L 9.078125 54.6875 
L 18.109375 54.6875 
L 18.109375 46.390625 
Q 20.953125 51.265625 25.265625 53.625 
Q 29.59375 56 35.59375 56 
Q 45.5625 56 51.78125 48.09375 
Q 58.015625 40.1875 58.015625 27.296875 
Q 58.015625 14.40625 51.78125 6.484375 
Q 45.5625 -1.421875 35.59375 -1.421875 
Q 29.59375 -1.421875 25.265625 0.953125 
Q 20.953125 3.328125 18.109375 8.203125 
z
M 48.6875 27.296875 
Q 48.6875 37.203125 44.609375 42.84375 
Q 40.53125 48.484375 33.40625 48.484375 
Q 26.265625 48.484375 22.1875 42.84375 
Q 18.109375 37.203125 18.109375 27.296875 
Q 18.109375 17.390625 22.1875 11.75 
Q 26.265625 6.109375 33.40625 6.109375 
Q 40.53125 6.109375 44.609375 11.75 
Q 48.6875 17.390625 48.6875 27.296875 
z
" id="DejaVuSans-112"/>
     <path d="M 54.890625 33.015625 
L 54.890625 0 
L 45.90625 0 
L 45.90625 32.71875 
Q 45.90625 40.484375 42.875 44.328125 
Q 39.84375 48.1875 33.796875 48.1875 
Q 26.515625 48.1875 22.3125 43.546875 
Q 18.109375 38.921875 18.109375 30.90625 
L 18.109375 0 
L 9.078125 0 
L 9.078125 54.6875 
L 18.109375 54.6875 
L 18.109375 46.1875 
Q 21.34375 51.125 25.703125 53.5625 
Q 30.078125 56 35.796875 56 
Q 45.21875 56 50.046875 50.171875 
Q 54.890625 44.34375 54.890625 33.015625 
z
" id="DejaVuSans-110"/>
     <path d="M 45.40625 27.984375 
Q 45.40625 37.75 41.375 43.109375 
Q 37.359375 48.484375 30.078125 48.484375 
Q 22.859375 48.484375 18.828125 43.109375 
Q 14.796875 37.75 14.796875 27.984375 
Q 14.796875 18.265625 18.828125 12.890625 
Q 22.859375 7.515625 30.078125 7.515625 
Q 37.359375 7.515625 41.375 12.890625 
Q 45.40625 18.265625 45.40625 27.984375 
z
M 54.390625 6.78125 
Q 54.390625 -7.171875 48.1875 -13.984375 
Q 42 -20.796875 29.203125 -20.796875 
Q 24.46875 -20.796875 20.265625 -20.09375 
Q 16.0625 -19.390625 12.109375 -17.921875 
L 12.109375 -9.1875 
Q 16.0625 -11.328125 19.921875 -12.34375 
Q 23.78125 -13.375 27.78125 -13.375 
Q 36.625 -13.375 41.015625 -8.765625 
Q 45.40625 -4.15625 45.40625 5.171875 
L 45.40625 9.625 
Q 42.625 4.78125 38.28125 2.390625 
Q 33.9375 0 27.875 0 
Q 17.828125 0 11.671875 7.65625 
Q 5.515625 15.328125 5.515625 27.984375 
Q 5.515625 40.671875 11.671875 48.328125 
Q 17.828125 56 27.875 56 
Q 33.9375 56 38.28125 53.609375 
Q 42.625 51.21875 45.40625 46.390625 
L 45.40625 54.6875 
L 54.390625 54.6875 
z
" id="DejaVuSans-103"/>
     <path d="M 54.890625 33.015625 
L 54.890625 0 
L 45.90625 0 
L 45.90625 32.71875 
Q 45.90625 40.484375 42.875 44.328125 
Q 39.84375 48.1875 33.796875 48.1875 
Q 26.515625 48.1875 22.3125 43.546875 
Q 18.109375 38.921875 18.109375 30.90625 
L 18.109375 0 
L 9.078125 0 
L 9.078125 75.984375 
L 18.109375 75.984375 
L 18.109375 46.1875 
Q 21.34375 51.125 25.703125 53.5625 
Q 30.078125 56 35.796875 56 
Q 45.21875 56 50.046875 50.171875 
Q 54.890625 44.34375 54.890625 33.015625 
z
" id="DejaVuSans-104"/>
    </defs>
    <g transform="translate(136.333125 35.472)scale(0.12 -0.12)">
     <use xlink:href="#DejaVuSans-82"/>
     <use x="69.419922" xlink:href="#DejaVuSans-101"/>
     <use x="130.943359" xlink:href="#DejaVuSans-99"/>
     <use x="185.923828" xlink:href="#DejaVuSans-101"/>
     <use x="247.447266" xlink:href="#DejaVuSans-105"/>
     <use x="275.230469" xlink:href="#DejaVuSans-118"/>
     <use x="334.410156" xlink:href="#DejaVuSans-101"/>
     <use x="395.933594" xlink:href="#DejaVuSans-114"/>
     <use x="437.046875" xlink:href="#DejaVuSans-32"/>
     <use x="468.833984" xlink:href="#DejaVuSans-111"/>
     <use x="530.015625" xlink:href="#DejaVuSans-112"/>
     <use x="593.492188" xlink:href="#DejaVuSans-101"/>
     <use x="655.015625" xlink:href="#DejaVuSans-114"/>
     <use x="696.128906" xlink:href="#DejaVuSans-97"/>
     <use x="757.408203" xlink:href="#DejaVuSans-116"/>
     <use x="796.617188" xlink:href="#DejaVuSans-105"/>
     <use x="824.400391" xlink:href="#DejaVuSans-110"/>
     <use x="887.779297" xlink:href="#DejaVuSans-103"/>
     <use x="951.255859" xlink:href="#DejaVuSans-32"/>
     <use x="983.042969" xlink:href="#DejaVuSans-99"/>
     <use x="1038.023438" xlink:href="#DejaVuSans-104"/>
     <use x="1101.402344" xlink:href="#DejaVuSans-97"/>
     <use x="1162.681641" xlink:href="#DejaVuSans-114"/>
     <use x="1203.794922" xlink:href="#DejaVuSans-97"/>
     <use x="1265.074219" xlink:href="#DejaVuSans-99"/>
     <use x="1320.054688" xlink:href="#DejaVuSans-116"/>
     <use x="1359.263672" xlink:href="#DejaVuSans-101"/>
     <use x="1420.787109" xlink:href="#DejaVuSans-114"/>
     <use x="1461.900391" xlink:href="#DejaVuSans-105"/>
     <use x="1489.683594" xlink:href="#DejaVuSans-115"/>
     <use x="1541.783203" xlink:href="#DejaVuSans-116"/>
     <use x="1580.992188" xlink:href="#DejaVuSans-105"/>
     <use x="1608.775391" xlink:href="#DejaVuSans-99"/>
    </g>
   </g>
   <g id="legend_1">
    <g id="patch_7">
     <path d="M 247.5575 302.584 
L 407.72 302.584 
Q 409.72 302.584 409.72 300.584 
L 409.72 286.905875 
Q 409.72 284.905875 407.72 284.905875 
L 247.5575 284.905875 
Q 245.5575 284.905875 245.5575 286.905875 
L 245.5575 300.584 
Q 245.5575 302.584 247.5575 302.584 
z
" style="fill:#ffffff;opacity:0.8;stroke:#cccccc;stroke-linejoin:miter;"/>
    </g>
    <g id="line2d_15">
     <path d="M 249.5575 293.004312 
L 269.5575 293.004312 
" style="fill:none;stroke:#ff8c00;stroke-linecap:square;stroke-width:0.5;"/>
    </g>
    <g id="line2d_16"/>
    <g id="text_16">
     <!-- ROC Curve (area =  0.72) -->
     <defs>
      <path d="M 39.40625 66.21875 
Q 28.65625 66.21875 22.328125 58.203125 
Q 16.015625 50.203125 16.015625 36.375 
Q 16.015625 22.609375 22.328125 14.59375 
Q 28.65625 6.59375 39.40625 6.59375 
Q 50.140625 6.59375 56.421875 14.59375 
Q 62.703125 22.609375 62.703125 36.375 
Q 62.703125 50.203125 56.421875 58.203125 
Q 50.140625 66.21875 39.40625 66.21875 
z
M 39.40625 74.21875 
Q 54.734375 74.21875 63.90625 63.9375 
Q 73.09375 53.65625 73.09375 36.375 
Q 73.09375 19.140625 63.90625 8.859375 
Q 54.734375 -1.421875 39.40625 -1.421875 
Q 24.03125 -1.421875 14.8125 8.828125 
Q 5.609375 19.09375 5.609375 36.375 
Q 5.609375 53.65625 14.8125 63.9375 
Q 24.03125 74.21875 39.40625 74.21875 
z
" id="DejaVuSans-79"/>
      <path d="M 64.40625 67.28125 
L 64.40625 56.890625 
Q 59.421875 61.53125 53.78125 63.8125 
Q 48.140625 66.109375 41.796875 66.109375 
Q 29.296875 66.109375 22.65625 58.46875 
Q 16.015625 50.828125 16.015625 36.375 
Q 16.015625 21.96875 22.65625 14.328125 
Q 29.296875 6.6875 41.796875 6.6875 
Q 48.140625 6.6875 53.78125 8.984375 
Q 59.421875 11.28125 64.40625 15.921875 
L 64.40625 5.609375 
Q 59.234375 2.09375 53.4375 0.328125 
Q 47.65625 -1.421875 41.21875 -1.421875 
Q 24.65625 -1.421875 15.125 8.703125 
Q 5.609375 18.84375 5.609375 36.375 
Q 5.609375 53.953125 15.125 64.078125 
Q 24.65625 74.21875 41.21875 74.21875 
Q 47.75 74.21875 53.53125 72.484375 
Q 59.328125 70.75 64.40625 67.28125 
z
" id="DejaVuSans-67"/>
      <path d="M 31 75.875 
Q 24.46875 64.65625 21.28125 53.65625 
Q 18.109375 42.671875 18.109375 31.390625 
Q 18.109375 20.125 21.3125 9.0625 
Q 24.515625 -2 31 -13.1875 
L 23.1875 -13.1875 
Q 15.875 -1.703125 12.234375 9.375 
Q 8.59375 20.453125 8.59375 31.390625 
Q 8.59375 42.28125 12.203125 53.3125 
Q 15.828125 64.359375 23.1875 75.875 
z
" id="DejaVuSans-40"/>
      <path d="M 10.59375 45.40625 
L 73.1875 45.40625 
L 73.1875 37.203125 
L 10.59375 37.203125 
z
M 10.59375 25.484375 
L 73.1875 25.484375 
L 73.1875 17.1875 
L 10.59375 17.1875 
z
" id="DejaVuSans-61"/>
      <path d="M 8.203125 72.90625 
L 55.078125 72.90625 
L 55.078125 68.703125 
L 28.609375 0 
L 18.3125 0 
L 43.21875 64.59375 
L 8.203125 64.59375 
z
" id="DejaVuSans-55"/>
      <path d="M 8.015625 75.875 
L 15.828125 75.875 
Q 23.140625 64.359375 26.78125 53.3125 
Q 30.421875 42.28125 30.421875 31.390625 
Q 30.421875 20.453125 26.78125 9.375 
Q 23.140625 -1.703125 15.828125 -13.1875 
L 8.015625 -13.1875 
Q 14.5 -2 17.703125 9.0625 
Q 20.90625 20.125 20.90625 31.390625 
Q 20.90625 42.671875 17.703125 53.65625 
Q 14.5 64.65625 8.015625 75.875 
z
" id="DejaVuSans-41"/>
     </defs>
     <g transform="translate(277.5575 296.504312)scale(0.1 -0.1)">
      <use xlink:href="#DejaVuSans-82"/>
      <use x="69.482422" xlink:href="#DejaVuSans-79"/>
      <use x="148.193359" xlink:href="#DejaVuSans-67"/>
      <use x="218.017578" xlink:href="#DejaVuSans-32"/>
      <use x="249.804688" xlink:href="#DejaVuSans-67"/>
      <use x="319.628906" xlink:href="#DejaVuSans-117"/>
      <use x="383.007812" xlink:href="#DejaVuSans-114"/>
      <use x="424.121094" xlink:href="#DejaVuSans-118"/>
      <use x="483.300781" xlink:href="#DejaVuSans-101"/>
      <use x="544.824219" xlink:href="#DejaVuSans-32"/>
      <use x="576.611328" xlink:href="#DejaVuSans-40"/>
      <use x="615.625" xlink:href="#DejaVuSans-97"/>
      <use x="676.904297" xlink:href="#DejaVuSans-114"/>
      <use x="717.986328" xlink:href="#DejaVuSans-101"/>
      <use x="779.509766" xlink:href="#DejaVuSans-97"/>
      <use x="840.789062" xlink:href="#DejaVuSans-32"/>
      <use x="872.576172" xlink:href="#DejaVuSans-61"/>
      <use x="956.365234" xlink:href="#DejaVuSans-32"/>
      <use x="988.152344" xlink:href="#DejaVuSans-32"/>
      <use x="1019.939453" xlink:href="#DejaVuSans-48"/>
      <use x="1083.5625" xlink:href="#DejaVuSans-46"/>
      <use x="1115.349609" xlink:href="#DejaVuSans-55"/>
      <use x="1178.972656" xlink:href="#DejaVuSans-50"/>
      <use x="1242.595703" xlink:href="#DejaVuSans-41"/>
     </g>
    </g>
   </g>
  </g>
 </g>
 <defs>
  <clipPath id="p0d085f1dc7">
   <rect height="266.112" width="357.12" x="57.6" y="41.472"/>
  </clipPath>
 </defs>
</svg>
