<?xml version="1.0" encoding="utf-8" standalone="no"?>
<!DOCTYPE svg PUBLIC "-//W3C//DTD SVG 1.1//EN"
  "http://www.w3.org/Graphics/SVG/1.1/DTD/svg11.dtd">
<!-- Created with matplotlib (https://matplotlib.org/) -->
<svg height="288pt" version="1.1" viewBox="0 0 432 288" width="432pt" xmlns="http://www.w3.org/2000/svg" xmlns:xlink="http://www.w3.org/1999/xlink">
 <defs>
  <style type="text/css">
*{stroke-linecap:butt;stroke-linejoin:round;}
  </style>
 </defs>
 <g id="figure_1">
  <g id="patch_1">
   <path d="M 0 288 
L 432 288 
L 432 0 
L 0 0 
z
" style="fill:#ffffff;"/>
  </g>
  <g id="axes_1">
   <g id="patch_2">
    <path d="M 54 252 
L 388.8 252 
L 388.8 34.56 
L 54 34.56 
z
" style="fill:#ffffff;"/>
   </g>
   <g id="matplotlib.axis_1">
    <g id="xtick_1">
     <g id="line2d_1">
      <defs>
       <path d="M 0 0 
L 0 3.5 
" id="m8248daa5f9" style="stroke:#000000;stroke-width:0.8;"/>
      </defs>
      <g>
       <use style="stroke:#000000;stroke-width:0.8;" x="54" xlink:href="#m8248daa5f9" y="252"/>
      </g>
     </g>
     <g id="text_1">
      <!-- 0.0 -->
      <defs>
       <path d="M 31.78125 66.40625 
Q 24.171875 66.40625 20.328125 58.90625 
Q 16.5 51.421875 16.5 36.375 
Q 16.5 21.390625 20.328125 13.890625 
Q 24.171875 6.390625 31.78125 6.390625 
Q 39.453125 6.390625 43.28125 13.890625 
Q 47.125 21.390625 47.125 36.375 
Q 47.125 51.421875 43.28125 58.90625 
Q 39.453125 66.40625 31.78125 66.40625 
z
M 31.78125 74.21875 
Q 44.046875 74.21875 50.515625 64.515625 
Q 56.984375 54.828125 56.984375 36.375 
Q 56.984375 17.96875 50.515625 8.265625 
Q 44.046875 -1.421875 31.78125 -1.421875 
Q 19.53125 -1.421875 13.0625 8.265625 
Q 6.59375 17.96875 6.59375 36.375 
Q 6.59375 54.828125 13.0625 64.515625 
Q 19.53125 74.21875 31.78125 74.21875 
z
" id="DejaVuSans-48"/>
       <path d="M 10.6875 12.40625 
L 21 12.40625 
L 21 0 
L 10.6875 0 
z
" id="DejaVuSans-46"/>
      </defs>
      <g transform="translate(46.048437 266.598437)scale(0.1 -0.1)">
       <use xlink:href="#DejaVuSans-48"/>
       <use x="63.623047" xlink:href="#DejaVuSans-46"/>
       <use x="95.410156" xlink:href="#DejaVuSans-48"/>
      </g>
     </g>
    </g>
    <g id="xtick_2">
     <g id="line2d_2">
      <g>
       <use style="stroke:#000000;stroke-width:0.8;" x="120.96" xlink:href="#m8248daa5f9" y="252"/>
      </g>
     </g>
     <g id="text_2">
      <!-- 0.2 -->
      <defs>
       <path d="M 19.1875 8.296875 
L 53.609375 8.296875 
L 53.609375 0 
L 7.328125 0 
L 7.328125 8.296875 
Q 12.9375 14.109375 22.625 23.890625 
Q 32.328125 33.6875 34.8125 36.53125 
Q 39.546875 41.84375 41.421875 45.53125 
Q 43.3125 49.21875 43.3125 52.78125 
Q 43.3125 58.59375 39.234375 62.25 
Q 35.15625 65.921875 28.609375 65.921875 
Q 23.96875 65.921875 18.8125 64.3125 
Q 13.671875 62.703125 7.8125 59.421875 
L 7.8125 69.390625 
Q 13.765625 71.78125 18.9375 73 
Q 24.125 74.21875 28.421875 74.21875 
Q 39.75 74.21875 46.484375 68.546875 
Q 53.21875 62.890625 53.21875 53.421875 
Q 53.21875 48.921875 51.53125 44.890625 
Q 49.859375 40.875 45.40625 35.40625 
Q 44.1875 33.984375 37.640625 27.21875 
Q 31.109375 20.453125 19.1875 8.296875 
z
" id="DejaVuSans-50"/>
      </defs>
      <g transform="translate(113.008438 266.598437)scale(0.1 -0.1)">
       <use xlink:href="#DejaVuSans-48"/>
       <use x="63.623047" xlink:href="#DejaVuSans-46"/>
       <use x="95.410156" xlink:href="#DejaVuSans-50"/>
      </g>
     </g>
    </g>
    <g id="xtick_3">
     <g id="line2d_3">
      <g>
       <use style="stroke:#000000;stroke-width:0.8;" x="187.92" xlink:href="#m8248daa5f9" y="252"/>
      </g>
     </g>
     <g id="text_3">
      <!-- 0.4 -->
      <defs>
       <path d="M 37.796875 64.3125 
L 12.890625 25.390625 
L 37.796875 25.390625 
z
M 35.203125 72.90625 
L 47.609375 72.90625 
L 47.609375 25.390625 
L 58.015625 25.390625 
L 58.015625 17.1875 
L 47.609375 17.1875 
L 47.609375 0 
L 37.796875 0 
L 37.796875 17.1875 
L 4.890625 17.1875 
L 4.890625 26.703125 
z
" id="DejaVuSans-52"/>
      </defs>
      <g transform="translate(179.968438 266.598437)scale(0.1 -0.1)">
       <use xlink:href="#DejaVuSans-48"/>
       <use x="63.623047" xlink:href="#DejaVuSans-46"/>
       <use x="95.410156" xlink:href="#DejaVuSans-52"/>
      </g>
     </g>
    </g>
    <g id="xtick_4">
     <g id="line2d_4">
      <g>
       <use style="stroke:#000000;stroke-width:0.8;" x="254.88" xlink:href="#m8248daa5f9" y="252"/>
      </g>
     </g>
     <g id="text_4">
      <!-- 0.6 -->
      <defs>
       <path d="M 33.015625 40.375 
Q 26.375 40.375 22.484375 35.828125 
Q 18.609375 31.296875 18.609375 23.390625 
Q 18.609375 15.53125 22.484375 10.953125 
Q 26.375 6.390625 33.015625 6.390625 
Q 39.65625 6.390625 43.53125 10.953125 
Q 47.40625 15.53125 47.40625 23.390625 
Q 47.40625 31.296875 43.53125 35.828125 
Q 39.65625 40.375 33.015625 40.375 
z
M 52.59375 71.296875 
L 52.59375 62.3125 
Q 48.875 64.0625 45.09375 64.984375 
Q 41.3125 65.921875 37.59375 65.921875 
Q 27.828125 65.921875 22.671875 59.328125 
Q 17.53125 52.734375 16.796875 39.40625 
Q 19.671875 43.65625 24.015625 45.921875 
Q 28.375 48.1875 33.59375 48.1875 
Q 44.578125 48.1875 50.953125 41.515625 
Q 57.328125 34.859375 57.328125 23.390625 
Q 57.328125 12.15625 50.6875 5.359375 
Q 44.046875 -1.421875 33.015625 -1.421875 
Q 20.359375 -1.421875 13.671875 8.265625 
Q 6.984375 17.96875 6.984375 36.375 
Q 6.984375 53.65625 15.1875 63.9375 
Q 23.390625 74.21875 37.203125 74.21875 
Q 40.921875 74.21875 44.703125 73.484375 
Q 48.484375 72.75 52.59375 71.296875 
z
" id="DejaVuSans-54"/>
      </defs>
      <g transform="translate(246.928438 266.598437)scale(0.1 -0.1)">
       <use xlink:href="#DejaVuSans-48"/>
       <use x="63.623047" xlink:href="#DejaVuSans-46"/>
       <use x="95.410156" xlink:href="#DejaVuSans-54"/>
      </g>
     </g>
    </g>
    <g id="xtick_5">
     <g id="line2d_5">
      <g>
       <use style="stroke:#000000;stroke-width:0.8;" x="321.84" xlink:href="#m8248daa5f9" y="252"/>
      </g>
     </g>
     <g id="text_5">
      <!-- 0.8 -->
      <defs>
       <path d="M 31.78125 34.625 
Q 24.75 34.625 20.71875 30.859375 
Q 16.703125 27.09375 16.703125 20.515625 
Q 16.703125 13.921875 20.71875 10.15625 
Q 24.75 6.390625 31.78125 6.390625 
Q 38.8125 6.390625 42.859375 10.171875 
Q 46.921875 13.96875 46.921875 20.515625 
Q 46.921875 27.09375 42.890625 30.859375 
Q 38.875 34.625 31.78125 34.625 
z
M 21.921875 38.8125 
Q 15.578125 40.375 12.03125 44.71875 
Q 8.5 49.078125 8.5 55.328125 
Q 8.5 64.0625 14.71875 69.140625 
Q 20.953125 74.21875 31.78125 74.21875 
Q 42.671875 74.21875 48.875 69.140625 
Q 55.078125 64.0625 55.078125 55.328125 
Q 55.078125 49.078125 51.53125 44.71875 
Q 48 40.375 41.703125 38.8125 
Q 48.828125 37.15625 52.796875 32.3125 
Q 56.78125 27.484375 56.78125 20.515625 
Q 56.78125 9.90625 50.3125 4.234375 
Q 43.84375 -1.421875 31.78125 -1.421875 
Q 19.734375 -1.421875 13.25 4.234375 
Q 6.78125 9.90625 6.78125 20.515625 
Q 6.78125 27.484375 10.78125 32.3125 
Q 14.796875 37.15625 21.921875 38.8125 
z
M 18.3125 54.390625 
Q 18.3125 48.734375 21.84375 45.5625 
Q 25.390625 42.390625 31.78125 42.390625 
Q 38.140625 42.390625 41.71875 45.5625 
Q 45.3125 48.734375 45.3125 54.390625 
Q 45.3125 60.0625 41.71875 63.234375 
Q 38.140625 66.40625 31.78125 66.40625 
Q 25.390625 66.40625 21.84375 63.234375 
Q 18.3125 60.0625 18.3125 54.390625 
z
" id="DejaVuSans-56"/>
      </defs>
      <g transform="translate(313.888438 266.598437)scale(0.1 -0.1)">
       <use xlink:href="#DejaVuSans-48"/>
       <use x="63.623047" xlink:href="#DejaVuSans-46"/>
       <use x="95.410156" xlink:href="#DejaVuSans-56"/>
      </g>
     </g>
    </g>
    <g id="xtick_6">
     <g id="line2d_6">
      <g>
       <use style="stroke:#000000;stroke-width:0.8;" x="388.8" xlink:href="#m8248daa5f9" y="252"/>
      </g>
     </g>
     <g id="text_6">
      <!-- 1.0 -->
      <defs>
       <path d="M 12.40625 8.296875 
L 28.515625 8.296875 
L 28.515625 63.921875 
L 10.984375 60.40625 
L 10.984375 69.390625 
L 28.421875 72.90625 
L 38.28125 72.90625 
L 38.28125 8.296875 
L 54.390625 8.296875 
L 54.390625 0 
L 12.40625 0 
z
" id="DejaVuSans-49"/>
      </defs>
      <g transform="translate(380.848437 266.598437)scale(0.1 -0.1)">
       <use xlink:href="#DejaVuSans-49"/>
       <use x="63.623047" xlink:href="#DejaVuSans-46"/>
       <use x="95.410156" xlink:href="#DejaVuSans-48"/>
      </g>
     </g>
    </g>
    <g id="text_7">
     <!-- False Positive Rate -->
     <defs>
      <path d="M 9.8125 72.90625 
L 51.703125 72.90625 
L 51.703125 64.59375 
L 19.671875 64.59375 
L 19.671875 43.109375 
L 48.578125 43.109375 
L 48.578125 34.8125 
L 19.671875 34.8125 
L 19.671875 0 
L 9.8125 0 
z
" id="DejaVuSans-70"/>
      <path d="M 34.28125 27.484375 
Q 23.390625 27.484375 19.1875 25 
Q 14.984375 22.515625 14.984375 16.5 
Q 14.984375 11.71875 18.140625 8.90625 
Q 21.296875 6.109375 26.703125 6.109375 
Q 34.1875 6.109375 38.703125 11.40625 
Q 43.21875 16.703125 43.21875 25.484375 
L 43.21875 27.484375 
z
M 52.203125 31.203125 
L 52.203125 0 
L 43.21875 0 
L 43.21875 8.296875 
Q 40.140625 3.328125 35.546875 0.953125 
Q 30.953125 -1.421875 24.3125 -1.421875 
Q 15.921875 -1.421875 10.953125 3.296875 
Q 6 8.015625 6 15.921875 
Q 6 25.140625 12.171875 29.828125 
Q 18.359375 34.515625 30.609375 34.515625 
L 43.21875 34.515625 
L 43.21875 35.40625 
Q 43.21875 41.609375 39.140625 45 
Q 35.0625 48.390625 27.6875 48.390625 
Q 23 48.390625 18.546875 47.265625 
Q 14.109375 46.140625 10.015625 43.890625 
L 10.015625 52.203125 
Q 14.9375 54.109375 19.578125 55.046875 
Q 24.21875 56 28.609375 56 
Q 40.484375 56 46.34375 49.84375 
Q 52.203125 43.703125 52.203125 31.203125 
z
" id="DejaVuSans-97"/>
      <path d="M 9.421875 75.984375 
L 18.40625 75.984375 
L 18.40625 0 
L 9.421875 0 
z
" id="DejaVuSans-108"/>
      <path d="M 44.28125 53.078125 
L 44.28125 44.578125 
Q 40.484375 46.53125 36.375 47.5 
Q 32.28125 48.484375 27.875 48.484375 
Q 21.1875 48.484375 17.84375 46.4375 
Q 14.5 44.390625 14.5 40.28125 
Q 14.5 37.15625 16.890625 35.375 
Q 19.28125 33.59375 26.515625 31.984375 
L 29.59375 31.296875 
Q 39.15625 29.25 43.1875 25.515625 
Q 47.21875 21.78125 47.21875 15.09375 
Q 47.21875 7.46875 41.1875 3.015625 
Q 35.15625 -1.421875 24.609375 -1.421875 
Q 20.21875 -1.421875 15.453125 -0.5625 
Q 10.6875 0.296875 5.421875 2 
L 5.421875 11.28125 
Q 10.40625 8.6875 15.234375 7.390625 
Q 20.0625 6.109375 24.8125 6.109375 
Q 31.15625 6.109375 34.5625 8.28125 
Q 37.984375 10.453125 37.984375 14.40625 
Q 37.984375 18.0625 35.515625 20.015625 
Q 33.0625 21.96875 24.703125 23.78125 
L 21.578125 24.515625 
Q 13.234375 26.265625 9.515625 29.90625 
Q 5.8125 33.546875 5.8125 39.890625 
Q 5.8125 47.609375 11.28125 51.796875 
Q 16.75 56 26.8125 56 
Q 31.78125 56 36.171875 55.265625 
Q 40.578125 54.546875 44.28125 53.078125 
z
" id="DejaVuSans-115"/>
      <path d="M 56.203125 29.59375 
L 56.203125 25.203125 
L 14.890625 25.203125 
Q 15.484375 15.921875 20.484375 11.0625 
Q 25.484375 6.203125 34.421875 6.203125 
Q 39.59375 6.203125 44.453125 7.46875 
Q 49.3125 8.734375 54.109375 11.28125 
L 54.109375 2.78125 
Q 49.265625 0.734375 44.1875 -0.34375 
Q 39.109375 -1.421875 33.890625 -1.421875 
Q 20.796875 -1.421875 13.15625 6.1875 
Q 5.515625 13.8125 5.515625 26.8125 
Q 5.515625 40.234375 12.765625 48.109375 
Q 20.015625 56 32.328125 56 
Q 43.359375 56 49.78125 48.890625 
Q 56.203125 41.796875 56.203125 29.59375 
z
M 47.21875 32.234375 
Q 47.125 39.59375 43.09375 43.984375 
Q 39.0625 48.390625 32.421875 48.390625 
Q 24.90625 48.390625 20.390625 44.140625 
Q 15.875 39.890625 15.1875 32.171875 
z
" id="DejaVuSans-101"/>
      <path id="DejaVuSans-32"/>
      <path d="M 19.671875 64.796875 
L 19.671875 37.40625 
L 32.078125 37.40625 
Q 38.96875 37.40625 42.71875 40.96875 
Q 46.484375 44.53125 46.484375 51.125 
Q 46.484375 57.671875 42.71875 61.234375 
Q 38.96875 64.796875 32.078125 64.796875 
z
M 9.8125 72.90625 
L 32.078125 72.90625 
Q 44.34375 72.90625 50.609375 67.359375 
Q 56.890625 61.8125 56.890625 51.125 
Q 56.890625 40.328125 50.609375 34.8125 
Q 44.34375 29.296875 32.078125 29.296875 
L 19.671875 29.296875 
L 19.671875 0 
L 9.8125 0 
z
" id="DejaVuSans-80"/>
      <path d="M 30.609375 48.390625 
Q 23.390625 48.390625 19.1875 42.75 
Q 14.984375 37.109375 14.984375 27.296875 
Q 14.984375 17.484375 19.15625 11.84375 
Q 23.34375 6.203125 30.609375 6.203125 
Q 37.796875 6.203125 41.984375 11.859375 
Q 46.1875 17.53125 46.1875 27.296875 
Q 46.1875 37.015625 41.984375 42.703125 
Q 37.796875 48.390625 30.609375 48.390625 
z
M 30.609375 56 
Q 42.328125 56 49.015625 48.375 
Q 55.71875 40.765625 55.71875 27.296875 
Q 55.71875 13.875 49.015625 6.21875 
Q 42.328125 -1.421875 30.609375 -1.421875 
Q 18.84375 -1.421875 12.171875 6.21875 
Q 5.515625 13.875 5.515625 27.296875 
Q 5.515625 40.765625 12.171875 48.375 
Q 18.84375 56 30.609375 56 
z
" id="DejaVuSans-111"/>
      <path d="M 9.421875 54.6875 
L 18.40625 54.6875 
L 18.40625 0 
L 9.421875 0 
z
M 9.421875 75.984375 
L 18.40625 75.984375 
L 18.40625 64.59375 
L 9.421875 64.59375 
z
" id="DejaVuSans-105"/>
      <path d="M 18.3125 70.21875 
L 18.3125 54.6875 
L 36.8125 54.6875 
L 36.8125 47.703125 
L 18.3125 47.703125 
L 18.3125 18.015625 
Q 18.3125 11.328125 20.140625 9.421875 
Q 21.96875 7.515625 27.59375 7.515625 
L 36.8125 7.515625 
L 36.8125 0 
L 27.59375 0 
Q 17.1875 0 13.234375 3.875 
Q 9.28125 7.765625 9.28125 18.015625 
L 9.28125 47.703125 
L 2.6875 47.703125 
L 2.6875 54.6875 
L 9.28125 54.6875 
L 9.28125 70.21875 
z
" id="DejaVuSans-116"/>
      <path d="M 2.984375 54.6875 
L 12.5 54.6875 
L 29.59375 8.796875 
L 46.6875 54.6875 
L 56.203125 54.6875 
L 35.6875 0 
L 23.484375 0 
z
" id="DejaVuSans-118"/>
      <path d="M 44.390625 34.1875 
Q 47.5625 33.109375 50.5625 29.59375 
Q 53.5625 26.078125 56.59375 19.921875 
L 66.609375 0 
L 56 0 
L 46.6875 18.703125 
Q 43.0625 26.03125 39.671875 28.421875 
Q 36.28125 30.8125 30.421875 30.8125 
L 19.671875 30.8125 
L 19.671875 0 
L 9.8125 0 
L 9.8125 72.90625 
L 32.078125 72.90625 
Q 44.578125 72.90625 50.734375 67.671875 
Q 56.890625 62.453125 56.890625 51.90625 
Q 56.890625 45.015625 53.6875 40.46875 
Q 50.484375 35.9375 44.390625 34.1875 
z
M 19.671875 64.796875 
L 19.671875 38.921875 
L 32.078125 38.921875 
Q 39.203125 38.921875 42.84375 42.21875 
Q 46.484375 45.515625 46.484375 51.90625 
Q 46.484375 58.296875 42.84375 61.546875 
Q 39.203125 64.796875 32.078125 64.796875 
z
" id="DejaVuSans-82"/>
     </defs>
     <g transform="translate(174.194531 280.276563)scale(0.1 -0.1)">
      <use xlink:href="#DejaVuSans-70"/>
      <use x="57.378906" xlink:href="#DejaVuSans-97"/>
      <use x="118.658203" xlink:href="#DejaVuSans-108"/>
      <use x="146.441406" xlink:href="#DejaVuSans-115"/>
      <use x="198.541016" xlink:href="#DejaVuSans-101"/>
      <use x="260.064453" xlink:href="#DejaVuSans-32"/>
      <use x="291.851562" xlink:href="#DejaVuSans-80"/>
      <use x="352.107422" xlink:href="#DejaVuSans-111"/>
      <use x="413.289062" xlink:href="#DejaVuSans-115"/>
      <use x="465.388672" xlink:href="#DejaVuSans-105"/>
      <use x="493.171875" xlink:href="#DejaVuSans-116"/>
      <use x="532.380859" xlink:href="#DejaVuSans-105"/>
      <use x="560.164062" xlink:href="#DejaVuSans-118"/>
      <use x="619.34375" xlink:href="#DejaVuSans-101"/>
      <use x="680.867188" xlink:href="#DejaVuSans-32"/>
      <use x="712.654297" xlink:href="#DejaVuSans-82"/>
      <use x="782.105469" xlink:href="#DejaVuSans-97"/>
      <use x="843.384766" xlink:href="#DejaVuSans-116"/>
      <use x="882.59375" xlink:href="#DejaVuSans-101"/>
     </g>
    </g>
   </g>
   <g id="matplotlib.axis_2">
    <g id="ytick_1">
     <g id="line2d_7">
      <defs>
       <path d="M 0 0 
L -3.5 0 
" id="m5feaa0f71e" style="stroke:#000000;stroke-width:0.8;"/>
      </defs>
      <g>
       <use style="stroke:#000000;stroke-width:0.8;" x="54" xlink:href="#m5feaa0f71e" y="252"/>
      </g>
     </g>
     <g id="text_8">
      <!-- 0.0 -->
      <g transform="translate(31.096875 255.799219)scale(0.1 -0.1)">
       <use xlink:href="#DejaVuSans-48"/>
       <use x="63.623047" xlink:href="#DejaVuSans-46"/>
       <use x="95.410156" xlink:href="#DejaVuSans-48"/>
      </g>
     </g>
    </g>
    <g id="ytick_2">
     <g id="line2d_8">
      <g>
       <use style="stroke:#000000;stroke-width:0.8;" x="54" xlink:href="#m5feaa0f71e" y="208.512"/>
      </g>
     </g>
     <g id="text_9">
      <!-- 0.2 -->
      <g transform="translate(31.096875 212.311219)scale(0.1 -0.1)">
       <use xlink:href="#DejaVuSans-48"/>
       <use x="63.623047" xlink:href="#DejaVuSans-46"/>
       <use x="95.410156" xlink:href="#DejaVuSans-50"/>
      </g>
     </g>
    </g>
    <g id="ytick_3">
     <g id="line2d_9">
      <g>
       <use style="stroke:#000000;stroke-width:0.8;" x="54" xlink:href="#m5feaa0f71e" y="165.024"/>
      </g>
     </g>
     <g id="text_10">
      <!-- 0.4 -->
      <g transform="translate(31.096875 168.823219)scale(0.1 -0.1)">
       <use xlink:href="#DejaVuSans-48"/>
       <use x="63.623047" xlink:href="#DejaVuSans-46"/>
       <use x="95.410156" xlink:href="#DejaVuSans-52"/>
      </g>
     </g>
    </g>
    <g id="ytick_4">
     <g id="line2d_10">
      <g>
       <use style="stroke:#000000;stroke-width:0.8;" x="54" xlink:href="#m5feaa0f71e" y="121.536"/>
      </g>
     </g>
     <g id="text_11">
      <!-- 0.6 -->
      <g transform="translate(31.096875 125.335219)scale(0.1 -0.1)">
       <use xlink:href="#DejaVuSans-48"/>
       <use x="63.623047" xlink:href="#DejaVuSans-46"/>
       <use x="95.410156" xlink:href="#DejaVuSans-54"/>
      </g>
     </g>
    </g>
    <g id="ytick_5">
     <g id="line2d_11">
      <g>
       <use style="stroke:#000000;stroke-width:0.8;" x="54" xlink:href="#m5feaa0f71e" y="78.048"/>
      </g>
     </g>
     <g id="text_12">
      <!-- 0.8 -->
      <g transform="translate(31.096875 81.847219)scale(0.1 -0.1)">
       <use xlink:href="#DejaVuSans-48"/>
       <use x="63.623047" xlink:href="#DejaVuSans-46"/>
       <use x="95.410156" xlink:href="#DejaVuSans-56"/>
      </g>
     </g>
    </g>
    <g id="ytick_6">
     <g id="line2d_12">
      <g>
       <use style="stroke:#000000;stroke-width:0.8;" x="54" xlink:href="#m5feaa0f71e" y="34.56"/>
      </g>
     </g>
     <g id="text_13">
      <!-- 1.0 -->
      <g transform="translate(31.096875 38.359219)scale(0.1 -0.1)">
       <use xlink:href="#DejaVuSans-49"/>
       <use x="63.623047" xlink:href="#DejaVuSans-46"/>
       <use x="95.410156" xlink:href="#DejaVuSans-48"/>
      </g>
     </g>
    </g>
    <g id="text_14">
     <!-- True Positive Rate -->
     <defs>
      <path d="M -0.296875 72.90625 
L 61.375 72.90625 
L 61.375 64.59375 
L 35.5 64.59375 
L 35.5 0 
L 25.59375 0 
L 25.59375 64.59375 
L -0.296875 64.59375 
z
" id="DejaVuSans-84"/>
      <path d="M 41.109375 46.296875 
Q 39.59375 47.171875 37.8125 47.578125 
Q 36.03125 48 33.890625 48 
Q 26.265625 48 22.1875 43.046875 
Q 18.109375 38.09375 18.109375 28.8125 
L 18.109375 0 
L 9.078125 0 
L 9.078125 54.6875 
L 18.109375 54.6875 
L 18.109375 46.1875 
Q 20.953125 51.171875 25.484375 53.578125 
Q 30.03125 56 36.53125 56 
Q 37.453125 56 38.578125 55.875 
Q 39.703125 55.765625 41.0625 55.515625 
z
" id="DejaVuSans-114"/>
      <path d="M 8.5 21.578125 
L 8.5 54.6875 
L 17.484375 54.6875 
L 17.484375 21.921875 
Q 17.484375 14.15625 20.5 10.265625 
Q 23.53125 6.390625 29.59375 6.390625 
Q 36.859375 6.390625 41.078125 11.03125 
Q 45.3125 15.671875 45.3125 23.6875 
L 45.3125 54.6875 
L 54.296875 54.6875 
L 54.296875 0 
L 45.3125 0 
L 45.3125 8.40625 
Q 42.046875 3.421875 37.71875 1 
Q 33.40625 -1.421875 27.6875 -1.421875 
Q 18.265625 -1.421875 13.375 4.4375 
Q 8.5 10.296875 8.5 21.578125 
z
M 31.109375 56 
z
" id="DejaVuSans-117"/>
     </defs>
     <g transform="translate(25.017187 188.826094)rotate(-90)scale(0.1 -0.1)">
      <use xlink:href="#DejaVuSans-84"/>
      <use x="60.865234" xlink:href="#DejaVuSans-114"/>
      <use x="101.978516" xlink:href="#DejaVuSans-117"/>
      <use x="165.357422" xlink:href="#DejaVuSans-101"/>
      <use x="226.880859" xlink:href="#DejaVuSans-32"/>
      <use x="258.667969" xlink:href="#DejaVuSans-80"/>
      <use x="318.923828" xlink:href="#DejaVuSans-111"/>
      <use x="380.105469" xlink:href="#DejaVuSans-115"/>
      <use x="432.205078" xlink:href="#DejaVuSans-105"/>
      <use x="459.988281" xlink:href="#DejaVuSans-116"/>
      <use x="499.197266" xlink:href="#DejaVuSans-105"/>
      <use x="526.980469" xlink:href="#DejaVuSans-118"/>
      <use x="586.160156" xlink:href="#DejaVuSans-101"/>
      <use x="647.683594" xlink:href="#DejaVuSans-32"/>
      <use x="679.470703" xlink:href="#DejaVuSans-82"/>
      <use x="748.921875" xlink:href="#DejaVuSans-97"/>
      <use x="810.201172" xlink:href="#DejaVuSans-116"/>
      <use x="849.410156" xlink:href="#DejaVuSans-101"/>
     </g>
    </g>
   </g>
   <g id="line2d_13">
    <path clip-path="url(#p2dafa2ebe9)" d="M 54 252 
L 54.017975 251.913508 
L 54.107847 250.9621 
L 54.131813 250.9621 
L 54.203712 250.270167 
L 54.251644 250.270167 
L 54.335525 249.405251 
L 54.371474 249.318759 
L 54.449364 248.886301 
L 54.491304 248.843055 
L 54.557211 248.194368 
L 54.611135 248.107876 
L 54.701008 247.805155 
L 54.736957 247.718663 
L 54.832821 247.113222 
L 54.898728 247.02673 
L 55.006575 246.248305 
L 55.030541 246.20506 
L 55.126405 245.642864 
L 55.174337 245.556372 
L 55.240244 244.950931 
L 55.324125 244.864439 
L 55.431973 244.258998 
L 55.515854 244.172506 
L 55.61771 243.869785 
L 55.707582 243.783294 
L 55.81543 243.523819 
L 55.833404 243.480573 
L 55.93526 242.918377 
L 55.959226 242.831885 
L 56.05509 242.442673 
L 56.09104 242.356181 
L 56.198887 241.707494 
L 56.21087 241.664248 
L 56.318717 241.404773 
L 56.324709 241.404773 
L 56.432556 241.015561 
L 56.48648 240.929069 
L 56.582344 240.496611 
L 56.630276 240.410119 
L 56.738123 240.107399 
L 56.768081 240.107399 
L 56.863945 239.588449 
L 56.941835 239.501957 
L 57.037699 239.069499 
L 57.109598 238.983007 
L 57.19947 238.637041 
L 57.265377 238.550549 
L 57.337275 238.291074 
L 57.415165 238.204582 
L 57.517021 237.945107 
L 57.546978 237.901862 
L 57.648834 237.555895 
L 57.696766 237.469403 
L 57.792631 237.209928 
L 57.858537 237.209928 
L 57.960393 236.604487 
L 57.990351 236.517995 
L 58.080223 236.085537 
L 58.110181 236.085537 
L 58.188071 235.696325 
L 58.259969 235.609833 
L 58.367816 235.047637 
L 58.397774 235.004391 
L 58.49963 234.615179 
L 58.547562 234.528687 
L 58.601485 234.009737 
L 58.69735 233.923246 
L 58.787222 233.534033 
L 58.901061 233.447542 
L 59.002917 233.188067 
L 59.044858 233.101575 
L 59.116756 232.625871 
L 59.230595 232.539379 
L 59.326459 232.236659 
L 59.398357 232.150167 
L 59.500213 231.414988 
L 59.548145 231.328496 
L 59.650001 230.852792 
L 59.697933 230.766301 
L 59.76384 230.46358 
L 59.841729 230.377088 
L 59.937594 230.031122 
L 59.997509 229.94463 
L 60.087382 229.555418 
L 60.123331 229.468926 
L 60.207212 229.209451 
L 60.327042 229.122959 
L 60.428898 228.517518 
L 60.494805 228.431026 
L 60.584678 227.998568 
L 60.746449 227.912076 
L 60.848304 227.739093 
L 60.914211 227.652601 
L 61.010075 227.436372 
L 61.129906 227.349881 
L 61.231761 227.04716 
L 61.267711 226.960668 
L 61.357583 226.701193 
L 61.429482 226.614702 
L 61.519354 226.182243 
L 61.567286 226.095752 
L 61.639185 225.879523 
L 61.711083 225.793031 
L 61.812939 225.057852 
L 61.860871 224.97136 
L 61.944752 224.625394 
L 62.004667 224.538902 
L 62.010659 224.452411 
L 62.148464 224.365919 
L 62.256311 223.457757 
L 62.298252 223.371265 
L 62.406099 223.155036 
L 62.44804 223.068544 
L 62.543904 222.679332 
L 62.60981 222.59284 
L 62.717658 222.246874 
L 62.789556 222.160382 
L 62.873437 221.987399 
L 62.909386 221.987399 
L 63.005251 221.468449 
L 63.131072 221.425203 
L 63.226937 220.949499 
L 63.322801 220.863007 
L 63.394699 220.646778 
L 63.466597 220.560286 
L 63.544487 220.344057 
L 63.598411 220.257566 
L 63.688284 219.825107 
L 63.790139 219.738616 
L 63.891995 219.133174 
L 63.993851 219.046683 
L 64.0298 218.916945 
L 64.131656 218.830453 
L 64.203554 218.527733 
L 64.353342 218.441241 
L 64.461189 218.225012 
L 64.50313 218.181766 
L 64.58102 217.8358 
L 64.670892 217.749308 
L 64.748782 217.489833 
L 64.808697 217.446587 
L 64.904562 217.143866 
L 64.964477 217.057375 
L 65.048358 216.841146 
L 65.138231 216.754654 
L 65.204138 216.408687 
L 65.276036 216.322196 
L 65.365908 215.932983 
L 65.44979 215.846492 
L 65.557637 215.630263 
L 65.683459 215.543771 
L 65.785315 215.414033 
L 65.851221 215.327542 
L 65.899154 215.154558 
L 65.977043 215.111313 
L 66.078899 214.549117 
L 66.252653 214.462625 
L 66.354509 214.073413 
L 66.432399 213.986921 
L 66.510288 213.640955 
L 66.552229 213.640955 
L 66.660076 213.424726 
L 66.79189 213.338234 
L 66.887754 213.122005 
L 66.953661 213.035513 
L 67.061508 212.819284 
L 67.103449 212.732792 
L 67.18733 212.516563 
L 67.295177 212.430072 
L 67.391041 212.300334 
L 67.522855 212.257088 
L 67.624711 211.911122 
L 67.690617 211.82463 
L 67.774498 211.608401 
L 67.846397 211.521909 
L 67.888337 211.392172 
L 68.092049 211.30568 
L 68.181922 211.132697 
L 68.301752 211.046205 
L 68.385633 210.916468 
L 68.433565 210.873222 
L 68.541413 210.311026 
L 68.583353 210.224535 
L 68.679218 209.96506 
L 68.775082 209.878568 
L 68.864955 209.705585 
L 68.942844 209.619093 
L 69.0447 209.229881 
L 69.140564 209.143389 
L 69.236429 208.883914 
L 69.284361 208.840668 
L 69.344276 208.581193 
L 69.434149 208.494702 
L 69.506047 208.278473 
L 69.59592 208.191981 
L 69.697776 208.018998 
L 69.781657 207.932506 
L 69.889504 207.500048 
L 69.955411 207.456802 
L 70.057267 207.240573 
L 70.165114 207.154081 
L 70.243004 206.721623 
L 70.302919 206.635131 
L 70.410766 206.418902 
L 70.494647 206.332411 
L 70.548571 206.116181 
L 70.66241 206.02969 
L 70.698359 205.726969 
L 70.884096 205.640477 
L 70.991943 205.337757 
L 71.087808 205.294511 
L 71.183672 204.905298 
L 71.237596 204.862053 
L 71.345443 204.559332 
L 71.417341 204.47284 
L 71.429324 204.299857 
L 71.60907 204.213365 
L 71.662993 203.997136 
L 71.734891 203.997136 
L 71.836747 203.607924 
L 71.908645 203.521432 
L 71.992527 203.348449 
L 72.118349 203.261957 
L 72.142315 203.175465 
L 72.387967 203.088974 
L 72.489823 202.872745 
L 72.543746 202.786253 
L 72.633619 202.397041 
L 72.735475 202.310549 
L 72.837331 202.09432 
L 72.867288 202.007828 
L 72.975136 201.705107 
L 73.082983 201.661862 
L 73.166864 201.402387 
L 73.298677 201.315895 
L 73.406525 201.013174 
L 73.472432 200.926683 
L 73.502389 200.710453 
L 73.718084 200.623962 
L 73.81994 200.407733 
L 73.93977 200.321241 
L 74.041626 200.01852 
L 74.089558 199.932029 
L 74.185422 199.629308 
L 74.245337 199.542816 
L 74.353185 199.067112 
L 74.502972 199.023866 
L 74.556896 198.764391 
L 74.628794 198.6779 
L 74.712676 198.331933 
L 74.850481 198.245442 
L 74.946345 197.899475 
L 75.132082 197.812983 
L 75.233938 197.596754 
L 75.335793 197.510263 
L 75.383726 197.380525 
L 75.491573 197.294033 
L 75.575454 197.12105 
L 75.653344 197.077804 
L 75.7552 196.688592 
L 75.839081 196.6021 
L 75.87503 196.472363 
L 76.030809 196.385871 
L 76.126674 196.08315 
L 76.210555 195.996659 
L 76.210555 195.953413 
L 76.456207 195.866921 
L 76.558063 195.737184 
L 76.647936 195.650692 
L 76.749792 195.520955 
L 76.797724 195.477709 
L 76.86363 195.218234 
L 76.971478 195.131742 
L 77.079325 195.045251 
L 77.121266 194.958759 
L 77.211138 194.785776 
L 77.283037 194.699284 
L 77.330969 194.612792 
L 77.426833 194.526301 
L 77.510714 194.22358 
L 77.864214 194.137088 
L 77.900163 193.920859 
L 78.037968 193.834368 
L 78.0859 193.661384 
L 78.217713 193.574893 
L 78.301595 193.315418 
L 78.475349 193.228926 
L 78.535264 193.099189 
L 78.649103 193.012697 
L 78.75695 192.709976 
L 78.816865 192.66673 
L 78.894755 192.36401 
L 79.086483 192.277518 
L 79.182348 192.018043 
L 79.212305 191.931551 
L 79.314161 191.758568 
L 79.451966 191.672076 
L 79.559813 191.499093 
L 79.74555 191.412601 
L 79.74555 191.369356 
L 79.937279 191.282864 
L 80.039135 191.109881 
L 80.09905 191.066635 
L 80.164956 190.763914 
L 80.332719 190.677422 
L 80.380651 190.547685 
L 80.500481 190.461193 
L 80.608329 190.28821 
L 80.638286 190.201718 
L 80.734151 189.942243 
L 80.81204 189.855752 
L 80.901913 189.76926 
L 81.045709 189.682768 
L 81.147565 189.120573 
L 81.327311 189.077327 
L 81.411192 188.774606 
L 81.471107 188.688115 
L 81.578955 188.212411 
L 81.764692 188.125919 
L 81.83659 187.736706 
L 82.010344 187.650215 
L 82.046293 187.520477 
L 82.23203 187.433986 
L 82.339877 187.217757 
L 82.42975 187.131265 
L 82.537597 186.958282 
L 82.651436 186.87179 
L 82.753292 186.612315 
L 82.78325 186.525823 
L 82.807216 186.439332 
L 82.962995 186.35284 
L 83.070842 186.179857 
L 83.166707 186.093365 
L 83.256579 185.790644 
L 83.358435 185.747399 
L 83.466283 185.487924 
L 83.568138 185.401432 
L 83.65202 185.31494 
L 83.741892 185.228449 
L 83.84974 184.752745 
L 83.897672 184.666253 
L 83.951595 184.536516 
L 84.04746 184.49327 
L 84.137332 184.190549 
L 84.209231 184.104057 
L 84.305095 183.844582 
L 84.376993 183.758091 
L 84.48484 183.368878 
L 84.56273 183.282387 
L 84.634628 183.152649 
L 84.772433 183.066158 
L 84.874289 182.93642 
L 84.946187 182.849928 
L 85.054035 182.547208 
L 85.221797 182.503962 
L 85.269729 182.330979 
L 85.401543 182.244487 
L 85.497407 182.071504 
L 85.623229 181.985012 
L 85.713102 181.855274 
L 85.773017 181.812029 
L 85.820949 181.639045 
L 85.994703 181.552554 
L 86.096559 181.37957 
L 86.270313 181.293079 
L 86.282296 181.206587 
L 86.527948 181.120095 
L 86.635795 180.860621 
L 86.755626 180.774129 
L 86.815541 180.644391 
L 86.935371 180.5579 
L 87.043218 180.384916 
L 87.091151 180.298425 
L 87.16904 180.082196 
L 87.264905 179.995704 
L 87.354777 179.736229 
L 87.624396 179.649737 
L 87.660345 179.476754 
L 87.792158 179.390263 
L 87.894014 179.130788 
L 87.953929 179.044296 
L 88.061776 178.741575 
L 88.217556 178.655084 
L 88.271479 178.568592 
L 88.445233 178.4821 
L 88.553081 178.309117 
L 88.636962 178.222625 
L 88.702869 178.092888 
L 88.834682 178.006396 
L 88.942529 177.876659 
L 88.990462 177.790167 
L 89.06236 177.66043 
L 89.284046 177.573938 
L 89.373919 177.271217 
L 89.445817 177.184726 
L 89.469783 177.054988 
L 89.607588 176.968496 
L 89.709444 176.838759 
L 89.787333 176.752267 
L 89.859232 176.406301 
L 89.97307 176.319809 
L 90.056952 176.190072 
L 90.236697 176.10358 
L 90.284629 175.887351 
L 90.482349 175.800859 
L 90.554248 175.58463 
L 90.632137 175.498138 
L 90.674078 175.368401 
L 90.823866 175.281909 
L 90.865806 175.108926 
L 91.081501 175.022434 
L 91.129433 174.935943 
L 91.291204 174.849451 
L 91.387068 174.676468 
L 91.494916 174.589976 
L 91.59078 174.373747 
L 91.74656 174.330501 
L 91.800483 174.200764 
L 91.938288 174.114272 
L 92.034152 173.811551 
L 92.112042 173.72506 
L 92.219889 173.465585 
L 92.33972 173.379093 
L 92.33972 173.335847 
L 92.507482 173.249356 
L 92.567397 173.076372 
L 92.651279 172.989881 
L 92.723177 172.773652 
L 92.93288 172.68716 
L 93.040727 172.427685 
L 93.196507 172.341193 
L 93.280388 172.038473 
L 93.364269 171.951981 
L 93.454142 171.735752 
L 93.591947 171.64926 
L 93.687811 171.433031 
L 93.825616 171.346539 
L 93.903506 171.260048 
L 94.029328 171.173556 
L 94.083251 171.087064 
L 94.280971 171.000573 
L 94.370844 170.870835 
L 94.466708 170.784344 
L 94.568564 170.61136 
L 94.658437 170.524869 
L 94.706369 170.438377 
L 95.005945 170.351885 
L 95.017928 170.265394 
L 95.353453 170.178902 
L 95.455309 169.832936 
L 95.820791 169.746444 
L 95.928639 169.573461 
L 95.958596 169.486969 
L 96.048469 169.313986 
L 96.162308 169.227494 
L 96.246189 169.097757 
L 96.449901 169.011265 
L 96.545765 168.665298 
L 96.767451 168.578807 
L 96.8034 168.405823 
L 96.971163 168.319332 
L 97.055044 168.23284 
L 97.270739 168.146348 
L 97.348628 167.973365 
L 97.540357 167.886874 
L 97.546348 167.800382 
L 97.690145 167.71389 
L 97.792001 167.367924 
L 97.971746 167.324678 
L 98.079593 166.935465 
L 98.151492 166.848974 
L 98.253347 166.719236 
L 98.487017 166.632745 
L 98.588872 166.330024 
L 98.61883 166.286778 
L 98.726677 166.157041 
L 98.858491 166.070549 
L 98.960346 165.984057 
L 99.116126 165.897566 
L 99.223973 165.551599 
L 99.355787 165.508353 
L 99.457642 165.162387 
L 99.529541 165.075895 
L 99.631396 164.81642 
L 99.751227 164.729928 
L 99.847091 164.470453 
L 100.032828 164.383962 
L 100.032828 164.340716 
L 100.332404 164.254224 
L 100.362362 164.124487 
L 100.619997 164.037995 
L 100.67392 163.951504 
L 100.877632 163.865012 
L 100.985479 163.562291 
L 101.039403 163.4758 
L 101.135267 163.129833 
L 101.291047 163.043341 
L 101.398894 162.783866 
L 101.584631 162.697375 
L 101.668512 162.610883 
L 101.752394 162.524391 
L 101.848258 162.351408 
L 102.069944 162.264916 
L 102.165808 162.091933 
L 102.327579 162.005442 
L 102.399477 161.832458 
L 102.615172 161.745967 
L 102.717028 161.529737 
L 102.908756 161.486492 
L 102.974663 161.313508 
L 103.184366 161.270263 
L 103.28023 160.967542 
L 103.346137 160.88105 
L 103.447993 160.664821 
L 103.573815 160.578329 
L 103.675671 160.448592 
L 103.741577 160.3621 
L 103.849425 160.232363 
L 103.993221 160.145871 
L 104.101068 160.059379 
L 104.208916 159.972888 
L 104.292797 159.886396 
L 104.544441 159.799905 
L 104.62233 159.670167 
L 104.760135 159.583675 
L 104.808067 159.497184 
L 104.945872 159.453938 
L 105.047728 159.107971 
L 105.077686 159.02148 
L 105.161567 158.718759 
L 105.311355 158.718759 
L 105.311355 158.545776 
L 105.467134 158.50253 
L 105.467134 158.416038 
L 105.76671 158.329547 
L 105.802659 158.156563 
L 105.982405 158.070072 
L 106.078269 157.853842 
L 106.216074 157.767351 
L 106.264006 157.680859 
L 106.425777 157.594368 
L 106.527633 157.46463 
L 106.623497 157.378138 
L 106.689404 157.248401 
L 106.982988 157.161909 
L 107.036912 156.988926 
L 107.336488 156.902434 
L 107.408386 156.772697 
L 107.666021 156.686205 
L 107.767877 156.556468 
L 107.983572 156.513222 
L 108.031504 156.383484 
L 108.229224 156.296993 
L 108.337071 156.080764 
L 108.534791 156.037518 
L 108.612681 155.734797 
L 108.732511 155.648305 
L 108.816393 155.475322 
L 109.00213 155.432076 
L 109.056053 155.302339 
L 109.217824 155.215847 
L 109.325672 155.042864 
L 109.505417 154.999618 
L 109.505417 154.913126 
L 109.721112 154.869881 
L 109.775035 154.696897 
L 109.942798 154.610406 
L 110.026679 154.437422 
L 110.062628 154.394177 
L 110.134526 154.004964 
L 110.290306 153.918473 
L 110.302289 153.831981 
L 110.46406 153.788735 
L 110.571907 153.442768 
L 110.589882 153.399523 
L 110.613848 153.269785 
L 110.817559 153.183294 
L 110.925407 152.880573 
L 111.009288 152.794081 
L 111.105152 152.621098 
L 111.218991 152.534606 
L 111.284898 152.318377 
L 111.386754 152.231885 
L 111.446669 151.929165 
L 111.704304 151.842673 
L 111.704304 151.799427 
L 111.955948 151.756181 
L 112.039829 151.496706 
L 112.2016 151.410215 
L 112.297464 151.280477 
L 112.387337 151.193986 
L 112.471218 150.934511 
L 112.585057 150.848019 
L 112.686913 150.63179 
L 112.87265 150.545298 
L 112.878641 150.458807 
L 113.202183 150.372315 
L 113.26809 150.199332 
L 113.399903 150.11284 
L 113.399903 150.069594 
L 113.693488 149.983103 
L 113.789352 149.853365 
L 113.909182 149.766874 
L 113.981081 149.680382 
L 114.148843 149.59389 
L 114.25669 149.247924 
L 114.418461 149.161432 
L 114.514326 149.07494 
L 114.658122 148.988449 
L 114.670105 148.858711 
L 114.837868 148.77222 
L 114.837868 148.728974 
L 115.08352 148.642482 
L 115.113477 148.512745 
L 115.269257 148.426253 
L 115.329172 148.339761 
L 115.47896 148.25327 
L 115.580816 148.037041 
L 115.778536 147.950549 
L 115.868409 147.777566 
L 115.946298 147.691074 
L 116.030179 147.604582 
L 116.07212 147.604582 
L 116.144018 147.388353 
L 116.341738 147.301862 
L 116.437603 147.128878 
L 116.635323 147.042387 
L 116.74317 146.869403 
L 116.803085 146.782912 
L 116.892958 146.566683 
L 117.108653 146.480191 
L 117.204517 146.047733 
L 117.318356 145.961241 
L 117.420212 145.788258 
L 117.581982 145.701766 
L 117.68983 145.442291 
L 117.773711 145.3558 
L 117.863584 145.096325 
L 117.941474 145.009833 
L 118.025355 144.83685 
L 118.115228 144.750358 
L 118.193117 144.620621 
L 118.444761 144.534129 
L 118.474719 144.447637 
L 118.762311 144.404391 
L 118.792269 144.231408 
L 119.007964 144.144916 
L 119.085853 144.058425 
L 119.325514 143.971933 
L 119.325514 143.928687 
L 119.529226 143.842196 
L 119.619098 143.669212 
L 119.858759 143.582721 
L 119.94264 143.496229 
L 120.062471 143.452983 
L 120.14036 143.193508 
L 120.33808 143.107017 
L 120.409979 142.977279 
L 120.595716 142.890788 
L 120.673605 142.717804 
L 120.757487 142.674558 
L 120.805419 142.501575 
L 120.895292 142.458329 
L 120.937232 142.285346 
L 121.212842 142.2421 
L 121.314698 141.982625 
L 121.710138 141.896134 
L 121.776045 141.766396 
L 122.045663 141.679905 
L 122.147519 141.377184 
L 122.183468 141.333938 
L 122.225408 141.074463 
L 122.363213 140.987971 
L 122.447095 140.858234 
L 122.776628 140.771742 
L 122.836543 140.555513 
L 123.034263 140.469021 
L 123.106162 140.209547 
L 123.357805 140.123055 
L 123.399746 139.906826 
L 123.567508 139.820334 
L 123.639407 139.647351 
L 123.729279 139.560859 
L 123.807169 139.431122 
L 123.980923 139.34463 
L 124.070796 139.128401 
L 124.24455 139.041909 
L 124.346406 138.912172 
L 124.544126 138.82568 
L 124.633998 138.695943 
L 124.753829 138.609451 
L 124.825727 138.393222 
L 124.963532 138.30673 
L 124.963532 138.263484 
L 125.239142 138.176993 
L 125.281082 138.00401 
L 125.70648 137.917518 
L 125.802344 137.744535 
L 126.137869 137.658043 
L 126.239725 137.528305 
L 126.461411 137.441814 
L 126.563267 137.312076 
L 126.754996 137.225585 
L 126.85086 137.052601 
L 127.04858 136.96611 
L 127.132461 136.879618 
L 127.276258 136.793126 
L 127.384105 136.490406 
L 127.485961 136.403914 
L 127.503935 136.317422 
L 127.971274 136.230931 
L 128.019206 136.144439 
L 128.19296 136.057947 
L 128.27085 135.884964 
L 128.51051 135.798473 
L 128.51051 135.755227 
L 128.947891 135.668735 
L 129.013798 135.40926 
L 129.397255 135.322768 
L 129.475145 135.193031 
L 129.690839 135.106539 
L 129.768729 134.976802 
L 129.876576 134.976802 
L 129.948474 134.803819 
L 130.212101 134.717327 
L 130.289991 134.544344 
L 130.631507 134.457852 
L 130.691423 134.37136 
L 130.817244 134.284869 
L 130.889143 134.111885 
L 131.056905 134.025394 
L 131.080871 133.938902 
L 131.386439 133.852411 
L 131.386439 133.809165 
L 131.602133 133.722673 
L 131.686014 133.636181 
L 131.841794 133.54969 
L 131.913692 133.376706 
L 132.105421 133.290215 
L 132.159344 133.203723 
L 132.327107 133.117232 
L 132.410988 132.857757 
L 132.674615 132.771265 
L 132.740521 132.598282 
L 132.902292 132.51179 
L 133.004148 132.209069 
L 133.195877 132.122578 
L 133.279758 131.99284 
L 133.471487 131.906348 
L 133.537393 131.733365 
L 133.657224 131.646874 
L 133.765071 131.430644 
L 133.854944 131.344153 
L 133.962791 131.171169 
L 134.034689 131.127924 
L 134.124562 130.911695 
L 134.418146 130.825203 
L 134.490045 130.738711 
L 134.651816 130.65222 
L 134.753671 130.565728 
L 134.957383 130.479236 
L 135.047256 130.392745 
L 135.292908 130.306253 
L 135.358815 130.219761 
L 135.496619 130.13327 
L 135.604467 130.003532 
L 135.69434 129.917041 
L 135.754255 129.700811 
L 136.017881 129.61432 
L 136.125729 129.441337 
L 136.197627 129.354845 
L 136.251551 129.268353 
L 136.473237 129.181862 
L 136.479228 129.09537 
L 136.635008 129.008878 
L 136.724881 128.922387 
L 136.808762 128.922387 
L 136.88066 128.749403 
L 137.036439 128.662912 
L 137.102346 128.533174 
L 137.216185 128.446683 
L 137.264117 128.316945 
L 137.497786 128.230453 
L 137.599642 128.014224 
L 137.899218 127.927733 
L 138.007065 127.797995 
L 138.174828 127.711504 
L 138.204785 127.581766 
L 138.42048 127.495274 
L 138.528327 127.192554 
L 138.600225 127.106062 
L 138.708073 126.933079 
L 138.977691 126.846587 
L 139.067564 126.630358 
L 139.36714 126.543866 
L 139.445029 126.414129 
L 139.678699 126.327637 
L 139.732622 126.111408 
L 139.978274 126.024916 
L 140.044181 125.895179 
L 140.193969 125.808687 
L 140.217935 125.722196 
L 140.445613 125.635704 
L 140.541477 125.462721 
L 140.82907 125.376229 
L 140.936917 125.289737 
L 141.080714 125.246492 
L 141.176578 124.987017 
L 141.308391 124.900525 
L 141.308391 124.857279 
L 141.691848 124.770788 
L 141.751764 124.64105 
L 141.865602 124.554558 
L 141.937501 124.424821 
L 142.09328 124.338329 
L 142.195136 124.035609 
L 142.584585 123.949117 
L 142.674457 123.776134 
L 143.03994 123.689642 
L 143.11783 123.559905 
L 143.465338 123.473413 
L 143.549219 123.30043 
L 143.722973 123.213938 
L 143.722973 123.170692 
L 143.926684 123.0842 
L 143.926684 123.040955 
L 144.286175 122.954463 
L 144.346091 122.824726 
L 144.471913 122.738234 
L 144.561785 122.522005 
L 144.705582 122.435513 
L 144.801446 122.349021 
L 145.071064 122.26253 
L 145.166929 122.132792 
L 145.364649 122.046301 
L 145.466504 121.873317 
L 145.520428 121.786826 
L 145.622284 121.484105 
L 145.718148 121.397613 
L 145.825995 121.267876 
L 145.891902 121.181384 
L 145.951817 121.008401 
L 146.179495 120.921909 
L 146.263376 120.835418 
L 146.479071 120.748926 
L 146.580927 120.619189 
L 146.724723 120.532697 
L 146.79063 120.359714 
L 147.024299 120.273222 
L 147.096197 120.18673 
L 147.293917 120.100239 
L 147.401765 120.013747 
L 147.58151 119.927255 
L 147.683366 119.754272 
L 147.719315 119.66778 
L 147.797205 119.581289 
L 147.982942 119.494797 
L 147.982942 119.451551 
L 148.234585 119.36506 
L 148.234585 119.321814 
L 148.378382 119.235322 
L 148.432306 119.148831 
L 148.683949 119.062339 
L 148.785805 118.932601 
L 149.025466 118.84611 
L 149.115338 118.543389 
L 149.289093 118.456897 
L 149.349008 118.370406 
L 149.444872 118.283914 
L 149.522762 118.110931 
L 149.696516 118.024439 
L 149.696516 117.981193 
L 149.834321 117.894702 
L 149.924193 117.80821 
L 150.097947 117.721718 
L 150.193812 117.548735 
L 150.481404 117.462243 
L 150.481404 117.418998 
L 150.655158 117.332506 
L 150.715074 117.246014 
L 150.894819 117.159523 
L 151.002666 116.943294 
L 151.098531 116.856802 
L 151.128488 116.683819 
L 151.290259 116.597327 
L 151.320217 116.510835 
L 151.769581 116.424344 
L 151.769581 116.381098 
L 152.087131 116.294606 
L 152.188987 116.208115 
L 152.326792 116.121623 
L 152.392699 115.991885 
L 152.602402 115.905394 
L 152.680291 115.732411 
L 153.009825 115.645919 
L 153.117672 115.472936 
L 153.369316 115.386444 
L 153.453197 115.213461 
L 153.752773 115.126969 
L 153.842646 115.040477 
L 154.160196 114.953986 
L 154.208128 114.867494 
L 154.657492 114.781002 
L 154.72939 114.608019 
L 154.88517 114.521527 
L 154.88517 114.478282 
L 155.376474 114.39179 
L 155.394449 114.305298 
L 155.628118 114.218807 
L 155.706008 114.045823 
L 155.819846 114.002578 
L 155.867779 113.829594 
L 156.02955 113.743103 
L 156.077482 113.656611 
L 156.281193 113.570119 
L 156.377058 113.483628 
L 156.532837 113.397136 
L 156.598744 113.267399 
L 156.868362 113.180907 
L 156.94026 113.094415 
L 157.389624 113.007924 
L 157.401607 112.921432 
L 157.868945 112.83494 
L 157.892911 112.748449 
L 158.246411 112.661957 
L 158.306326 112.488974 
L 158.510038 112.402482 
L 158.617885 112.272745 
L 158.923452 112.186253 
L 158.923452 112.143007 
L 159.07324 112.056516 
L 159.15113 111.970024 
L 159.241003 111.883532 
L 159.324884 111.710549 
L 159.516613 111.624057 
L 159.600494 111.537566 
L 160.055849 111.451074 
L 160.091798 111.278091 
L 160.439306 111.191599 
L 160.499222 111.018616 
L 160.738882 110.932124 
L 160.840738 110.715895 
L 160.924619 110.672649 
L 160.996517 110.413174 
L 161.212212 110.326683 
L 161.230187 110.240191 
L 161.673559 110.153699 
L 161.673559 110.110453 
L 161.901237 110.023962 
L 161.997101 109.807733 
L 162.098957 109.721241 
L 162.15288 109.591504 
L 162.338617 109.505012 
L 162.398533 109.41852 
L 162.698108 109.332029 
L 162.7041 109.245537 
L 163.123506 109.159045 
L 163.165447 109.029308 
L 163.357175 108.942816 
L 163.45304 108.856325 
L 163.824514 108.813079 
L 163.932361 108.59685 
L 164.172022 108.510358 
L 164.178013 108.423866 
L 164.333793 108.337375 
L 164.423665 108.207637 
L 164.651343 108.121146 
L 164.663326 108.034654 
L 164.926953 107.991408 
L 164.998851 107.861671 
L 165.19058 107.775179 
L 165.23252 107.602196 
L 165.58602 107.515704 
L 165.609986 107.429212 
L 166.149222 107.342721 
L 166.239095 107.169737 
L 166.430824 107.083246 
L 166.53268 106.953508 
L 166.856221 106.867017 
L 166.92812 106.694033 
L 167.095882 106.607542 
L 167.137823 106.52105 
L 167.44339 106.434558 
L 167.467356 106.348067 
L 167.659085 106.261575 
L 167.724991 106.175084 
L 167.886762 106.088592 
L 167.886762 106.045346 
L 168.19233 105.958854 
L 168.204313 105.829117 
L 168.485914 105.742625 
L 168.485914 105.699379 
L 168.66566 105.612888 
L 168.713592 105.526396 
L 168.94127 105.439905 
L 169.049117 105.223675 
L 169.168947 105.137184 
L 169.168947 105.093938 
L 169.528438 105.007446 
L 169.618311 104.920955 
L 169.690209 104.877709 
L 169.726158 104.747971 
L 170.055692 104.66148 
L 170.133581 104.488496 
L 170.379234 104.402005 
L 170.469106 104.272267 
L 170.768682 104.185776 
L 170.87653 104.056038 
L 170.948428 103.969547 
L 171.056275 103.839809 
L 171.206063 103.796563 
L 171.265978 103.666826 
L 171.523614 103.580334 
L 171.613486 103.493842 
L 172.116774 103.407351 
L 172.18268 103.234368 
L 172.332468 103.191122 
L 172.410358 103.061384 
L 172.650019 102.974893 
L 172.7339 102.758663 
L 173.05145 102.672172 
L 173.147315 102.455943 
L 173.48284 102.369451 
L 173.548746 102.282959 
L 174.022076 102.196468 
L 174.022076 102.153222 
L 174.537347 102.06673 
L 174.62722 101.936993 
L 174.842914 101.850501 
L 174.884855 101.76401 
L 175.214388 101.677518 
L 175.226371 101.591026 
L 175.591854 101.504535 
L 175.591854 101.461289 
L 175.861472 101.374797 
L 175.963328 101.201814 
L 176.436658 101.115322 
L 176.436658 101.072076 
L 176.921971 100.985585 
L 176.921971 100.942339 
L 177.377326 100.855847 
L 177.383318 100.72611 
L 177.55108 100.639618 
L 177.640953 100.509881 
L 177.910571 100.423389 
L 177.910571 100.380143 
L 178.126266 100.293652 
L 178.22213 100.120668 
L 178.294028 100.077422 
L 178.312003 99.947685 
L 178.857231 99.861193 
L 178.911154 99.774702 
L 179.042968 99.731456 
L 179.078917 99.601718 
L 179.402459 99.515227 
L 179.510306 99.428735 
L 179.672077 99.342243 
L 179.767941 99.255752 
L 180.061526 99.16926 
L 180.127432 98.996277 
L 180.492915 98.909785 
L 180.582788 98.823294 
L 180.666669 98.736802 
L 180.690635 98.65031 
L 180.990211 98.563819 
L 180.990211 98.520573 
L 181.331727 98.434081 
L 181.427592 98.304344 
L 181.583371 98.217852 
L 181.631303 98.13136 
L 181.858981 98.044869 
L 181.900922 97.958377 
L 182.17054 97.871885 
L 182.230455 97.785394 
L 182.673827 97.698902 
L 182.72176 97.569165 
L 183.171123 97.482673 
L 183.225047 97.352936 
L 183.530614 97.266444 
L 183.530614 97.223198 
L 184.315503 97.136706 
L 184.363435 97.050215 
L 184.782841 96.963723 
L 184.872714 96.833986 
L 185.238197 96.747494 
L 185.256171 96.661002 
L 185.483849 96.617757 
L 185.52579 96.444773 
L 185.639628 96.358282 
L 185.747476 96.185298 
L 186.083001 96.098807 
L 186.124941 95.969069 
L 186.490424 95.882578 
L 186.490424 95.839332 
L 186.843923 95.75284 
L 186.843923 95.709594 
L 187.359194 95.623103 
L 187.437084 95.450119 
L 187.748643 95.363628 
L 187.766617 95.23389 
L 187.97632 95.147399 
L 188.042227 95.060907 
L 188.341803 94.974415 
L 188.419693 94.758186 
L 188.60543 94.671695 
L 188.60543 94.628449 
L 188.749226 94.541957 
L 188.749226 94.455465 
L 189.024836 94.368974 
L 189.090742 94.282482 
L 189.420276 94.19599 
L 189.486183 94.066253 
L 189.797742 93.979761 
L 189.86964 93.89327 
L 190.049385 93.806778 
L 190.097317 93.677041 
L 190.486766 93.590549 
L 190.486766 93.504057 
L 190.912164 93.417566 
L 190.942121 93.331074 
L 191.241697 93.244582 
L 191.319587 93.028353 
L 191.52929 92.941862 
L 191.52929 92.898616 
L 192.176374 92.812124 
L 192.176374 92.768878 
L 192.386077 92.682387 
L 192.428018 92.595895 
L 192.607763 92.509403 
L 192.679661 92.33642 
L 192.967254 92.249928 
L 193.051135 92.120191 
L 193.518474 92.033699 
L 193.614338 91.947208 
L 194.207498 91.860716 
L 194.315346 91.644487 
L 194.387244 91.601241 
L 194.387244 91.471504 
L 194.848591 91.385012 
L 194.950447 91.212029 
L 195.214073 91.125537 
L 195.309938 90.909308 
L 195.765293 90.822816 
L 195.843183 90.693079 
L 196.142758 90.606587 
L 196.238623 90.390358 
L 196.538199 90.303866 
L 196.634063 90.087637 
L 196.993554 90.001146 
L 197.09541 89.828162 
L 197.562748 89.741671 
L 197.664604 89.568687 
L 197.922239 89.482196 
L 198.012112 89.352458 
L 198.113968 89.265967 
L 198.113968 89.222721 
L 198.269747 89.136229 
L 198.341645 88.876754 
L 199.006704 88.790263 
L 199.10856 88.574033 
L 199.509991 88.487542 
L 199.521974 88.40105 
L 199.74366 88.314558 
L 199.803576 88.228067 
L 200.181041 88.141575 
L 200.288888 87.968592 
L 200.510575 87.8821 
L 200.516566 87.795609 
L 200.882049 87.709117 
L 200.96593 87.449642 
L 201.16365 87.36315 
L 201.259514 87.103675 
L 201.51715 87.017184 
L 201.607022 86.800955 
L 201.660946 86.714463 
L 201.762802 86.584726 
L 202.409886 86.498234 
L 202.409886 86.454988 
L 202.757394 86.368496 
L 202.811317 86.238759 
L 203.158825 86.152267 
L 203.194774 86.02253 
L 203.590215 85.936038 
L 203.662113 85.763055 
L 204.177383 85.676563 
L 204.24329 85.590072 
L 204.488942 85.50358 
L 204.488942 85.460334 
L 204.980247 85.373842 
L 205.064128 85.244105 
L 205.42961 85.157613 
L 205.42961 85.114368 
L 205.777118 85.027876 
L 205.777118 84.98463 
L 206.022771 84.898138 
L 206.022771 84.854893 
L 206.250448 84.768401 
L 206.250448 84.725155 
L 206.633905 84.638663 
L 206.633905 84.595418 
L 206.855592 84.508926 
L 206.963439 84.379189 
L 207.161159 84.292697 
L 207.173142 84.206205 
L 207.418794 84.119714 
L 207.448752 84.033222 
L 207.748328 84.033222 
L 207.856175 83.773747 
L 208.245624 83.687255 
L 208.341488 83.557518 
L 208.617098 83.471026 
L 208.70697 83.341289 
L 208.868741 83.254797 
L 208.922665 83.168305 
L 209.132368 83.081814 
L 209.186292 82.952076 
L 209.479876 82.865585 
L 209.479876 82.822339 
L 209.73152 82.735847 
L 209.827384 82.60611 
L 209.857342 82.562864 
L 209.917257 82.389881 
L 209.995147 82.303389 
L 210.00713 82.216897 
L 210.24679 82.130406 
L 210.288731 82.000668 
L 210.827968 81.914177 
L 210.827968 81.870931 
L 211.522984 81.784439 
L 211.600873 81.697947 
L 211.774627 81.611456 
L 211.846526 81.481718 
L 212.170067 81.395227 
L 212.170067 81.351981 
L 212.81116 81.265489 
L 212.88905 81.178998 
L 213.428286 81.092506 
L 213.440269 80.962768 
L 213.835709 80.876277 
L 213.859675 80.789785 
L 214.225158 80.703294 
L 214.225158 80.660048 
L 214.878233 80.573556 
L 214.878233 80.53031 
L 215.165826 80.443819 
L 215.225741 80.270835 
L 215.591224 80.184344 
L 215.627173 80.097852 
L 216.022613 80.01136 
L 216.022613 79.968115 
L 216.232316 79.881623 
L 216.310206 79.70864 
L 216.657714 79.622148 
L 216.723621 79.492411 
L 216.993239 79.405919 
L 217.065137 79.232936 
L 217.208934 79.146444 
L 217.214925 79.059952 
L 217.520492 78.973461 
L 217.520492 78.930215 
L 217.82606 78.843723 
L 217.915933 78.757232 
L 218.089687 78.713986 
L 218.089687 78.627494 
L 218.545042 78.541002 
L 218.545042 78.497757 
L 219.138202 78.411265 
L 219.234066 78.281527 
L 219.95904 78.195036 
L 219.95904 78.15179 
L 220.102836 78.065298 
L 220.168743 77.892315 
L 220.74992 77.805823 
L 220.791861 77.676086 
L 221.474894 77.589594 
L 221.474894 77.546348 
L 222.026114 77.459857 
L 222.109995 77.373365 
L 222.307715 77.286874 
L 222.391596 77.200382 
L 222.613282 77.11389 
L 222.655223 77.027399 
L 223.032688 76.940907 
L 223.032688 76.897661 
L 223.212434 76.811169 
L 223.320281 76.681432 
L 224.039263 76.59494 
L 224.075213 76.508449 
L 224.195043 76.421957 
L 224.290907 76.29222 
L 224.494619 76.205728 
L 224.548542 76.119236 
L 224.806178 76.032745 
L 224.902042 75.946253 
L 225.680939 75.859761 
L 225.710897 75.77327 
L 226.256125 75.686778 
L 226.274099 75.600286 
L 226.723463 75.557041 
L 226.723463 75.470549 
L 227.340589 75.384057 
L 227.394513 75.25432 
L 227.706072 75.167828 
L 227.771979 75.081337 
L 228.011639 74.994845 
L 228.011639 74.951599 
L 228.766571 74.908353 
L 228.766571 74.821862 
L 229.323782 74.73537 
L 229.413655 74.475895 
L 229.67129 74.389403 
L 229.695256 74.302912 
L 230.498119 74.259666 
L 230.534068 74.129928 
L 231.01339 74.043437 
L 231.109254 73.913699 
L 231.534652 73.827208 
L 231.582584 73.654224 
L 231.870177 73.567733 
L 231.870177 73.524487 
L 232.217685 73.437995 
L 232.325532 73.351504 
L 233.427971 73.265012 
L 233.427971 73.17852 
L 234.075055 73.092029 
L 234.182902 73.005537 
L 234.853952 72.919045 
L 234.913867 72.832554 
L 235.123571 72.746062 
L 235.123571 72.702816 
L 235.35724 72.616325 
L 235.35724 72.573079 
L 235.513019 72.529833 
L 235.513019 72.443341 
L 235.878502 72.35685 
L 235.878502 72.313604 
L 236.166095 72.227112 
L 236.220018 72.097375 
L 236.675374 72.010883 
L 236.69934 71.924391 
L 236.873094 71.8379 
L 236.873094 71.794654 
L 237.178661 71.708162 
L 237.178661 71.664916 
L 237.88566 71.578425 
L 237.987516 71.491933 
L 238.293083 71.405442 
L 238.388948 71.31895 
L 238.508778 71.232458 
L 238.604642 71.016229 
L 239.000082 70.929737 
L 239.006074 70.843246 
L 239.251726 70.756754 
L 239.251726 70.713508 
L 239.527336 70.627017 
L 239.635183 70.540525 
L 240.156445 70.454033 
L 240.156445 70.410788 
L 240.575851 70.324296 
L 240.641758 70.194558 
L 240.977283 70.108067 
L 241.001249 70.021575 
L 241.306817 69.935084 
L 241.324791 69.848592 
L 241.498545 69.7621 
L 241.606392 69.545871 
L 241.917951 69.459379 
L 241.959892 69.372888 
L 242.235502 69.286396 
L 242.337358 69.199905 
L 242.918535 69.113413 
L 243.008407 68.983675 
L 243.721398 68.897184 
L 243.721398 68.853938 
L 244.104855 68.767446 
L 244.176753 68.680955 
L 244.494304 68.594463 
L 244.572193 68.507971 
L 244.931685 68.42148 
L 245.021557 68.334988 
L 245.656658 68.248496 
L 245.758514 68.162005 
L 246.070073 68.075513 
L 246.094039 67.989021 
L 246.363657 67.90253 
L 246.405598 67.772792 
L 246.795046 67.686301 
L 246.825004 67.599809 
L 247.693774 67.513317 
L 247.771664 67.340334 
L 248.520603 67.253842 
L 248.592502 67.167351 
L 248.718324 67.080859 
L 248.754273 66.994368 
L 249.047857 66.907876 
L 249.047857 66.86463 
L 249.503212 66.778138 
L 249.503212 66.734893 
L 249.844729 66.648401 
L 249.892661 66.561909 
L 250.497804 66.475418 
L 250.539745 66.34568 
L 250.743456 66.259189 
L 250.743456 66.172697 
L 250.911219 66.086205 
L 250.911219 66.042959 
L 251.228769 65.956468 
L 251.264718 65.869976 
L 251.594252 65.783484 
L 251.606235 65.696993 
L 252.469013 65.610501 
L 252.469013 65.567255 
L 252.906394 65.480764 
L 252.906394 65.437518 
L 253.098123 65.351026 
L 253.164029 65.264535 
L 253.517529 65.178043 
L 253.60141 65.091551 
L 253.95491 65.00506 
L 253.95491 64.961814 
L 254.260477 64.875322 
L 254.302418 64.788831 
L 254.679883 64.702339 
L 254.679883 64.659093 
L 254.949502 64.572601 
L 254.949502 64.529356 
L 255.476755 64.442864 
L 255.530679 64.356372 
L 255.926119 64.269881 
L 255.998017 64.140143 
L 256.117847 64.053652 
L 256.129831 63.96716 
L 256.519279 63.880668 
L 256.56122 63.750931 
L 256.884762 63.664439 
L 256.992609 63.491456 
L 257.136405 63.404964 
L 257.220287 63.275227 
L 258.262811 63.188735 
L 258.262811 63.145489 
L 258.915886 63.058998 
L 258.915886 62.972506 
L 259.413182 62.886014 
L 259.413182 62.842768 
L 259.802631 62.756277 
L 259.802631 62.669785 
L 260.132164 62.583294 
L 260.174105 62.496802 
L 260.701358 62.41031 
L 260.701358 62.367064 
L 261.018909 62.280573 
L 261.018909 62.237327 
L 261.264561 62.150835 
L 261.264561 62.107589 
L 261.755865 62.021098 
L 261.809789 61.89136 
L 262.492822 61.804869 
L 262.492822 61.761623 
L 263.421507 61.675131 
L 263.469439 61.545394 
L 263.846905 61.458902 
L 263.954752 61.329165 
L 264.272303 61.242673 
L 264.272303 61.199427 
L 264.763607 61.156181 
L 264.841497 60.983198 
L 265.254912 60.896706 
L 265.302844 60.766969 
L 265.860055 60.680477 
L 265.860055 60.637232 
L 266.23752 60.55074 
L 266.309419 60.421002 
L 266.644944 60.334511 
L 266.698867 60.248019 
L 267.244095 60.161527 
L 267.244095 60.118282 
L 267.891179 60.03179 
L 267.891179 59.988544 
L 268.376492 59.902053 
L 268.40645 59.815561 
L 268.837839 59.729069 
L 268.933703 59.599332 
L 269.287203 59.51284 
L 269.287203 59.469594 
L 269.604753 59.383103 
L 269.7126 59.296611 
L 270.072091 59.210119 
L 270.137998 59.123628 
L 270.509472 59.037136 
L 270.509472 58.99389 
L 271.318327 58.907399 
L 271.318327 58.864153 
L 271.899504 58.777661 
L 271.995369 58.647924 
L 272.930045 58.561432 
L 272.930045 58.518186 
L 273.577129 58.431695 
L 273.589112 58.345203 
L 274.128349 58.258711 
L 274.176281 58.17222 
L 274.571721 58.085728 
L 274.571721 58.042482 
L 275.081 57.95599 
L 275.134924 57.869499 
L 275.548338 57.783007 
L 275.548338 57.739761 
L 276.333227 57.65327 
L 276.333227 57.610024 
L 277.483598 57.523532 
L 277.525539 57.437041 
L 278.184606 57.350549 
L 278.232538 57.220811 
L 278.508148 57.13432 
L 278.532114 57.047828 
L 278.975486 56.961337 
L 278.975486 56.918091 
L 279.892188 56.831599 
L 279.988053 56.701862 
L 280.269654 56.61537 
L 280.335561 56.528878 
L 281.048551 56.442387 
L 281.132433 56.312649 
L 281.51589 56.226158 
L 281.51589 56.182912 
L 282.019177 56.09642 
L 282.019177 56.053174 
L 282.402634 55.966683 
L 282.510482 55.836945 
L 282.893939 55.750453 
L 282.965837 55.620716 
L 283.37326 55.534224 
L 283.37326 55.490979 
L 283.582963 55.404487 
L 283.690811 55.317995 
L 283.876548 55.231504 
L 283.92448 55.05852 
L 284.625487 54.972029 
L 284.625487 54.928783 
L 285.104809 54.842291 
L 285.122783 54.7558 
L 285.835774 54.669308 
L 285.835774 54.626062 
L 286.033494 54.53957 
L 286.033494 54.496325 
L 286.812391 54.409833 
L 286.812391 54.366587 
L 287.237789 54.280095 
L 287.237789 54.23685 
L 288.244364 54.150358 
L 288.292296 54.063866 
L 289.029252 53.977375 
L 289.1371 53.847637 
L 289.550515 53.761146 
L 289.616421 53.674654 
L 289.933972 53.588162 
L 289.933972 53.544916 
L 290.611013 53.458425 
L 290.628988 53.371933 
L 291.108309 53.285442 
L 291.108309 53.242196 
L 291.449826 53.155704 
L 291.455817 53.069212 
L 291.773367 52.982721 
L 291.845266 52.896229 
L 292.4564 52.809737 
L 292.4564 52.766492 
L 292.720027 52.68 
L 292.726019 52.593508 
L 293.079518 52.507017 
L 293.079518 52.463771 
L 293.780526 52.377279 
L 293.870399 52.247542 
L 294.34972 52.16105 
L 294.361703 52.074558 
L 294.90094 51.988067 
L 294.960855 51.901575 
L 295.356295 51.815084 
L 295.356295 51.771838 
L 296.290972 51.685346 
L 296.290972 51.6421 
L 297.027928 51.555609 
L 297.027928 51.512363 
L 297.90269 51.425871 
L 297.90269 51.382625 
L 298.364037 51.296134 
L 298.41796 51.209642 
L 298.867324 51.12315 
L 298.867324 51.079905 
L 300.131534 50.993413 
L 300.23339 50.906921 
L 300.700728 50.82043 
L 300.796593 50.733938 
L 301.10216 50.647446 
L 301.186041 50.560955 
L 301.821142 50.474463 
L 301.839117 50.387971 
L 302.372362 50.30148 
L 302.438268 50.214988 
L 303.139276 50.128496 
L 303.199191 50.042005 
L 303.618597 49.955513 
L 303.618597 49.912267 
L 303.936148 49.825776 
L 304.038004 49.739284 
L 304.589223 49.652792 
L 304.661121 49.523055 
L 304.984663 49.436563 
L 304.984663 49.393317 
L 305.320188 49.306826 
L 305.416053 49.177088 
L 305.739594 49.090597 
L 305.79951 49.004105 
L 306.27284 48.917613 
L 306.27284 48.874368 
L 306.674271 48.787876 
L 306.746169 48.701384 
L 308.05232 48.614893 
L 308.148184 48.528401 
L 308.537633 48.441909 
L 308.537633 48.398663 
L 309.664038 48.312172 
L 309.735937 48.22568 
L 310.371037 48.139189 
L 310.371037 48.095943 
L 310.898291 48.009451 
L 311.000147 47.922959 
L 312.192459 47.836468 
L 312.216425 47.749976 
L 312.683763 47.663484 
L 312.701738 47.576993 
L 313.14511 47.490501 
L 313.14511 47.447255 
L 313.756245 47.360764 
L 313.756245 47.317518 
L 314.547125 47.231026 
L 314.547125 47.18778 
L 314.888642 47.101289 
L 314.888642 47.058043 
L 315.715471 46.971551 
L 315.793361 46.841814 
L 316.194792 46.755322 
L 316.284665 46.668831 
L 316.853859 46.582339 
L 316.853859 46.539093 
L 317.734612 46.452601 
L 317.734612 46.409356 
L 318.699247 46.322864 
L 318.699247 46.279618 
L 319.334347 46.193126 
L 319.334347 46.149881 
L 319.807677 46.063389 
L 319.855609 45.976897 
L 320.424804 45.890406 
L 320.424804 45.84716 
L 320.802269 45.760668 
L 320.802269 45.717422 
L 321.778887 45.630931 
L 321.778887 45.587685 
L 322.216267 45.501193 
L 322.30614 45.414702 
L 323.192885 45.32821 
L 323.282757 45.198473 
L 323.833977 45.111981 
L 323.833977 45.068735 
L 324.193468 44.982243 
L 324.193468 44.938998 
L 325.469661 44.852506 
L 325.469661 44.80926 
L 326.044847 44.722768 
L 326.044847 44.679523 
L 327.075388 44.593031 
L 327.075388 44.549785 
L 327.860277 44.463294 
L 327.860277 44.420048 
L 328.735038 44.333556 
L 328.824911 44.203819 
L 329.717647 44.117327 
L 329.717647 44.074081 
L 330.32279 43.987589 
L 330.376714 43.901098 
L 330.862027 43.814606 
L 330.862027 43.77136 
L 331.718814 43.684869 
L 331.790712 43.598377 
L 333.869769 43.511885 
L 333.869769 43.46864 
L 334.259217 43.382148 
L 334.337107 43.295656 
L 334.42698 43.209165 
L 334.42698 43.165919 
L 336.116588 43.079427 
L 336.116588 43.036181 
L 336.571943 42.94969 
L 336.571943 42.906444 
L 337.50662 42.819952 
L 337.50662 42.776706 
L 338.369398 42.690215 
L 338.41733 42.603723 
L 338.956567 42.517232 
L 338.956567 42.473986 
L 339.375973 42.387494 
L 339.375973 42.344248 
L 340.017065 42.257757 
L 340.106938 42.128019 
L 340.987691 42.041527 
L 340.987691 41.998282 
L 341.85047 41.91179 
L 341.898402 41.782053 
L 342.425655 41.695561 
L 342.425655 41.652315 
L 343.360332 41.565823 
L 343.360332 41.522578 
L 344.055348 41.436086 
L 344.055348 41.39284 
L 344.942093 41.306348 
L 344.942093 41.263103 
L 345.804871 41.176611 
L 345.804871 41.133365 
L 346.302167 41.046874 
L 346.326133 40.960382 
L 347.434564 40.87389 
L 347.434564 40.830644 
L 348.315317 40.744153 
L 348.315317 40.657661 
L 348.866537 40.571169 
L 348.87852 40.484678 
L 349.19607 40.398186 
L 349.19607 40.35494 
L 350.046866 40.268449 
L 350.046866 40.225203 
L 350.658 40.138711 
L 350.658 40.095465 
L 351.227194 40.008974 
L 351.263144 39.922482 
L 351.988117 39.83599 
L 352.095964 39.749499 
L 352.269718 39.663007 
L 352.269718 39.619761 
L 353.330217 39.53327 
L 353.330217 39.490024 
L 354.115106 39.403532 
L 354.115106 39.360286 
L 354.666325 39.273795 
L 354.666325 39.230549 
L 354.923961 39.144057 
L 354.923961 39.100811 
L 355.313409 39.01432 
L 355.325392 38.927828 
L 357.068924 38.841337 
L 357.068924 38.798091 
L 357.991618 38.711599 
L 357.991618 38.668353 
L 358.548829 38.581862 
L 358.548829 38.538616 
L 359.321734 38.452124 
L 359.38165 38.365632 
L 360.268394 38.279141 
L 360.268394 38.235895 
L 361.011342 38.149403 
L 361.011342 38.062912 
L 361.646443 37.97642 
L 361.646443 37.933174 
L 362.569137 37.846683 
L 362.665001 37.716945 
L 363.228204 37.630453 
L 363.228204 37.587208 
L 364.19883 37.500716 
L 364.19883 37.45747 
L 364.905829 37.370979 
L 364.905829 37.327733 
L 365.30726 37.241241 
L 365.30726 37.197995 
L 365.834514 37.111504 
L 365.942361 37.025012 
L 366.895012 36.93852 
L 366.930962 36.852029 
L 367.79374 36.765537 
L 367.79374 36.722291 
L 368.356943 36.6358 
L 368.440824 36.549308 
L 368.914154 36.462816 
L 368.914154 36.41957 
L 370.867388 36.333079 
L 370.867388 36.289833 
L 372.113624 36.203341 
L 372.113624 36.160095 
L 372.347293 36.11685 
L 372.431175 35.987112 
L 373.917071 35.900621 
L 373.917071 35.857375 
L 375.906255 35.770883 
L 375.906255 35.727637 
L 377.122533 35.641146 
L 377.122533 35.5979 
L 378.248938 35.511408 
L 378.260921 35.424916 
L 380.765375 35.338425 
L 380.765375 35.295179 
L 381.196764 35.208687 
L 381.196764 35.165442 
L 382.83844 35.07895 
L 382.83844 35.035704 
L 384.53404 34.949212 
L 384.641887 34.862721 
L 385.44475 34.776229 
L 385.44475 34.732983 
L 386.541198 34.646492 
L 386.541198 34.603246 
L 388.8 34.56 
L 388.8 34.56 
" style="fill:none;stroke:#ff8c00;stroke-linecap:square;stroke-width:0.5;"/>
   </g>
   <g id="line2d_14">
    <path clip-path="url(#p2dafa2ebe9)" d="M 54 252 
L 388.8 34.56 
" style="fill:none;stroke:#000080;stroke-dasharray:1.85,0.8;stroke-dashoffset:0;stroke-width:0.5;"/>
   </g>
   <g id="patch_3">
    <path d="M 54 252 
L 54 34.56 
" style="fill:none;stroke:#000000;stroke-linecap:square;stroke-linejoin:miter;stroke-width:0.8;"/>
   </g>
   <g id="patch_4">
    <path d="M 388.8 252 
L 388.8 34.56 
" style="fill:none;stroke:#000000;stroke-linecap:square;stroke-linejoin:miter;stroke-width:0.8;"/>
   </g>
   <g id="patch_5">
    <path d="M 54 252 
L 388.8 252 
" style="fill:none;stroke:#000000;stroke-linecap:square;stroke-linejoin:miter;stroke-width:0.8;"/>
   </g>
   <g id="patch_6">
    <path d="M 54 34.56 
L 388.8 34.56 
" style="fill:none;stroke:#000000;stroke-linecap:square;stroke-linejoin:miter;stroke-width:0.8;"/>
   </g>
   <g id="text_15">
    <!-- Receiver operating characteristic -->
    <defs>
     <path d="M 48.78125 52.59375 
L 48.78125 44.1875 
Q 44.96875 46.296875 41.140625 47.34375 
Q 37.3125 48.390625 33.40625 48.390625 
Q 24.65625 48.390625 19.8125 42.84375 
Q 14.984375 37.3125 14.984375 27.296875 
Q 14.984375 17.28125 19.8125 11.734375 
Q 24.65625 6.203125 33.40625 6.203125 
Q 37.3125 6.203125 41.140625 7.25 
Q 44.96875 8.296875 48.78125 10.40625 
L 48.78125 2.09375 
Q 45.015625 0.34375 40.984375 -0.53125 
Q 36.96875 -1.421875 32.421875 -1.421875 
Q 20.0625 -1.421875 12.78125 6.34375 
Q 5.515625 14.109375 5.515625 27.296875 
Q 5.515625 40.671875 12.859375 48.328125 
Q 20.21875 56 33.015625 56 
Q 37.15625 56 41.109375 55.140625 
Q 45.0625 54.296875 48.78125 52.59375 
z
" id="DejaVuSans-99"/>
     <path d="M 18.109375 8.203125 
L 18.109375 -20.796875 
L 9.078125 -20.796875 
L 9.078125 54.6875 
L 18.109375 54.6875 
L 18.109375 46.390625 
Q 20.953125 51.265625 25.265625 53.625 
Q 29.59375 56 35.59375 56 
Q 45.5625 56 51.78125 48.09375 
Q 58.015625 40.1875 58.015625 27.296875 
Q 58.015625 14.40625 51.78125 6.484375 
Q 45.5625 -1.421875 35.59375 -1.421875 
Q 29.59375 -1.421875 25.265625 0.953125 
Q 20.953125 3.328125 18.109375 8.203125 
z
M 48.6875 27.296875 
Q 48.6875 37.203125 44.609375 42.84375 
Q 40.53125 48.484375 33.40625 48.484375 
Q 26.265625 48.484375 22.1875 42.84375 
Q 18.109375 37.203125 18.109375 27.296875 
Q 18.109375 17.390625 22.1875 11.75 
Q 26.265625 6.109375 33.40625 6.109375 
Q 40.53125 6.109375 44.609375 11.75 
Q 48.6875 17.390625 48.6875 27.296875 
z
" id="DejaVuSans-112"/>
     <path d="M 54.890625 33.015625 
L 54.890625 0 
L 45.90625 0 
L 45.90625 32.71875 
Q 45.90625 40.484375 42.875 44.328125 
Q 39.84375 48.1875 33.796875 48.1875 
Q 26.515625 48.1875 22.3125 43.546875 
Q 18.109375 38.921875 18.109375 30.90625 
L 18.109375 0 
L 9.078125 0 
L 9.078125 54.6875 
L 18.109375 54.6875 
L 18.109375 46.1875 
Q 21.34375 51.125 25.703125 53.5625 
Q 30.078125 56 35.796875 56 
Q 45.21875 56 50.046875 50.171875 
Q 54.890625 44.34375 54.890625 33.015625 
z
" id="DejaVuSans-110"/>
     <path d="M 45.40625 27.984375 
Q 45.40625 37.75 41.375 43.109375 
Q 37.359375 48.484375 30.078125 48.484375 
Q 22.859375 48.484375 18.828125 43.109375 
Q 14.796875 37.75 14.796875 27.984375 
Q 14.796875 18.265625 18.828125 12.890625 
Q 22.859375 7.515625 30.078125 7.515625 
Q 37.359375 7.515625 41.375 12.890625 
Q 45.40625 18.265625 45.40625 27.984375 
z
M 54.390625 6.78125 
Q 54.390625 -7.171875 48.1875 -13.984375 
Q 42 -20.796875 29.203125 -20.796875 
Q 24.46875 -20.796875 20.265625 -20.09375 
Q 16.0625 -19.390625 12.109375 -17.921875 
L 12.109375 -9.1875 
Q 16.0625 -11.328125 19.921875 -12.34375 
Q 23.78125 -13.375 27.78125 -13.375 
Q 36.625 -13.375 41.015625 -8.765625 
Q 45.40625 -4.15625 45.40625 5.171875 
L 45.40625 9.625 
Q 42.625 4.78125 38.28125 2.390625 
Q 33.9375 0 27.875 0 
Q 17.828125 0 11.671875 7.65625 
Q 5.515625 15.328125 5.515625 27.984375 
Q 5.515625 40.671875 11.671875 48.328125 
Q 17.828125 56 27.875 56 
Q 33.9375 56 38.28125 53.609375 
Q 42.625 51.21875 45.40625 46.390625 
L 45.40625 54.6875 
L 54.390625 54.6875 
z
" id="DejaVuSans-103"/>
     <path d="M 54.890625 33.015625 
L 54.890625 0 
L 45.90625 0 
L 45.90625 32.71875 
Q 45.90625 40.484375 42.875 44.328125 
Q 39.84375 48.1875 33.796875 48.1875 
Q 26.515625 48.1875 22.3125 43.546875 
Q 18.109375 38.921875 18.109375 30.90625 
L 18.109375 0 
L 9.078125 0 
L 9.078125 75.984375 
L 18.109375 75.984375 
L 18.109375 46.1875 
Q 21.34375 51.125 25.703125 53.5625 
Q 30.078125 56 35.796875 56 
Q 45.21875 56 50.046875 50.171875 
Q 54.890625 44.34375 54.890625 33.015625 
z
" id="DejaVuSans-104"/>
    </defs>
    <g transform="translate(121.573125 28.56)scale(0.12 -0.12)">
     <use xlink:href="#DejaVuSans-82"/>
     <use x="69.419922" xlink:href="#DejaVuSans-101"/>
     <use x="130.943359" xlink:href="#DejaVuSans-99"/>
     <use x="185.923828" xlink:href="#DejaVuSans-101"/>
     <use x="247.447266" xlink:href="#DejaVuSans-105"/>
     <use x="275.230469" xlink:href="#DejaVuSans-118"/>
     <use x="334.410156" xlink:href="#DejaVuSans-101"/>
     <use x="395.933594" xlink:href="#DejaVuSans-114"/>
     <use x="437.046875" xlink:href="#DejaVuSans-32"/>
     <use x="468.833984" xlink:href="#DejaVuSans-111"/>
     <use x="530.015625" xlink:href="#DejaVuSans-112"/>
     <use x="593.492188" xlink:href="#DejaVuSans-101"/>
     <use x="655.015625" xlink:href="#DejaVuSans-114"/>
     <use x="696.128906" xlink:href="#DejaVuSans-97"/>
     <use x="757.408203" xlink:href="#DejaVuSans-116"/>
     <use x="796.617188" xlink:href="#DejaVuSans-105"/>
     <use x="824.400391" xlink:href="#DejaVuSans-110"/>
     <use x="887.779297" xlink:href="#DejaVuSans-103"/>
     <use x="951.255859" xlink:href="#DejaVuSans-32"/>
     <use x="983.042969" xlink:href="#DejaVuSans-99"/>
     <use x="1038.023438" xlink:href="#DejaVuSans-104"/>
     <use x="1101.402344" xlink:href="#DejaVuSans-97"/>
     <use x="1162.681641" xlink:href="#DejaVuSans-114"/>
     <use x="1203.794922" xlink:href="#DejaVuSans-97"/>
     <use x="1265.074219" xlink:href="#DejaVuSans-99"/>
     <use x="1320.054688" xlink:href="#DejaVuSans-116"/>
     <use x="1359.263672" xlink:href="#DejaVuSans-101"/>
     <use x="1420.787109" xlink:href="#DejaVuSans-114"/>
     <use x="1461.900391" xlink:href="#DejaVuSans-105"/>
     <use x="1489.683594" xlink:href="#DejaVuSans-115"/>
     <use x="1541.783203" xlink:href="#DejaVuSans-116"/>
     <use x="1580.992188" xlink:href="#DejaVuSans-105"/>
     <use x="1608.775391" xlink:href="#DejaVuSans-99"/>
    </g>
   </g>
   <g id="legend_1">
    <g id="patch_7">
     <path d="M 221.6375 247 
L 381.8 247 
Q 383.8 247 383.8 245 
L 383.8 231.321875 
Q 383.8 229.321875 381.8 229.321875 
L 221.6375 229.321875 
Q 219.6375 229.321875 219.6375 231.321875 
L 219.6375 245 
Q 219.6375 247 221.6375 247 
z
" style="fill:#ffffff;opacity:0.8;stroke:#cccccc;stroke-linejoin:miter;"/>
    </g>
    <g id="line2d_15">
     <path d="M 223.6375 237.420312 
L 243.6375 237.420312 
" style="fill:none;stroke:#ff8c00;stroke-linecap:square;stroke-width:0.5;"/>
    </g>
    <g id="line2d_16"/>
    <g id="text_16">
     <!-- ROC Curve (area =  0.72) -->
     <defs>
      <path d="M 39.40625 66.21875 
Q 28.65625 66.21875 22.328125 58.203125 
Q 16.015625 50.203125 16.015625 36.375 
Q 16.015625 22.609375 22.328125 14.59375 
Q 28.65625 6.59375 39.40625 6.59375 
Q 50.140625 6.59375 56.421875 14.59375 
Q 62.703125 22.609375 62.703125 36.375 
Q 62.703125 50.203125 56.421875 58.203125 
Q 50.140625 66.21875 39.40625 66.21875 
z
M 39.40625 74.21875 
Q 54.734375 74.21875 63.90625 63.9375 
Q 73.09375 53.65625 73.09375 36.375 
Q 73.09375 19.140625 63.90625 8.859375 
Q 54.734375 -1.421875 39.40625 -1.421875 
Q 24.03125 -1.421875 14.8125 8.828125 
Q 5.609375 19.09375 5.609375 36.375 
Q 5.609375 53.65625 14.8125 63.9375 
Q 24.03125 74.21875 39.40625 74.21875 
z
" id="DejaVuSans-79"/>
      <path d="M 64.40625 67.28125 
L 64.40625 56.890625 
Q 59.421875 61.53125 53.78125 63.8125 
Q 48.140625 66.109375 41.796875 66.109375 
Q 29.296875 66.109375 22.65625 58.46875 
Q 16.015625 50.828125 16.015625 36.375 
Q 16.015625 21.96875 22.65625 14.328125 
Q 29.296875 6.6875 41.796875 6.6875 
Q 48.140625 6.6875 53.78125 8.984375 
Q 59.421875 11.28125 64.40625 15.921875 
L 64.40625 5.609375 
Q 59.234375 2.09375 53.4375 0.328125 
Q 47.65625 -1.421875 41.21875 -1.421875 
Q 24.65625 -1.421875 15.125 8.703125 
Q 5.609375 18.84375 5.609375 36.375 
Q 5.609375 53.953125 15.125 64.078125 
Q 24.65625 74.21875 41.21875 74.21875 
Q 47.75 74.21875 53.53125 72.484375 
Q 59.328125 70.75 64.40625 67.28125 
z
" id="DejaVuSans-67"/>
      <path d="M 31 75.875 
Q 24.46875 64.65625 21.28125 53.65625 
Q 18.109375 42.671875 18.109375 31.390625 
Q 18.109375 20.125 21.3125 9.0625 
Q 24.515625 -2 31 -13.1875 
L 23.1875 -13.1875 
Q 15.875 -1.703125 12.234375 9.375 
Q 8.59375 20.453125 8.59375 31.390625 
Q 8.59375 42.28125 12.203125 53.3125 
Q 15.828125 64.359375 23.1875 75.875 
z
" id="DejaVuSans-40"/>
      <path d="M 10.59375 45.40625 
L 73.1875 45.40625 
L 73.1875 37.203125 
L 10.59375 37.203125 
z
M 10.59375 25.484375 
L 73.1875 25.484375 
L 73.1875 17.1875 
L 10.59375 17.1875 
z
" id="DejaVuSans-61"/>
      <path d="M 8.203125 72.90625 
L 55.078125 72.90625 
L 55.078125 68.703125 
L 28.609375 0 
L 18.3125 0 
L 43.21875 64.59375 
L 8.203125 64.59375 
z
" id="DejaVuSans-55"/>
      <path d="M 8.015625 75.875 
L 15.828125 75.875 
Q 23.140625 64.359375 26.78125 53.3125 
Q 30.421875 42.28125 30.421875 31.390625 
Q 30.421875 20.453125 26.78125 9.375 
Q 23.140625 -1.703125 15.828125 -13.1875 
L 8.015625 -13.1875 
Q 14.5 -2 17.703125 9.0625 
Q 20.90625 20.125 20.90625 31.390625 
Q 20.90625 42.671875 17.703125 53.65625 
Q 14.5 64.65625 8.015625 75.875 
z
" id="DejaVuSans-41"/>
     </defs>
     <g transform="translate(251.6375 240.920312)scale(0.1 -0.1)">
      <use xlink:href="#DejaVuSans-82"/>
      <use x="69.482422" xlink:href="#DejaVuSans-79"/>
      <use x="148.193359" xlink:href="#DejaVuSans-67"/>
      <use x="218.017578" xlink:href="#DejaVuSans-32"/>
      <use x="249.804688" xlink:href="#DejaVuSans-67"/>
      <use x="319.628906" xlink:href="#DejaVuSans-117"/>
      <use x="383.007812" xlink:href="#DejaVuSans-114"/>
      <use x="424.121094" xlink:href="#DejaVuSans-118"/>
      <use x="483.300781" xlink:href="#DejaVuSans-101"/>
      <use x="544.824219" xlink:href="#DejaVuSans-32"/>
      <use x="576.611328" xlink:href="#DejaVuSans-40"/>
      <use x="615.625" xlink:href="#DejaVuSans-97"/>
      <use x="676.904297" xlink:href="#DejaVuSans-114"/>
      <use x="717.986328" xlink:href="#DejaVuSans-101"/>
      <use x="779.509766" xlink:href="#DejaVuSans-97"/>
      <use x="840.789062" xlink:href="#DejaVuSans-32"/>
      <use x="872.576172" xlink:href="#DejaVuSans-61"/>
      <use x="956.365234" xlink:href="#DejaVuSans-32"/>
      <use x="988.152344" xlink:href="#DejaVuSans-32"/>
      <use x="1019.939453" xlink:href="#DejaVuSans-48"/>
      <use x="1083.5625" xlink:href="#DejaVuSans-46"/>
      <use x="1115.349609" xlink:href="#DejaVuSans-55"/>
      <use x="1178.972656" xlink:href="#DejaVuSans-50"/>
      <use x="1242.595703" xlink:href="#DejaVuSans-41"/>
     </g>
    </g>
   </g>
  </g>
 </g>
 <defs>
  <clipPath id="p2dafa2ebe9">
   <rect height="217.44" width="334.8" x="54" y="34.56"/>
  </clipPath>
 </defs>
</svg>
